<?xml version="1.0" encoding="utf-8"?>
<!-- Generator: Adobe Illustrator 16.0.4, SVG Export Plug-In . SVG Version: 6.00 Build 0)  -->
<!DOCTYPE svg PUBLIC "-//W3C//DTD SVG 1.1//EN" "http://www.w3.org/Graphics/SVG/1.1/DTD/svg11.dtd">
<svg version="1.1" id="Layer_1" xmlns="http://www.w3.org/2000/svg" xmlns:xlink="http://www.w3.org/1999/xlink" x="0px" y="0px"
	 width="482.431px" height="837.023px" viewBox="0 0 482.431 837.023" enable-background="new 0 0 482.431 837.023"
	 xml:space="preserve">
<path fill="#B76C5D" d="M271.544,180.503c0,0-1.443-6.52-10.21-11.89c-5.348-3.276-14.878-6.369-21.505-8.285
	c2.407-0.103,4.125-0.251,4.125-0.251l7.491-8.254c0,0-11.042,2.331-18.718,1.883c-7.676-0.447-14.501-3.428-21.6-2.479
	c-7.099,0.95-24.041-0.972-24.041-0.972s7.039,6.493,17.997,5.357c7.353-0.763,13.223,1.163,18.02,2.743l0,0L271.544,180.503z"/>
<path fill="#875F3E" d="M225.391,155.366c0,0,53.477,30.279,57.373,30.035c3.896-0.243,8.279-5.601,7.549-8.036
	s-38.855-25.543-38.855-25.543S230.843,153.091,225.391,155.366z"/>
<path fill="#553A26" d="M251.428,151.824c0,0-4.883,3.032-8.776,4.737c-3.894,1.705-6.305,4.949-6.305,4.949
	s-11.895-5.069-12.352-6.288c-0.457-1.218,12.571-1.827,14.885-2.192C241.194,152.665,251.428,151.824,251.428,151.824z"/>
<path fill="#B2B6BA" d="M278.838,184.03c0,0-3.205-6.407,0.267-9.504c3.47-3.097,7.85-1.044,11.289,1.785
	c3.436,2.829,4.627,4.06,2.679,6.008c-1.948,1.948-3.604,4.547-6.347,4.87C283.981,187.511,280.77,184.918,278.838,184.03z"/>
<linearGradient id="SVGID_1_" gradientUnits="userSpaceOnUse" x1="283.7456" y1="182.6152" x2="296.5171" y2="182.6152">
	<stop  offset="0.0424" style="stop-color:#E27A44"/>
	<stop  offset="1" style="stop-color:#FBC15B"/>
</linearGradient>
<path fill="url(#SVGID_1_)" d="M284.268,187.216c0,0-1.176-4.575,0-5.711c1.174-1.136,0.006-3.246,2.458-3.083
	c2.45,0.162,3.748-1.867,3.668-1.461c-0.082,0.405,3.614,0.487,3.614,0.487l2.148,2.65c0,0,0.812,2.543,0,3.031
	c-0.812,0.487-2.175,2.197-2.148,3.085c0.025,0.889-2.781,2.11-4.375,2.11C288.039,188.324,284.268,187.216,284.268,187.216z"/>
<path fill="#553A26" d="M280.668,170.159c0,0-4.24-1.706-6.962,3.732c-2.723,5.438-0.842,7.277-0.842,7.277l-2.206-1.071
	c0,0-1.38-2.96,1.381-7.992c2.759-5.032,6.67-3.232,6.67-3.232L280.668,170.159z"/>
<path fill="#553A26" d="M273.286,165.379c0,0-3.479-0.782-6.098,2.871c-2.617,3.653-2.695,6.858-2.107,8.908
	c0,0-1.503-0.792-2.245-1.187c0,0-2.609-3.998,1.127-9.061c3.736-5.063,6.352-3.417,6.352-3.417S272.862,165.109,273.286,165.379z"
	/>
<path fill="#553A26" d="M265.016,160.17c0,0-3.611-0.788-6.168,3.068c-2.557,3.855-3.014,7.986-2.4,9.314
	c0,0-1.575-0.85-2.416-1.307c0,0-2.002-4.334,1.042-8.961c3.044-4.627,6.481-4.264,6.481-4.264S264.244,159.213,265.016,160.17z"/>
<path fill="#553A26" d="M256.558,154.939c0,0-3.554-0.893-7.085,3.073c-3.531,3.966-3.353,6.98-3.192,8.997
	c0,0-2.419-1.332-3.62-1.996c0,0-0.396-5.053,4.195-9.122s6.213-3.089,6.213-3.089S255.547,153.865,256.558,154.939z"/>
<path fill="#A59AB5" d="M426.241,232.757c0,0-14.801-0.191-19.617,35.064c-4.813,35.255,10.931,44.244,19.617,45.918
	c8.687,1.674,20.642-8.442,20.642-8.442L426.241,232.757z"/>
<path fill="#A56151" d="M452.232,304.97c0,0-31.987,7.828-34.869-28.879c-0.995-12.673-1.142-23.675,3.494-35.12
	c4.637-11.445,8.013-24.417,5.958-31.567c-2.053-7.15,6.481-12.751,12.198-8.368c5.717,4.383,8.721,14.932,9.288,19.885
	c0.568,4.953,5.715,7.875,8.013,10.554c2.296,2.679,1.111,13.431,0,23.152c-1.113,9.721-0.367,20.974-1.844,30.479
	C452.995,294.611,452.232,304.97,452.232,304.97z"/>
<path fill="#E9A994" d="M470.3,262.947c0,0,7.304,6.866,7.304,13.143c0,6.277-3.652,9.442-3.652,9.442s4.626,3.896,3.652,10.471
	c-0.975,6.575-5.357,9.984-13.394,10.471c-8.035,0.487-25.568,2.979-28.246-4.477c-2.679-7.456,3.165-10.134,3.165-10.134
	s-8.279-3.896-1.704-11.688C444,272.383,470.3,262.947,470.3,262.947z"/>
<g>
	<path fill="#A56151" d="M451.672,283.104c0,0-1.235-3.897-3.265-4.514c-2.03-0.616-6.981,2.436-9.253,3.957
		c-2.273,1.52-2.885,2.57-0.67,5.297C440.695,290.572,451.672,283.104,451.672,283.104z"/>
	<linearGradient id="SVGID_2_" gradientUnits="userSpaceOnUse" x1="437.8696" y1="284.5649" x2="452.23" y2="284.5649">
		<stop  offset="0.0364" style="stop-color:#FBD1BC"/>
		<stop  offset="1" style="stop-color:#E9A994"/>
	</linearGradient>
	<path fill="url(#SVGID_2_)" d="M445.288,279.413c0,0-6.133,3.181-7.107,4.74c-0.974,1.558,0.468,4.907,2.587,5.834
		c2.12,0.927,8.327-1.399,10.743-2.769S449.861,276.763,445.288,279.413z"/>
	<path fill="#FDE4D9" d="M439.992,282.548l3.521,7.515c0,0-1.924,0.51-2.818,0.51c-0.892,0-2.24-2.685-2.824-4.012
		C437.287,285.232,437.821,283.935,439.992,282.548z"/>
</g>
<g>
	<path fill="#A56151" d="M453.224,299.701c0,0-0.46-4.062-2.332-5.056c-1.876-0.995-7.32,1.048-9.843,2.103
		c-2.522,1.055-3.323,1.968-1.678,5.07C441.019,304.919,453.224,299.701,453.224,299.701z"/>
	
		<linearGradient id="SVGID_3_" gradientUnits="userSpaceOnUse" x1="413.3843" y1="165.3857" x2="427.7446" y2="165.3857" gradientTransform="matrix(0.9813 0.1923 -0.1923 0.9813 65.5519 56.6952)">
		<stop  offset="0.0364" style="stop-color:#FBD1BC"/>
		<stop  offset="1" style="stop-color:#E9A994"/>
	</linearGradient>
	<path fill="url(#SVGID_3_)" d="M447.671,294.851c0,0-6.63,1.942-7.886,3.285c-1.255,1.342-0.483,4.905,1.418,6.223
		c1.9,1.317,8.438,0.229,11.073-0.651C454.91,302.828,452.669,293.13,447.671,294.851z"/>
	<path fill="#FDE4D9" d="M441.871,296.909l2.01,8.051c0,0-1.984,0.13-2.861-0.041c-0.875-0.172-1.686-3.065-2.002-4.481
		C438.702,299.022,439.474,297.853,441.871,296.909z"/>
</g>
<path fill="#A56151" d="M473.952,285.533c0,0-19.481,4.626-34.822,6.331c0,0-3.753,1.419-3.751,5.142c0,0,4.509-2.691,15.209-3.917
	c10.701-1.225,26.2-3.487,26.2-3.487S476.46,287.652,473.952,285.533z"/>
<g>
	
		<linearGradient id="SVGID_4_" gradientUnits="userSpaceOnUse" x1="-212.5151" y1="116.1113" x2="-151.5596" y2="116.1113" gradientTransform="matrix(-1.2134 0.0071 0.0058 1 216.9886 78.4131)">
		<stop  offset="0" style="stop-color:#A31916"/>
		<stop  offset="1" style="stop-color:#CD2625"/>
	</linearGradient>
	<path fill="url(#SVGID_4_)" d="M474.542,166.177c0,0-14.675,7.531-21.995,6.271c-7.316-1.262-7.115-0.937-17.786-0.713
		c-10.666,0.226-18.385-1.194-22.737-2.637c-4.354-1.438-8.905-1.379-8.905-1.379s-6.414,17.265,6.13,34.133
		c12.548,16.857,21.391,18.974,31.327,18.051C450.511,218.985,481.034,211.625,474.542,166.177z"/>
	<path fill="#FFFFFF" d="M430.966,221.263l13.701-0.08c58.377-19.013,22.159-86.11,22.159-86.11l-57.7,0.335
		C380.831,207.445,430.966,221.263,430.966,221.263z M403.8,182.501c-3.902-25.379,7.64-45.316,7.64-45.316l38.334-0.221
		c6.753,5.819,11.821,27.45,11.821,27.45l4.147-0.022c1.116-11.242-4.31-27.498-4.31-27.498l4.545-0.027
		c10.785,19.807,11.468,47.861,4.117,62.185c-7.356,14.323-25.576,19.691-33.479,19.572
		C428.712,218.506,407.702,207.879,403.8,182.501z"/>
	<path fill="#E94545" d="M419.632,175.247c0,0-2.068,7.123,0.11,18.562c2.174,11.441,9.59,18.506,9.59,18.506l-2.103,0.939
		c0,0-21.044-15-21.84-40.693C405.39,172.56,414.891,175.005,419.632,175.247z"/>
	<path fill="#601311" d="M410.46,172.528c2.578,1.125,6.881,2.49,13.844,1.712c6.967-0.776,9.672-1.687,14.492-0.084
		c4.825,1.599,14.976,2.056,14.976,2.056s-0.001,0-0.003,0.001c2.098,0.055,4.63-1.208,6.761-0.688
		c4.551,1.118,13.336-7.613,13.336-7.613c0.163,5.676-0.56,15.689-1.912,21.07c-1.349,5.381-3.662,4.144-4.023,9.358
		c-0.369,5.21-5.917,4.831-9.66,6.317c-3.744,1.488-0.373,3.911-3.923,5.072c-3.55,1.16-5.319,2.472-5.319,2.472l-12.251,0.072
		c0,0,0.262-0.068,0.717-0.195c1.731-0.473,6.257-1.708,9.54-2.635c4.144-1.162,0.187-2.278,0.776-2.607
		c0.59-0.331,7.888-3.141,8.253-7.865c0.371-4.727,0.544-8.634-1.461-13.671c-2.009-5.035-5.371-5.828-9.132-7.11
		c-3.763-1.279-3.363-1.916-5.095-2.662c-4.075-1.289-9.565-1.174-13.892-0.322c-5.13,1.009-5.715,2.312-11.855,0.07
		c-6.137-2.243-10.49-2.711-10.49-2.711S407.888,171.406,410.46,172.528z"/>
	<path fill="#601311" d="M435.091,185.284c0.007,0.945,0.943,1.71,2.088,1.702c1.149-0.006,2.078-0.777,2.074-1.725
		c-0.006-0.946-0.941-1.709-2.093-1.706C436.015,183.562,435.087,184.337,435.091,185.284z"/>
	
		<ellipse transform="matrix(-1 0.0062 -0.0062 -1 893.8934 389.8631)" fill="#601311" cx="446.347" cy="196.306" rx="1.111" ry="0.913"/>
	<path fill="#FFFFFF" d="M444.667,221.183c0,0-3.074,3.763-3.054,7.184c0.02,3.417,0.345,59.924,0.345,59.924l-1.188,0.008
		c0,0-0.524-57.48-0.354-61.067c0.179-3.582,1.944-5.708,1.944-5.708c-2.302,0.337-8.498-0.417-8.498-0.417
		c1.986,1.473,2.397,4.685,2.397,4.685l0.546,62.528l-2.157,0.013l-0.351-60.415c0,0-0.483-3.905-3.333-6.656
		C430.966,221.263,442.031,220.548,444.667,221.183z"/>
	<polygon fill="#FFFFFF" points="438.203,288.312 439.417,288.305 439.033,222.641 437.823,222.361 	"/>
	<path fill="#FFFFFF" d="M407.202,302.608c0,0,1.08,4.66,36.248,3.912c26.744-0.567,28.56-4.725,28.56-4.725
		c-0.008-1.193,0.121-0.977-1.724-1.941c-1.852-0.968-10.681-1.57-12.396-2.315c-1.72-0.751-15.931-10.003-15.931-10.003
		c-2.444-0.533-7.309,0.798-7.309,0.798c-4.067,2.85-10.093,8.748-11.674,9.408c-1.571,0.66-12.099,2.997-13.412,3.222
		C408.246,301.19,407.202,302.608,407.202,302.608z M410.097,302.266c0,0,10.796-1.371,12.499-2.789
		c1.7-1.419,9.961-8.306,11.669-9.513c1.705-1.203,6.449-1.718,7.503-1.021c0,0,13.089,8.718,13.749,8.933
		c0.66,0.214,11.604,1.994,12.533,2.857c0.922,0.861-3.8,3.28-9.198,3.964c-5.399,0.681-10.022-1.028-11.217-3.412
		c-1.2-2.377-6.772-8.968-6.772-8.968l-1.419,0.548c0,0,4.259,11.542,0.964,12.075c-3.289,0.534-15.274,0.496-22.393-0.44
		C410.894,303.563,410.097,302.266,410.097,302.266z"/>
</g>
<linearGradient id="SVGID_5_" gradientUnits="userSpaceOnUse" x1="428.1685" y1="261.3613" x2="482.4312" y2="261.3613">
	<stop  offset="0.0364" style="stop-color:#FBD1BC"/>
	<stop  offset="1" style="stop-color:#E9A994"/>
</linearGradient>
<path fill="url(#SVGID_5_)" d="M463.843,247.383c0,0,14.979-3.572,17.9,4.87s-3.895,15.241-12.337,17.686
	c-8.443,2.444-28.896,6.99-35.065,6.016s-10.063-12.337,0-18.506C444.405,251.279,463.843,247.383,463.843,247.383z"/>
<path fill="#A56151" d="M470.3,246.637c0,0-16.804,11.493-25.813,14.724s-10.958,6.133-11.445,8.578
	c-0.486,2.444,3.659,6.146,3.659,6.146s-8.805,2.61-9.886-6.146c-1.078-8.757-1.078-12.166,6.471-14.845
	S456.523,246.438,470.3,246.637z"/>
<linearGradient id="SVGID_6_" gradientUnits="userSpaceOnUse" x1="426.8169" y1="242.4521" x2="479.1157" y2="242.4521">
	<stop  offset="0.0364" style="stop-color:#FBD1BC"/>
	<stop  offset="1" style="stop-color:#E9A994"/>
</linearGradient>
<path fill="url(#SVGID_6_)" d="M438.886,239.916c0,0,14.612-15.621,26.624-17.713s16.233,9.746,12.012,15.678
	c-4.22,5.932-29.544,22.49-40.909,24.763C425.25,264.916,421.124,254.182,438.886,239.916z"/>
<g>
	<path fill="#A56151" d="M445.398,253.384c0,0-1.234-4.621-3.265-5.351c-2.029-0.73-6.981,2.889-9.253,4.691
		c-2.273,1.803-2.884,3.048-0.67,6.281C434.421,262.238,445.398,253.384,445.398,253.384z"/>
	<linearGradient id="SVGID_7_" gradientUnits="userSpaceOnUse" x1="431.5952" y1="255.1152" x2="445.9565" y2="255.1152">
		<stop  offset="0.0364" style="stop-color:#FBD1BC"/>
		<stop  offset="1" style="stop-color:#E9A994"/>
	</linearGradient>
	<path fill="url(#SVGID_7_)" d="M439.013,249.006c0,0-6.133,3.772-7.107,5.62c-0.974,1.848,0.469,5.817,2.588,6.917
		s8.326-1.66,10.742-3.284C447.653,256.636,443.587,245.866,439.013,249.006z"/>
	<path fill="#FDE4D9" d="M433.717,252.724l3.521,8.909c0,0-1.924,0.605-2.817,0.605c-0.893,0-2.241-3.183-2.825-4.757
		S431.546,254.369,433.717,252.724z"/>
</g>
<g>
	<path fill="#A56151" d="M449.945,267.82c0,0-1.232-3.897-3.263-4.513c-2.03-0.617-6.981,2.436-9.255,3.957
		c-2.271,1.52-2.881,2.57-0.67,5.297C438.972,275.288,449.945,267.82,449.945,267.82z"/>
	<linearGradient id="SVGID_8_" gradientUnits="userSpaceOnUse" x1="436.144" y1="269.2812" x2="450.5044" y2="269.2812">
		<stop  offset="0.0364" style="stop-color:#FBD1BC"/>
		<stop  offset="1" style="stop-color:#E9A994"/>
	</linearGradient>
	<path fill="url(#SVGID_8_)" d="M443.562,264.129c0,0-6.133,3.181-7.107,4.74c-0.974,1.558,0.47,4.906,2.59,5.833
		c2.119,0.928,8.324-1.399,10.74-2.769C452.201,270.563,448.135,261.479,443.562,264.129z"/>
	<path fill="#FDE4D9" d="M438.268,267.264l3.52,7.514c0,0-1.924,0.51-2.815,0.51c-0.895,0-2.245-2.684-2.827-4.012
		C435.563,269.948,436.095,268.651,438.268,267.264z"/>
</g>
</svg>
