<?xml version="1.0" encoding="utf-8"?>
<!-- Generator: Adobe Illustrator 16.0.4, SVG Export Plug-In . SVG Version: 6.00 Build 0)  -->
<!DOCTYPE svg PUBLIC "-//W3C//DTD SVG 1.1//EN" "http://www.w3.org/Graphics/SVG/1.1/DTD/svg11.dtd">
<svg version="1.1" id="Layer_1" xmlns="http://www.w3.org/2000/svg" xmlns:xlink="http://www.w3.org/1999/xlink" x="0px" y="0px"
	 width="333.038px" height="841.89px" viewBox="0 0 333.038 841.89" enable-background="new 0 0 333.038 841.89"
	 xml:space="preserve">
<path fill="#6E1D2C" d="M130.555,270.571c0,0-13.907,44.322-51.204,56.585C42.054,339.418,7.4,364.476,2.335,385.27
	c-5.064,20.792,5.963,27.271,24.137,24.475c18.175-2.793,30.273-6.537,33.861-16.572c3.588-10.037,14.175-16.618,33.135-25.322
	c18.959-8.707,50.255-25.845,52.923-50.291C149.061,293.115,130.555,270.571,130.555,270.571z"/>
<g>
	<linearGradient id="SVGID_1_" gradientUnits="userSpaceOnUse" x1="52.9375" y1="409.7451" x2="79.3516" y2="409.7451">
		<stop  offset="0.0485" style="stop-color:#D29476"/>
		<stop  offset="1" style="stop-color:#FEE2C5"/>
	</linearGradient>
	<path fill="url(#SVGID_1_)" d="M60.334,393.172c0,0,10.866,7.202,11.933,12.356c1.065,5.153,1.959,12.086,3.378,14.57
		c1.417,2.485,5.963,1.669,2.329,4.164c-3.637,2.495-11.779,3.478-12.475-1.497c-0.696-4.976-3.168-11.149-7.085-12.238
		c-3.918-1.09-6.052-2.799-5.34-8.609C53.786,396.109,60.334,393.172,60.334,393.172z"/>
	<path fill="#FFFFFF" d="M71.502,422.122c0,0,8.48,0.132,13.429,9.846c4.945,9.718,29.175,44.517,29.175,44.517
		s3.152,18.194,0,26.154c-3.156,7.96-17.563,25.246-17.563,25.246s-31.032-93.479-31.861-98.708
		C63.856,423.943,68.825,420.448,71.502,422.122z"/>
	<path fill="#9AA7A6" d="M95.349,524.288c0,0,1.39-4.364,0-20.966c-1.386-16.605-21.158-72.329-21.158-72.329
		s16.038,33.01,21.775,43.798c5.736,10.789,11.975,4.422,5.736-7.633c-6.234-12.056-18.746-32.856-21.505-36.165
		c-5.977-7.162-15.608-5.271-15.608-5.271l-2.099-4.024c0,0,15.665-2.984,22.44,6.451c4.681,6.521,33.978,50.605,33.978,50.605
		s1.448,14.405-1.642,21.533c-3.09,7.129-20.724,27.597-20.724,27.597L95.349,524.288z"/>
</g>
<g>
	<path fill="#DDD6E4" d="M78.853,808.521c0,0-1.381,4.664-0.937,9.55c0.444,4.886,7.443,9.771,14.628,10.215
		c7.185,0.444,40.496,0.444,47.603,0c7.106-0.443,15.545-12.88,23.984-18.21c8.44-5.33,20.876-13.769,26.206-19.099
		s3.119-15.989,3.119-15.989L78.853,808.521z"/>
	<linearGradient id="SVGID_2_" gradientUnits="userSpaceOnUse" x1="154.5024" y1="781.9062" x2="106.8307" y2="787.6802">
		<stop  offset="0.0182" style="stop-color:#1E2122"/>
		<stop  offset="1" style="stop-color:#4C4552"/>
	</linearGradient>
	<path fill="url(#SVGID_2_)" d="M134.629,745.674c0,0-26.906,33.405-33.124,38.244s-20.875,1.729-23.096,17.275
		c-2.221,15.545,2.998,20.875,17.044,21.764c14.046,0.888,38.919,2.664,46.026-2.665c7.106-5.33,16.434-13.325,29.314-21.764
		s22.677-13.325,22.662-26.205c-0.01-12.881-4.451-26.649-4.451-26.649H134.629z"/>
	<path fill="#090B0B" d="M126.121,756.096c0,0,12.248,12.178,29.349,9.095c17.101-3.083,22.729-2.937,25.54,6.539
		c2.814,9.477,0.562,19.71,0.562,19.71s10.118-5.797,11.884-11.494c1.767-5.698-1.196-28.496-3.269-31.31
		c-2.071-2.814-61.143,2.221-61.143,2.221L126.121,756.096z"/>
	<path fill="#090B0B" d="M126.916,789.684c0,0,11.905-11.288,18.783-19.359c6.877-8.07,9.771-13.547,9.771-13.547h-15.435
		c0,0-21.247,20.852-30.666,29.414C109.37,786.191,122.077,788.564,126.916,789.684z"/>
	<g>
		<polygon fill="#9CA6A9" points="113.369,782.49 129.528,787.168 132.418,784.331 115.858,780.145 		"/>
		<path fill="#BCC5C9" d="M112.017,781.208l22.646,0.883l2.939-2.987c0,0-18.035-1.154-22.18-1.301
			C111.278,777.654,110.237,781.139,112.017,781.208z"/>
		<linearGradient id="SVGID_3_" gradientUnits="userSpaceOnUse" x1="121.686" y1="780.3105" x2="134.8584" y2="780.3105">
			<stop  offset="0.0182" style="stop-color:#DDD6E4"/>
			<stop  offset="1" style="stop-color:#FFFFFF"/>
		</linearGradient>
		<path fill="url(#SVGID_3_)" d="M131.56,788.165l-9.874-13.577l2.707-2.604c0,0,9.239,11.887,10.276,14.404
			S132.167,789,131.56,788.165z"/>
		<path fill="#BCC5C9" d="M120.045,773.088l22.589,0.694l3.064-3.458c0,0-18.103-0.494-22.248-0.642
			S118.265,773.019,120.045,773.088z"/>
		<linearGradient id="SVGID_4_" gradientUnits="userSpaceOnUse" x1="129.7139" y1="772.2578" x2="142.8862" y2="772.2578">
			<stop  offset="0.0182" style="stop-color:#DDD6E4"/>
			<stop  offset="1" style="stop-color:#FFFFFF"/>
		</linearGradient>
		<path fill="url(#SVGID_4_)" d="M139.587,780.046l-9.874-13.205l2.925-2.842c0,0,9.02,11.753,10.058,14.27
			C143.734,780.786,140.195,780.88,139.587,780.046z"/>
		<linearGradient id="SVGID_5_" gradientUnits="userSpaceOnUse" x1="127.7817" y1="763.5566" x2="151.3022" y2="763.5566">
			<stop  offset="0.0182" style="stop-color:#DDD6E4"/>
			<stop  offset="1" style="stop-color:#FFFFFF"/>
		</linearGradient>
		<path fill="url(#SVGID_5_)" d="M128.272,764.625l21.561,0.565c0,0,0.836-1.098,1.47-1.986c0,0-19.225-1.54-21.224-1.244
			C128.08,762.257,127.132,764.254,128.272,764.625z"/>
		<linearGradient id="SVGID_6_" gradientUnits="userSpaceOnUse" x1="135.6875" y1="766.7773" x2="147.8955" y2="766.7773">
			<stop  offset="0.0182" style="stop-color:#DDD6E4"/>
			<stop  offset="1" style="stop-color:#FFFFFF"/>
		</linearGradient>
		<path fill="url(#SVGID_6_)" d="M145.698,774.396l-10.011-13.429l1.916-1.81c0,0,9.797,12.129,10.241,13.684
			C148.289,774.396,145.698,774.396,145.698,774.396z"/>
	</g>
	<linearGradient id="SVGID_7_" gradientUnits="userSpaceOnUse" x1="119.23" y1="811.207" x2="93.025" y2="801.2136">
		<stop  offset="0.0182" style="stop-color:#DDD6E4"/>
		<stop  offset="1" style="stop-color:#FFFFFF"/>
	</linearGradient>
	<path fill="url(#SVGID_7_)" d="M100.086,784.822c0,0,31.177,3.935,39.616,9.486s9.333,20.115,9.333,20.115
		s-8.222,8.755-16.883,10.531c-8.661,1.777-40.196,1.579-45.304-0.987c-5.107-2.565-8.491-5.452-9.02-15.002
		c-0.529-9.549,0.401-18.1,7.466-20.431C92.358,786.203,100.086,784.822,100.086,784.822z"/>
</g>
<g>
	<path fill="#DDD6E4" d="M156.618,815.628c0,0-1.381,4.664-0.937,9.55c0.444,4.886,7.443,9.771,14.627,10.215
		c7.187,0.444,40.498,0.444,47.604,0c7.106-0.443,15.545-12.88,23.983-18.21c8.439-5.33,20.876-13.769,26.205-19.099
		c5.33-5.33,3.12-15.989,3.12-15.989L156.618,815.628z"/>
	<linearGradient id="SVGID_8_" gradientUnits="userSpaceOnUse" x1="232.2671" y1="789.0146" x2="184.5951" y2="794.7886">
		<stop  offset="0.0182" style="stop-color:#1E2122"/>
		<stop  offset="1" style="stop-color:#4C4552"/>
	</linearGradient>
	<path fill="url(#SVGID_8_)" d="M212.395,752.78c0,0-26.906,33.405-33.124,38.244c-6.219,4.839-20.876,1.729-23.097,17.275
		c-2.221,15.545,2.998,20.875,17.045,21.764c14.046,0.888,38.919,2.665,46.025-2.665s16.434-13.325,29.314-21.764
		c12.88-8.439,22.676-13.324,22.662-26.205c-0.011-12.881-4.452-26.649-4.452-26.649H212.395z"/>
	<path fill="#090B0B" d="M203.886,763.202c0,0,12.246,12.178,29.35,9.095c17.1-3.083,22.728-2.938,25.538,6.539
		c2.814,9.477,0.562,19.71,0.562,19.71s10.118-5.797,11.885-11.494c1.766-5.698-1.197-28.495-3.269-31.31
		c-2.072-2.814-59.523-0.163-59.523-0.163L203.886,763.202z"/>
	<path fill="#090B0B" d="M204.681,796.79c0,0,11.905-11.288,18.783-19.359c6.877-8.071,9.771-13.546,9.771-13.546h-15.435
		c0,0-21.247,20.851-30.668,29.412C187.133,793.297,199.976,795.698,204.681,796.79z"/>
	<g>
		<polygon fill="#9CA6A9" points="191.134,789.597 207.294,794.274 210.185,791.438 193.623,787.251 		"/>
		<path fill="#BCC5C9" d="M189.782,788.314l22.647,0.883l2.939-2.987c0,0-18.037-1.153-22.18-1.302
			C189.042,784.762,188.001,788.245,189.782,788.314z"/>
		<linearGradient id="SVGID_9_" gradientUnits="userSpaceOnUse" x1="199.4517" y1="787.418" x2="212.6226" y2="787.418">
			<stop  offset="0.0182" style="stop-color:#DDD6E4"/>
			<stop  offset="1" style="stop-color:#FFFFFF"/>
		</linearGradient>
		<path fill="url(#SVGID_9_)" d="M209.324,795.271l-9.872-13.578l2.707-2.602c0,0,9.237,11.886,10.274,14.403
			S209.931,796.106,209.324,795.271z"/>
		<path fill="#BCC5C9" d="M197.811,780.195l22.589,0.693l3.064-3.458c0,0-18.103-0.494-22.25-0.642
			C197.072,776.642,196.031,780.125,197.811,780.195z"/>
		<linearGradient id="SVGID_10_" gradientUnits="userSpaceOnUse" x1="207.478" y1="779.3643" x2="220.6519" y2="779.3643">
			<stop  offset="0.0182" style="stop-color:#DDD6E4"/>
			<stop  offset="1" style="stop-color:#FFFFFF"/>
		</linearGradient>
		<path fill="url(#SVGID_10_)" d="M217.353,787.152l-9.875-13.205l2.925-2.842c0,0,9.022,11.753,10.06,14.27
			C221.5,787.893,217.96,787.986,217.353,787.152z"/>
		<linearGradient id="SVGID_11_" gradientUnits="userSpaceOnUse" x1="205.5464" y1="770.6621" x2="229.0679" y2="770.6621">
			<stop  offset="0.0182" style="stop-color:#DDD6E4"/>
			<stop  offset="1" style="stop-color:#FFFFFF"/>
		</linearGradient>
		<path fill="url(#SVGID_11_)" d="M206.038,771.731l21.56,0.565c0,0,0.836-1.098,1.471-1.986c0,0-19.227-1.541-21.226-1.244
			S204.896,771.36,206.038,771.731z"/>
		<linearGradient id="SVGID_12_" gradientUnits="userSpaceOnUse" x1="213.4536" y1="773.8838" x2="225.6597" y2="773.8838">
			<stop  offset="0.0182" style="stop-color:#DDD6E4"/>
			<stop  offset="1" style="stop-color:#FFFFFF"/>
		</linearGradient>
		<path fill="url(#SVGID_12_)" d="M223.464,781.503l-10.011-13.429l1.915-1.81c0,0,9.796,12.129,10.24,13.684
			C226.052,781.503,223.464,781.503,223.464,781.503z"/>
	</g>
	<linearGradient id="SVGID_13_" gradientUnits="userSpaceOnUse" x1="196.9946" y1="818.3125" x2="170.79" y2="808.3192">
		<stop  offset="0.0182" style="stop-color:#DDD6E4"/>
		<stop  offset="1" style="stop-color:#FFFFFF"/>
	</linearGradient>
	<path fill="url(#SVGID_13_)" d="M177.852,791.929c0,0,31.177,3.935,39.616,9.486c8.438,5.552,9.33,20.115,9.33,20.115
		s-8.22,8.755-16.881,10.531c-8.661,1.777-40.196,1.579-45.305-0.987c-5.107-2.565-8.491-5.453-9.02-15.002s0.401-18.1,7.465-20.431
		C170.125,793.31,177.852,791.929,177.852,791.929z"/>
</g>
<linearGradient id="SVGID_14_" gradientUnits="userSpaceOnUse" x1="83.3452" y1="350.9766" x2="40.7065" y2="316.6284">
	<stop  offset="0" style="stop-color:#9B2D3D"/>
	<stop  offset="1" style="stop-color:#E36477"/>
</linearGradient>
<path fill="url(#SVGID_14_)" d="M132.341,277.93c0,0-9.246,33.409-34.127,46.561c-24.881,13.151-43.008,15.976-43.008,15.976
	s19.549-1.796,30.213,0c0,0-12.417,3.218-24.869,13.169c-12.45,9.952-15.157,21.578-15.157,21.578s-12.653-8.704-26.129-3.489
	C5.787,376.94,1.423,396.226,2.846,403.206c0,0-7.707-12.606,2.245-29.667c9.954-17.06,35.895-34.475,57.4-42.295
	c21.505-7.819,51.135-29.855,56.756-39.453c5.623-9.596,9.621-21.22,9.621-21.22L132.341,277.93z"/>
<path fill="#8E5C4D" d="M9.341,376.015c0,0,3.416-7.724,17.131-8.165c13.716-0.442,27.752,13.567,26.465,19.091
	c-1.288,5.524-13.153,6.057-21.082,3.658C23.927,388.202,9.341,376.015,9.341,376.015z"/>
<path fill="#2A4451" d="M275.652,678.852c-5.771-7.819-1.596-87.435,1.295-119.424c2.891-31.987,25.636-81.748,14.261-92.411
	c-8.394-7.87-71.782,5.849-104.407,13.572c-0.593-0.673-1.249-1.263-1.998-1.716c-13.728-8.302-73.76-18.965-73.76-18.965
	s-17.325,63.268-18.453,72.508c-1.129,9.24,19.046,48.337,25.664,79.614c6.616,31.278,2.176,77.482,8.661,85.302
	c6.485,7.821-0.8,21.328,0,24.172c0.8,2.842-13.286,19.9-7.667,22.746c5.622,2.845,7.242,20.613,30.246,17.06
	c23.005-3.554,44.664-12.082,43.786-14.215c-0.878-2.134,0.545-39.807-3.012-59.712c-3.553-19.906-3.82-25.593-5.465-39.098
	c-1.642-13.507-11.771-16.35-10.261-28.435c1.509-12.085,10.261-85.302,10.261-85.302s0.409-1.416,1.01-3.764
	c3.119,9.938,5.985,20.882,7.949,32.196c7.169,41.231,10.008,62.556,16.052,81.75c6.045,19.192,1.773,49.759,0,64.687
	c-1.772,14.928-3.202,22.038,0,27.014c3.203,4.975-2.491,11.373,0,15.638c2.492,4.267,10.31,10.177,30.213,9.709
	c19.907-0.469,36.966-10.419,35.543-13.974c-1.419-3.555-4.261-14.93-2.842-20.615c1.423-5.686,5.688-16.351-0.712-23.459
	C265.617,696.623,281.426,686.673,275.652,678.852z"/>
<path fill="#0C0E11" d="M98.3,78.82c0,0,3.85-29.864,3.999-42.759c0.179-15.461,10.129-18.127,38.919-17.594
	c28.791,0.534,27.191,3.911,48.518-5.864c21.323-9.775,38.919-1.6,43.715,6.398c4.799,7.997,19.019,42.118,19.019,42.118L98.3,78.82
	z"/>
<linearGradient id="SVGID_15_" gradientUnits="userSpaceOnUse" x1="210.9087" y1="589.5205" x2="251.1985" y2="586.0555">
	<stop  offset="0" style="stop-color:#58869A"/>
	<stop  offset="1" style="stop-color:#2A4451"/>
</linearGradient>
<path fill="url(#SVGID_15_)" d="M193.761,497.288c0,0-9.164,28.57-6.479,38.325c2.683,9.758,12.229,69.311,15.07,87.792
	c2.842,18.48,8.009,33.19,10.402,39.875c2.395,6.687,7.725,19.124,7.725,19.124s26.94-15.639,29.82-33.055
	c2.877-17.414,1.101-16.706,2.877-52.247c1.776-35.54,7.821-105.399,7.821-105.399s-23.814,4.58-39.808,5.585
	C205.195,498.295,193.761,497.288,193.761,497.288z"/>
<linearGradient id="SVGID_16_" gradientUnits="userSpaceOnUse" x1="276.6069" y1="588.1953" x2="216.8953" y2="807.316">
	<stop  offset="0" style="stop-color:#0F121C"/>
	<stop  offset="1" style="stop-color:#2A4451"/>
</linearGradient>
<path fill="url(#SVGID_16_)" d="M260.999,482.699c0,0,7.641,32.655,6.575,47.583c-1.068,14.93-5.152,63.978-6.575,92.768
	s-1.423,57.046-7.821,65.576c-6.396,8.529-32.521,13.861-32.521,13.861s7.03,1.6,23.509,0c16.476-1.6,24.363,15.994,12.953,20.259
	c-11.405,4.267-27.933,1.067-36.462,3.732c-8.529,2.666-8.529,2.666-8.529,2.666s7.464,11.196,23.991,9.063
	c16.527-2.132,21.435,7.997,14.182,11.196c-7.252,3.199-40.758-2.761-40.758-2.761s-4.879,6.492-2.748,9.157
	c2.134,2.667,19.335,11.346,36.688,6.74c17.354-4.604,32.681-7.272,34.249-15.804c1.571-8.529-2.104-18.127,0-24.523
	c2.106-6.397-5.102-18.66-3.897-23.459c1.204-4.797,8.134-8.709,7.068-16.351c-1.064-7.641-4.739-25.768-3.171-42.295
	c1.571-16.527,1.609-99.164,5.59-112.225c3.979-13.062,7.748-31.648,0-49.012C275.569,461.508,260.999,482.699,260.999,482.699z"/>
<path fill="#988575" d="M227.593,13.251c0,0-16.604,8.675-17.714,11.118s14.435,26.205,15.545,28.87s25.983-1.333,25.983-1.333
	s-13.543-27.184-16.125-32.375S227.593,13.251,227.593,13.251z"/>
<path fill="#0F121C" d="M185.812,530.785c0,0-7.627-13.652-14.38-23.248c-6.755-9.597-9.243-28.664-9.243-28.664
	s-6.398,15.513,0,38.971c6.397,23.459-6.039,92.057-1.421,113.025c4.618,20.971-15.204,31.278-25.018,33.055
	c0,0-0.573,7.817,15.064,6.043c15.638-1.776,29.147,18.482,29.147,29.144c0,10.663-38.745,19.552-35.899,23.105
	c2.844,3.553,20.971,3.555,27.37,4.266c6.396,0.71,2.862,18.126-10.653,23.102c-13.519,4.976-33.863,4.504-33.863,4.504
	s3.718,11.411,29.448,7.719c25.732-3.692,39.945-15.777,39.945-15.777s-3.907-77.484-7.817-90.634
	c-3.911-13.149-9.241-23.526-11.018-34.688C175.697,609.545,185.812,530.785,185.812,530.785z"/>
<linearGradient id="SVGID_17_" gradientUnits="userSpaceOnUse" x1="150.4165" y1="352.1826" x2="66.0271" y2="357.9566">
	<stop  offset="0" style="stop-color:#9B2D3D"/>
	<stop  offset="1" style="stop-color:#E36477"/>
</linearGradient>
<path fill="url(#SVGID_17_)" d="M146.392,255.887c0,0-35.817,76.542-46.881,132.226c-11.065,55.682-3.544,86.678-3.544,86.678
	s113.846,41.986,198.086-6.352c0,0-6.645-206.899-25.591-241.021C249.516,193.298,170.811,192.321,146.392,255.887z"/>
<linearGradient id="SVGID_18_" gradientUnits="userSpaceOnUse" x1="183.9019" y1="330.209" x2="156.6591" y2="338.5005">
	<stop  offset="0" style="stop-color:#6E1D2C"/>
	<stop  offset="1" style="stop-color:#9B2D3D"/>
</linearGradient>
<path fill="url(#SVGID_18_)" d="M130.823,337.642c0,0,33.145-7.817,43.809-11.55c10.66-3.734,43.624-17.595,43.624-17.595
	s-11.992,25.198-31.184,31.97C167.879,347.239,130.732,341.197,130.823,337.642z"/>
<path fill="#6E1D2C" d="M184.802,273.682c0,0,5.999,10.646,5.465,22.73c-0.531,12.084,1.943,89.388,9.24,88.855
	c7.301-0.532,18.475-19.23,18.745-44.801c0.271-25.573-24.491-73.555-24.491-73.555L184.802,273.682z"/>
<path fill="#491722" d="M282.193,299.749c0,0-24.217-14.321-35.411-29.178c-11.197-14.856-14.396-20.188-14.396-20.188
	s3.668,28.881,14.751,46.028c11.083,17.147,8.932,30.211,10.153,68.596c1.221,38.386,5.26,62.895,2.974,74.632
	c-2.287,11.738-78.224,16.535-78.224,16.535s14.269,11.458,48.746,13.863c34.849,2.431,20.837,15.276,20.837,15.276
	s24.938-5.095,38.038-14.451c13.099-9.356,16.832-32.269,14.698-67.462C302.228,368.208,282.193,299.749,282.193,299.749z"/>
<path fill="#9B95A5" d="M146.392,265.845c0,0,17.481,14.785,55.468,4.726c37.989-10.058,63.001-54.054,57.691-72.841
	c-5.306-18.787-10.104-28.35-20.768-27.034C228.121,172.013,146.392,265.845,146.392,265.845z"/>
<linearGradient id="SVGID_19_" gradientUnits="userSpaceOnUse" x1="146.9692" y1="42.1006" x2="125.999" y2="9.7549">
	<stop  offset="0.0485" style="stop-color:#252B39"/>
	<stop  offset="1" style="stop-color:#6AADC1"/>
</linearGradient>
<path fill="url(#SVGID_19_)" d="M168.82,19.359l36.431,4.796c0,0-21.469,4.621-44.172,4.265c-22.702-0.355-37.01-3.199-43.718,9.241
	c-6.708,12.44-8.13,36.254-8.13,36.254H97.678c0,0,2.667-34.12,3.378-42.295c0.713-8.175,7.11-13.506,23.104-14.928
	C140.155,15.269,168.82,19.359,168.82,19.359z"/>
<linearGradient id="SVGID_20_" gradientUnits="userSpaceOnUse" x1="193.2778" y1="299.751" x2="243.2261" y2="299.751">
	<stop  offset="0.0182" style="stop-color:#CCCAC8"/>
	<stop  offset="1" style="stop-color:#FFFFFF"/>
</linearGradient>
<path fill="url(#SVGID_20_)" d="M193.466,238.122c0,0,0.534,90.633,0,114.625c-0.534,23.991,0.239,29.855,0.239,29.855
	s-0.42,2.667,5.802,2.667s39.811-4.267,40.342-5.866c0.534-1.6,3.199-1.6,3.199-11.195c0-9.596,1.6-130.105-4.799-148.755
	C231.854,200.802,193.466,238.122,193.466,238.122z"/>
<linearGradient id="SVGID_21_" gradientUnits="userSpaceOnUse" x1="60.2139" y1="78.8193" x2="300.6782" y2="78.8193">
	<stop  offset="0.0485" style="stop-color:#252B39"/>
	<stop  offset="1" style="stop-color:#6AADC1"/>
</linearGradient>
<path fill="url(#SVGID_21_)" d="M60.891,91.686c0,0-2.132-15.993,73.931-31.277c76.061-15.284,158.166-18.837,164.562-3.199
	c6.398,15.638-9.24,27.723-84.948,38.741C138.73,106.969,51.649,124.386,60.891,91.686z"/>
<linearGradient id="SVGID_22_" gradientUnits="userSpaceOnUse" x1="60.2139" y1="82.0474" x2="300.6782" y2="82.0474">
	<stop  offset="0.0485" style="stop-color:#252B39"/>
	<stop  offset="1" style="stop-color:#08090A"/>
</linearGradient>
<path fill="url(#SVGID_22_)" d="M60.891,94.914c0,0-2.132-15.993,73.931-31.277c76.061-15.284,158.166-18.837,164.562-3.199
	c6.398,15.638-9.24,27.723-84.948,38.741C138.73,110.197,51.649,127.614,60.891,94.914z"/>
<g>
	<defs>
		<path id="SVGID_23_" d="M193.466,238.122c0,0,0.534,90.633,0,114.625c-0.534,23.991,0.239,29.854,0.239,29.854
			s-0.42,2.667,5.802,2.667s39.811-4.265,40.342-5.864c0.534-1.6,3.199-1.6,3.199-11.195c0-9.596,1.6-130.105-4.799-148.755
			C231.854,200.802,193.466,238.122,193.466,238.122z"/>
	</defs>
	<clipPath id="SVGID_24_">
		<use xlink:href="#SVGID_23_"  overflow="visible"/>
	</clipPath>
	<g clip-path="url(#SVGID_24_)">
		<linearGradient id="SVGID_25_" gradientUnits="userSpaceOnUse" x1="231.6304" y1="262.6045" x2="201.4186" y2="268.647">
			<stop  offset="0.0485" style="stop-color:#252B39"/>
			<stop  offset="1" style="stop-color:#08090A"/>
		</linearGradient>
		<path fill="url(#SVGID_25_)" d="M190.267,258.736c0,0,4.618,1.777,9.24,1.777s43.718-10.308,43.718-10.308v22.037
			c0,0-45.126,9.952-49.575,8.53C189.202,279.352,190.267,258.736,190.267,258.736z"/>
		<linearGradient id="SVGID_26_" gradientUnits="userSpaceOnUse" x1="233.8149" y1="303.5176" x2="200.3361" y2="310.2136">
			<stop  offset="0.0485" style="stop-color:#252B39"/>
			<stop  offset="1" style="stop-color:#08090A"/>
		</linearGradient>
		<path fill="url(#SVGID_26_)" d="M187.98,300.676c0,0,4.619,1.778,9.241,1.778s49.915-10.309,49.915-10.309v20.261
			c0,0-51.324,11.728-55.772,10.307C186.916,321.292,187.98,300.676,187.98,300.676z"/>
		<linearGradient id="SVGID_27_" gradientUnits="userSpaceOnUse" x1="233.0015" y1="347.2354" x2="199.5224" y2="353.9314">
			<stop  offset="0.0485" style="stop-color:#252B39"/>
			<stop  offset="1" style="stop-color:#08090A"/>
		</linearGradient>
		<path fill="url(#SVGID_27_)" d="M187.168,344.394c0,0,4.618,1.777,9.24,1.777s49.915-10.308,49.915-10.308v20.26
			c0,0-51.323,11.729-55.772,10.308C186.103,365.008,187.168,344.394,187.168,344.394z"/>
	</g>
</g>
<path fill="#67482C" d="M216.923,78.82c0,0,20.996-1.747,45.494,2.203c0,0,16.351,39.807,19.196,51.537
	c2.842,11.729-5.688,4.621-5.688,4.621s1.773,13.15,4.618,21.68c2.846,8.531-14.57-3.553-14.57-3.553s3.554,14.928,5.33,20.259
	c1.776,5.331-11.729,0-11.729,0s3.203,13.861,1.423,19.903c-1.78,6.043-11.44,2.489-11.44,2.489s0.066,11.018-3.487,17.416
	c-3.557,6.397-27.409,13.861-27.409,13.861s-15.951,29.145-18.442,29.856c-2.488,0.71-3.911-5.687-3.911-5.687
	s-2.838,13.151-5.684,15.994c-2.846,2.843-4.265-6.754-4.265-6.754s-4.979,20.616-9.244,22.748
	c-4.265,2.133-7.259-8.175-7.259-8.175s-12.142,19.193-17.012,19.193c-4.872,0-6.294-12.796-6.294-12.796s-14.572,4.977-17.06-3.198
	c-2.49-8.175-7.821-15.995-7.821-15.995s-1.419,9.952-4.619,4.62c-3.199-5.331-6.397-12.795-6.397-12.795s-6.398-1.065-7.821-6.041
	c-1.422-4.976-6.752-17.061-6.752-17.061s-9.24-2.487-12.439-20.259c-3.2-17.771-2.49-46.562,6.041-54.736
	c8.531-8.174,9.6-12.44,25.237-12.44s76.417,3.2,76.417,3.2L216.923,78.82z"/>
<path fill="#392414" d="M107.787,165.384c0,0,2.776,6.361,15.839,8.761c13.061,2.399,20.259-6.664,20.259-6.664
	s13.595-4.236,17.193-14.247c0,0-7.157,0.652-14.841,5.184s-24.203,6.397-27.407,6.131
	C115.627,164.281,107.787,165.384,107.787,165.384z"/>
<linearGradient id="SVGID_28_" gradientUnits="userSpaceOnUse" x1="184.5796" y1="169.835" x2="189.5549" y2="199.6908">
	<stop  offset="0.0061" style="stop-color:#392414"/>
	<stop  offset="1" style="stop-color:#67482C"/>
</linearGradient>
<path fill="url(#SVGID_28_)" d="M169.156,156.669c0,0,17.481,3.177,28.145,22.602s-0.711,40.182-0.711,40.182
	S203.564,181.107,169.156,156.669z"/>
<linearGradient id="SVGID_29_" gradientUnits="userSpaceOnUse" x1="160.1543" y1="90.5312" x2="152.1596" y2="132.2815">
	<stop  offset="0.0485" style="stop-color:#D29476"/>
	<stop  offset="1" style="stop-color:#FEE2C5"/>
</linearGradient>
<path fill="url(#SVGID_29_)" d="M96.436,101.638c0,0,1.063-4.976,42.295-13.862c41.231-8.886,78.193-8.956,78.193-8.956
	s3.91,27.793,0,50.186c-3.907,22.392-17.416,33.055-17.416,33.055s-15.639-12.795-27.367-12.795
	c-11.728,0-18.836,5.687-18.836,5.687s-6.044,8.887-12.441,7.109c0,0-5.686,8.886-18.481,8.53
	c-12.795-0.355-19.905-10.307-17.417-19.548c0,0-11.019,2.131-15.283,7.108C89.681,158.151,80.44,145.71,96.436,101.638z"/>
<path fill="#FFFFFF" d="M161.079,120.285c0,0,0.134,3.611,1.333,7.476c1.199,3.865,4.691,4.591,7.446,3.377
	c2.755-1.213,14.945-9.908,14.945-10.308s-6.364-0.265-10.441-1.066C170.287,118.964,162.411,119.606,161.079,120.285z"/>
<path fill="#D29476" d="M98.3,130.294c0,0,5.531,4.758,13.363,3.512l-3.876,12.318c0,0,1.262-9.001-2.378-9.832
	C102.74,135.683,98.607,134.108,98.3,130.294z"/>
<g>
	<defs>
		<path id="SVGID_30_" d="M161.079,120.285c0,0,0.134,3.611,1.333,7.476c1.199,3.865,4.691,4.591,7.446,3.377
			c2.755-1.213,14.945-9.908,14.945-10.308s-6.364-0.265-10.441-1.066C170.287,118.964,162.411,119.606,161.079,120.285z"/>
	</defs>
	<clipPath id="SVGID_31_">
		<use xlink:href="#SVGID_30_"  overflow="visible"/>
	</clipPath>
	<g clip-path="url(#SVGID_31_)">
		<path fill="#4E6475" d="M159.951,126.602c0.933,3.828,4.331,6.431,7.564,5.8c3.233-0.627,5.097-4.255,4.156-8.08
			c-0.93-3.834-4.576-6.589-7.81-5.959C160.619,118.996,159.016,122.77,159.951,126.602z"/>
		<g>
			<path fill="#1E272E" d="M166.14,130.788c-2.492,0.211-4.853-2.045-5.261-5.024c-0.411-2.981,1.284-5.576,3.779-5.786
				c2.485-0.21,4.845,2.045,5.257,5.025C170.322,127.982,168.632,130.577,166.14,130.788L166.14,130.788z M164.728,120.524
				c-2.204,0.188-3.706,2.517-3.336,5.195c0.368,2.679,2.467,4.706,4.673,4.519c2.207-0.184,3.703-2.518,3.335-5.196
				C169.035,122.366,166.942,120.341,164.728,120.524L164.728,120.524z"/>
		</g>
		<path fill="#1E272E" d="M162.578,125.883c0.444,1.861,1.95,3.135,3.364,2.859c1.409-0.271,2.184-1.993,1.735-3.848
			c-0.454-1.849-1.968-3.128-3.376-2.856C162.895,122.317,162.12,124.039,162.578,125.883z"/>
	</g>
</g>
<path fill="#1D222D" d="M155.258,121.009c0,0-0.177-1.423,7.82-1.956c7.997-0.534,30.389,0.978,30.389,0.978
	s-6.045,0.622-8.353,1.866c-2.311,1.244-8.89,5.509-10.753,6.931c-1.863,1.421-4.504,2.31-4.504,2.31s4.948-3.614,8.858-6.428
	c3.911-2.813,4.622-4.057,4.622-4.057s-10.663,0.001-16.527-0.177C160.945,120.297,157.211,119.942,155.258,121.009z"/>
<linearGradient id="SVGID_32_" gradientUnits="userSpaceOnUse" x1="162.0835" y1="244.6875" x2="160.3071" y2="201.6813">
	<stop  offset="0.0061" style="stop-color:#8C6340"/>
	<stop  offset="1" style="stop-color:#67482C"/>
</linearGradient>
<path fill="url(#SVGID_32_)" d="M120.782,199.878c0,0-7.728,17.718-7.908,39.31c-0.179,21.592,11.552,18.66,11.552,18.66
	s1.333,17.861,14.928,19.727c13.595,1.866,21.678-11.729,15.238-26.391c0,0,4.486,4.798,6.487,15.994
	c1.999,11.196-3.598,17.061-3.598,17.061s15.194-5.788,15.461-22.753c0,0,10.927,1.569,14.928-19.428c0,0,2.026,5.25,3.199,14.99
	c0,0,17.593-14.465,18.657-38.688c1.069-24.222-7.994-41.439-16.26-47.759c0,0,9.865,12.607,7.998,31.267
	c0,0-5.732-21.592-24.727-29.056c-18.992-7.465-28.274,6.93-28.274,6.93s20.744,4.798,24.478,17.327
	c3.729,12.529-23.921,23.724-26.55,11.462c0,0-10.21-8.077-11.959-11.729C134.433,196.804,129.136,197.888,120.782,199.878z"/>
<path fill="#B1765C" d="M155.258,119.765c0,0,2.488-1.733,8.753-2.133c6.266-0.4,23.859,1.308,23.859,1.308v-1.368
	c0,0-15.195-1.273-21.993-1.273C159.078,116.299,155.258,119.765,155.258,119.765z"/>
<path fill="#282019" d="M146.692,103.612c0,0,2.316,4.928,20.808,5.893c18.491,0.964,37.75-4.932,37.75-4.932
	s-12.322,1.582-23.804,1.643c-11.479,0.061-33.106-8.185-33.812-8.808c-0.708-0.622,1.135,3.133,2.108,3.74
	C150.716,101.754,145.053,100.912,146.692,103.612z"/>
<ellipse fill="#FFFFFF" cx="172.074" cy="123.356" rx="4.664" ry="1.354"/>
<linearGradient id="SVGID_33_" gradientUnits="userSpaceOnUse" x1="159.4155" y1="133.8057" x2="178.896" y2="133.8057">
	<stop  offset="0.0485" style="stop-color:#D29476"/>
	<stop  offset="1" style="stop-color:#FEE2C5"/>
</linearGradient>
<path fill="url(#SVGID_33_)" d="M159.701,129.361c0,0,4.091,3.909,6.044,4.62s13.15,0,13.15,0s-4.445,4.087-9.598,4.266
	C164.146,138.424,158.013,133.002,159.701,129.361z"/>
<g>
	<defs>
		<path id="SVGID_34_" d="M99.629,126.318c0,0-1.237,5.086,4.271,6.153c5.509,1.066,8.354,0.533,9.596-1.333
			c1.244-1.866,1.435-5.604,1.435-5.604s-3.258-2.084-8.632-1.112C100.927,125.395,99.629,126.318,99.629,126.318z"/>
	</defs>
	<use xlink:href="#SVGID_34_"  overflow="visible" fill="#FFFFFF"/>
	<clipPath id="SVGID_35_">
		<use xlink:href="#SVGID_34_"  overflow="visible"/>
	</clipPath>
	<g clip-path="url(#SVGID_35_)">
		<path fill="#4E6475" d="M100.188,129.39c0.51,3.184,3.158,5.418,5.894,4.979c2.738-0.44,4.544-3.391,4.031-6.573
			c-0.507-3.191-3.149-5.425-5.887-4.985C101.479,123.252,99.678,126.199,100.188,129.39z"/>
		<g>
			<path fill="#1E272E" d="M105.051,133c-2.092,0.113-3.902-1.81-4.032-4.281c-0.132-2.472,1.461-4.573,3.553-4.686
				c2.085-0.113,3.895,1.81,4.027,4.282C108.731,130.787,107.14,132.888,105.051,133L105.051,133z M104.593,124.486
				c-1.853,0.101-3.264,1.987-3.144,4.209c0.12,2.223,1.725,3.949,3.576,3.849c1.851-0.098,3.263-1.987,3.144-4.209
				C108.049,126.116,106.448,124.389,104.593,124.486L104.593,124.486z"/>
		</g>
		<path fill="#1E272E" d="M102.424,128.86c0.24,1.547,1.405,2.639,2.603,2.444c1.197-0.189,1.96-1.593,1.718-3.136
			c-0.25-1.537-1.421-2.633-2.615-2.443C102.938,125.921,102.175,127.326,102.424,128.86z"/>
	</g>
</g>
<path fill="#1D222D" d="M115.627,127.495c0,0,0.667-2.236-5.332-2.785c-5.998-0.547-13.994,2.785-13.994,2.785
	s3.999-3.065,11.463-3.598c7.464-0.534,9.596,1.799,9.596,1.799L115.627,127.495z"/>
<path fill="#B1765C" d="M97.678,125.039c0,0,6.844-3.39,19.683-1.222l3.421-5.786l-4.131,3.503
	C116.651,121.534,104.43,121.071,97.678,125.039z"/>
<path fill="#D29476" d="M149.77,135.715c0,0,11.442,1.909,13.04,7.507c1.6,5.598,8.251,2.764,14.656,4.981
	c6.402,2.216,10.403,6.118,10.403,6.118s-14.338-6.118-35.025,1.254C152.845,155.576,160.72,144.734,149.77,135.715z"/>
<ellipse fill="#FFFFFF" cx="111.664" cy="128.036" rx="3.877" ry="1.325"/>
<linearGradient id="SVGID_36_" gradientUnits="userSpaceOnUse" x1="149.208" y1="150.4316" x2="154.54" y2="133.7244">
	<stop  offset="0.0485" style="stop-color:#FFFCF5"/>
	<stop  offset="1" style="stop-color:#FEE2C5"/>
</linearGradient>
<path fill="url(#SVGID_36_)" d="M154.193,155.307c0,0,3.373-6.752,1.065-11.906c-2.308-5.154-7.462-9.595-7.462-9.595
	s5.706,8.725,4.074,16.703c-1.633,7.979-9.938,9.775-9.938,9.775l-1.069,1.777C140.863,162.061,148.682,165.436,154.193,155.307z"/>
<linearGradient id="SVGID_37_" gradientUnits="userSpaceOnUse" x1="111.2393" y1="167.8105" x2="132.0593" y2="122.9674">
	<stop  offset="0.0485" style="stop-color:#FFFCF5"/>
	<stop  offset="1" style="stop-color:#FEE2C5"/>
</linearGradient>
<path fill="url(#SVGID_37_)" d="M121.495,116.299c0,0-13.784,15.608-16.805,34.8c-3.019,19.192,13.453,20.564,22.148,19.228
	c0,0-13.876-6.49-12.454-17.153c1.423-10.663,10.308-30.922,13.507-36.875C131.091,110.346,123.983,111.413,121.495,116.299z"/>
<path fill="#282019" d="M95.191,113.545c0,0,4.266,1.091,17.771-1.32c13.505-2.412,17.592-6.855,17.592-6.855s-3.733,0.354-4.62,0
	c-0.888-0.355,3.557-4.264,1.246-4.442c-2.312-0.178-2.488,4.986-14.307,8.684C101.056,113.309,95.191,113.545,95.191,113.545z"/>
<ellipse fill="#FFFFFF" cx="127.268" cy="158.417" rx="6.486" ry="6.131"/>
<path fill="#392414" d="M108.297,198.035c0,0,6.806,0.203,9.01-6.509c0,0,5.222,1.018,7.38-4.677c0,0,4.888,4.881,11.069,1.831
	c0,0,7.62,11.998,18.835,9.355c0,0-12.221,6.685-18.835-5.403c0,0-3.161,2.148-10.639-2.122c0,0-3.545,3.863-7.811,4.27
	C117.307,194.78,116.924,199.457,108.297,198.035z"/>
<path fill="#8C6340" d="M88.704,166.147c0,0-6.084,22.917-5.309,45.313c0.777,22.396,13.807,24.276,13.807,24.276
	s3.114,21.008,13.97,21.693c0,0,3.721,12.695,7.412,13.142c0,0-3.548-16.722-3.652-27.385c-0.104-10.663,9.494-29.855,9.494-29.855
	s-11.753,17.86-12.763,30.389c0,0-2.908,4.532-7.068-2.399c-4.162-6.93-2.028-17.06-2.028-17.06s-7.729,5.634-13.33-10.129
	C83.638,198.368,88.704,166.147,88.704,166.147z"/>
<path fill="#8C6340" d="M131.444,225.859c0,0-3.791,26.124-2.74,42.918c1.051,16.793,12.159,16.116,12.159,16.116
	s-20.081,8.176-20.081-21.714C120.782,243.187,131.444,225.859,131.444,225.859z"/>
<linearGradient id="SVGID_38_" gradientUnits="userSpaceOnUse" x1="242.1343" y1="144.856" x2="300.7823" y2="134.1927">
	<stop  offset="0.0061" style="stop-color:#392414"/>
	<stop  offset="1" style="stop-color:#67482C"/>
</linearGradient>
<path fill="url(#SVGID_38_)" d="M270.773,118.031c-1.6-13.194-13.546-37.77-13.546-37.77c-24.936-3.705-40.304-1.441-40.304-1.441
	s0,22.284-0.264,39.211c-0.205,12.96-5.24,26.126-7.593,31.598c-2.748,4.231-5.902,8.42-9.56,12.431c0,0,10.31,11.191,15.285,24.789
	c4.977,13.598-1.423,33.857-1.423,33.857s13.509-15.82,13.509-33.857c0-4.319-0.479-8.352-1.197-12.004
	c3.234,0.163,8.817-0.233,13.103-4.149c6.398-5.848,1.065-21.076,7.464-15.12s4.532,16.969,4.532,16.969
	c4.799-9.063,1.689-34.336,1.689-34.336s9.24,16.21,13.505,9.995c4.265-6.216,0.799-17.91,0.799-17.91
	S272.373,131.227,270.773,118.031z"/>
<linearGradient id="SVGID_39_" gradientUnits="userSpaceOnUse" x1="104.9561" y1="183.272" x2="159.7236" y2="183.272">
	<stop  offset="0.0061" style="stop-color:#8C6340"/>
	<stop  offset="1" style="stop-color:#67482C"/>
</linearGradient>
<path fill="url(#SVGID_39_)" d="M107.787,174.549c0,0-3.146,2.438-2.805,10.792c0.34,8.353,2.771,11.957,6.681,10.663
	s3.878-6.22,3.878-6.22s5.239,0.837,7.728-4.38c0,0,2.845,5.02,12.976,2.656c0,0,4.589,10.964,16.601,9.543
	c12.009-1.422,7.034-25.414-5.228-28.79c0,0-7.641,8.174-18.127,7.997c-10.486-0.177-14.558-4.087-14.558-4.087L107.787,174.549z"/>
<linearGradient id="SVGID_40_" gradientUnits="userSpaceOnUse" x1="273.8335" y1="513.9336" x2="328.9194" y2="513.9336">
	<stop  offset="0.0485" style="stop-color:#D29476"/>
	<stop  offset="1" style="stop-color:#FEE2C5"/>
</linearGradient>
<path fill="url(#SVGID_40_)" d="M283.39,490.121c0,0-8.529,12.795-9.24,16.704c-0.712,3.909,0,8.529,0,8.529
	s5.909,3.255,7.464,8.175c1.555,4.919,2.876,15.993,7.124,17.416c4.25,1.423,9.227-3.197,9.227-3.197s5.333,5.333,10.306,1.421
	c4.976-3.911,5.333,0.711,9.598-4.62c4.265-5.332,6.863-0.714,9.83-6.755s0.031-33.764-3.477-39.096
	C320.709,483.367,283.39,490.121,283.39,490.121z"/>
<path fill="#D49779" d="M277.731,499.223c0,0,11.169,3.871,28.495,1.738c17.329-2.134,20.615-3.862,20.615-3.862
	s-0.622-8.767-2.62-10.449c-2.002-1.683-44.384,5.054-44.384,5.054S279.074,496.818,277.731,499.223z"/>
<path fill="#9B2D3D" d="M252.469,284.238c0,0,11.726,59.089,21.681,113.115c9.951,54.025,5.19,73.131,7.571,77.438
	c2.38,4.311-9.706,10.705-3.307,13.551c6.395,2.844-1.684,5.688,3.778,7.819c5.462,2.133,17.548,0.71,26.077,0
	c8.528-0.71,21.326-4.268,19.192-9.953c-2.135-5.686-2.933-1.957-3.241-11.643c-0.312-9.683-1.735-37.079-5.288-83.802
	c-3.554-46.726-31.553-156.393-53.944-168.438C242.597,210.282,252.469,284.238,252.469,284.238z"/>
<path fill="#6E1D2C" d="M257.549,310.115c0,0-3.304-35.206,8.425-59.731c0,0,3.73,34.588,12.263,65.543
	c8.529,30.956,17.593,28.103,22.392,77.246s0.06,59.272,4.293,68.868c4.236,9.599,15.434,12.526,15.434,12.526
	s0.531,5.143-12.263,4.307c-12.797-0.838-23.574,4.128-18.983,6.442c4.587,2.315,23.248,3.383,23.248,3.383
	s-11.017,3.345-18.304,3.005s-7.325,5.395-7.325,5.395s-11.045,0.284-10.625-5.395s-4.265-3.537-2.665-8.869
	c1.6-5.331,4.799-14.395,4.799-20.259C278.237,456.709,264.552,354.703,257.549,310.115z"/>
<path fill="#DB9233" d="M103.304,371.687c0,0,21.741,1.32,37.559,5.585c0,0,4.62,1.067,2.488,7.998
	c-2.132,6.93-4.979,31.897-6.041,42.033c-0.888,8.492,0.468,10.913-2.876,14.829c-3.343,3.915-40.751-6.892-40.751-6.892
	s-2.31-3.444-0.213-17.45C95.845,401.918,98.066,371.275,103.304,371.687z"/>
<path fill="#2D3031" d="M104.609,374.606c0,0,4.445-11.373,5.687-11.373c1.244,0,0.711,0.354,0,2.31
	c-0.709,1.955-3.732,9.063-3.732,9.063S104.146,375.767,104.609,374.606z"/>
<path fill="#2D3031" d="M120.48,379.213c0,0,4.445-11.373,5.687-11.373c1.244,0,0.711,0.354,0,2.31
	c-0.709,1.955-3.732,9.063-3.732,9.063S120.015,380.375,120.48,379.213z"/>
<path fill="#2D3031" d="M131.943,381.404c0,0-1.163-12.155-0.052-12.715c1.11-0.561,0.793-0.005,1.041,2.061
	s0.757,9.773,0.757,9.773S132.051,382.651,131.943,381.404z"/>
<path fill="#2D3031" d="M106.741,365.187l2.312,9.935c0,0,1.135,1.227,1.988,0l-3.246-11.178
	C107.796,363.943,106.458,363.967,106.741,365.187z"/>
<path fill="#2D3031" d="M116.122,365.187l2.311,9.935c0,0,1.135,1.227,1.99,0l-3.248-11.178
	C117.175,363.943,115.839,363.967,116.122,365.187z"/>
<path fill="#2D3031" d="M136.421,385.268c0,0,11.197-3.39,12.084-3.472c0.888-0.082,1.246,1.598,0,1.735
	c-1.246,0.139-12.084,3.336-12.084,3.336S135.25,385.62,136.421,385.268z"/>
<path fill="#2D3031" d="M136.563,387.785c0,0,11.618,1.383,12.462,1.664c0.847,0.281,0.5,1.964-0.696,1.591
	c-1.195-0.375-12.407-1.789-12.407-1.789S135.351,387.64,136.563,387.785z"/>
<path fill="#2D3031" d="M135.082,406.903c0,0,8.813,2.608,9.398,2.961c0.581,0.354-0.241,1.845-1.074,1.366
	c-0.831-0.477-9.313-3.067-9.313-3.067S134.159,406.63,135.082,406.903z"/>
<path fill="#2D3031" d="M133.165,415.085c0,0,8.814,2.606,9.4,2.962c0.581,0.354-0.243,1.842-1.076,1.363
	c-0.831-0.477-9.313-3.065-9.313-3.065S132.244,414.812,133.165,415.085z"/>
<path fill="#2D3031" d="M137.585,393.179c0,0,9.598,1.142,10.297,1.376c0.698,0.232,0.413,1.622-0.574,1.313
	c-0.989-0.309-10.253-1.479-10.253-1.479S136.581,393.058,137.585,393.179z"/>
<path fill="#2D3031" d="M137.799,396.406c0,0,8.446-4.702,9.148-4.924c0.703-0.22,1.288,1.072,0.306,1.402
	c-0.984,0.33-9.175,4.814-9.175,4.814S136.916,396.897,137.799,396.406z"/>
<path fill="#2D3031" d="M134.02,418.213c0,0,8.444-4.704,9.148-4.924c0.701-0.222,1.288,1.072,0.304,1.4
	c-0.984,0.332-9.174,4.816-9.174,4.816S133.137,418.704,134.02,418.213z"/>
<path fill="#2D3031" d="M104.952,442.102c0,0,8.446-4.701,9.149-4.924c0.703-0.22,1.287,1.071,0.305,1.4
	c-0.984,0.332-9.175,4.818-9.175,4.818S104.069,442.593,104.952,442.102z"/>
<path fill="#2D3031" d="M133.689,427.303l8.917,2.75c0,0,1.917,1.664,0,2.342l-8.917-2.547
	C133.689,429.848,132.2,428.286,133.689,427.303z"/>
<path fill="#2D3031" d="M132.226,435.83l7.658,5.335c0,0,1.318,2.169-0.715,2.231l-7.717-5.143
	C131.452,438.254,130.51,436.312,132.226,435.83z"/>
<path fill="#2D3031" d="M124.95,437.092l-0.279,9.33c0,0-1.093,2.289-2.257,0.619l0.083-9.273
	C122.497,437.768,123.608,435.919,124.95,437.092z"/>
<path fill="#2D3031" d="M112.311,434.527l-0.279,9.33c0,0-1.093,2.289-2.257,0.621l0.083-9.273
	C109.857,435.205,110.969,433.356,112.311,434.527z"/>
<path fill="#2D3031" d="M101.934,431.619l-0.279,9.329c0,0-1.093,2.288-2.257,0.621l0.083-9.273
	C99.48,432.296,100.592,430.446,101.934,431.619z"/>
<g>
	<path fill="#D29476" d="M54.317,403.43c0,0,3.557-6.154,6.017-10.257c-2.505-2.425-7.17-6.506-13.887-10.613
		c-10.537-6.44-24.917-12.752-31.849-10.353c-6.931,2.399-12.263,13.595-12.263,25.591s10.026,34.354,10.026,34.354
		s27.56-6.632,34.085-15.202c1.685-2.214,8.415-2.974,14.102-2.11C56.888,408.563,54.317,403.43,54.317,403.43z"/>
	<path fill="#D29476" d="M68.143,438.049c0,0,6.166,0.234,8.298,1.451c2.134,1.216,2.266-5.716,0-8.382
		c-2.266-2.665-8.298-3.815-8.298-3.815S68.507,435.251,68.143,438.049z"/>
	<linearGradient id="SVGID_41_" gradientUnits="userSpaceOnUse" x1="12.3613" y1="422.7666" x2="70.9619" y2="422.7666">
		<stop  offset="0.0485" style="stop-color:#D29476"/>
		<stop  offset="1" style="stop-color:#FEE2C5"/>
	</linearGradient>
	<path fill="url(#SVGID_41_)" d="M54.317,403.43c0,0,10.273,17.821,13.826,23.873c3.255,5.545,4.23,10.48,0,10.746
		c-4.23,0.268-14.358-7.729-14.358-7.729s-1.6,5.329-7.199,6.396c-5.597,1.066-4.265,4.265-10.396,4.799
		c-6.131,0.532-7.196,1.065-11.729,0c-4.532-1.067-12.1-9.363-12.1-9.363s-0.163-9.789,7.034-10.896
		c7.198-1.109,4.266-11.198,15.195-9.863C45.521,412.726,42.094,402.815,54.317,403.43z"/>
	<path fill="#D29476" d="M53.785,430.32c0,0-9.157-9.864-11.333-13.953c0,0-0.751,1.957,3.513,7.821
		c4.267,5.864,6.629,8.493,6.629,8.493S53.429,431.767,53.785,430.32z"/>
	<path fill="#D29476" d="M43.158,438.04c0,0-6.435-7.054-9.632-10.92c-3.2-3.865-1.468,1.059,2.397,5.46
		c3.866,4.404,5.946,6.487,5.946,6.487L43.158,438.04z"/>
	<path fill="#D29476" d="M33.683,441.757c0,0-9.09-6.107-14.419-13.304c0,0,1.752,5.822,11.739,13.574
		C31.002,442.027,32.667,441.859,33.683,441.757z"/>
</g>
<linearGradient id="SVGID_42_" gradientUnits="userSpaceOnUse" x1="114.3428" y1="572.9336" x2="147.3981" y2="570.0908">
	<stop  offset="0" style="stop-color:#58869A"/>
	<stop  offset="1" style="stop-color:#2A4451"/>
</linearGradient>
<path fill="url(#SVGID_42_)" d="M109.774,489.054c0,0-12.268,36.065-14.05,43.718c-1.78,7.653,5.55,25.892,12.125,45.257
	c6.574,19.366,13.412,52.803,13.932,64.21c0.521,11.409,17.898,16.713,26.486,9.604c8.59-7.11,7.169-34.834,8.236-51.896
	c1.065-17.06,4.398-75.803,0-84.234c-4.399-8.434-2.489-21.722-2.489-21.722S123.824,495.452,109.774,489.054z"/>
<path fill="#FFFFFF" d="M214.022,38.434l4.64-3.109c0,0,1.434,0.147,0.84,1.555l-4.886,3.184
	C214.616,40.062,213.307,38.914,214.022,38.434z"/>
<path fill="#FFFFFF" d="M217.003,42.594l4.636-3.109c0,0,1.437,0.147,0.843,1.554l-4.886,3.184
	C217.596,44.223,216.285,43.074,217.003,42.594z"/>
<path fill="#FFFFFF" d="M210.036,33.252l4.639-3.109c0,0,1.434,0.147,0.84,1.555l-4.886,3.184
	C210.628,34.881,209.321,33.732,210.036,33.252z"/>
<path fill="#FFFFFF" d="M207.041,27.416l5.479-1.085c0,0,1.267,0.688,0.177,1.758l-5.735,1.059
	C206.961,29.148,206.194,27.583,207.041,27.416z"/>
<path fill="#FFFFFF" d="M210.646,20.657l4.618,3.14c0,0,0.399,1.386-1.131,1.36l-4.778-3.341
	C209.355,21.816,209.931,20.171,210.646,20.657z"/>
<path fill="#FFFFFF" d="M215.042,17.327l4.615,3.14c0,0,0.398,1.385-1.128,1.36l-4.778-3.342
	C213.751,18.485,214.328,16.841,215.042,17.327z"/>
<path fill="#FFFFFF" d="M220.938,14.186l4.615,3.14c0,0,0.398,1.385-1.128,1.36l-4.778-3.342
	C219.647,15.344,220.223,13.7,220.938,14.186z"/>
<path fill="#DB9233" d="M278.741,239.773c0,0-14.009,5.34-16.896,8.893c-2.887,3.554-0.666,7.551,1.11,13.103
	c1.776,5.552,12.214,33.548,13.547,37.982c1.332,4.435,6.218,4.435,8.883,2.88s14.116-7.458,14.116-7.458s-0.348-5.866-2.568-13.861
	S282.193,243.041,278.741,239.773z"/>
<path fill="#2D3031" d="M283.609,307.03c0,0.392-0.316,0.709-0.708,0.709l0,0c-0.393,0-0.708-0.317-0.708-0.709v-6.572
	c0-0.392,0.315-0.709,0.708-0.709l0,0c0.392,0,0.708,0.317,0.708,0.709V307.03z"/>
<path fill="#2D3031" d="M289.92,304.219c0.16,0.356,0.004,0.776-0.354,0.939l0,0c-0.354,0.162-0.774,0.004-0.938-0.351l-2.728-5.98
	c-0.159-0.356-0.003-0.776,0.351-0.939l0,0c0.357-0.162,0.777-0.005,0.94,0.351L289.92,304.219z"/>
<path fill="#2D3031" d="M295.237,301.104c0.118,0.264-0.073,0.609-0.431,0.772l0,0c-0.354,0.162-0.739,0.08-0.86-0.184l-2.02-4.426
	c-0.118-0.263,0.073-0.609,0.431-0.771l0,0c0.354-0.162,0.742-0.08,0.86,0.183L295.237,301.104z"/>
<path fill="#2D3031" d="M273.737,297.315c-0.198,0.211-0.59,0.168-0.878-0.1l0,0c-0.284-0.267-0.357-0.653-0.16-0.867l3.314-3.56
	c0.197-0.21,0.59-0.168,0.874,0.1l0,0c0.288,0.266,0.361,0.655,0.163,0.867L273.737,297.315z"/>
<path fill="#2D3031" d="M268.341,288.491c-0.348,0.113-0.729-0.097-0.851-0.472l0,0c-0.118-0.372,0.062-0.763,0.413-0.877
	l5.829-1.89c0.344-0.11,0.726,0.098,0.844,0.471l0,0c0.121,0.372-0.062,0.767-0.409,0.878L268.341,288.491z"/>
<path fill="#2D3031" d="M264.763,280.496c-0.351,0.113-0.729-0.097-0.85-0.472l0,0c-0.118-0.372,0.062-0.764,0.413-0.877
	l5.825-1.889c0.344-0.11,0.726,0.098,0.847,0.471l0,0c0.118,0.372-0.065,0.767-0.412,0.878L264.763,280.496z"/>
<path fill="#2D3031" d="M261.182,270.179c-0.347,0.113-0.729-0.097-0.85-0.472l0,0c-0.118-0.371,0.062-0.763,0.413-0.877
	l5.829-1.889c0.344-0.11,0.726,0.098,0.843,0.471l0,0c0.122,0.373-0.062,0.767-0.409,0.878L261.182,270.179z"/>
<path fill="#2D3031" d="M257.39,258.874c-0.368-0.001-0.663-0.319-0.663-0.713l0,0c0.003-0.39,0.299-0.707,0.666-0.705l6.128,0.02
	c0.357,0.001,0.656,0.318,0.656,0.71l0,0c-0.004,0.391-0.302,0.708-0.666,0.706L257.39,258.874z"/>
<path fill="#2D3031" d="M259.725,248.31c-0.309-0.201-0.382-0.63-0.167-0.958l0,0c0.216-0.324,0.636-0.429,0.944-0.226l5.121,3.363
	c0.299,0.197,0.375,0.626,0.16,0.953l0,0c-0.215,0.326-0.639,0.43-0.94,0.229L259.725,248.31z"/>
<path fill="#2D3031" d="M267.477,240.622c-0.098-0.355,0.135-0.724,0.517-0.824l0,0c0.375-0.099,0.757,0.102,0.854,0.459
	l1.576,5.921c0.094,0.347-0.136,0.717-0.514,0.818l0,0c-0.379,0.099-0.764-0.104-0.857-0.458L267.477,240.622z"/>
</svg>
