<?xml version="1.0" encoding="utf-8"?>
<!-- Generator: Adobe Illustrator 16.0.4, SVG Export Plug-In . SVG Version: 6.00 Build 0)  -->
<!DOCTYPE svg PUBLIC "-//W3C//DTD SVG 1.1//EN" "http://www.w3.org/Graphics/SVG/1.1/DTD/svg11.dtd">
<svg version="1.1" id="Layer_1" xmlns="http://www.w3.org/2000/svg" xmlns:xlink="http://www.w3.org/1999/xlink" x="0px" y="0px"
	 width="841.89px" height="595.28px" viewBox="0 0 841.89 595.28" enable-background="new 0 0 841.89 595.28" xml:space="preserve">
<path fill="#6E1D2C" d="M353.987,211.736c0,0-7.828,24.948-28.821,31.85c-20.993,6.902-40.499,21.006-43.35,32.71
	c-2.851,11.703,3.356,15.35,13.586,13.776c10.23-1.572,17.04-3.68,19.06-9.328c2.02-5.649,7.979-9.354,18.65-14.253
	c10.672-4.9,28.287-14.547,29.789-28.307C364.403,224.425,353.987,211.736,353.987,211.736z"/>
<g>
	<linearGradient id="SVGID_1_" gradientUnits="userSpaceOnUse" x1="310.2988" y1="290.0728" x2="325.166" y2="290.0728">
		<stop  offset="0.0485" style="stop-color:#D29476"/>
		<stop  offset="1" style="stop-color:#FEE2C5"/>
	</linearGradient>
	<path fill="url(#SVGID_1_)" d="M314.462,280.744c0,0,6.116,4.054,6.717,6.955c0.6,2.9,1.103,6.803,1.901,8.201
		c0.798,1.398,3.356,0.939,1.311,2.344c-2.047,1.404-6.63,1.957-7.021-0.843c-0.392-2.801-1.783-6.275-3.988-6.889
		s-3.406-1.575-3.006-4.846C310.776,282.397,314.462,280.744,314.462,280.744z"/>
	<path fill="#FFFFFF" d="M320.748,297.039c0,0,4.773,0.074,7.559,5.542c2.783,5.47,16.422,25.057,16.422,25.057
		s1.774,10.241,0,14.722c-1.776,4.48-9.886,14.21-9.886,14.21s-17.467-52.616-17.934-55.56
		C316.444,298.064,319.241,296.097,320.748,297.039z"/>
	<path fill="#9AA7A6" d="M334.171,354.545c0,0,0.782-2.456,0-11.801c-0.78-9.347-11.909-40.712-11.909-40.712
		s9.027,18.58,12.257,24.652c3.229,6.073,6.74,2.489,3.229-4.296c-3.509-6.786-10.552-18.494-12.104-20.356
		c-3.364-4.031-8.785-2.967-8.785-2.967l-1.182-2.265c0,0,8.817-1.68,12.631,3.631c2.635,3.67,19.125,28.484,19.125,28.484
		s0.815,8.108-0.924,12.12c-1.739,4.013-11.665,15.533-11.665,15.533L334.171,354.545z"/>
</g>
<g>
	<path fill="#DDD6E4" d="M324.886,514.531c0,0-0.777,2.625-0.527,5.375s4.189,5.5,8.233,5.75s22.794,0.25,26.794,0
		s8.75-7.25,13.5-10.25s11.75-7.75,14.75-10.75s1.757-9,1.757-9L324.886,514.531z"/>
	<linearGradient id="SVGID_2_" gradientUnits="userSpaceOnUse" x1="367.4668" y1="499.5508" x2="340.6336" y2="502.8008">
		<stop  offset="0.0182" style="stop-color:#1E2122"/>
		<stop  offset="1" style="stop-color:#4C4552"/>
	</linearGradient>
	<path fill="url(#SVGID_2_)" d="M356.28,479.156c0,0-15.145,18.803-18.645,21.526s-11.75,0.974-13,9.724s1.688,11.75,9.594,12.25
		s21.906,1.5,25.906-1.5s9.25-7.5,16.5-12.25s12.764-7.5,12.757-14.75s-2.507-15-2.507-15H356.28z"/>
	<path fill="#090B0B" d="M351.491,485.022c0,0,6.894,6.854,16.52,5.119s12.793-1.653,14.376,3.681s0.315,11.094,0.315,11.094
		s5.696-3.263,6.69-6.47s-0.674-16.039-1.84-17.623s-34.416,1.25-34.416,1.25L351.491,485.022z"/>
	<path fill="#090B0B" d="M351.938,503.928c0,0,6.701-6.354,10.572-10.896s5.5-7.625,5.5-7.625h-8.688
		c0,0-11.959,11.736-17.261,16.556C342.062,501.962,349.215,503.298,351.938,503.928z"/>
	<g>
		<polygon fill="#9CA6A9" points="344.313,499.879 353.409,502.512 355.036,500.915 345.715,498.559 		"/>
		<path fill="#BCC5C9" d="M343.553,499.157l12.747,0.497l1.654-1.682c0,0-10.151-0.649-12.484-0.732
			S342.551,499.118,343.553,499.157z"/>
		<linearGradient id="SVGID_3_" gradientUnits="userSpaceOnUse" x1="348.9951" y1="498.6523" x2="356.4092" y2="498.6523">
			<stop  offset="0.0182" style="stop-color:#DDD6E4"/>
			<stop  offset="1" style="stop-color:#FFFFFF"/>
		</linearGradient>
		<path fill="url(#SVGID_3_)" d="M354.553,503.073l-5.558-7.643l1.523-1.465c0,0,5.2,6.69,5.784,8.107
			S354.895,503.543,354.553,503.073z"/>
		<path fill="#BCC5C9" d="M348.071,494.587l12.715,0.391l1.725-1.946c0,0-10.189-0.278-12.522-0.361
			S347.069,494.548,348.071,494.587z"/>
		<linearGradient id="SVGID_4_" gradientUnits="userSpaceOnUse" x1="353.5137" y1="494.1191" x2="360.9277" y2="494.1191">
			<stop  offset="0.0182" style="stop-color:#DDD6E4"/>
			<stop  offset="1" style="stop-color:#FFFFFF"/>
		</linearGradient>
		<path fill="url(#SVGID_4_)" d="M359.071,498.503l-5.558-7.433l1.646-1.6c0,0,5.077,6.615,5.661,8.032
			S359.413,498.973,359.071,498.503z"/>
		<linearGradient id="SVGID_5_" gradientUnits="userSpaceOnUse" x1="352.4263" y1="489.2217" x2="365.665" y2="489.2217">
			<stop  offset="0.0182" style="stop-color:#DDD6E4"/>
			<stop  offset="1" style="stop-color:#FFFFFF"/>
		</linearGradient>
		<path fill="url(#SVGID_5_)" d="M352.702,489.823l12.136,0.318c0,0,0.471-0.618,0.827-1.118c0,0-10.821-0.867-11.946-0.7
			S352.061,489.614,352.702,489.823z"/>
		<linearGradient id="SVGID_6_" gradientUnits="userSpaceOnUse" x1="356.876" y1="491.0352" x2="363.7476" y2="491.0352">
			<stop  offset="0.0182" style="stop-color:#DDD6E4"/>
			<stop  offset="1" style="stop-color:#FFFFFF"/>
		</linearGradient>
		<path fill="url(#SVGID_6_)" d="M362.511,495.323l-5.635-7.559l1.078-1.019c0,0,5.515,6.827,5.765,7.702
			S362.511,495.323,362.511,495.323z"/>
	</g>
	<linearGradient id="SVGID_7_" gradientUnits="userSpaceOnUse" x1="347.6128" y1="516.043" x2="332.8628" y2="510.4179">
		<stop  offset="0.0182" style="stop-color:#DDD6E4"/>
		<stop  offset="1" style="stop-color:#FFFFFF"/>
	</linearGradient>
	<path fill="url(#SVGID_7_)" d="M336.837,501.191c0,0,17.549,2.215,22.299,5.34s5.253,11.322,5.253,11.322s-4.628,4.928-9.503,5.928
		s-22.625,0.889-25.5-0.556s-4.779-3.069-5.077-8.444s0.226-10.188,4.202-11.5S336.837,501.191,336.837,501.191z"/>
</g>
<g>
	<path fill="#DDD6E4" d="M368.657,518.531c0,0-0.777,2.625-0.527,5.375s4.189,5.5,8.233,5.75s22.794,0.25,26.794,0
		s8.75-7.25,13.5-10.25s11.75-7.75,14.75-10.75s1.757-9,1.757-9L368.657,518.531z"/>
	<linearGradient id="SVGID_8_" gradientUnits="userSpaceOnUse" x1="411.2378" y1="503.5518" x2="384.4048" y2="506.8018">
		<stop  offset="0.0182" style="stop-color:#1E2122"/>
		<stop  offset="1" style="stop-color:#4C4552"/>
	</linearGradient>
	<path fill="url(#SVGID_8_)" d="M400.052,483.156c0,0-15.145,18.803-18.645,21.526s-11.75,0.974-13,9.724s1.688,11.75,9.594,12.25
		s21.906,1.5,25.906-1.5s9.25-7.5,16.5-12.25s12.764-7.5,12.757-14.75s-2.507-15-2.507-15H400.052z"/>
	<path fill="#090B0B" d="M395.263,489.022c0,0,6.894,6.854,16.52,5.119s12.793-1.653,14.376,3.681s0.315,11.094,0.315,11.094
		s5.696-3.263,6.69-6.47s-0.674-16.039-1.84-17.623s-33.505-0.092-33.505-0.092L395.263,489.022z"/>
	<path fill="#090B0B" d="M395.71,507.928c0,0,6.701-6.354,10.572-10.896s5.5-7.625,5.5-7.625h-8.688
		c0,0-11.959,11.736-17.261,16.556C385.834,505.962,393.062,507.313,395.71,507.928z"/>
	<g>
		<polygon fill="#9CA6A9" points="388.085,503.879 397.181,506.512 398.808,504.915 389.486,502.559 		"/>
		<path fill="#BCC5C9" d="M387.324,503.157l12.747,0.497l1.654-1.682c0,0-10.151-0.649-12.484-0.732
			S386.322,503.118,387.324,503.157z"/>
		<linearGradient id="SVGID_9_" gradientUnits="userSpaceOnUse" x1="392.7666" y1="502.6523" x2="400.1807" y2="502.6523">
			<stop  offset="0.0182" style="stop-color:#DDD6E4"/>
			<stop  offset="1" style="stop-color:#FFFFFF"/>
		</linearGradient>
		<path fill="url(#SVGID_9_)" d="M398.324,507.073l-5.558-7.643l1.523-1.465c0,0,5.2,6.69,5.784,8.107
			S398.666,507.543,398.324,507.073z"/>
		<path fill="#BCC5C9" d="M391.843,498.587l12.715,0.391l1.725-1.946c0,0-10.189-0.278-12.522-0.361
			S390.841,498.548,391.843,498.587z"/>
		<linearGradient id="SVGID_10_" gradientUnits="userSpaceOnUse" x1="397.2852" y1="498.1191" x2="404.6992" y2="498.1191">
			<stop  offset="0.0182" style="stop-color:#DDD6E4"/>
			<stop  offset="1" style="stop-color:#FFFFFF"/>
		</linearGradient>
		<path fill="url(#SVGID_10_)" d="M402.843,502.503l-5.558-7.433l1.646-1.6c0,0,5.077,6.615,5.661,8.032
			S403.185,502.973,402.843,502.503z"/>
		<linearGradient id="SVGID_11_" gradientUnits="userSpaceOnUse" x1="396.1978" y1="493.2217" x2="409.4365" y2="493.2217">
			<stop  offset="0.0182" style="stop-color:#DDD6E4"/>
			<stop  offset="1" style="stop-color:#FFFFFF"/>
		</linearGradient>
		<path fill="url(#SVGID_11_)" d="M396.474,493.823l12.136,0.318c0,0,0.471-0.618,0.827-1.118c0,0-10.821-0.867-11.946-0.7
			S395.832,493.614,396.474,493.823z"/>
		<linearGradient id="SVGID_12_" gradientUnits="userSpaceOnUse" x1="400.6475" y1="495.0352" x2="407.519" y2="495.0352">
			<stop  offset="0.0182" style="stop-color:#DDD6E4"/>
			<stop  offset="1" style="stop-color:#FFFFFF"/>
		</linearGradient>
		<path fill="url(#SVGID_12_)" d="M406.282,499.323l-5.635-7.559l1.078-1.019c0,0,5.515,6.827,5.765,7.702
			S406.282,499.323,406.282,499.323z"/>
	</g>
	<linearGradient id="SVGID_13_" gradientUnits="userSpaceOnUse" x1="391.3838" y1="520.043" x2="376.6338" y2="514.418">
		<stop  offset="0.0182" style="stop-color:#DDD6E4"/>
		<stop  offset="1" style="stop-color:#FFFFFF"/>
	</linearGradient>
	<path fill="url(#SVGID_13_)" d="M380.608,505.191c0,0,17.549,2.215,22.299,5.34s5.253,11.322,5.253,11.322
		s-4.628,4.928-9.503,5.928s-22.625,0.889-25.5-0.556s-4.779-3.069-5.077-8.444s0.226-10.188,4.202-11.5
		S380.608,505.191,380.608,505.191z"/>
</g>
<linearGradient id="SVGID_14_" gradientUnits="userSpaceOnUse" x1="327.4146" y1="256.9932" x2="303.4145" y2="237.6597">
	<stop  offset="0" style="stop-color:#9B2D3D"/>
	<stop  offset="1" style="stop-color:#E36477"/>
</linearGradient>
<path fill="url(#SVGID_14_)" d="M354.992,215.878c0,0-5.204,18.805-19.209,26.208c-14.005,7.402-24.208,8.992-24.208,8.992
	s11.004-1.011,17.006,0c0,0-6.989,1.812-13.998,7.413c-7.008,5.602-8.531,12.146-8.531,12.146s-7.122-4.899-14.707-1.964
	c-7.586,2.936-10.042,13.791-9.241,17.72c0,0-4.338-7.096,1.264-16.698c5.603-9.603,20.204-19.405,32.309-23.807
	c12.104-4.401,28.782-16.805,31.946-22.207c3.165-5.401,5.415-11.944,5.415-11.944L354.992,215.878z"/>
<path fill="#8E5C4D" d="M285.76,271.087c0,0,1.923-4.348,9.643-4.596c7.721-0.249,15.621,7.637,14.896,10.746
	s-7.403,3.409-11.866,2.059C293.97,277.946,285.76,271.087,285.76,271.087z"/>
<path fill="#2A4451" d="M435.658,441.544c-3.248-4.401-0.899-49.214,0.728-67.22c1.627-18.005,14.43-46.014,8.028-52.016
	c-4.726-4.43-40.405,3.292-58.769,7.64c-0.334-0.379-0.702-0.711-1.124-0.966c-7.728-4.673-41.518-10.675-41.518-10.675
	s-9.752,35.611-10.387,40.812c-0.636,5.201,10.721,27.207,14.445,44.812c3.724,17.605,1.225,43.612,4.875,48.014
	c3.65,4.402-0.45,12.005,0,13.605c0.45,1.6-7.479,11.201-4.315,12.803c3.164,1.602,4.076,11.603,17.024,9.603
	s25.141-6.801,24.646-8.001c-0.495-1.201,0.306-22.406-1.695-33.61s-2.151-14.405-3.076-22.007
	c-0.925-7.603-6.626-9.202-5.776-16.005c0.85-6.802,5.776-48.014,5.776-48.014s0.229-0.797,0.567-2.118
	c1.756,5.594,3.369,11.754,4.476,18.122c4.035,23.208,5.632,35.211,9.034,46.015c3.403,10.803,0.999,28.008,0,36.41
	c-0.998,8.402-1.803,12.404,0,15.205c1.803,2.8-1.401,6.401,0,8.802c1.402,2.401,5.803,5.729,17.007,5.465
	s20.807-5.864,20.006-7.865c-0.8-2.001-2.399-8.403-1.6-11.604s3.2-9.203-0.401-13.204
	C430.01,451.547,438.907,445.946,435.658,441.544z"/>
<path fill="#0C0E11" d="M335.832,103.805c0,0,2.167-16.81,2.251-24.067c0.101-8.703,5.701-10.203,21.906-9.903
	c16.205,0.3,15.305,2.201,27.309-3.301c12.003-5.502,21.906-0.9,24.606,3.601c2.701,4.501,10.704,23.707,10.704,23.707
	L335.832,103.805z"/>
<linearGradient id="SVGID_15_" gradientUnits="userSpaceOnUse" x1="399.2148" y1="391.2617" x2="421.8924" y2="389.3114">
	<stop  offset="0" style="stop-color:#58869A"/>
	<stop  offset="1" style="stop-color:#2A4451"/>
</linearGradient>
<path fill="url(#SVGID_15_)" d="M389.564,339.348c0,0-5.159,16.081-3.647,21.572c1.511,5.492,6.883,39.013,8.483,49.415
	c1.6,10.402,4.508,18.682,5.854,22.444c1.348,3.764,4.348,10.765,4.348,10.765s15.165-8.803,16.785-18.605
	c1.62-9.802,0.62-9.403,1.62-29.408s4.401-59.326,4.401-59.326s-13.404,2.578-22.406,3.144
	C396,339.914,389.564,339.348,389.564,339.348z"/>
<linearGradient id="SVGID_16_" gradientUnits="userSpaceOnUse" x1="436.1953" y1="390.5176" x2="402.5857" y2="513.8531">
	<stop  offset="0" style="stop-color:#0F121C"/>
	<stop  offset="1" style="stop-color:#2A4451"/>
</linearGradient>
<path fill="url(#SVGID_16_)" d="M427.409,331.136c0,0,4.302,18.381,3.701,26.783c-0.601,8.403-2.9,36.011-3.701,52.216
	c-0.8,16.205-0.8,32.109-4.401,36.911c-3.601,4.801-18.306,7.802-18.306,7.802s3.958,0.9,13.232,0s13.713,9.003,7.292,11.403
	c-6.42,2.401-15.723,0.601-20.524,2.101c-4.801,1.501-4.801,1.501-4.801,1.501s4.201,6.302,13.504,5.102s12.064,4.501,7.982,6.302
	c-4.081,1.801-22.94-1.554-22.94-1.554s-2.747,3.654-1.547,5.154c1.2,1.501,10.883,6.386,20.649,3.794
	c9.768-2.592,18.395-4.094,19.278-8.896c0.884-4.801-1.184-10.203,0-13.804c1.185-3.601-2.872-10.503-2.194-13.204
	c0.678-2.7,4.579-4.902,3.979-9.203c-0.6-4.301-2.668-14.504-1.784-23.807s0.905-55.816,3.146-63.168
	c2.24-7.353,4.361-17.813,0-27.587C435.611,319.208,427.409,331.136,427.409,331.136z"/>
<path fill="#988575" d="M408.607,66.898c0,0-9.347,4.883-9.972,6.258s8.125,14.75,8.75,16.25s14.625-0.75,14.625-0.75
	s-7.622-15.301-9.075-18.223S408.607,66.898,408.607,66.898z"/>
<path fill="#0F121C" d="M385.089,358.202c0,0-4.293-7.685-8.094-13.086c-3.802-5.401-5.202-16.134-5.202-16.134
	s-3.602,8.731,0,21.936c3.601,13.204-3.399,51.815-0.8,63.618c2.6,11.804-8.558,17.605-14.082,18.605c0,0-0.322,4.4,8.479,3.401
	c8.803-1,16.405,10.403,16.405,16.404c0,6.002-21.808,11.005-20.206,13.005c1.601,2,11.804,2.001,15.405,2.401
	c3.601,0.399,1.612,10.202-5.996,13.003c-7.609,2.801-19.061,2.535-19.061,2.535s2.093,6.423,16.575,4.345
	c14.483-2.078,22.484-8.881,22.484-8.881s-2.199-43.613-4.4-51.015s-5.202-13.242-6.202-19.524
	C379.396,402.533,385.089,358.202,385.089,358.202z"/>
<linearGradient id="SVGID_17_" gradientUnits="userSpaceOnUse" x1="365.166" y1="257.6729" x2="317.6658" y2="260.9228">
	<stop  offset="0" style="stop-color:#9B2D3D"/>
	<stop  offset="1" style="stop-color:#E36477"/>
</linearGradient>
<path fill="url(#SVGID_17_)" d="M362.901,203.471c0,0-20.16,43.083-26.388,74.426c-6.229,31.342-1.995,48.788-1.995,48.788
	s64.08,23.633,111.496-3.575c0,0-3.739-116.457-14.403-135.663C420.946,168.241,376.646,167.691,362.901,203.471z"/>
<linearGradient id="SVGID_18_" gradientUnits="userSpaceOnUse" x1="384.0146" y1="245.3047" x2="368.6807" y2="249.9717">
	<stop  offset="0" style="stop-color:#6E1D2C"/>
	<stop  offset="1" style="stop-color:#9B2D3D"/>
</linearGradient>
<path fill="url(#SVGID_18_)" d="M354.138,249.488c0,0,18.656-4.4,24.658-6.501c6.001-2.102,24.555-9.904,24.555-9.904
	s-6.749,14.183-17.553,17.995C374.995,254.89,354.087,251.489,354.138,249.488z"/>
<path fill="#6E1D2C" d="M384.521,213.487c0,0,3.376,5.992,3.076,12.794s1.093,50.314,5.201,50.014s10.398-10.824,10.551-25.217
	c0.152-14.394-13.785-41.402-13.785-41.402L384.521,213.487z"/>
<path fill="#491722" d="M439.339,228.159c0,0-13.63-8.061-19.932-16.423c-6.302-8.362-8.103-11.363-8.103-11.363
	s2.064,16.256,8.303,25.908c6.238,9.652,5.027,17.005,5.715,38.611c0.687,21.606,2.961,35.401,1.674,42.008
	c-1.287,6.607-44.03,9.308-44.03,9.308s8.032,6.449,27.438,7.803c19.614,1.368,11.728,8.599,11.728,8.599s14.038-2.867,21.411-8.134
	s9.474-18.163,8.273-37.973S439.339,228.159,439.339,228.159z"/>
<path fill="#9B95A5" d="M362.901,209.076c0,0,9.84,8.322,31.222,2.66c21.383-5.661,35.461-30.425,32.473-41
	c-2.987-10.575-5.688-15.958-11.69-15.217C408.904,156.26,362.901,209.076,362.901,209.076z"/>
<linearGradient id="SVGID_19_" gradientUnits="userSpaceOnUse" x1="363.2261" y1="83.1377" x2="351.4231" y2="64.9321">
	<stop  offset="0.0485" style="stop-color:#252B39"/>
	<stop  offset="1" style="stop-color:#6AADC1"/>
</linearGradient>
<path fill="url(#SVGID_19_)" d="M375.524,70.336l20.506,2.7c0,0-12.084,2.601-24.862,2.4c-12.778-0.2-20.832-1.801-24.607,5.201
	c-3.775,7.002-4.576,20.406-4.576,20.406h-6.503c0,0,1.501-19.205,1.901-23.807c0.401-4.602,4.002-7.602,13.005-8.402
	C359.391,68.034,375.524,70.336,375.524,70.336z"/>
<linearGradient id="SVGID_20_" gradientUnits="userSpaceOnUse" x1="389.2925" y1="228.1602" x2="417.4067" y2="228.1602">
	<stop  offset="0.0182" style="stop-color:#CCCAC8"/>
	<stop  offset="1" style="stop-color:#FFFFFF"/>
</linearGradient>
<path fill="url(#SVGID_20_)" d="M389.398,193.471c0,0,0.3,51.015,0,64.519c-0.301,13.504,0.134,16.805,0.134,16.805
	s-0.235,1.501,3.267,1.501c3.501,0,22.407-2.401,22.707-3.302s1.801-0.9,1.801-6.302s0.9-73.232-2.701-83.729
	C411.005,172.465,389.398,193.471,389.398,193.471z"/>
<linearGradient id="SVGID_21_" gradientUnits="userSpaceOnUse" x1="314.394" y1="103.8047" x2="449.7441" y2="103.8047">
	<stop  offset="0.0485" style="stop-color:#252B39"/>
	<stop  offset="1" style="stop-color:#6AADC1"/>
</linearGradient>
<path fill="url(#SVGID_21_)" d="M314.775,111.047c0,0-1.2-9.002,41.613-17.605c42.812-8.603,89.026-10.603,92.627-1.8
	c3.602,8.802-5.202,15.604-47.814,21.806S309.573,129.453,314.775,111.047z"/>
<linearGradient id="SVGID_22_" gradientUnits="userSpaceOnUse" x1="314.394" y1="105.6221" x2="449.7441" y2="105.6221">
	<stop  offset="0.0485" style="stop-color:#252B39"/>
	<stop  offset="1" style="stop-color:#08090A"/>
</linearGradient>
<path fill="url(#SVGID_22_)" d="M314.775,112.864c0,0-1.2-9.002,41.613-17.605c42.812-8.603,89.026-10.603,92.627-1.8
	c3.602,8.802-5.202,15.604-47.814,21.806S309.573,131.27,314.775,112.864z"/>
<g>
	<defs>
		<path id="SVGID_23_" d="M389.398,193.471c0,0,0.3,51.015,0,64.519c-0.301,13.504,0.134,16.804,0.134,16.804
			s-0.235,1.501,3.267,1.501c3.501,0,22.407-2.4,22.707-3.301s1.801-0.9,1.801-6.302s0.9-73.232-2.701-83.729
			C411.005,172.465,389.398,193.471,389.398,193.471z"/>
	</defs>
	<clipPath id="SVGID_24_">
		<use xlink:href="#SVGID_23_"  overflow="visible"/>
	</clipPath>
	<g clip-path="url(#SVGID_24_)">
		<linearGradient id="SVGID_25_" gradientUnits="userSpaceOnUse" x1="410.8799" y1="207.2515" x2="393.8743" y2="210.6527">
			<stop  offset="0.0485" style="stop-color:#252B39"/>
			<stop  offset="1" style="stop-color:#08090A"/>
		</linearGradient>
		<path fill="url(#SVGID_25_)" d="M387.598,205.074c0,0,2.6,1,5.201,1c2.601,0,24.607-5.802,24.607-5.802v12.404
			c0,0-25.401,5.602-27.905,4.801C386.997,216.678,387.598,205.074,387.598,205.074z"/>
		<linearGradient id="SVGID_26_" gradientUnits="userSpaceOnUse" x1="412.1094" y1="230.2808" x2="393.2646" y2="234.0499">
			<stop  offset="0.0485" style="stop-color:#252B39"/>
			<stop  offset="1" style="stop-color:#08090A"/>
		</linearGradient>
		<path fill="url(#SVGID_26_)" d="M386.311,228.681c0,0,2.6,1,5.201,1c2.601,0,28.096-5.802,28.096-5.802v11.404
			c0,0-28.89,6.601-31.394,5.801C385.71,240.285,386.311,228.681,386.311,228.681z"/>
		<linearGradient id="SVGID_27_" gradientUnits="userSpaceOnUse" x1="411.6514" y1="254.8872" x2="392.8068" y2="258.6562">
			<stop  offset="0.0485" style="stop-color:#252B39"/>
			<stop  offset="1" style="stop-color:#08090A"/>
		</linearGradient>
		<path fill="url(#SVGID_27_)" d="M385.854,253.288c0,0,2.6,1,5.201,1c2.601,0,28.096-5.802,28.096-5.802v11.404
			c0,0-28.89,6.602-31.394,5.802C385.253,264.892,385.854,253.288,385.854,253.288z"/>
	</g>
</g>
<path fill="#67482C" d="M402.602,103.805c0,0,11.818-0.983,25.607,1.24c0,0,9.202,22.406,10.804,29.008
	c1.601,6.602-3.2,2.601-3.2,2.601s0.998,7.402,2.6,12.203c1.602,4.802-8.202-2-8.202-2s2.001,8.402,3.001,11.403
	c1,3-6.602,0-6.602,0s1.802,7.802,0.8,11.203c-1.001,3.401-6.438,1.401-6.438,1.401s0.037,6.202-1.964,9.803
	s-15.427,7.802-15.427,7.802s-8.979,16.405-10.381,16.805c-1.4,0.4-2.201-3.201-2.201-3.201s-1.599,7.402-3.2,9.002
	s-2.4-3.802-2.4-3.802s-2.802,11.604-5.202,12.804c-2.401,1.201-4.087-4.602-4.087-4.602s-6.834,10.803-9.575,10.803
	c-2.742,0-3.543-7.202-3.543-7.202s-8.202,2.801-9.603-1.8c-1.401-4.602-4.402-9.003-4.402-9.003s-0.799,5.602-2.6,2.601
	c-1.801-3-3.601-7.202-3.601-7.202s-3.602-0.6-4.402-3.4s-3.801-9.603-3.801-9.603s-5.201-1.4-7.002-11.403
	c-1.801-10.003-1.401-26.208,3.4-30.809c4.802-4.601,5.403-7.002,14.205-7.002s43.013,1.801,43.013,1.801L402.602,103.805z"/>
<path fill="#392414" d="M341.172,152.529c0,0,1.562,3.581,8.915,4.931c7.352,1.351,11.403-3.751,11.403-3.751
	s7.652-2.384,9.678-8.019c0,0-4.028,0.367-8.354,2.917s-13.623,3.601-15.427,3.451C345.585,151.909,341.172,152.529,341.172,152.529
	z"/>
<linearGradient id="SVGID_28_" gradientUnits="userSpaceOnUse" x1="384.396" y1="155.0342" x2="387.1964" y2="171.8393">
	<stop  offset="0.0061" style="stop-color:#392414"/>
	<stop  offset="1" style="stop-color:#67482C"/>
</linearGradient>
<path fill="url(#SVGID_28_)" d="M375.714,147.624c0,0,9.841,1.789,15.842,12.722c6.002,10.934-0.4,22.617-0.4,22.617
	S395.082,161.379,375.714,147.624z"/>
<linearGradient id="SVGID_29_" gradientUnits="userSpaceOnUse" x1="370.6475" y1="110.3965" x2="366.1475" y2="133.8965">
	<stop  offset="0.0485" style="stop-color:#D29476"/>
	<stop  offset="1" style="stop-color:#FEE2C5"/>
</linearGradient>
<path fill="url(#SVGID_29_)" d="M334.782,116.648c0,0,0.599-2.801,23.807-7.802c23.207-5.001,44.013-5.041,44.013-5.041
	s2.2,15.644,0,28.248c-2.2,12.604-9.803,18.605-9.803,18.605s-8.803-7.202-15.404-7.202s-10.603,3.201-10.603,3.201
	s-3.402,5.002-7.003,4.001c0,0-3.2,5.001-10.402,4.801c-7.202-0.2-11.204-5.801-9.804-11.003c0,0-6.202,1.2-8.603,4.001
	C330.98,148.458,325.779,141.456,334.782,116.648z"/>
<path fill="#FFFFFF" d="M371.168,127.145c0,0,0.075,2.033,0.75,4.208c0.675,2.176,2.64,2.584,4.19,1.901
	c1.551-0.683,8.413-5.577,8.413-5.802s-3.583-0.149-5.877-0.6S371.918,126.762,371.168,127.145z"/>
<path fill="#D29476" d="M335.832,132.778c0,0,3.113,2.678,7.521,1.977l-2.182,6.934c0,0,0.71-5.066-1.339-5.534
	C338.331,135.812,336.005,134.925,335.832,132.778z"/>
<g>
	<defs>
		<path id="SVGID_30_" d="M371.168,127.145c0,0,0.075,2.033,0.75,4.208c0.675,2.176,2.64,2.584,4.19,1.901
			c1.551-0.683,8.413-5.577,8.413-5.802s-3.583-0.149-5.877-0.6S371.918,126.762,371.168,127.145z"/>
	</defs>
	<clipPath id="SVGID_31_">
		<use xlink:href="#SVGID_30_"  overflow="visible"/>
	</clipPath>
	<g clip-path="url(#SVGID_31_)">
		<path fill="#4E6475" d="M370.533,130.7c0.525,2.154,2.438,3.62,4.257,3.265c1.82-0.353,2.869-2.395,2.341-4.548
			c-0.524-2.158-2.577-3.709-4.396-3.354C370.909,126.419,370.007,128.543,370.533,130.7z"/>
		<g>
			<path fill="#1E272E" d="M374.018,133.056c-1.403,0.119-2.732-1.151-2.962-2.828c-0.231-1.678,0.723-3.139,2.127-3.257
				c1.399-0.119,2.728,1.151,2.959,2.829C376.37,131.477,375.419,132.938,374.018,133.056L374.018,133.056z M373.222,127.279
				c-1.24,0.105-2.086,1.417-1.878,2.924c0.207,1.508,1.389,2.648,2.63,2.543c1.243-0.104,2.085-1.417,1.877-2.925
				C375.646,128.316,374.468,127.176,373.222,127.279L373.222,127.279z"/>
		</g>
		<path fill="#1E272E" d="M372.012,130.295c0.25,1.047,1.098,1.765,1.894,1.609c0.793-0.153,1.229-1.122,0.977-2.166
			c-0.256-1.041-1.107-1.761-1.9-1.607C372.19,128.288,371.754,129.257,372.012,130.295z"/>
	</g>
</g>
<path fill="#1D222D" d="M367.892,127.552c0,0-0.1-0.801,4.401-1.101c4.501-0.3,17.105,0.55,17.105,0.55s-3.402,0.35-4.702,1.05
	s-5.003,3.101-6.052,3.901c-1.05,0.8-2.536,1.3-2.536,1.3s2.785-2.034,4.987-3.618c2.201-1.583,2.601-2.284,2.601-2.284
	s-6.002,0-9.303-0.1C371.093,127.151,368.991,126.952,367.892,127.552z"/>
<linearGradient id="SVGID_32_" gradientUnits="userSpaceOnUse" x1="371.7334" y1="197.167" x2="370.7335" y2="172.9597">
	<stop  offset="0.0061" style="stop-color:#8C6340"/>
	<stop  offset="1" style="stop-color:#67482C"/>
</linearGradient>
<path fill="url(#SVGID_32_)" d="M348.486,171.945c0,0-4.35,9.973-4.451,22.126c-0.101,12.153,6.502,10.503,6.502,10.503
	s0.75,10.053,8.402,11.104s12.202-6.602,8.577-14.854c0,0,2.525,2.701,3.651,9.002c1.125,6.302-2.025,9.603-2.025,9.603
	s8.552-3.258,8.702-12.807c0,0,6.151,0.883,8.402-10.935c0,0,1.141,2.955,1.801,8.438c0,0,9.902-8.142,10.503-21.776
	c0.601-13.634-4.501-23.325-9.152-26.882c0,0,5.552,7.096,4.501,17.599c0,0-3.226-12.153-13.917-16.354
	c-10.69-4.202-15.915,3.901-15.915,3.901s11.677,2.701,13.777,9.753s-13.464,13.354-14.943,6.452c0,0-5.747-4.546-6.731-6.602
	C356.17,170.214,353.188,170.825,348.486,171.945z"/>
<path fill="#B1765C" d="M367.892,126.852c0,0,1.4-0.976,4.927-1.201s13.429,0.736,13.429,0.736v-0.77c0,0-8.553-0.716-12.379-0.716
	S367.892,126.852,367.892,126.852z"/>
<path fill="#282019" d="M363.07,117.76c0,0,1.304,2.774,11.713,3.317c10.408,0.542,21.247-2.776,21.247-2.776
	s-6.935,0.891-13.397,0.925c-6.462,0.034-18.635-4.607-19.032-4.958c-0.398-0.35,0.639,1.764,1.187,2.105
	C365.335,116.714,362.147,116.24,363.07,117.76z"/>
<ellipse fill="#FFFFFF" cx="377.357" cy="128.873" rx="2.625" ry="0.762"/>
<linearGradient id="SVGID_33_" gradientUnits="userSpaceOnUse" x1="370.2319" y1="134.7549" x2="381.1963" y2="134.7549">
	<stop  offset="0.0485" style="stop-color:#D29476"/>
	<stop  offset="1" style="stop-color:#FEE2C5"/>
</linearGradient>
<path fill="url(#SVGID_33_)" d="M370.393,132.253c0,0,2.303,2.2,3.402,2.601s7.401,0,7.401,0s-2.502,2.301-5.401,2.401
	C372.895,137.354,369.442,134.303,370.393,132.253z"/>
<g>
	<defs>
		<path id="SVGID_34_" d="M336.58,130.541c0,0-0.696,2.863,2.404,3.463c3.101,0.6,4.702,0.3,5.401-0.75
			c0.7-1.05,0.808-3.154,0.808-3.154s-1.834-1.173-4.858-0.626S336.58,130.541,336.58,130.541z"/>
	</defs>
	<use xlink:href="#SVGID_34_"  overflow="visible" fill="#FFFFFF"/>
	<clipPath id="SVGID_35_">
		<use xlink:href="#SVGID_34_"  overflow="visible"/>
	</clipPath>
	<g clip-path="url(#SVGID_35_)">
		<path fill="#4E6475" d="M336.895,132.269c0.287,1.792,1.777,3.05,3.317,2.803c1.541-0.248,2.558-1.909,2.269-3.7
			c-0.285-1.796-1.772-3.054-3.313-2.806C337.621,128.814,336.607,130.473,336.895,132.269z"/>
		<g>
			<path fill="#1E272E" d="M339.632,134.301c-1.178,0.063-2.196-1.019-2.27-2.41c-0.074-1.392,0.822-2.574,2-2.638
				c1.174-0.063,2.192,1.019,2.267,2.41S340.808,134.238,339.632,134.301L339.632,134.301z M339.374,129.509
				c-1.043,0.057-1.837,1.119-1.77,2.369c0.067,1.251,0.971,2.223,2.013,2.167c1.042-0.055,1.837-1.119,1.77-2.369
				C341.319,130.426,340.418,129.455,339.374,129.509L339.374,129.509z"/>
		</g>
		<path fill="#1E272E" d="M338.153,131.971c0.135,0.871,0.791,1.485,1.465,1.376c0.674-0.106,1.104-0.896,0.967-1.765
			c-0.141-0.865-0.8-1.482-1.472-1.375C338.442,130.317,338.013,131.107,338.153,131.971z"/>
	</g>
</g>
<path fill="#1D222D" d="M345.585,131.203c0,0,0.375-1.259-3.001-1.567c-3.376-0.308-7.877,1.567-7.877,1.567
	s2.251-1.726,6.452-2.025c4.201-0.3,5.401,1.013,5.401,1.013L345.585,131.203z"/>
<path fill="#B1765C" d="M335.481,129.82c0,0,3.853-1.908,11.079-0.688l1.926-3.257l-2.325,1.972
	C346.161,127.848,339.282,127.587,335.481,129.82z"/>
<path fill="#D29476" d="M364.803,135.83c0,0,6.44,1.075,7.34,4.226c0.9,3.151,4.645,1.556,8.249,2.804
	c3.604,1.248,5.855,3.444,5.855,3.444s-8.069-3.443-19.714,0.706C366.533,147.009,370.966,140.906,364.803,135.83z"/>
<ellipse fill="#FFFFFF" cx="343.354" cy="131.507" rx="2.182" ry="0.746"/>
<linearGradient id="SVGID_36_" gradientUnits="userSpaceOnUse" x1="364.4863" y1="144.1128" x2="367.4875" y2="134.709">
	<stop  offset="0.0485" style="stop-color:#FFFCF5"/>
	<stop  offset="1" style="stop-color:#FEE2C5"/>
</linearGradient>
<path fill="url(#SVGID_36_)" d="M367.292,146.857c0,0,1.898-3.8,0.6-6.701c-1.299-2.901-4.2-5.401-4.2-5.401
	s3.212,4.911,2.293,9.401s-5.594,5.502-5.594,5.502l-0.602,1C359.789,150.659,364.19,152.559,367.292,146.857z"/>
<linearGradient id="SVGID_37_" gradientUnits="userSpaceOnUse" x1="343.1143" y1="153.895" x2="354.8332" y2="128.6543">
	<stop  offset="0.0485" style="stop-color:#FFFCF5"/>
	<stop  offset="1" style="stop-color:#FEE2C5"/>
</linearGradient>
<path fill="url(#SVGID_37_)" d="M348.888,124.901c0,0-7.759,8.785-9.459,19.588c-1.699,10.803,7.572,11.575,12.467,10.823
	c0,0-7.811-3.653-7.01-9.655c0.801-6.001,5.802-17.405,7.603-20.756S350.288,122.15,348.888,124.901z"/>
<path fill="#282019" d="M334.082,123.351c0,0,2.401,0.614,10.003-0.743s9.902-3.858,9.902-3.858s-2.102,0.2-2.601,0
	c-0.5-0.2,2.002-2.4,0.701-2.5c-1.302-0.1-1.4,2.807-8.053,4.888C337.383,123.218,334.082,123.351,334.082,123.351z"/>
<ellipse fill="#FFFFFF" cx="352.137" cy="148.608" rx="3.651" ry="3.451"/>
<path fill="#392414" d="M341.459,170.907c0,0,3.831,0.114,5.071-3.664c0,0,2.939,0.573,4.154-2.632c0,0,2.751,2.748,6.23,1.03
	c0,0,4.289,6.753,10.602,5.266c0,0-6.879,3.763-10.602-3.041c0,0-1.779,1.209-5.988-1.194c0,0-1.995,2.174-4.396,2.403
	C346.53,169.075,346.314,171.708,341.459,170.907z"/>
<path fill="#8C6340" d="M330.431,152.959c0,0-3.425,12.899-2.988,25.505c0.438,12.606,7.771,13.664,7.771,13.664
	s1.753,11.825,7.863,12.21c0,0,2.095,7.146,4.172,7.397c0,0-1.997-9.412-2.056-15.414c-0.059-6.001,5.344-16.805,5.344-16.805
	s-6.615,10.053-7.184,17.105c0,0-1.637,2.551-3.979-1.351c-2.343-3.901-1.142-9.603-1.142-9.603s-4.351,3.171-7.503-5.702
	C327.579,171.095,330.431,152.959,330.431,152.959z"/>
<path fill="#8C6340" d="M354.487,186.569c0,0-2.134,14.705-1.542,24.157s6.844,9.071,6.844,9.071s-11.303,4.602-11.303-12.222
	C348.486,196.322,354.487,186.569,354.487,186.569z"/>
<linearGradient id="SVGID_38_" gradientUnits="userSpaceOnUse" x1="416.792" y1="140.9746" x2="449.8024" y2="134.9727">
	<stop  offset="0.0061" style="stop-color:#392414"/>
	<stop  offset="1" style="stop-color:#67482C"/>
</linearGradient>
<path fill="url(#SVGID_38_)" d="M432.911,125.876c-0.9-7.427-7.624-21.259-7.624-21.259c-14.036-2.085-22.686-0.812-22.686-0.812
	s0,12.543-0.149,22.071c-0.115,7.295-2.948,14.706-4.273,17.786c-1.547,2.381-3.322,4.739-5.38,6.997c0,0,5.803,6.299,8.603,13.953
	c2.801,7.654-0.801,19.057-0.801,19.057s7.604-8.905,7.604-19.057c0-2.431-0.27-4.701-0.673-6.757
	c1.819,0.092,4.963-0.131,7.374-2.335c3.602-3.292,0.601-11.863,4.201-8.51c3.602,3.353,2.551,9.551,2.551,9.551
	c2.701-5.102,0.951-19.327,0.951-19.327s5.201,9.124,7.602,5.625s0.45-10.081,0.45-10.081S433.812,133.303,432.911,125.876z"/>
<linearGradient id="SVGID_39_" gradientUnits="userSpaceOnUse" x1="339.5781" y1="162.5977" x2="370.4053" y2="162.5977">
	<stop  offset="0.0061" style="stop-color:#8C6340"/>
	<stop  offset="1" style="stop-color:#67482C"/>
</linearGradient>
<path fill="url(#SVGID_39_)" d="M341.172,157.688c0,0-1.771,1.373-1.579,6.074s1.56,6.73,3.761,6.002s2.183-3.501,2.183-3.501
	s2.949,0.471,4.35-2.465c0,0,1.602,2.826,7.304,1.495c0,0,2.583,6.171,9.344,5.372c6.76-0.8,3.959-14.305-2.942-16.205
	c0,0-4.301,4.601-10.203,4.501s-8.194-2.301-8.194-2.301L341.172,157.688z"/>
<linearGradient id="SVGID_40_" gradientUnits="userSpaceOnUse" x1="434.6348" y1="348.7168" x2="465.6406" y2="348.7168">
	<stop  offset="0.0485" style="stop-color:#D29476"/>
	<stop  offset="1" style="stop-color:#FEE2C5"/>
</linearGradient>
<path fill="url(#SVGID_40_)" d="M440.014,335.313c0,0-4.802,7.202-5.201,9.402c-0.4,2.2,0,4.801,0,4.801s3.325,1.832,4.201,4.602
	c0.875,2.769,1.618,9.002,4.01,9.803s5.193-1.8,5.193-1.8s3.001,3.002,5.801,0.8c2.801-2.201,3.001,0.4,5.402-2.601
	c2.4-3.001,3.863-0.401,5.532-3.802c1.67-3.4,0.018-19.005-1.957-22.006C461.02,331.512,440.014,335.313,440.014,335.313z"/>
<path fill="#D49779" d="M436.828,340.437c0,0,6.286,2.179,16.039,0.979c9.753-1.201,11.603-2.174,11.603-2.174
	s-0.35-4.935-1.475-5.882c-1.126-0.947-24.982,2.845-24.982,2.845S437.583,339.083,436.828,340.437z"/>
<path fill="#9B2D3D" d="M422.608,219.429c0,0,6.601,33.259,12.203,63.669c5.602,30.409,2.922,41.163,4.262,43.588
	c1.34,2.426-5.463,6.025-1.861,7.627c3.601,1.601-0.947,3.201,2.127,4.401c3.075,1.2,9.877,0.399,14.678,0
	c4.802-0.399,12.004-2.402,10.804-5.603c-1.201-3.2-1.651-1.102-1.825-6.553c-0.175-5.45-0.977-20.871-2.977-47.17
	c-2-26.3-17.759-88.029-30.363-94.808C417.052,177.801,422.608,219.429,422.608,219.429z"/>
<path fill="#6E1D2C" d="M425.469,233.994c0,0-1.86-19.816,4.741-33.621c0,0,2.101,19.468,6.902,36.892
	c4.801,17.424,9.902,15.818,12.604,43.479s0.033,33.362,2.417,38.764c2.385,5.402,8.687,7.051,8.687,7.051s0.3,2.895-6.902,2.424
	c-7.202-0.472-13.27,2.323-10.686,3.626c2.583,1.304,13.086,1.904,13.086,1.904s-6.2,1.883-10.303,1.691
	c-4.102-0.191-4.123,3.036-4.123,3.036s-6.216,0.16-5.979-3.036c0.235-3.196-2.401-1.991-1.501-4.992s2.701-8.103,2.701-11.403
	C437.112,316.507,429.409,259.091,425.469,233.994z"/>
<path fill="#DB9233" d="M338.648,268.65c0,0,12.237,0.743,21.141,3.144c0,0,2.601,0.601,1.4,4.502c-1.2,3.9-2.803,17.954-3.4,23.659
	c-0.5,4.78,0.264,6.143-1.619,8.347c-1.882,2.204-22.938-3.879-22.938-3.879s-1.3-1.938-0.12-9.822
	C334.45,285.667,335.7,268.419,338.648,268.65z"/>
<path fill="#2D3031" d="M339.383,270.294c0,0,2.502-6.401,3.201-6.401c0.7,0,0.4,0.199,0,1.3c-0.399,1.101-2.101,5.102-2.101,5.102
	S339.122,270.947,339.383,270.294z"/>
<path fill="#2D3031" d="M348.316,272.887c0,0,2.502-6.401,3.201-6.401c0.7,0,0.4,0.199,0,1.3c-0.399,1.101-2.101,5.102-2.101,5.102
	S348.055,273.541,348.316,272.887z"/>
<path fill="#2D3031" d="M354.769,274.12c0,0-0.654-6.842-0.029-7.157s0.446-0.003,0.586,1.16s0.426,5.501,0.426,5.501
	S354.829,274.822,354.769,274.12z"/>
<path fill="#2D3031" d="M340.583,264.992l1.302,5.592c0,0,0.639,0.69,1.119,0l-1.827-6.292
	C341.177,264.292,340.424,264.306,340.583,264.992z"/>
<path fill="#2D3031" d="M345.863,264.992l1.301,5.592c0,0,0.639,0.69,1.12,0l-1.828-6.292
	C346.456,264.292,345.704,264.306,345.863,264.992z"/>
<path fill="#2D3031" d="M357.289,276.295c0,0,6.303-1.908,6.802-1.954c0.5-0.046,0.701,0.899,0,0.977
	c-0.701,0.078-6.802,1.878-6.802,1.878S356.63,276.493,357.289,276.295z"/>
<path fill="#2D3031" d="M357.369,277.712c0,0,6.539,0.778,7.015,0.937c0.477,0.158,0.281,1.105-0.392,0.896
	c-0.673-0.211-6.983-1.007-6.983-1.007S356.687,277.63,357.369,277.712z"/>
<path fill="#2D3031" d="M356.535,288.473c0,0,4.961,1.468,5.29,1.667c0.327,0.199-0.136,1.038-0.604,0.769
	c-0.468-0.269-5.242-1.727-5.242-1.727S356.016,288.319,356.535,288.473z"/>
<path fill="#2D3031" d="M355.456,293.078c0,0,4.961,1.467,5.291,1.667c0.327,0.199-0.137,1.037-0.605,0.768
	c-0.468-0.269-5.242-1.726-5.242-1.726S354.938,292.925,355.456,293.078z"/>
<path fill="#2D3031" d="M357.944,280.748c0,0,5.402,0.643,5.796,0.774c0.393,0.131,0.232,0.913-0.323,0.739
	c-0.557-0.174-5.771-0.832-5.771-0.832S357.379,280.68,357.944,280.748z"/>
<path fill="#2D3031" d="M358.064,282.564c0,0,4.754-2.646,5.149-2.771c0.396-0.124,0.725,0.604,0.172,0.789
	c-0.554,0.186-5.164,2.71-5.164,2.71S357.567,282.841,358.064,282.564z"/>
<path fill="#2D3031" d="M355.938,294.839c0,0,4.753-2.647,5.149-2.771c0.395-0.125,0.725,0.604,0.171,0.788
	c-0.554,0.187-5.164,2.711-5.164,2.711S355.44,295.115,355.938,294.839z"/>
<path fill="#2D3031" d="M339.576,308.285c0,0,4.754-2.646,5.149-2.771c0.396-0.124,0.725,0.603,0.172,0.788
	c-0.554,0.187-5.164,2.712-5.164,2.712S339.079,308.562,339.576,308.285z"/>
<path fill="#2D3031" d="M355.751,299.955l5.02,1.548c0,0,1.079,0.937,0,1.318l-5.02-1.434
	C355.751,301.388,354.913,300.509,355.751,299.955z"/>
<path fill="#2D3031" d="M354.928,304.755l4.311,3.003c0,0,0.742,1.221-0.402,1.256l-4.344-2.895
	C354.492,306.119,353.962,305.026,354.928,304.755z"/>
<path fill="#2D3031" d="M350.832,305.465l-0.157,5.252c0,0-0.615,1.288-1.271,0.349l0.047-5.22
	C349.451,305.846,350.077,304.805,350.832,305.465z"/>
<path fill="#2D3031" d="M343.718,304.021l-0.157,5.252c0,0-0.615,1.288-1.271,0.35l0.047-5.22
	C342.337,304.403,342.963,303.362,343.718,304.021z"/>
<path fill="#2D3031" d="M337.877,302.385l-0.157,5.251c0,0-0.615,1.288-1.271,0.35l0.047-5.22
	C336.496,302.766,337.122,301.725,337.877,302.385z"/>
<g>
	<path fill="#D29476" d="M311.075,286.518c0,0,2.002-3.464,3.387-5.773c-1.41-1.365-4.036-3.662-7.816-5.974
		c-5.931-3.625-14.025-7.178-17.927-5.827s-6.902,7.652-6.902,14.404s5.644,19.337,5.644,19.337s15.513-3.732,19.186-8.557
		c0.948-1.246,4.736-1.674,7.938-1.188C312.522,289.407,311.075,286.518,311.075,286.518z"/>
	<path fill="#D29476" d="M318.857,306.004c0,0,3.471,0.132,4.671,0.816c1.201,0.685,1.275-3.217,0-4.718
		c-1.275-1.5-4.671-2.147-4.671-2.147S319.062,304.429,318.857,306.004z"/>
	<linearGradient id="SVGID_41_" gradientUnits="userSpaceOnUse" x1="287.46" y1="297.4019" x2="320.4438" y2="297.4019">
		<stop  offset="0.0485" style="stop-color:#D29476"/>
		<stop  offset="1" style="stop-color:#FEE2C5"/>
	</linearGradient>
	<path fill="url(#SVGID_41_)" d="M311.075,286.518c0,0,5.782,10.031,7.782,13.438c1.832,3.121,2.381,5.899,0,6.049
		c-2.381,0.15-8.082-4.351-8.082-4.351s-0.9,3-4.052,3.601c-3.15,0.601-2.4,2.4-5.852,2.701c-3.451,0.3-4.051,0.6-6.602,0
		c-2.551-0.601-6.811-5.271-6.811-5.271s-0.092-5.51,3.959-6.133c4.052-0.624,2.401-6.303,8.553-5.552
		C306.124,291.75,304.195,286.172,311.075,286.518z"/>
	<path fill="#D29476" d="M310.775,301.653c0,0-5.154-5.552-6.379-7.854c0,0-0.423,1.102,1.978,4.402
		c2.401,3.301,3.731,4.78,3.731,4.78S310.575,302.468,310.775,301.653z"/>
	<path fill="#D29476" d="M304.794,305.999c0,0-3.622-3.971-5.422-6.146c-1.801-2.176-0.826,0.596,1.35,3.073
		c2.176,2.479,3.347,3.651,3.347,3.651L304.794,305.999z"/>
	<path fill="#D29476" d="M299.461,308.091c0,0-5.116-3.438-8.116-7.488c0,0,0.986,3.277,6.607,7.641
		C297.952,308.243,298.889,308.148,299.461,308.091z"/>
</g>
<linearGradient id="SVGID_42_" gradientUnits="userSpaceOnUse" x1="344.8618" y1="381.9258" x2="363.4678" y2="380.3257">
	<stop  offset="0" style="stop-color:#58869A"/>
	<stop  offset="1" style="stop-color:#2A4451"/>
</linearGradient>
<path fill="url(#SVGID_42_)" d="M342.29,334.713c0,0-6.905,20.3-7.908,24.607c-1.002,4.308,3.124,14.573,6.825,25.474
	c3.7,10.9,7.549,29.721,7.842,36.142c0.293,6.422,10.074,9.407,14.908,5.405c4.835-4.002,4.035-19.606,4.636-29.21
	c0.6-9.603,2.476-42.667,0-47.413c-2.477-4.747-1.401-12.227-1.401-12.227S350.198,338.314,342.29,334.713z"/>
<path fill="#FFFFFF" d="M400.969,81.073l2.61-1.75c0,0,0.808,0.083,0.474,0.875l-2.75,1.792
	C401.303,81.99,400.565,81.343,400.969,81.073z"/>
<path fill="#FFFFFF" d="M402.646,83.415l2.61-1.75c0,0,0.808,0.083,0.474,0.875l-2.75,1.792
	C402.979,84.332,402.242,83.685,402.646,83.415z"/>
<path fill="#FFFFFF" d="M398.725,78.156l2.61-1.75c0,0,0.808,0.083,0.474,0.875l-2.75,1.792
	C399.059,79.073,398.321,78.427,398.725,78.156z"/>
<path fill="#FFFFFF" d="M397.039,74.872l3.083-0.611c0,0,0.713,0.387,0.1,0.99l-3.228,0.596
	C396.994,75.847,396.562,74.966,397.039,74.872z"/>
<path fill="#FFFFFF" d="M399.068,71.067l2.599,1.768c0,0,0.225,0.78-0.636,0.766l-2.689-1.881
	C398.342,71.719,398.666,70.793,399.068,71.067z"/>
<path fill="#FFFFFF" d="M401.542,69.192l2.599,1.768c0,0,0.225,0.78-0.636,0.766l-2.689-1.881
	C400.815,69.845,401.14,68.919,401.542,69.192z"/>
<path fill="#FFFFFF" d="M404.86,67.424l2.599,1.768c0,0,0.225,0.78-0.636,0.766l-2.689-1.881
	C404.134,68.077,404.458,67.151,404.86,67.424z"/>
<path fill="#DB9233" d="M437.396,194.4c0,0-7.886,3.006-9.511,5.006s-0.375,4.25,0.625,7.375s6.875,18.883,7.625,21.379
	s3.5,2.496,5,1.621s7.946-4.198,7.946-4.198s-0.196-3.302-1.446-7.802S439.34,196.24,437.396,194.4z"/>
<path fill="#2D3031" d="M440.137,232.257c0,0.22-0.179,0.399-0.399,0.399l0,0c-0.22,0-0.398-0.179-0.398-0.399v-3.699
	c0-0.22,0.179-0.399,0.398-0.399l0,0c0.221,0,0.399,0.179,0.399,0.399V232.257z"/>
<path fill="#2D3031" d="M443.688,230.675c0.091,0.2,0.003,0.437-0.198,0.529l0,0c-0.2,0.091-0.437,0.002-0.528-0.198l-1.534-3.366
	c-0.091-0.2-0.003-0.437,0.197-0.528l0,0c0.201-0.091,0.438-0.003,0.529,0.197L443.688,230.675z"/>
<path fill="#2D3031" d="M446.681,228.922c0.067,0.148-0.04,0.343-0.241,0.435l0,0c-0.2,0.091-0.417,0.045-0.485-0.104l-1.136-2.491
	c-0.066-0.148,0.04-0.343,0.241-0.434l0,0c0.2-0.091,0.418-0.045,0.485,0.103L446.681,228.922z"/>
<path fill="#2D3031" d="M434.579,226.789c-0.111,0.119-0.332,0.095-0.494-0.056l0,0c-0.16-0.15-0.201-0.368-0.09-0.488l1.865-2.004
	c0.111-0.118,0.332-0.095,0.493,0.056l0,0c0.161,0.15,0.202,0.369,0.091,0.488L434.579,226.789z"/>
<path fill="#2D3031" d="M431.543,221.822c-0.196,0.063-0.41-0.055-0.479-0.266l0,0c-0.066-0.209,0.035-0.43,0.232-0.494l3.28-1.063
	c0.193-0.062,0.408,0.055,0.476,0.265l0,0c0.067,0.209-0.036,0.432-0.231,0.494L431.543,221.822z"/>
<path fill="#2D3031" d="M429.528,217.322c-0.196,0.063-0.41-0.055-0.479-0.266l0,0c-0.066-0.209,0.035-0.43,0.232-0.494l3.28-1.063
	c0.193-0.062,0.408,0.055,0.476,0.265l0,0c0.067,0.209-0.036,0.432-0.231,0.494L429.528,217.322z"/>
<path fill="#2D3031" d="M427.514,211.515c-0.196,0.063-0.41-0.055-0.479-0.266l0,0c-0.066-0.209,0.035-0.43,0.232-0.494l3.28-1.063
	c0.193-0.062,0.408,0.055,0.476,0.265l0,0c0.067,0.209-0.036,0.432-0.231,0.494L427.514,211.515z"/>
<path fill="#2D3031" d="M425.378,205.152c-0.207,0-0.373-0.18-0.372-0.401l0,0c0.002-0.219,0.167-0.397,0.374-0.396l3.449,0.011
	c0.202,0.001,0.37,0.179,0.369,0.4l0,0c-0.002,0.22-0.169,0.399-0.374,0.397L425.378,205.152z"/>
<path fill="#2D3031" d="M426.692,199.206c-0.174-0.113-0.215-0.354-0.093-0.54l0,0c0.121-0.183,0.356-0.242,0.53-0.127l2.883,1.893
	c0.169,0.111,0.212,0.353,0.091,0.537l0,0c-0.122,0.184-0.359,0.242-0.53,0.129L426.692,199.206z"/>
<path fill="#2D3031" d="M431.057,194.878c-0.055-0.2,0.075-0.407,0.29-0.464l0,0c0.212-0.056,0.427,0.057,0.48,0.258l0.888,3.333
	c0.052,0.195-0.077,0.404-0.29,0.46l0,0c-0.213,0.056-0.429-0.059-0.481-0.257L431.057,194.878z"/>
</svg>
