<?xml version="1.0" encoding="utf-8"?>
<!-- Generator: Adobe Illustrator 16.0.4, SVG Export Plug-In . SVG Version: 6.00 Build 0)  -->
<!DOCTYPE svg PUBLIC "-//W3C//DTD SVG 1.1//EN" "http://www.w3.org/Graphics/SVG/1.1/DTD/svg11.dtd">
<svg version="1.1" id="Layer_1" xmlns="http://www.w3.org/2000/svg" xmlns:xlink="http://www.w3.org/1999/xlink" x="0px" y="0px"
	 width="482.431px" height="837.023px" viewBox="0 0 482.431 837.023" enable-background="new 0 0 482.431 837.023"
	 xml:space="preserve">
<g>
	<path fill="#020304" d="M256.512,749.807c0,0-0.761,9.891,4.994,23.152c0,0,7.617,7.012,13.437,6.863
		c0,0-1.644,11.686,7.814,17.043c9.467,5.354,19.58,16.131,32.016,20.975c9.256,3.613,26.04,4.143,35.828-0.994
		c9.822-5.137,6.046-16.061,6.046-16.061s-25.013,8.691-35.483,3.012c-10.482-5.682-20.05-16.436-27.043-18.277
		c-6.997-1.852-8.22-11.275-16.34-15.65C269.666,765.479,256.512,749.807,256.512,749.807z"/>
	<linearGradient id="SVGID_1_" gradientUnits="userSpaceOnUse" x1="338.9136" y1="749.5088" x2="293.5293" y2="766.5951">
		<stop  offset="0" style="stop-color:#332539"/>
		<stop  offset="0.9818" style="stop-color:#18101C"/>
	</linearGradient>
	<path fill="url(#SVGID_1_)" d="M265.136,711.465c0,0-8.198,14.061-8.955,28.955c-0.761,14.896,4.322,20.789,4.322,20.789
		s4.988,8.127,9.436,11.76c4.448,3.633,2.584,12.121,21.125,25.961c15.805,11.805,25.924,17.062,36.996,17.383
		c11.077,0.316,28.069-6.352,28.705-11.441c0.632-5.076-0.82-17.584-8.317-26.264c-37.55-43.479-29.784-51.961-33.129-57.609
		C311.998,715.354,276.681,705.41,265.136,711.465z"/>
	<path fill="#08090A" d="M280.63,728.299c0,0-2.688,6.811-0.825,13.613c1.856,6.787,2.717,10.896,2.717,10.896
		s-6.08-6.809-9.124-11.467c-3.028-4.658-4.314-21.846-4.314-21.846S275.836,728.898,280.63,728.299z"/>
	
		<linearGradient id="SVGID_2_" gradientUnits="userSpaceOnUse" x1="225.8477" y1="688.3965" x2="281.9116" y2="688.3965" gradientTransform="matrix(-0.9937 0.1118 0.1118 0.9937 489.951 55.4186)">
		<stop  offset="0" style="stop-color:#332539"/>
		<stop  offset="0.6424" style="stop-color:#594761"/>
		<stop  offset="0.9818" style="stop-color:#875E89"/>
	</linearGradient>
	<path fill="url(#SVGID_2_)" d="M343.377,772.623c0,0-24.421,3.199-33.651,7.143c-9.225,3.939-13.579,0.486-16.3-3.656
		c-2.721-4.152-8.021-17.309-8.021-17.309s9.181,16.836,14.809,18.934c5.631,2.102,13.2-0.863,20.675-3.262
		c7.484-2.404,20.337-4.486,20.337-4.486L343.377,772.623z"/>
	<path fill="#08090A" d="M282.522,752.809c0,0,6.811,9.93,10.786,15.547c3.986,5.613,8.383,10.781,14.782,8.75
		c6.396-2.014,24.473-7.479,32.462-7.938c0,0,1.093,1.344,1.781,2.191c0,0-27.125,5.342-35.042,8.205
		c-7.922,2.863-10.448-2.482-15.429-9.676C286.894,762.697,282.522,752.809,282.522,752.809z"/>
	<path fill="#08090A" d="M322.24,742.568c0,0-10.478-2.043-23.31,2.875c-12.83,4.924-16.408,7.365-16.408,7.365
		s-0.461-2.062-0.658-2.869c0,0,10.451-6.041,20.175-8.377c9.716-2.34,18.786-1.826,18.786-1.826S321.784,741.691,322.24,742.568z"
		/>
	<linearGradient id="SVGID_3_" gradientUnits="userSpaceOnUse" x1="310.7437" y1="790.4688" x2="356.7945" y2="788.867">
		<stop  offset="0" style="stop-color:#332539"/>
		<stop  offset="0.6424" style="stop-color:#594761"/>
		<stop  offset="0.9818" style="stop-color:#875E89"/>
	</linearGradient>
	<path fill="url(#SVGID_3_)" d="M351.042,782.117c0,0,1.551,7.691-8.31,9.203c-9.877,1.523-31.394,3.334-40.586-1.213
		c-9.188-4.545-8.508-4.836-14.215-11.945c-6.243-7.768-13.902-10.812-13.902-10.812s4.722,9.391,10.202,17.875
		c4.599,7.104,14.125,13.787,25.643,16.49c11.51,2.707,25.839-1.9,31.434,1.178c5.599,3.102,1.896,10.842,1.896,10.842
		s13.182-2.34,14.017-10.266C357.221,803.469,357.199,791.129,351.042,782.117z"/>
	<path fill="#08090A" d="M276.552,741.859c0,0-4.663,7.672-5.749,13.479c-1.085,5.811-0.864,17.631-0.864,17.631l-4.803-1.875
		C265.136,771.094,269.93,737.781,276.552,741.859z"/>
</g>
<g>
	<path fill="#020304" d="M220.795,766.203c0,0,0.761,9.891-4.995,23.152c0,0-7.617,7.014-13.438,6.865
		c0,0,1.645,11.684-7.813,17.041c-9.468,5.354-19.581,16.131-32.017,20.977c-9.256,3.611-26.04,4.141-35.827-0.996
		c-9.823-5.137-6.047-16.061-6.047-16.061s25.014,8.691,35.484,3.012c10.482-5.682,20.049-16.436,27.042-18.277
		c6.997-1.852,8.219-11.275,16.339-15.65C207.641,781.875,220.795,766.203,220.795,766.203z"/>
	
		<linearGradient id="SVGID_4_" gradientUnits="userSpaceOnUse" x1="-889.7812" y1="765.9053" x2="-935.166" y2="782.9918" gradientTransform="matrix(-1 0 0 1 -751.3887 0)">
		<stop  offset="0" style="stop-color:#332539"/>
		<stop  offset="0.9818" style="stop-color:#18101C"/>
	</linearGradient>
	<path fill="url(#SVGID_4_)" d="M212.171,727.861c0,0,8.196,14.061,8.956,28.955c0.76,14.896-4.323,20.791-4.323,20.791
		s-4.988,8.125-9.436,11.758c-4.449,3.635-2.583,12.121-21.125,25.961c-15.805,11.807-25.923,17.062-36.995,17.383
		c-11.078,0.316-28.071-6.352-28.706-11.439c-0.63-5.078,0.82-17.584,8.316-26.266c37.552-43.479,29.786-51.961,33.128-57.607
		C165.308,731.752,200.625,721.807,212.171,727.861z"/>
	<path fill="#08090A" d="M196.676,744.695c0,0,2.688,6.811,0.826,13.613c-1.858,6.787-2.717,10.896-2.717,10.896
		s6.08-6.809,9.123-11.467c3.03-4.658,4.315-21.846,4.315-21.846S201.471,745.295,196.676,744.695z"/>
	
		<linearGradient id="SVGID_5_" gradientUnits="userSpaceOnUse" x1="1448.7095" y1="567.3145" x2="1504.7759" y2="567.3145" gradientTransform="matrix(0.9937 0.1118 -0.1118 0.9937 -1241.3397 55.4186)">
		<stop  offset="0" style="stop-color:#332539"/>
		<stop  offset="0.6424" style="stop-color:#594761"/>
		<stop  offset="0.9818" style="stop-color:#875E89"/>
	</linearGradient>
	<path fill="url(#SVGID_5_)" d="M133.929,789.02c0,0,24.42,3.199,33.653,7.143c9.224,3.941,13.578,0.486,16.299-3.656
		c2.721-4.152,8.021-17.307,8.021-17.307s-9.181,16.834-14.811,18.932c-5.63,2.102-13.2-0.863-20.674-3.26
		c-7.484-2.406-20.335-4.488-20.335-4.488L133.929,789.02z"/>
	<path fill="#08090A" d="M194.785,769.205c0,0-6.812,9.93-10.787,15.547c-3.985,5.613-8.382,10.781-14.781,8.75
		c-6.397-2.014-24.472-7.479-32.463-7.938c0,0-1.093,1.344-1.78,2.191c0,0,27.125,5.342,35.042,8.205
		c7.921,2.863,10.447-2.482,15.427-9.676C190.412,779.094,194.785,769.205,194.785,769.205z"/>
	<path fill="#08090A" d="M155.067,758.965c0,0,10.478-2.043,23.309,2.875c12.83,4.924,16.408,7.365,16.408,7.365
		s0.459-2.062,0.659-2.869c0,0-10.454-6.041-20.176-8.377c-9.715-2.34-18.785-1.826-18.785-1.826S155.523,758.088,155.067,758.965z"
		/>
	
		<linearGradient id="SVGID_6_" gradientUnits="userSpaceOnUse" x1="-917.9531" y1="806.8643" x2="-871.9018" y2="805.2625" gradientTransform="matrix(-1 0 0 1 -751.3887 0)">
		<stop  offset="0" style="stop-color:#332539"/>
		<stop  offset="0.6424" style="stop-color:#594761"/>
		<stop  offset="0.9818" style="stop-color:#875E89"/>
	</linearGradient>
	<path fill="url(#SVGID_6_)" d="M126.263,798.514c0,0-1.55,7.691,8.312,9.205c9.876,1.521,31.392,3.332,40.586-1.215
		c9.188-4.545,8.506-4.836,14.215-11.945c6.242-7.768,13.902-10.812,13.902-10.812s-4.723,9.393-10.203,17.875
		c-4.597,7.104-14.125,13.789-25.642,16.49c-11.512,2.707-25.838-1.9-31.435,1.18c-5.599,3.1-1.896,10.84-1.896,10.84
		s-13.183-2.338-14.017-10.266C120.086,819.865,120.108,807.525,126.263,798.514z"/>
	<path fill="#08090A" d="M200.755,758.256c0,0,4.662,7.672,5.747,13.479c1.086,5.811,0.865,17.631,0.865,17.631l4.804-1.875
		C212.171,787.49,207.377,754.178,200.755,758.256z"/>
</g>
<path fill="#18101C" d="M333.033,222.685c0,0,21.08,5.912,30.82,18.778c9.74,12.867,14.283,2.303,19.48,5.312
	c5.194,3.01,11.688-3.747,22.727-9.459c11.04-5.713,27.273,0.067,33.768,22.177c6.493,22.11,4.545,45.625-3.247,51.4
	c-7.792,5.775-26.624,2.658-34.417,4.541c-7.792,1.883-19.876,7.956-36.886,3.946c-17.009-4.01-21.556,22.102-33.244-8.487
	S333.033,222.685,333.033,222.685z"/>
<path fill="#332539" d="M376.191,469.916c0,0-37.508,122.08-48.624,175.977c-11.117,53.895,0.57,53.244-5.922,59.738
	c-6.493,6.496,3.247,8.076,0,14.428c-3.248,6.354,16.206,4.549-2.287,15.359c-18.493,10.809-65.896,9.814-73.688,8.846
	c-7.792-0.969-13.269-98.371-20.596-128.893c-7.327-30.52-5.336-116.768,15.422-154.488S376.191,469.916,376.191,469.916z"/>
<linearGradient id="SVGID_7_" gradientUnits="userSpaceOnUse" x1="313.7856" y1="606.2471" x2="372.9492" y2="661.5415">
	<stop  offset="0" style="stop-color:#332539"/>
	<stop  offset="0.6424" style="stop-color:#594761"/>
	<stop  offset="0.9818" style="stop-color:#875E89"/>
</linearGradient>
<path fill="url(#SVGID_7_)" d="M351.088,524.299c0,0-22.247,91.072-28.849,126.625c-6.601,35.553-2.762,42.371-7.849,51.623
	c-5.083,9.254-19.446,16.949-19.446,16.949s11.026-1.018,15.13-2.166c4.104-1.146,1.927,7.379,2.353,14.209
	c0.425,6.832-5.928,8.754-5.928,8.754s23.75-5.953,24.236-11.379c0.487-5.426-8.134-8.488-7.72-11.584
	c0.415-3.094,0.56-6.516,0-7.482c-0.559-0.969,3.337-8.273,4.312-11.197c0.974-2.922,1.947-33.115,6.817-46.266
	c4.87-13.148,30.165-139.773,30.165-139.773L351.088,524.299z"/>
<path fill="#18101C" d="M268.54,744.711c0,0-13.131-16.992-14.429-42.322c-1.297-25.328,10.673-97.406,14.429-124.029
	c3.755-26.625,23.444-27.273,30.156-23.377c6.716,3.895,21.649-1.301,39.183-14.936c17.532-13.637,25.385-22.225,25.385-22.225
	s12.928-29.936,12.928-38.922c0-8.984-128.529-6.387-135.694-3.789c-7.164,2.596-19.428,59.74-18.815,75.326
	c0.612,15.584-0.478,61.688-0.478,61.688s18.366,127.262,18.494,132.139C239.826,749.139,256.932,745.279,268.54,744.711z"/>
<linearGradient id="SVGID_8_" gradientUnits="userSpaceOnUse" x1="204.4526" y1="611.4512" x2="78.0541" y2="590.1877">
	<stop  offset="0" style="stop-color:#332539"/>
	<stop  offset="0.6424" style="stop-color:#594761"/>
	<stop  offset="0.9818" style="stop-color:#875E89"/>
</linearGradient>
<path fill="url(#SVGID_8_)" d="M107.995,447.529c0,0-11.028,30.467-19.469,40.713s-19.48,22.582-19.48,22.582
	s51.511,124.029,66.665,162.34c15.153,38.311,8.66,44.439,15.153,46.895c6.494,2.457-10.39,7.52,0,11.48
	c10.39,3.963-8.441,18.9,6.494,19.549c14.935,0.648,71.366,5.57,71.334-1.908s0.681-20.398,0-35.371
	c-0.681-14.975,11.005-197.789,11.005-197.789L107.995,447.529z"/>
<path fill="#332539" d="M160.323,188.324c0,0-23.748-3.474-43.227,12.111c-19.479,15.584-27.271,0.936-37.011,25.792
	c-9.74,24.857-23.376,30.051-17.532,46.286c5.844,16.234,39.611,68.181,33.117,104.545c-6.494,36.366-7.296,66.886,26.872,99.353
	s101.233,74.027,112.921,74.027s44.625-77.787,44.625-77.787s11.612,72.742,26.403,69.994c14.792-2.746,80.09-53.248,82.688-70.131
	c2.597-16.881,15.585-67.533-11.04-127.9c-13.726-31.124-29.869-49.325-35.064-67.206c-5.195-17.882,9.742-40.323-5.195-51.181
	c-14.935-10.858-49.998-37.295-60.389-39.012C267.099,185.5,160.323,188.324,160.323,188.324z"/>
<linearGradient id="SVGID_9_" gradientUnits="userSpaceOnUse" x1="47.2925" y1="477.8789" x2="106.73" y2="477.8789">
	<stop  offset="0" style="stop-color:#F7B495"/>
	<stop  offset="1" style="stop-color:#B76C5D"/>
</linearGradient>
<path fill="url(#SVGID_9_)" d="M47.292,478.9c0,0,26.28,26.816,27.155,25.816c0.875-1.002,21.341-15.695,26.071-25.816
	c4.729-10.121,11.245-17.381-0.049-26.412C89.176,443.455,47.292,478.9,47.292,478.9z"/>
<path fill="#18101C" d="M100.864,315.435c0,0,15.431-20.195,21.677-40.974c6.246-20.779,12.35-33.766,12.35-33.766
	s6.234,22.33-6.104,48.827s6.421,59.614,3.86,88.186s4.566,52.599,13.016,75.974c8.449,23.377,38.371,41.709,38.371,41.709
	s-40.028-17.117-61.492-42.357c-21.464-25.238-13.116,8.852-13.116,8.852s-26.089-20.531-23.496-55.604
	c0.968-13.098,11.688-42.857,9.091-51.299S100.864,315.435,100.864,315.435z"/>
<g>
	<path fill="#18101C" d="M141.802,216.646c0,0-22.336,9.764-17.724,13.441c4.611,3.677,49.285,53.391,49.285,53.391
		s-4.04,17.314-12.303,18.447c-8.266,1.131,12.158,16.706,34.18,24.686c22.021,7.979,62.651,14.99,62.651,14.99
		s-59.618-25.2-61.141-45.995C195.228,274.807,141.802,216.646,141.802,216.646z"/>
	
		<linearGradient id="SVGID_10_" gradientUnits="userSpaceOnUse" x1="114.9961" y1="222.6484" x2="260.6626" y2="222.6484" gradientTransform="matrix(0.9988 0.0486 -0.0486 0.9988 16.336 19.0192)">
		<stop  offset="0" style="stop-color:#332539"/>
		<stop  offset="1" style="stop-color:#594761"/>
	</linearGradient>
	<path fill="url(#SVGID_10_)" d="M177.758,161.003c0,0-7.34-0.935-10.333,10.212c-2.998,11.148-46.704,41.851-45.737,49.404
		c0.963,7.554,35.52,36.163,54.872,48.755c0,0-6.344,16.111-11.254,17.79c-4.911,1.679-17.238,2.616-16.948,4.548
		c0.291,1.932,6.93,15.301,37.456,26.765c30.524,11.465,75.742,24.167,75.742,24.167s-30.114-62.013-37.646-85.026
		C216.375,234.603,177.758,161.003,177.758,161.003z"/>
	<path fill="#18101C" d="M176.56,269.375c0,0,16.412,7.061,31.528,8.522l6.344,8.523c0,0-22.797-4.866-39.59-13.043L176.56,269.375z
		"/>
	<path fill="#6B5873" d="M148.357,291.712c0,0,11.688,15.886,42.896,27.03c31.214,11.146,66.637,16.281,66.637,16.281l3.664,7.62
		c0,0-39.06-9.625-70.451-20.842C159.719,310.587,147.349,296.651,148.357,291.712z"/>
</g>
<path fill="#A59AB5" d="M23.884,458.193c0,0,12.425,18.777,22.23,25.621c9.806,6.848,21.72,5.592,31.803-2.66
	c10.083-8.25,20.804-11.898,22.313-22.35c1.511-10.447-3.417-25.277-3.417-25.277L23.884,458.193z"/>
<g>
	<path fill="#18101C" d="M313.527,231.098c0,0-1.411,12.354-7.037,20.715c-5.625,8.362-12.494,12.68-12.481,16.804
		c0.012,4.124,0.898,7.519,4.688,9.279c3.794,1.76,21.288,2.299,19.521,8.523c-1.767,6.224-46.672,43.886-46.672,43.886
		s6.264-40.585,9.349-55.195C283.983,260.5,313.527,231.098,313.527,231.098z"/>
	<linearGradient id="SVGID_11_" gradientUnits="userSpaceOnUse" x1="260.6392" y1="268.4297" x2="318.2173" y2="268.4297">
		<stop  offset="0" style="stop-color:#332539"/>
		<stop  offset="1" style="stop-color:#594761"/>
	</linearGradient>
	<path fill="url(#SVGID_11_)" d="M273.707,194.159c0,0,28.398,26.73,36.14,30.139c7.741,3.409,6.383,16.222,0,22.478
		c-6.383,6.256-20.213,18.238-20.213,18.238s6.247,12.422,9.062,12.882c2.819,0.46,21.326,0.399,19.378,5.057
		s-42.019,49.821-56.519,59.69C256.546,346.052,273.707,194.159,273.707,194.159z"/>
	<polygon fill="#18101C" points="289.633,265.014 260.526,285.542 258.656,291.712 291.992,269.375 	"/>
	<path fill="#6B5873" d="M318.074,282.953l-57.145,55.226c0,0,0.234,4.464,0.626,4.464
		C265.927,342.643,314.588,291.853,318.074,282.953z"/>
</g>
<path fill="#A59AB5" d="M166.304,200.558c0,0,25.701,54.392,41.055,76.307c15.354,21.916,54.196,65.778,54.196,65.778
	s24.828-81.599,14.746-113.962c-4.916-15.773-7.762-36.404-7.762-36.404L166.304,200.558z"/>
<linearGradient id="SVGID_12_" gradientUnits="userSpaceOnUse" x1="229.1626" y1="278.6323" x2="253.1144" y2="268.4146">
	<stop  offset="0" style="stop-color:#962A2A"/>
	<stop  offset="0.9455" style="stop-color:#E04545"/>
</linearGradient>
<path fill="url(#SVGID_12_)" d="M207.322,220.373l12.003,15.036c0,0-2.869,6.864-0.239,22.068
	c3.095,17.89,7.587,44.283,7.587,44.283s33.663,43.152,34.882,40.884c3.724-6.929,12.014-49.202,12.014-49.202
	s-20.329-38.038-23.599-45.766s-10.87-16.279-10.87-16.279s2.085-3.689,2.186-17.571c0,0-16.493-10.433-19.642-9.819
	C218.495,204.62,207.322,220.373,207.322,220.373z"/>
<path fill="#D7D0DE" d="M160.323,197.088c0,0,23.068,23.379,36.594,36.041l24.36-29.864l52.43,27.67l-1.069-31.411
	C272.637,199.525,198.841,189.294,160.323,197.088z"/>
<g>
	<path fill="#F7B495" d="M145.611,84.489c0,0-9.043-19.852-20.917-15.736c-11.87,4.112-8.982,45.843,2.787,49.551
		c11.766,3.713,14.816,9.548,16.705-5.125C146.076,98.507,145.611,84.489,145.611,84.489z"/>
	<path fill="#B76C5D" d="M122.573,87.315c0,0-0.932-13.372,7.21-13.102c8.146,0.267,12.163,9.371,12.896,22.378
		c0.733,13.01-4.121,22.237-11.815,16.315c-7.696-5.924-7.871-13.589-7.871-13.589s2.24,8.795,9.702,10.475
		c7.464,1.682,5.333-15.788,3.791-22.032c-1.545-6.241-3.64,0.066-2.263,7.67c0,0-6.459-5.064-5.004-11.032
		C130.672,78.434,123.466,81.182,122.573,87.315z"/>
</g>
<g>
	<path fill="#F7B495" d="M286.776,87.699c0,0,9.044-19.852,20.919-15.735c11.869,4.112,8.98,45.842-2.789,49.552
		c-11.765,3.713-14.816,9.546-16.703-5.125C286.311,101.719,286.776,87.699,286.776,87.699z"/>
	<path fill="#B76C5D" d="M309.814,90.526c0,0,0.932-13.372-7.21-13.102c-8.146,0.268-12.164,9.372-12.896,22.377
		c-0.732,13.012,4.12,22.239,11.815,16.315c7.695-5.924,7.87-13.587,7.87-13.587s-2.239,8.793-9.702,10.475
		c-7.463,1.682-5.332-15.79-3.791-22.033c1.544-6.241,3.641,0.066,2.264,7.669c0,0,6.46-5.064,5.003-11.031
		C301.715,81.645,308.919,84.393,309.814,90.526z"/>
</g>
<linearGradient id="SVGID_13_" gradientUnits="userSpaceOnUse" x1="212.4468" y1="43.4019" x2="218.2903" y2="218.7046">
	<stop  offset="0" style="stop-color:#F7B495"/>
	<stop  offset="1" style="stop-color:#FACEBB"/>
</linearGradient>
<path fill="url(#SVGID_13_)" d="M216.042,0.086c-51.684,3.388-69.52,79.811-69.52,79.811c-10.838,28.229-20.818,58.947-20.476,81.46
	c0.156,10.287,4.478,17.246,11.092,22.441c0.111,0.099,15.783,13.998,45.871,20.145c30.195,6.167,40.586-1.948,40.586-1.948
	s16.936,6.963,43.045,1.534c26.109-5.43,38.463-29.59,39.434-43.74c0,0-0.002,0,0-0.004C310.495,144.371,279.751-4.09,216.042,0.086
	z"/>
<path fill="#B76C5D" d="M203.152,117.949c0,0-3.489,12.663,3.727,17.777s10.625,3.166,12.208,1.948
	c1.583-1.218,5.593,6.331,15.885,6.087s16.623-6.331,16.867-11.688c0,0,5.356-1.705,6.817-5.601c0,0,5.357,5.114,16.315,14.854
	s12.906,17.289,12.906,17.289s-9.286-12.175-16.333-16.071c-7.044-3.896-13.862-8.036-13.862-8.036l-4.14,1.461
	c0,0,0,9.378-12.906,11.507c-12.906,2.129-21.551-6.516-21.551-6.516s-6.79,2.557-13.074-1.583s-7.616-10.471-7.616-10.471
	s-3.539,4.383-13.766,7.549c-10.228,3.166-21.726,15.584-21.726,15.584s6.834-15.072,21.129-22.388
	C200.48,121.236,203.152,117.949,203.152,117.949z"/>
<path fill="#B76C5D" d="M239.829,162.328c2.407-0.103,4.125-2.251,4.125-2.251l7.491-8.254c0,0-11.042,2.331-18.718,1.883
	c-7.676-0.447-14.501-3.428-21.6-2.479c-7.099,0.95-24.041-0.972-24.041-0.972s7.039,6.493,17.997,5.357
	c7.353-0.763,13.223,1.163,18.02,2.743l0,0"/>
<path fill="#F7B495" d="M241.286,95.89c0,0,8.686,17.272,10.552,36.184c0,0,4.383,0.08,6.817-5.601
	C258.656,126.473,257.034,105.891,241.286,95.89z"/>
<linearGradient id="SVGID_14_" gradientUnits="userSpaceOnUse" x1="247.9302" y1="123.4238" x2="304.6694" y2="123.4238">
	<stop  offset="0" style="stop-color:#F7B495"/>
	<stop  offset="1" style="stop-color:#FACEBB"/>
</linearGradient>
<path fill="url(#SVGID_14_)" d="M247.93,101.509c0,0,7.316,16.44,10.726,24.963s14.042,12.215,20.183,19.237
	c6.142,7.021,9.039,12.906,9.039,12.906s13.092,5.329,15.827,0c2.736-5.329-0.73-28.772-5.601-44.216
	c-4.87-15.443-16.802-28.536-16.802-28.536s-4.699,6.43-12.211,10.249c-7.513,3.818-18.12,1.573-18.12,1.573L247.93,101.509z"/>
<path fill="#553A26" d="M251.428,151.824c0,0-4.883,3.032-8.776,4.737c-3.894,1.705-6.305,4.949-6.305,4.949
	s-11.895-5.069-12.352-6.288c-0.457-1.218,12.571-1.827,14.885-2.192C241.194,152.665,251.428,151.824,251.428,151.824z"/>
<g>
	<g>
		<path fill="#E5E5E5" d="M175.01,86.415c0,0,1.011,10.293,15.751,9.673s17.084-7.677,16.145-14.417c0,0-7.315-0.673-14.315,1.505
			C185.589,85.353,175.01,86.415,175.01,86.415z"/>
		<path fill="#8AA548" d="M182.323,86.415c0,0-1.333,5.742,9.799,5.938c11.133,0.197,11.372-7.824,10.898-10.212
			c0,0-3.587-1.92-8.877,0.568C188.855,85.198,182.323,86.415,182.323,86.415z"/>
		<path fill="#1D383B" d="M184.033,88.168l5.134-1.273c0,0,0,4.058,5.134,3.28c5.132-0.776,3.578-5.133,3.578-5.133l4.2-1.71
			l-0.778-1.401c0,0-3.096-0.777-5.126,0c-2.031,0.778-12.141,3.999-12.141,3.999V88.168z"/>
		<path fill="#171B1F" d="M211.646,81.32c0,0-12.08-1.962-19.78,0.825c-7.699,2.789-21.988,2.897-21.988,2.897l1.4,2.8
			c0,0,7,1.344,14.701-1.428C193.678,83.641,201.845,81.798,211.646,81.32z"/>
		<ellipse fill="#FFFFFF" cx="185.206" cy="90.556" rx="5.179" ry="1.713"/>
	</g>
	<path fill="#B76C5D" d="M172.21,83.175c0,0,7.157,0.71,14.313-1.588c7.155-2.3,18.976-2.376,23.023-0.938
		c0,0-0.934-2.762-14.158-1.984c-13.222,0.778-15.711,3.516-23.179,2.769V83.175z"/>
</g>
<g>
	<g>
		<path fill="#E5E5E5" d="M273.707,85.566c0,0-1.013,10.293-15.752,9.673c-14.739-0.621-17.084-7.677-16.144-14.417
			c0,0,7.316-0.673,14.315,1.505C263.126,84.505,273.707,85.566,273.707,85.566z"/>
		<path fill="#8AA548" d="M269.011,85.931c0,0,1.6,5.673-9.513,6.389c-11.109,0.716-11.863-9.009-11.502-11.417
			c0,0,3.634-0.36,9.033,1.878C262.428,85.021,269.011,85.931,269.011,85.931z"/>
		<path fill="#1D383B" d="M267.384,87.762l-5.188-1.032c0,0,0.19,4.053-4.973,3.516c-5.164-0.536-3.816-4.959-3.816-4.959
			l-4.274-1.512l0.839-2.34c0,0,2.93-0.017,4.993,0.665c2.064,0.682,12.314,3.427,12.314,3.427L267.384,87.762z"/>
		<path fill="#171B1F" d="M237.07,80.472c0,0,12.08-1.962,19.781,0.825c7.699,2.789,21.987,2.897,21.987,2.897l-1.399,2.8
			c0,0-7.001,1.344-14.702-1.428C255.04,82.792,246.872,80.95,237.07,80.472z"/>
		<ellipse fill="#FFFFFF" cx="249.134" cy="85.55" rx="5.179" ry="1.713"/>
	</g>
	<path fill="#B76C5D" d="M276.506,82.327c0,0-7.157,0.709-14.313-1.589c-7.153-2.3-18.976-2.376-23.023-0.938
		c0,0,0.934-2.763,14.158-1.984c13.222,0.778,15.71,3.516,23.179,2.769V82.327z"/>
</g>
<path fill="#FDE4CF" d="M180.734,142.544c0,0,2.901,9.01,16.183,8.279c13.282-0.731,17.421-2.352,23.752,0.042
	c6.331,2.394,18.081,2.721,23.286,0c5.205-2.72,7.152-1.016,14.701-1.259s12.889-5.114,12.889-5.114s-1.716,5.844-13.876,6.575
	c-12.162,0.73-12.66,4.14-18.499,4.383s-16.553,0.487-20.084-1.461c-3.531-1.948-9.618-2.922-14.732-1.218
	S179.905,151.071,180.734,142.544z"/>
<path fill="#171B1F" d="M169.105,70.383c0,0,8.796-10.367,22.262-11.165c13.465-0.798,19.048,9.569,21.042,6.977
	c1.994-2.591-5.184-11.961-19.139-11.961c-13.956,0-24.722,9.967-26.516,13.158C164.96,70.582,169.105,70.383,169.105,70.383z"/>
<linearGradient id="SVGID_15_" gradientUnits="userSpaceOnUse" x1="196.7827" y1="71.8545" x2="160.5103" y2="126.6283">
	<stop  offset="0" style="stop-color:#F7B495"/>
	<stop  offset="1" style="stop-color:#FACEBB"/>
</linearGradient>
<path fill="url(#SVGID_15_)" d="M202.163,119.898c0,0-6.457,5.344-18.13,12.969c-11.673,7.625-17.286,11.625-21.129,19.174
	s-12.839,17.072-20.151,16.572c-7.312-0.5-11.624-20.226-8.773-36.54c3.089-17.673,13.457-45.876,19.354-49.643
	s16.976,13.011,26.692,15.255c9.717,2.245,36.237-3.211,36.237-3.211S207.721,112.045,202.163,119.898z"/>
<linearGradient id="SVGID_16_" gradientUnits="userSpaceOnUse" x1="236.6748" y1="91.458" x2="261.3345" y2="91.458">
	<stop  offset="0" style="stop-color:#F7B495"/>
	<stop  offset="1" style="stop-color:#B76C5D"/>
</linearGradient>
<path fill="url(#SVGID_16_)" d="M240.393,83.279c0,0,1.868,9.027,9.579,11.987c7.71,2.96,11.362,2.42,11.362,2.42
	s-12.679,3.675-16.363,0.94c-3.685-2.736-6.063-8.591-7.901-10.631C235.233,85.956,240.393,83.279,240.393,83.279z"/>
<path fill="#171B1F" d="M239.088,67.714c0,0,9.529-7.056,21.735-5.406c12.206,1.649,15.577,11.17,17.776,9.371
	c2.197-1.799-2.763-10.771-15.282-13.163c-12.521-2.394-23.752,3.996-25.866,6.323C235.337,67.168,239.088,67.714,239.088,67.714z"
	/>
<linearGradient id="SVGID_17_" gradientUnits="userSpaceOnUse" x1="223.104" y1="31.4521" x2="278.8384" y2="31.4521">
	<stop  offset="0" style="stop-color:#F7B495"/>
	<stop  offset="0.5455" style="stop-color:#FACEBB"/>
	<stop  offset="0.9818" style="stop-color:#FFEBC9"/>
</linearGradient>
<path fill="url(#SVGID_17_)" d="M223.104,2.423c0,0,16.899,1.094,31.209,17.394c14.31,16.3,23.523,34.578,24.525,40.666
	c0,0-26.939-9.497-34.884-7.548C243.955,52.934,239.906,21.068,223.104,2.423z"/>
<path fill="#FACEBB" d="M246.481,103.551c-3.899-13.423-12.906-19.205-13.944-19.142c-1.038,0.062-3.833,5.051-2.128,19.142
	c0.788,6.508-0.455,14.005-2.016,20.209c-0.771-1.68-2.458-2.854-4.428-2.854c-2.695,0-4.88,2.184-4.88,4.88
	c0,2.694,2.185,4.879,4.88,4.879c1,0,1.929-0.304,2.703-0.82c-1.267,3.999-2.347,6.611-2.347,6.611
	c-0.487,6.575,10.958,8.523,16.964,7.792c6.007-0.731,10.552-7.062,10.552-12.176C251.838,126.96,250.379,116.974,246.481,103.551z"
	/>
<linearGradient id="SVGID_18_" gradientUnits="userSpaceOnUse" x1="190.7612" y1="93.2002" x2="221.2769" y2="93.2002">
	<stop  offset="0" style="stop-color:#F7B495"/>
	<stop  offset="1" style="stop-color:#B76C5D"/>
</linearGradient>
<path fill="url(#SVGID_18_)" d="M209.546,84.409c0,0,1.938,2.079-3.535,7.948s-15.25,10.486-15.25,10.486s13.718-0.504,21.976-5.157
	c8.257-4.654,9.555-12.977,7.932-13.849C219.046,82.966,209.546,84.409,209.546,84.409z"/>
<circle fill="#FACEBB" cx="281.687" cy="97.056" r="2.582"/>
<linearGradient id="SVGID_19_" gradientUnits="userSpaceOnUse" x1="135.7104" y1="192.2773" x2="300.8647" y2="192.2773">
	<stop  offset="0" style="stop-color:#F7B495"/>
	<stop  offset="1" style="stop-color:#B76C5D"/>
</linearGradient>
<path fill="url(#SVGID_19_)" d="M135.71,182.615c0,0,34.531,19.833,61.206,15.693c26.674-4.14,32.762-15.341,32.762-15.341
	s31.818,29.521,71.186-6.059c0,0-6.614,21.157-32.325,27.488c-25.711,6.332-45.436,0-45.436,0s-18.314,6.807-42.396,0.725
	S140.511,187.631,135.71,182.615z"/>
<circle fill="#FACEBB" cx="162.904" cy="95.89" r="2.582"/>
<linearGradient id="SVGID_20_" gradientUnits="userSpaceOnUse" x1="192.7124" y1="71.752" x2="208.25" y2="71.752">
	<stop  offset="0" style="stop-color:#F7B495"/>
	<stop  offset="0.5455" style="stop-color:#FACEBB"/>
	<stop  offset="0.9818" style="stop-color:#FFEBC9"/>
</linearGradient>
<path fill="url(#SVGID_20_)" d="M192.712,66.083c0,0,11.642,0.028,15.538,11.337h-7.77C200.48,77.42,199.729,72.012,192.712,66.083z
	"/>
<linearGradient id="SVGID_21_" gradientUnits="userSpaceOnUse" x1="261.9526" y1="74.209" x2="277.4897" y2="74.209">
	<stop  offset="0" style="stop-color:#F7B495"/>
	<stop  offset="0.5455" style="stop-color:#FACEBB"/>
	<stop  offset="0.9818" style="stop-color:#FFEBC9"/>
</linearGradient>
<path fill="url(#SVGID_21_)" d="M261.953,68.541c0,0,11.642,0.029,15.537,11.337h-7.77C269.72,79.878,268.969,74.47,261.953,68.541z
	"/>
<path fill="#551A1A" d="M219.325,235.408c0,0,10.696-5.649,19.776-4.012c0,0-3.341,5.881-4.934,5.382
	c-1.592-0.5-2.326,2.886,1.944,13.422c4.271,10.537,13.829,21.946,9.365,25.216c-4.463,3.271-8.452,0.898-10.261-6.058
	s-1.861-23.353-4.293-27.593c-2.433-4.24-12.899,1.688-12.899,1.688S218.023,239.558,219.325,235.408z"/>
<linearGradient id="SVGID_22_" gradientUnits="userSpaceOnUse" x1="86.8315" y1="307.665" x2="16.2417" y2="295.79" gradientTransform="matrix(0.9967 0.0818 -0.0818 0.9967 30.4566 39.1518)">
	<stop  offset="0" style="stop-color:#332539"/>
	<stop  offset="0.6424" style="stop-color:#594761"/>
	<stop  offset="0.9818" style="stop-color:#875E89"/>
</linearGradient>
<path fill="url(#SVGID_22_)" d="M87.226,215.094c0,0-16.642,1.535-36.036,39.396C31.794,292.351-3.884,346.058,0.345,397.753
	c4.228,51.696,39.735,79.526,49.381,81.073s41.508-21.512,45.852-34.748c4.343-13.238-2.5-25.128-12.025-44.03
	c-9.524-18.904,4.635-39.48,22.542-75.093C124.002,289.343,121.622,227.483,87.226,215.094z"/>
<path fill="#18101C" d="M261.555,342.643c3.989,53.651,5.966,36.427,11.12,69.579c4.178,26.868,8.218,65.134,8.218,65.134
	l-6.145,7.465c0,0-1.773-58.963-5.981-72.599C264.559,398.585,257.977,351.984,261.555,342.643z"/>
<linearGradient id="SVGID_23_" gradientUnits="userSpaceOnUse" x1="310.7954" y1="708.042" x2="272.4826" y2="714.5351">
	<stop  offset="0" style="stop-color:#332539"/>
	<stop  offset="0.9818" style="stop-color:#18101C"/>
</linearGradient>
<path fill="url(#SVGID_23_)" d="M313.204,688.098c0,0-13.638,16.887-22.079,20.133c-8.441,3.244-44.156,13.424-44.156,13.424
	s18.183,9.17,33.118,9.885c14.935,0.717,28.57-5.738,28.57-5.738s-22.726-2.408-25.974-4.146c-3.247-1.736,6.054-8.23,16.013-14.074
	C308.657,701.734,309.308,707.58,313.204,688.098z"/>
<path fill="#18101C" d="M117.096,460.883c0,0-5.236,20.209-16.578,34.508c-11.342,14.299-20.108,24.525-20.108,24.525
	s23.376-16.422,30.682-24.525s0.974,27.447,0.974,27.447s10.714-23.863,28.734-13.635c18.02,10.227,77.488,28.246,77.488,28.246
	L117.096,460.883z"/>
<linearGradient id="SVGID_24_" gradientUnits="userSpaceOnUse" x1="331.0063" y1="252.0762" x2="435.2808" y2="252.0762">
	<stop  offset="0" style="stop-color:#332539"/>
	<stop  offset="0.6424" style="stop-color:#594761"/>
	<stop  offset="0.9818" style="stop-color:#875E89"/>
</linearGradient>
<path fill="url(#SVGID_24_)" d="M338.204,233.129c0,0,18.831,5.768,23.376,13.647c4.545,7.88-0.325,15.672,2.923,23.464
	c3.247,7.792,6.817,12.713,6.817,12.713s-6.169-22.454,2.923-26.675c9.091-4.22,17.855-0.813,22.077-4.465
	c4.222-3.651,8.399-1.479,6.451,2.012c-1.948,3.491-4.693,26.042-3.67,25.106c5.037-4.605,7.934-20.544,14.103-27.118
	c6.17-6.574,10.716-12.093,22.077-3.002c0,0-6.818-14.481-13.96-15.683c-7.144-1.201-20.454,1.458-24.351,4.188
	c-3.896,2.729-6.169,6.865-10.228,4.147c-4.06-2.717-4.385-6.551-7.955-4.147c-3.571,2.404-4.22,5.001-9.09,2.079
	c-4.87-2.922-10.392-4.546-14.936-9.74c-4.545-5.194-23.756-8.456-23.756-8.456L338.204,233.129z"/>
<path fill="#18101C" d="M154.371,702.547c0,0,27.269,10.715,37.531,11.201c10.261,0.488,22.924-11.201,22.924-11.201
	s-1.841,11.494-14.07,16.949c-12.229,5.453-35.875,3.02-35.875,3.02S152.358,713.262,154.371,702.547z"/>
<path fill="#18101C" d="M167.098,739.688c0,0,34.523-11.521,41.125-20.191c6.603-8.67,12.98-23.279,12.98-23.279
	s-0.928,26.439,0,35.379c0.927,8.939-4.485,13.135-12.98,13.229c-8.495,0.094-28.95,0-28.95,0s28.876-8.217,22.23-8.932
	S177.326,745.172,167.098,739.688z"/>
<path fill="#6B5873" d="M261.555,342.643c0,0,0.47,24.453,6.318,49.687c5.844,25.231,10.421,71.682,13.02,85.025
	c2.601,13.344,8.454,50.354,14.052,60.094c5.597,9.74,11.878,6.309,19.1,2.158c0,0-11.81,4.174-17.528-9.463
	c-5.715-13.637-18.796-115.61-24.972-132.956C265.374,379.842,265.219,343.687,261.555,342.643z"/>
<path fill="#18101C" d="M277.281,340.832c0,0-1.448,7.559-1.471,12.8c-0.019,5.241,5.229,12.145,5.229,12.145
	s-9.126-1.105-9.464-11.329C271.237,344.223,277.281,340.832,277.281,340.832z"/>
<linearGradient id="SVGID_25_" gradientUnits="userSpaceOnUse" x1="294.7759" y1="398.0264" x2="302.4663" y2="398.0264" gradientTransform="matrix(0.9888 -0.149 0.149 0.9888 -77.7813 3.5233)">
	<stop  offset="0" style="stop-color:#332539"/>
	<stop  offset="1" style="stop-color:#594761"/>
</linearGradient>
<path fill="url(#SVGID_25_)" d="M280.604,352.024c0.576,3.826-0.658,7.186-2.759,7.501c-2.1,0.317-4.269-2.528-4.845-6.356
	c-0.577-3.828,0.658-7.186,2.757-7.501C277.857,345.351,280.026,348.197,280.604,352.024z"/>
<path fill="#18101C" d="M295.924,448.408c0,0-1.448,7.561-1.471,12.803c-0.019,5.24,5.229,12.145,5.229,12.145
	s-9.126-1.105-9.464-11.328C289.88,451.801,295.924,448.408,295.924,448.408z"/>
<linearGradient id="SVGID_26_" gradientUnits="userSpaceOnUse" x1="297.1821" y1="507.1846" x2="304.8716" y2="507.1846" gradientTransform="matrix(0.9888 -0.149 0.149 0.9888 -77.7813 3.5233)">
	<stop  offset="0" style="stop-color:#332539"/>
	<stop  offset="1" style="stop-color:#594761"/>
</linearGradient>
<path fill="url(#SVGID_26_)" d="M299.248,459.604c0.576,3.824-0.658,7.186-2.758,7.5c-2.101,0.318-4.27-2.527-4.846-6.355
	s0.658-7.186,2.756-7.502C296.5,452.93,298.669,455.775,299.248,459.604z"/>
<linearGradient id="SVGID_27_" gradientUnits="userSpaceOnUse" x1="310.769" y1="419.2891" x2="391.4106" y2="419.2891">
	<stop  offset="0" style="stop-color:#332539"/>
	<stop  offset="0.6424" style="stop-color:#594761"/>
	<stop  offset="0.9818" style="stop-color:#875E89"/>
</linearGradient>
<path fill="url(#SVGID_27_)" d="M361.906,325.966c0,0,23.458,29.385,27.76,71.222c4.299,41.837-0.236,63.419-4.015,69.94
	s-27.154,34.418-38.356,38.977c-11.201,4.559-23.376,6.506-23.376,6.506l-13.149-80.844c0,0,29.506-27.761,40.319-55.034
	C361.906,349.461,361.906,325.966,361.906,325.966z"/>
<path fill="#A59AB5" d="M426.241,232.757c0,0-14.801-0.191-19.617,35.064c-4.813,35.255,10.931,44.244,19.617,45.918
	c8.687,1.674,20.642-8.442,20.642-8.442L426.241,232.757z"/>
<path fill="#18101C" d="M123.451,361.817c0,0,36.094,23.683,51.559,27.579s34.536,8.443,34.536,8.443s-16.217,6.426-46.642,3.896
	s-45.808-11.688-45.808-11.688L123.451,361.817z"/>
<linearGradient id="SVGID_28_" gradientUnits="userSpaceOnUse" x1="195.6641" y1="422.2402" x2="262.2634" y2="484.4841">
	<stop  offset="0" style="stop-color:#332539"/>
	<stop  offset="0.6424" style="stop-color:#594761"/>
	<stop  offset="0.9818" style="stop-color:#875E89"/>
</linearGradient>
<path fill="url(#SVGID_28_)" d="M163.322,409.528c0,0,52.354,1.179,62.805-7.203s20.19-24.617,25.711-17.476
	c5.521,7.146,11.328,34.97,15.546,58.346c9.419,52.195,0.69,29.17-6.858,55.971c-7.547,26.799-28.615,47.373-37.887,38.283
	c-9.272-9.09-24.372-31.344-24.372-31.344s12.828-17.57-4.3-27.205c-17.128-9.633-29.466-12.375-36.609-27.887
	S163.322,409.528,163.322,409.528z"/>
<path fill="#A56151" d="M452.232,304.97c0,0-31.987,7.828-34.869-28.879c-0.995-12.673-1.142-23.675,3.494-35.12
	c4.637-11.445,8.013-24.417,5.958-31.567c-2.053-7.15,6.481-12.751,12.198-8.368c5.717,4.383,8.721,14.932,9.288,19.885
	c0.568,4.953,5.715,7.875,8.013,10.554c2.296,2.679,1.111,13.431,0,23.152c-1.113,9.721-0.367,20.974-1.844,30.479
	C452.995,294.611,452.232,304.97,452.232,304.97z"/>
<path fill="#E9A994" d="M470.3,262.947c0,0,7.304,6.866,7.304,13.143c0,6.277-3.652,9.442-3.652,9.442s4.626,3.896,3.652,10.471
	c-0.975,6.575-5.357,9.984-13.394,10.471c-8.035,0.487-25.568,2.979-28.246-4.477c-2.679-7.456,3.165-10.134,3.165-10.134
	s-8.279-3.896-1.704-11.688C444,272.383,470.3,262.947,470.3,262.947z"/>
<g>
	<path fill="#A56151" d="M451.672,283.104c0,0-1.235-3.897-3.265-4.514c-2.03-0.616-6.981,2.436-9.253,3.957
		c-2.273,1.52-2.885,2.57-0.67,5.297C440.695,290.572,451.672,283.104,451.672,283.104z"/>
	<linearGradient id="SVGID_29_" gradientUnits="userSpaceOnUse" x1="437.8696" y1="284.5649" x2="452.23" y2="284.5649">
		<stop  offset="0.0364" style="stop-color:#FBD1BC"/>
		<stop  offset="1" style="stop-color:#E9A994"/>
	</linearGradient>
	<path fill="url(#SVGID_29_)" d="M445.288,279.413c0,0-6.133,3.181-7.107,4.74c-0.974,1.558,0.468,4.907,2.587,5.834
		c2.12,0.927,8.327-1.399,10.743-2.769S449.861,276.763,445.288,279.413z"/>
	<path fill="#FDE4D9" d="M439.992,282.548l3.521,7.515c0,0-1.924,0.51-2.818,0.51c-0.892,0-2.24-2.685-2.824-4.012
		C437.287,285.232,437.821,283.935,439.992,282.548z"/>
</g>
<g>
	<path fill="#A56151" d="M453.224,299.701c0,0-0.46-4.062-2.332-5.056c-1.876-0.995-7.32,1.048-9.843,2.103
		c-2.522,1.055-3.323,1.968-1.678,5.07C441.019,304.919,453.224,299.701,453.224,299.701z"/>
	
		<linearGradient id="SVGID_30_" gradientUnits="userSpaceOnUse" x1="413.3843" y1="165.3857" x2="427.7446" y2="165.3857" gradientTransform="matrix(0.9813 0.1923 -0.1923 0.9813 65.5519 56.6952)">
		<stop  offset="0.0364" style="stop-color:#FBD1BC"/>
		<stop  offset="1" style="stop-color:#E9A994"/>
	</linearGradient>
	<path fill="url(#SVGID_30_)" d="M447.671,294.851c0,0-6.63,1.942-7.886,3.285c-1.255,1.342-0.483,4.905,1.418,6.223
		c1.9,1.317,8.438,0.229,11.073-0.651C454.91,302.828,452.669,293.13,447.671,294.851z"/>
	<path fill="#FDE4D9" d="M441.871,296.909l2.01,8.051c0,0-1.984,0.13-2.861-0.041c-0.875-0.172-1.686-3.065-2.002-4.481
		C438.702,299.022,439.474,297.853,441.871,296.909z"/>
</g>
<path fill="#A56151" d="M473.952,285.533c0,0-19.481,4.626-34.822,6.331c0,0-3.753,1.419-3.751,5.142c0,0,4.509-2.691,15.209-3.917
	c10.701-1.225,26.2-3.487,26.2-3.487S476.46,287.652,473.952,285.533z"/>
<linearGradient id="SVGID_31_" gradientUnits="userSpaceOnUse" x1="428.1685" y1="261.3613" x2="482.4312" y2="261.3613">
	<stop  offset="0.0364" style="stop-color:#FBD1BC"/>
	<stop  offset="1" style="stop-color:#E9A994"/>
</linearGradient>
<path fill="url(#SVGID_31_)" d="M463.843,247.383c0,0,14.979-3.572,17.9,4.87s-3.895,15.241-12.337,17.686
	c-8.443,2.444-28.896,6.99-35.065,6.016s-10.063-12.337,0-18.506C444.405,251.279,463.843,247.383,463.843,247.383z"/>
<path fill="#A56151" d="M470.3,246.637c0,0-16.804,11.493-25.813,14.724s-10.958,6.133-11.445,8.578
	c-0.486,2.444,3.659,6.146,3.659,6.146s-8.805,2.61-9.886-6.146c-1.078-8.757-1.078-12.166,6.471-14.845
	S456.523,246.438,470.3,246.637z"/>
<linearGradient id="SVGID_32_" gradientUnits="userSpaceOnUse" x1="426.8169" y1="242.4521" x2="479.1157" y2="242.4521">
	<stop  offset="0.0364" style="stop-color:#FBD1BC"/>
	<stop  offset="1" style="stop-color:#E9A994"/>
</linearGradient>
<path fill="url(#SVGID_32_)" d="M438.886,239.916c0,0,14.612-15.621,26.624-17.713s16.233,9.746,12.012,15.678
	c-4.22,5.932-29.544,22.49-40.909,24.763C425.25,264.916,421.124,254.182,438.886,239.916z"/>
<g>
	<path fill="#A56151" d="M445.398,253.384c0,0-1.234-4.621-3.265-5.351c-2.029-0.73-6.981,2.889-9.253,4.691
		c-2.273,1.803-2.884,3.048-0.67,6.281C434.421,262.238,445.398,253.384,445.398,253.384z"/>
	<linearGradient id="SVGID_33_" gradientUnits="userSpaceOnUse" x1="431.5952" y1="255.1152" x2="445.9565" y2="255.1152">
		<stop  offset="0.0364" style="stop-color:#FBD1BC"/>
		<stop  offset="1" style="stop-color:#E9A994"/>
	</linearGradient>
	<path fill="url(#SVGID_33_)" d="M439.013,249.006c0,0-6.133,3.772-7.107,5.62c-0.974,1.848,0.469,5.817,2.588,6.917
		s8.326-1.66,10.742-3.284C447.653,256.636,443.587,245.866,439.013,249.006z"/>
	<path fill="#FDE4D9" d="M433.717,252.724l3.521,8.909c0,0-1.924,0.605-2.817,0.605c-0.893,0-2.241-3.183-2.825-4.757
		S431.546,254.369,433.717,252.724z"/>
</g>
<g>
	<path fill="#A56151" d="M449.945,267.82c0,0-1.232-3.897-3.263-4.513c-2.03-0.617-6.981,2.436-9.255,3.957
		c-2.271,1.52-2.881,2.57-0.67,5.297C438.972,275.288,449.945,267.82,449.945,267.82z"/>
	<linearGradient id="SVGID_34_" gradientUnits="userSpaceOnUse" x1="436.144" y1="269.2812" x2="450.5044" y2="269.2812">
		<stop  offset="0.0364" style="stop-color:#FBD1BC"/>
		<stop  offset="1" style="stop-color:#E9A994"/>
	</linearGradient>
	<path fill="url(#SVGID_34_)" d="M443.562,264.129c0,0-6.133,3.181-7.107,4.74c-0.974,1.558,0.47,4.906,2.59,5.833
		c2.119,0.928,8.324-1.399,10.74-2.769C452.201,270.563,448.135,261.479,443.562,264.129z"/>
	<path fill="#FDE4D9" d="M438.268,267.264l3.52,7.514c0,0-1.924,0.51-2.815,0.51c-0.895,0-2.245-2.684-2.827-4.012
		C435.563,269.948,436.095,268.651,438.268,267.264z"/>
</g>
<linearGradient id="SVGID_35_" gradientUnits="userSpaceOnUse" x1="29.8115" y1="320.6826" x2="69.7465" y2="346.0072">
	<stop  offset="0" style="stop-color:#594761"/>
	<stop  offset="0.9818" style="stop-color:#18101C"/>
</linearGradient>
<path fill="url(#SVGID_35_)" d="M117.096,301.409c3.249-10.714,0-39.935,0-39.935s-2.987,10.765-7.328,23.279l-12.313-30.771
	c0,0,0,13.228,0,23.915s-2.435,13.918-14.124,2.806s-18.02-12.273-18.02-12.273s17.007,11.8,20.436,23.283
	c1.785,5.978,9.897,11.057,16.787,11.784c-0.665,1.515-1.337,2.994-2.016,4.406c-8.745,18.182-32.122,47.402-33.745,68.181
	c-1.624,20.782-20.13,32.47-20.13,32.47s7.091,5.193,15.559,2.271c8.467-2.922,8.467,10.391,12.364,24.677
	c3.896,14.285,2.445,29.672,2.445,29.672s18.414-12.012,21.458-21.979c3.045-9.967,0.772-17.467-4.747-29.463
	c-5.52-11.997-15.259-25.469-5.844-47.955C97.292,343.292,113.848,312.124,117.096,301.409z"/>
</svg>
