<?xml version="1.0" encoding="utf-8"?>
<!-- Generator: Adobe Illustrator 16.0.4, SVG Export Plug-In . SVG Version: 6.00 Build 0)  -->
<!DOCTYPE svg PUBLIC "-//W3C//DTD SVG 1.1//EN" "http://www.w3.org/Graphics/SVG/1.1/DTD/svg11.dtd">
<svg version="1.1" id="Layer_1" xmlns="http://www.w3.org/2000/svg" xmlns:xlink="http://www.w3.org/1999/xlink" x="0px" y="0px"
	 width="841.89px" height="595.28px" viewBox="0 0 841.89 595.28" enable-background="new 0 0 841.89 595.28" xml:space="preserve">
<g>
	<g>
		<path fill="#020304" d="M424.125,468.316c0,0-0.391,5.077,2.563,11.885c0,0,3.91,3.6,6.897,3.523c0,0-0.844,5.998,4.012,8.748
			c4.859,2.748,10.051,8.28,16.435,10.768c4.751,1.854,13.367,2.126,18.392-0.511c5.042-2.637,3.104-8.244,3.104-8.244
			s-12.84,4.461-18.215,1.546c-5.381-2.917-10.292-8.438-13.882-9.383c-3.592-0.95-4.22-5.788-8.388-8.033
			C430.877,476.361,424.125,468.316,424.125,468.316z"/>
		<linearGradient id="SVGID_1_" gradientUnits="userSpaceOnUse" x1="466.4248" y1="468.1641" x2="443.1274" y2="476.9351">
			<stop  offset="0" style="stop-color:#332539"/>
			<stop  offset="0.9818" style="stop-color:#18101C"/>
		</linearGradient>
		<path fill="url(#SVGID_1_)" d="M428.552,448.634c0,0-4.208,7.218-4.597,14.864c-0.391,7.646,2.219,10.672,2.219,10.672
			s2.561,4.171,4.844,6.036s1.326,6.222,10.844,13.326c8.113,6.061,13.308,8.759,18.991,8.924
			c5.687,0.162,14.409-3.261,14.735-5.873c0.324-2.606-0.421-9.026-4.27-13.482c-19.275-22.319-15.289-26.673-17.006-29.572
			C452.607,450.631,434.479,445.526,428.552,448.634z"/>
		<path fill="#08090A" d="M436.506,457.275c0,0-1.38,3.496-0.424,6.988c0.953,3.484,1.395,5.594,1.395,5.594
			s-3.121-3.495-4.684-5.887c-1.555-2.391-2.215-11.214-2.215-11.214S434.045,457.583,436.506,457.275z"/>
		
			<linearGradient id="SVGID_2_" gradientUnits="userSpaceOnUse" x1="431.3516" y1="395.168" x2="460.1309" y2="395.168" gradientTransform="matrix(-0.9937 0.1118 0.1118 0.9937 852.7139 35.0723)">
			<stop  offset="0" style="stop-color:#332539"/>
			<stop  offset="0.6424" style="stop-color:#594761"/>
			<stop  offset="0.9818" style="stop-color:#875E89"/>
		</linearGradient>
		<path fill="url(#SVGID_2_)" d="M468.716,480.028c0,0-12.536,1.643-17.274,3.667c-4.735,2.022-6.971,0.249-8.367-1.877
			c-1.396-2.132-4.117-8.885-4.117-8.885s4.713,8.642,7.602,9.719c2.891,1.079,6.776-0.443,10.613-1.674
			c3.842-1.234,10.439-2.304,10.439-2.304L468.716,480.028z"/>
		<path fill="#08090A" d="M437.477,469.857c0,0,3.496,5.097,5.537,7.98c2.046,2.882,4.303,5.534,7.588,4.491
			c3.283-1.033,12.562-3.839,16.664-4.074c0,0,0.561,0.689,0.914,1.125c0,0-13.924,2.742-17.988,4.212
			c-4.066,1.47-5.363-1.274-7.92-4.967C439.721,474.934,437.477,469.857,437.477,469.857z"/>
		<path fill="#08090A" d="M457.865,464.601c0,0-5.379-1.049-11.966,1.476c-6.586,2.527-8.423,3.781-8.423,3.781
			s-0.236-1.059-0.338-1.473c0,0,5.365-3.102,10.356-4.301c4.987-1.201,9.644-0.938,9.644-0.938S457.631,464.15,457.865,464.601z"/>
		<linearGradient id="SVGID_3_" gradientUnits="userSpaceOnUse" x1="451.9629" y1="489.1895" x2="475.6021" y2="488.3672">
			<stop  offset="0" style="stop-color:#332539"/>
			<stop  offset="0.6424" style="stop-color:#594761"/>
			<stop  offset="0.9818" style="stop-color:#875E89"/>
		</linearGradient>
		<path fill="url(#SVGID_3_)" d="M472.65,484.902c0,0,0.796,3.948-4.266,4.725c-5.07,0.781-16.115,1.711-20.834-0.623
			c-4.717-2.333-4.367-2.482-7.297-6.132c-3.205-3.987-7.137-5.551-7.137-5.551s2.424,4.821,5.237,9.176
			c2.36,3.646,7.251,7.078,13.163,8.465c5.908,1.39,13.264-0.976,16.136,0.605c2.874,1.592,0.974,5.564,0.974,5.564
			s6.767-1.2,7.195-5.27C475.822,495.862,475.811,489.528,472.65,484.902z"/>
		<path fill="#08090A" d="M434.412,464.236c0,0-2.394,3.938-2.951,6.919c-0.557,2.983-0.443,9.051-0.443,9.051l-2.466-0.963
			C428.552,479.243,431.013,462.144,434.412,464.236z"/>
	</g>
	<g>
		<path fill="#020304" d="M405.791,476.733c0,0,0.391,5.077-2.564,11.885c0,0-3.91,3.6-6.898,3.523c0,0,0.844,5.998-4.011,8.748
			c-4.86,2.748-10.051,8.28-16.435,10.768c-4.751,1.854-13.367,2.126-18.391-0.511c-5.042-2.637-3.104-8.244-3.104-8.244
			s12.84,4.461,18.215,1.546c5.381-2.917,10.292-8.438,13.881-9.383c3.592-0.95,4.219-5.788,8.387-8.033
			C399.038,484.778,405.791,476.733,405.791,476.733z"/>
		
			<linearGradient id="SVGID_4_" gradientUnits="userSpaceOnUse" x1="-764.7646" y1="476.5811" x2="-788.0619" y2="485.352" gradientTransform="matrix(-1 0 0 1 -401.2744 0)">
			<stop  offset="0" style="stop-color:#332539"/>
			<stop  offset="0.9818" style="stop-color:#18101C"/>
		</linearGradient>
		<path fill="url(#SVGID_4_)" d="M401.363,457.051c0,0,4.208,7.218,4.597,14.864c0.39,7.646-2.219,10.672-2.219,10.672
			s-2.561,4.171-4.844,6.036c-2.284,1.865-1.326,6.222-10.844,13.326c-8.113,6.061-13.307,8.759-18.991,8.924
			c-5.687,0.162-14.41-3.261-14.735-5.873c-0.324-2.606,0.421-9.026,4.269-13.482c19.276-22.319,15.29-26.673,17.006-29.572
			C377.307,459.048,395.436,453.943,401.363,457.051z"/>
		<path fill="#08090A" d="M393.409,465.692c0,0,1.38,3.496,0.424,6.988c-0.954,3.484-1.395,5.594-1.395,5.594
			s3.121-3.495,4.683-5.887c1.555-2.391,2.215-11.214,2.215-11.214S395.871,466,393.409,465.692z"/>
		
			<linearGradient id="SVGID_5_" gradientUnits="userSpaceOnUse" x1="1655.7998" y1="265.877" x2="1684.5811" y2="265.877" gradientTransform="matrix(0.9937 0.1118 -0.1118 0.9937 -1253.9883 35.0723)">
			<stop  offset="0" style="stop-color:#332539"/>
			<stop  offset="0.6424" style="stop-color:#594761"/>
			<stop  offset="0.9818" style="stop-color:#875E89"/>
		</linearGradient>
		<path fill="url(#SVGID_5_)" d="M361.199,488.445c0,0,12.536,1.643,17.275,3.667c4.735,2.022,6.97,0.249,8.367-1.877
			c1.397-2.132,4.118-8.885,4.118-8.885s-4.713,8.642-7.603,9.719c-2.89,1.079-6.776-0.443-10.613-1.674
			c-3.842-1.234-10.439-2.304-10.439-2.304L361.199,488.445z"/>
		<path fill="#08090A" d="M392.438,478.274c0,0-3.497,5.097-5.537,7.98c-2.046,2.882-4.303,5.534-7.587,4.491
			c-3.284-1.033-12.562-3.839-16.665-4.074c0,0-0.561,0.689-0.914,1.125c0,0,13.924,2.742,17.988,4.212
			c4.066,1.47,5.363-1.274,7.919-4.967C390.194,483.351,392.438,478.274,392.438,478.274z"/>
		<path fill="#08090A" d="M372.05,473.018c0,0,5.378-1.049,11.965,1.476c6.586,2.527,8.423,3.781,8.423,3.781
			s0.236-1.059,0.338-1.473c0,0-5.366-3.102-10.357-4.301c-4.987-1.201-9.643-0.938-9.643-0.938S372.284,472.567,372.05,473.018z"/>
		
			<linearGradient id="SVGID_6_" gradientUnits="userSpaceOnUse" x1="-779.2261" y1="497.6055" x2="-755.5869" y2="496.7832" gradientTransform="matrix(-1 0 0 1 -401.2744 0)">
			<stop  offset="0" style="stop-color:#332539"/>
			<stop  offset="0.6424" style="stop-color:#594761"/>
			<stop  offset="0.9818" style="stop-color:#875E89"/>
		</linearGradient>
		<path fill="url(#SVGID_6_)" d="M357.264,493.319c0,0-0.795,3.948,4.267,4.725c5.07,0.781,16.114,1.711,20.834-0.623
			c4.717-2.333,4.367-2.482,7.297-6.132c3.204-3.987,7.137-5.551,7.137-5.551s-2.424,4.821-5.238,9.176
			c-2.36,3.646-7.251,7.078-13.163,8.465c-5.909,1.39-13.264-0.976-16.136,0.605c-2.874,1.592-0.973,5.564-0.973,5.564
			s-6.767-1.2-7.195-5.27C354.093,504.279,354.104,497.945,357.264,493.319z"/>
		<path fill="#08090A" d="M395.503,472.653c0,0,2.393,3.938,2.95,6.919c0.558,2.983,0.444,9.051,0.444,9.051l2.466-0.963
			C401.363,487.66,398.902,470.561,395.503,472.653z"/>
	</g>
	<path fill="#18101C" d="M463.405,197.729c0,0,10.821,3.035,15.821,9.64s7.332,1.182,10,2.727c2.666,1.545,6-1.923,11.666-4.856
		c5.667-2.933,14,0.035,17.334,11.384c3.333,11.35,2.333,23.421-1.667,26.385s-13.667,1.364-17.667,2.331
		s-10.203,4.084-18.935,2.025s-11.065,11.346-17.065-4.356S463.405,197.729,463.405,197.729z"/>
	<path fill="#332539" d="M485.56,324.64c0,0-19.254,62.668-24.96,90.334c-5.707,27.666,0.293,27.332-3.04,30.666
		s1.667,4.146,0,7.406s8.319,2.335-1.174,7.884s-33.826,5.038-37.826,4.541s-6.811-50.497-10.572-66.164s-2.739-59.94,7.917-79.304
		S485.56,324.64,485.56,324.64z"/>
	<linearGradient id="SVGID_7_" gradientUnits="userSpaceOnUse" x1="453.5254" y1="394.6221" x2="483.8961" y2="423.0066">
		<stop  offset="0" style="stop-color:#332539"/>
		<stop  offset="0.6424" style="stop-color:#594761"/>
		<stop  offset="0.9818" style="stop-color:#875E89"/>
	</linearGradient>
	<path fill="url(#SVGID_7_)" d="M472.674,352.557c0,0-11.42,46.75-14.809,65s-1.418,21.75-4.029,26.5
		c-2.609,4.75-9.982,8.7-9.982,8.7s5.66-0.522,7.767-1.111s0.989,3.787,1.208,7.294c0.218,3.507-3.043,4.493-3.043,4.493
		s12.191-3.056,12.441-5.841s-4.176-4.357-3.963-5.946s0.287-3.345,0-3.842s1.713-4.247,2.213-5.747s1-17,3.5-23.75
		s15.484-71.75,15.484-71.75L472.674,352.557z"/>
	<path fill="#18101C" d="M430.299,465.7c0,0-6.74-8.723-7.406-21.725s5.479-50.002,7.406-63.669s12.035-14,15.48-12
		c3.447,2,11.113-0.667,20.113-7.667s13.031-11.408,13.031-11.408s6.636-15.367,6.636-19.979s-65.978-3.278-69.656-1.945
		s-9.973,30.667-9.659,38.667S406,397.64,406,397.64s9.428,65.328,9.494,67.831S424.341,465.992,430.299,465.7z"/>
	<linearGradient id="SVGID_8_" gradientUnits="userSpaceOnUse" x1="397.4014" y1="397.2939" x2="332.5172" y2="386.3788">
		<stop  offset="0" style="stop-color:#332539"/>
		<stop  offset="0.6424" style="stop-color:#594761"/>
		<stop  offset="0.9818" style="stop-color:#875E89"/>
	</linearGradient>
	<path fill="url(#SVGID_8_)" d="M347.887,313.148c0,0-5.661,15.639-9.994,20.898s-10,11.593-10,11.593s26.442,63.668,34.221,83.334
		s4.445,22.812,7.779,24.072s-5.333,3.859,0,5.894s-4.333,9.701,3.333,10.034s36.634,2.859,36.618-0.979s0.35-10.471,0-18.157
		s5.649-101.53,5.649-101.53L347.887,313.148z"/>
	<path fill="#332539" d="M374.748,180.09c0,0-12.19-1.783-22.189,6.217s-13.999,0.48-18.999,13.24s-12,15.426-9,23.76
		s20.333,35,17,53.666c-3.333,18.668-3.746,34.335,13.794,51.001s51.966,38,57.966,38s22.907-39.93,22.907-39.93
		s5.961,37.34,13.554,35.93s41.112-27.334,42.446-36c1.333-8.666,8-34.667-5.667-65.655c-7.046-15.977-15.333-25.32-18-34.499
		s5.001-20.699-2.667-26.272c-7.666-5.574-25.665-19.145-30.999-20.026S374.748,180.09,374.748,180.09z"/>
	<linearGradient id="SVGID_9_" gradientUnits="userSpaceOnUse" x1="316.7261" y1="328.7266" x2="347.2373" y2="328.7266">
		<stop  offset="0" style="stop-color:#F7B495"/>
		<stop  offset="1" style="stop-color:#B76C5D"/>
	</linearGradient>
	<path fill="url(#SVGID_9_)" d="M316.726,329.252c0,0,13.49,13.766,13.939,13.252s10.955-8.057,13.383-13.252
		s5.772-8.922-0.025-13.559S316.726,329.252,316.726,329.252z"/>
	<path fill="#18101C" d="M344.226,245.34c0,0,7.921-10.367,11.127-21.033s6.339-17.333,6.339-17.333s3.2,11.462-3.133,25.064
		s3.296,30.602,1.981,45.269s2.344,27,6.681,39s19.697,21.41,19.697,21.41s-20.548-8.787-31.566-21.743s-6.733,4.544-6.733,4.544
		s-13.393-10.54-12.061-28.544c0.497-6.724,6-22,4.667-26.333S344.226,245.34,344.226,245.34z"/>
	<g>
		<path fill="#18101C" d="M365.241,194.628c0,0-11.466,5.012-9.098,6.899c2.367,1.888,25.299,27.407,25.299,27.407
			s-2.074,8.888-6.315,9.469c-4.243,0.581,6.241,8.576,17.546,12.672c11.304,4.096,32.161,7.695,32.161,7.695
			s-30.604-12.936-31.386-23.61C392.666,224.484,365.241,194.628,365.241,194.628z"/>
		
			<linearGradient id="SVGID_10_" gradientUnits="userSpaceOnUse" x1="352.9854" y1="182.9053" x2="427.7607" y2="182.9053" gradientTransform="matrix(0.9988 0.0486 -0.0486 0.9988 10.5684 10.3643)">
			<stop  offset="0" style="stop-color:#332539"/>
			<stop  offset="1" style="stop-color:#594761"/>
		</linearGradient>
		<path fill="url(#SVGID_10_)" d="M383.698,166.065c0,0-3.768-0.48-5.304,5.242c-1.539,5.723-23.975,21.483-23.479,25.361
			c0.495,3.877,18.233,18.563,28.167,25.027c0,0-3.257,8.27-5.777,9.132c-2.521,0.862-8.849,1.343-8.7,2.334
			s3.557,7.854,19.227,13.739c15.669,5.885,38.881,12.405,38.881,12.405s-15.458-31.833-19.325-43.646
			C403.521,203.846,383.698,166.065,383.698,166.065z"/>
		<path fill="#18101C" d="M383.083,221.696c0,0,8.425,3.625,16.184,4.375l3.256,4.375c0,0-11.702-2.498-20.323-6.695
			L383.083,221.696z"/>
		<path fill="#6B5873" d="M368.606,233.162c0,0,6,8.155,22.02,13.875c16.023,5.722,34.207,8.357,34.207,8.357l1.881,3.912
			c0,0-20.051-4.941-36.165-10.699C374.438,242.852,368.088,235.698,368.606,233.162z"/>
	</g>
	<path fill="#A59AB5" d="M304.71,318.622c0,0,6.378,9.639,11.412,13.152c5.034,3.515,11.149,2.87,16.325-1.365
		s10.679-6.108,11.454-11.473c0.775-5.363-1.754-12.977-1.754-12.977L304.71,318.622z"/>
	<g>
		<path fill="#18101C" d="M453.393,202.047c0,0-0.725,6.341-3.612,10.634s-6.414,6.509-6.407,8.626
			c0.006,2.117,0.461,3.86,2.406,4.763c1.947,0.903,10.928,1.18,10.021,4.375s-23.958,22.528-23.958,22.528
			s3.215-20.833,4.799-28.333C438.227,217.14,453.393,202.047,453.393,202.047z"/>
		<linearGradient id="SVGID_11_" gradientUnits="userSpaceOnUse" x1="426.2432" y1="221.2104" x2="455.7998" y2="221.2104">
			<stop  offset="0" style="stop-color:#332539"/>
			<stop  offset="1" style="stop-color:#594761"/>
		</linearGradient>
		<path fill="url(#SVGID_11_)" d="M432.951,183.085c0,0,14.578,13.721,18.552,15.471s3.276,8.327,0,11.539
			s-10.376,9.362-10.376,9.362s3.207,6.376,4.652,6.613c1.447,0.236,10.947,0.205,9.947,2.596s-21.569,25.575-29.013,30.641
			C424.143,261.057,432.951,183.085,432.951,183.085z"/>
		<polygon fill="#18101C" points="441.127,219.458 426.186,229.995 425.226,233.162 442.338,221.696 		"/>
		<path fill="#6B5873" d="M455.727,228.666l-29.334,28.349c0,0,0.12,2.292,0.321,2.292
			C428.958,259.307,453.938,233.234,455.727,228.666z"/>
	</g>
	<path fill="#A59AB5" d="M377.818,186.37c0,0,13.193,27.921,21.075,39.171s27.821,33.766,27.821,33.766s12.745-41.887,7.569-58.5
		c-2.523-8.097-3.984-18.688-3.984-18.688L377.818,186.37z"/>
	<linearGradient id="SVGID_12_" gradientUnits="userSpaceOnUse" x1="410.0859" y1="226.4473" x2="422.3814" y2="221.2021">
		<stop  offset="0" style="stop-color:#962A2A"/>
		<stop  offset="0.9455" style="stop-color:#E04545"/>
	</linearGradient>
	<path fill="url(#SVGID_12_)" d="M398.874,196.542l6.162,7.718c0,0-1.473,3.523-0.123,11.328c1.589,9.184,3.895,22.732,3.895,22.732
		s17.28,22.151,17.906,20.987c1.911-3.557,6.167-25.257,6.167-25.257s-10.436-19.526-12.114-23.493
		c-1.679-3.967-5.58-8.356-5.58-8.356s1.07-1.894,1.122-9.02c0,0-8.466-5.355-10.083-5.041S398.874,196.542,398.874,196.542z"/>
	<path fill="#D7D0DE" d="M374.748,184.589c0,0,11.842,12.001,18.785,18.501l12.505-15.33l26.914,14.204l-0.549-16.124
		C432.402,185.84,394.521,180.588,374.748,184.589z"/>
	<g>
		<g>
			<path fill="#F7B495" d="M367.196,126.788c0,0-4.642-10.19-10.738-8.078c-6.093,2.111-4.611,23.533,1.431,25.436
				c6.04,1.906,7.605,4.901,8.575-2.631C367.435,133.984,367.196,126.788,367.196,126.788z"/>
			<path fill="#B76C5D" d="M355.37,128.239c0,0-0.479-6.864,3.701-6.726c4.182,0.137,6.244,4.811,6.62,11.487
				c0.376,6.679-2.115,11.415-6.065,8.375c-3.951-3.041-4.041-6.976-4.041-6.976s1.15,4.515,4.98,5.377
				c3.832,0.863,2.737-8.104,1.946-11.31c-0.793-3.204-1.868,0.034-1.162,3.938c0,0-3.316-2.6-2.569-5.663
				C359.527,123.68,355.829,125.091,355.37,128.239z"/>
		</g>
		<g>
			<path fill="#F7B495" d="M439.66,128.436c0,0,4.643-10.19,10.738-8.078c6.093,2.111,4.61,23.532-1.432,25.437
				c-6.039,1.906-7.605,4.9-8.574-2.631C439.422,135.633,439.66,128.436,439.66,128.436z"/>
			<path fill="#B76C5D" d="M451.486,129.887c0,0,0.479-6.864-3.701-6.726c-4.182,0.137-6.244,4.811-6.62,11.487
				c-0.376,6.68,2.115,11.416,6.065,8.375s4.04-6.975,4.04-6.975s-1.149,4.514-4.98,5.377s-2.737-8.105-1.946-11.31
				c0.793-3.204,1.869,0.034,1.162,3.937c0,0,3.316-2.6,2.568-5.663C447.329,125.328,451.027,126.739,451.486,129.887z"/>
		</g>
		<linearGradient id="SVGID_13_" gradientUnits="userSpaceOnUse" x1="401.5054" y1="105.6973" x2="404.505" y2="195.6852">
			<stop  offset="0" style="stop-color:#F7B495"/>
			<stop  offset="1" style="stop-color:#FACEBB"/>
		</linearGradient>
		<path fill="url(#SVGID_13_)" d="M403.35,83.462c-26.531,1.739-35.687,40.969-35.687,40.969
			c-5.563,14.491-10.687,30.259-10.511,41.816c0.08,5.28,2.299,8.853,5.694,11.52c0.057,0.051,8.102,7.186,23.547,10.341
			c15.5,3.166,20.834-1,20.834-1s8.694,3.574,22.097,0.787c13.402-2.787,19.744-15.189,20.242-22.453c0,0-0.001,0,0-0.002
			C451.836,157.527,436.055,81.318,403.35,83.462z"/>
		<path fill="#B76C5D" d="M396.733,143.964c0,0-1.791,6.5,1.913,9.125s5.454,1.625,6.267,1s2.871,3.25,8.154,3.125
			s8.533-3.25,8.658-6c0,0,2.75-0.875,3.5-2.875c0,0,2.75,2.625,8.375,7.625s6.625,8.875,6.625,8.875s-4.767-6.25-8.384-8.25
			c-3.616-2-7.116-4.125-7.116-4.125l-2.125,0.75c0,0,0,4.814-6.625,5.907s-11.062-3.345-11.062-3.345s-3.485,1.312-6.711-0.812
			s-3.91-5.375-3.91-5.375s-1.816,2.25-7.066,3.875s-11.152,8-11.152,8s3.508-7.737,10.846-11.492
			C395.362,145.652,396.733,143.964,396.733,143.964z"/>
		<path fill="#B76C5D" d="M431.842,176.075c0,0-0.741-3.347-5.241-6.104c-2.745-1.682-7.638-3.27-11.04-4.253
			c1.236-0.053,2.118-0.129,2.118-0.129l3.846-4.237c0,0-5.668,1.196-9.608,0.967s-7.444-1.76-11.088-1.272
			s-12.341-0.499-12.341-0.499s3.613,3.333,9.238,2.75c3.774-0.392,6.788,0.597,9.25,1.408l0,0L431.842,176.075z"/>
		<path fill="#F7B495" d="M416.309,132.641c0,0,4.458,8.866,5.417,18.574c0,0,2.25,0.041,3.5-2.875
			C425.226,148.34,424.393,137.774,416.309,132.641z"/>
		<path fill="#875F3E" d="M408.149,163.172c0,0,27.451,15.543,29.451,15.418s4.25-2.875,3.875-4.125s-19.946-13.112-19.946-13.112
			S410.948,162.004,408.149,163.172z"/>
		<linearGradient id="SVGID_14_" gradientUnits="userSpaceOnUse" x1="419.7197" y1="146.7749" x2="448.8457" y2="146.7749">
			<stop  offset="0" style="stop-color:#F7B495"/>
			<stop  offset="1" style="stop-color:#FACEBB"/>
		</linearGradient>
		<path fill="url(#SVGID_14_)" d="M419.72,135.525c0,0,3.756,8.439,5.506,12.814s7.208,6.271,10.36,9.875s4.64,6.625,4.64,6.625
			s6.721,2.735,8.125,0s-0.375-14.77-2.875-22.697s-8.625-14.648-8.625-14.648s-2.412,3.301-6.269,5.261s-9.301,0.808-9.301,0.808
			L419.72,135.525z"/>
		<path fill="#553A26" d="M421.515,161.354c0,0-2.506,1.557-4.505,2.432s-3.236,2.541-3.236,2.541s-6.106-2.602-6.34-3.228
			s6.453-0.938,7.641-1.125S421.515,161.354,421.515,161.354z"/>
		<g>
			<g>
				<path fill="#E5E5E5" d="M382.288,127.777c0,0,0.519,5.284,8.085,4.965s8.77-3.941,8.288-7.401c0,0-3.755-0.346-7.349,0.772
					C387.718,127.232,382.288,127.777,382.288,127.777z"/>
				<path fill="#8AA548" d="M386.042,127.777c0,0-0.684,2.947,5.03,3.048c5.715,0.101,5.837-4.016,5.594-5.242
					c0,0-1.841-0.986-4.557,0.292C389.395,127.152,386.042,127.777,386.042,127.777z"/>
				<path fill="#1D383B" d="M386.919,128.677l2.635-0.653c0,0,0,2.083,2.635,1.684c2.635-0.398,1.837-2.635,1.837-2.635l2.156-0.878
					l-0.399-0.719c0,0-1.589-0.399-2.631,0c-1.042,0.399-6.232,2.053-6.232,2.053V128.677z"/>
				<path fill="#171B1F" d="M401.094,125.162c0,0-6.201-1.007-10.154,0.423c-3.952,1.432-11.287,1.487-11.287,1.487l0.719,1.438
					c0,0,3.593,0.69,7.546-0.733C391.87,126.353,396.062,125.407,401.094,125.162z"/>
				<ellipse fill="#FFFFFF" cx="387.521" cy="129.903" rx="2.659" ry="0.879"/>
			</g>
			<path fill="#B76C5D" d="M380.85,126.114c0,0,3.674,0.364,7.347-0.815c3.673-1.181,9.741-1.22,11.819-0.481
				c0,0-0.479-1.418-7.268-1.019c-6.787,0.399-8.065,1.805-11.898,1.421V126.114z"/>
		</g>
		<g>
			<g>
				<path fill="#E5E5E5" d="M432.951,127.341c0,0-0.52,5.284-8.086,4.965c-7.566-0.318-8.77-3.941-8.287-7.401
					c0,0,3.755-0.346,7.349,0.772C427.521,126.796,432.951,127.341,432.951,127.341z"/>
				<path fill="#8AA548" d="M430.541,127.528c0,0,0.821,2.912-4.883,3.28c-5.703,0.368-6.09-4.625-5.904-5.861
					c0,0,1.865-0.185,4.637,0.964C427.162,127.061,430.541,127.528,430.541,127.528z"/>
				<path fill="#1D383B" d="M429.706,128.468l-2.663-0.53c0,0,0.098,2.081-2.553,1.805c-2.651-0.275-1.959-2.546-1.959-2.546
					l-2.194-0.776l0.43-1.201c0,0,1.504-0.009,2.563,0.341s6.321,1.759,6.321,1.759L429.706,128.468z"/>
				<path fill="#171B1F" d="M414.145,124.726c0,0,6.201-1.007,10.154,0.423c3.952,1.432,11.287,1.487,11.287,1.487l-0.719,1.438
					c0,0-3.594,0.69-7.547-0.733C423.369,125.917,419.176,124.972,414.145,124.726z"/>
				<ellipse fill="#FFFFFF" cx="420.337" cy="127.333" rx="2.659" ry="0.879"/>
			</g>
			<path fill="#B76C5D" d="M434.389,125.678c0,0-3.674,0.364-7.348-0.815c-3.672-1.181-9.741-1.22-11.818-0.481
				c0,0,0.479-1.418,7.268-1.019c6.787,0.399,8.064,1.805,11.898,1.421V125.678z"/>
		</g>
		<path fill="#FDE4CF" d="M385.226,156.59c0,0,1.489,4.625,8.307,4.25s8.943-1.207,12.193,0.021s9.281,1.396,11.953,0
			s3.672-0.521,7.547-0.646s6.616-2.625,6.616-2.625s-0.881,3-7.123,3.375c-6.243,0.375-6.499,2.125-9.496,2.25
			s-8.497,0.25-10.31-0.75s-4.938-1.5-7.562-0.625S384.8,160.967,385.226,156.59z"/>
		<path fill="#171B1F" d="M379.256,119.547c0,0,4.515-5.322,11.428-5.731c6.912-0.41,9.778,4.912,10.801,3.582
			c1.023-1.33-2.661-6.14-9.825-6.14c-7.164,0-12.69,5.117-13.611,6.754C377.128,119.649,379.256,119.547,379.256,119.547z"/>
		<linearGradient id="SVGID_15_" gradientUnits="userSpaceOnUse" x1="393.4648" y1="120.3027" x2="374.8451" y2="148.4198">
			<stop  offset="0" style="stop-color:#F7B495"/>
			<stop  offset="1" style="stop-color:#FACEBB"/>
		</linearGradient>
		<path fill="url(#SVGID_15_)" d="M396.226,144.965c0,0-3.314,2.743-9.307,6.657s-8.874,5.968-10.846,9.843
			s-6.591,8.764-10.344,8.507s-5.967-10.383-4.503-18.757c1.585-9.072,6.908-23.55,9.935-25.483s8.714,6.679,13.702,7.831
			s18.602-1.648,18.602-1.648S399.079,140.934,396.226,144.965z"/>
		<linearGradient id="SVGID_16_" gradientUnits="userSpaceOnUse" x1="413.9419" y1="130.3657" x2="426.6006" y2="130.3657">
			<stop  offset="0" style="stop-color:#F7B495"/>
			<stop  offset="1" style="stop-color:#B76C5D"/>
		</linearGradient>
		<path fill="url(#SVGID_16_)" d="M415.851,126.167c0,0,0.959,4.634,4.917,6.153s5.833,1.242,5.833,1.242s-6.508,1.887-8.4,0.482
			s-3.112-4.41-4.056-5.457S415.851,126.167,415.851,126.167z"/>
		<path fill="#171B1F" d="M415.181,118.177c0,0,4.891-3.622,11.157-2.775c6.266,0.847,7.996,5.734,9.125,4.811
			c1.128-0.923-1.418-5.529-7.845-6.757c-6.428-1.229-12.193,2.051-13.278,3.246S415.181,118.177,415.181,118.177z"/>
		<linearGradient id="SVGID_17_" gradientUnits="userSpaceOnUse" x1="406.9756" y1="99.563" x2="435.5859" y2="99.563">
			<stop  offset="0" style="stop-color:#F7B495"/>
			<stop  offset="0.5455" style="stop-color:#FACEBB"/>
			<stop  offset="0.9818" style="stop-color:#FFEBC9"/>
		</linearGradient>
		<path fill="url(#SVGID_17_)" d="M406.976,84.661c0,0,8.675,0.562,16.021,8.929s12.075,17.75,12.59,20.875
			c0,0-13.829-4.875-17.907-3.875C417.679,110.59,415.601,94.232,406.976,84.661z"/>
		<path fill="#FACEBB" d="M418.976,136.573c-2.001-6.891-6.625-9.858-7.158-9.826s-1.967,2.593-1.092,9.826
			c0.404,3.341-0.233,7.189-1.035,10.374c-0.396-0.862-1.262-1.465-2.273-1.465c-1.383,0-2.505,1.121-2.505,2.505
			c0,1.383,1.122,2.505,2.505,2.505c0.514,0,0.99-0.156,1.388-0.421c-0.65,2.053-1.205,3.394-1.205,3.394
			c-0.25,3.375,5.625,4.375,8.708,4s5.417-3.625,5.417-6.25S420.977,143.464,418.976,136.573z"/>
		<linearGradient id="SVGID_18_" gradientUnits="userSpaceOnUse" x1="390.373" y1="131.2598" x2="406.0376" y2="131.2598">
			<stop  offset="0" style="stop-color:#F7B495"/>
			<stop  offset="1" style="stop-color:#B76C5D"/>
		</linearGradient>
		<path fill="url(#SVGID_18_)" d="M400.016,126.747c0,0,0.995,1.067-1.814,4.08s-7.829,5.383-7.829,5.383s7.042-0.259,11.281-2.647
			c4.239-2.389,4.905-6.662,4.072-7.109S400.016,126.747,400.016,126.747z"/>
		<circle fill="#FACEBB" cx="437.048" cy="133.239" r="1.325"/>
		<linearGradient id="SVGID_19_" gradientUnits="userSpaceOnUse" x1="362.1138" y1="182.1191" x2="446.8926" y2="182.1191">
			<stop  offset="0" style="stop-color:#F7B495"/>
			<stop  offset="1" style="stop-color:#B76C5D"/>
		</linearGradient>
		<path fill="url(#SVGID_19_)" d="M362.114,177.159c0,0,17.726,10.181,31.419,8.056s16.818-7.875,16.818-7.875
			s16.333,15.154,36.542-3.11c0,0-3.396,10.86-16.594,14.11s-23.323,0-23.323,0s-9.401,3.494-21.763,0.372
			S364.578,179.734,362.114,177.159z"/>
		<circle fill="#FACEBB" cx="376.073" cy="132.641" r="1.325"/>
		<path fill="#B2B6BA" d="M435.586,177.886c0,0-1.646-3.289,0.137-4.879c1.781-1.59,4.029-0.536,5.795,0.916
			c1.764,1.452,2.375,2.084,1.375,3.084s-1.85,2.334-3.258,2.5C438.226,179.673,436.577,178.342,435.586,177.886z"/>
		<linearGradient id="SVGID_20_" gradientUnits="userSpaceOnUse" x1="438.1045" y1="177.1597" x2="444.6611" y2="177.1597">
			<stop  offset="0.0424" style="stop-color:#E27A44"/>
			<stop  offset="1" style="stop-color:#FBC15B"/>
		</linearGradient>
		<path fill="url(#SVGID_20_)" d="M438.373,179.521c0,0-0.604-2.349,0-2.932c0.603-0.583,0.003-1.666,1.262-1.583
			c1.258,0.083,1.924-0.958,1.883-0.75c-0.042,0.208,1.855,0.25,1.855,0.25l1.103,1.36c0,0,0.417,1.306,0,1.556
			s-1.116,1.128-1.103,1.584c0.013,0.456-1.428,1.083-2.246,1.083S438.373,179.521,438.373,179.521z"/>
		<linearGradient id="SVGID_21_" gradientUnits="userSpaceOnUse" x1="391.3745" y1="120.25" x2="399.3506" y2="120.25">
			<stop  offset="0" style="stop-color:#F7B495"/>
			<stop  offset="0.5455" style="stop-color:#FACEBB"/>
			<stop  offset="0.9818" style="stop-color:#FFEBC9"/>
		</linearGradient>
		<path fill="url(#SVGID_21_)" d="M391.375,117.34c0,0,5.976,0.015,7.976,5.82h-3.988
			C395.362,123.16,394.977,120.383,391.375,117.34z"/>
		<linearGradient id="SVGID_22_" gradientUnits="userSpaceOnUse" x1="426.918" y1="121.5117" x2="434.8936" y2="121.5117">
			<stop  offset="0" style="stop-color:#F7B495"/>
			<stop  offset="0.5455" style="stop-color:#FACEBB"/>
			<stop  offset="0.9818" style="stop-color:#FFEBC9"/>
		</linearGradient>
		<path fill="url(#SVGID_22_)" d="M426.918,118.602c0,0,5.976,0.015,7.976,5.82h-3.988
			C430.905,124.421,430.52,121.645,426.918,118.602z"/>
		<path fill="#553A26" d="M436.525,170.765c0,0-2.177-0.875-3.574,1.916s-0.432,3.735-0.432,3.735l-1.133-0.55
			c0,0-0.708-1.52,0.709-4.103c1.416-2.583,3.424-1.659,3.424-1.659L436.525,170.765z"/>
		<path fill="#553A26" d="M432.735,168.312c0,0-1.786-0.401-3.13,1.474s-1.384,3.521-1.082,4.573c0,0-0.771-0.406-1.152-0.609
			c0,0-1.34-2.052,0.578-4.651s3.261-1.754,3.261-1.754S432.518,168.173,432.735,168.312z"/>
		<path fill="#553A26" d="M428.49,165.638c0,0-1.854-0.404-3.166,1.575s-1.547,4.1-1.232,4.781c0,0-0.809-0.437-1.24-0.671
			c0,0-1.027-2.225,0.535-4.6s3.327-2.189,3.327-2.189S428.094,165.146,428.49,165.638z"/>
		<path fill="#553A26" d="M424.148,162.953c0,0-1.824-0.458-3.637,1.578s-1.721,3.583-1.639,4.618c0,0-1.242-0.684-1.858-1.024
			c0,0-0.203-2.594,2.153-4.683s3.189-1.585,3.189-1.585S423.63,162.401,424.148,162.953z"/>
	</g>
	<path fill="#551A1A" d="M405.036,204.26c0,0,5.491-2.9,10.151-2.06c0,0-1.715,3.019-2.533,2.763
		c-0.817-0.256-1.194,1.481,0.998,6.89c2.192,5.409,7.099,11.266,4.808,12.944c-2.291,1.679-4.339,0.461-5.268-3.11
		s-0.955-11.988-2.204-14.165c-1.249-2.176-6.622,0.866-6.622,0.866S404.367,206.39,405.036,204.26z"/>
	
		<linearGradient id="SVGID_23_" gradientUnits="userSpaceOnUse" x1="337.1758" y1="213.27" x2="300.9403" y2="207.1743" gradientTransform="matrix(0.9967 0.0818 -0.0818 0.9967 20.9727 24.4268)">
		<stop  offset="0" style="stop-color:#332539"/>
		<stop  offset="0.6424" style="stop-color:#594761"/>
		<stop  offset="0.9818" style="stop-color:#875E89"/>
	</linearGradient>
	<path fill="url(#SVGID_23_)" d="M337.225,193.832c0,0-8.543,0.788-18.499,20.223c-9.956,19.435-28.271,47.004-26.1,73.542
		c2.17,26.537,20.397,40.823,25.349,41.617s21.308-11.043,23.537-17.838s-1.283-12.898-6.173-22.602
		c-4.889-9.704,2.379-20.267,11.572-38.547S354.882,200.191,337.225,193.832z"/>
	<path fill="#18101C" d="M426.714,259.307c2.048,27.541,3.062,18.699,5.708,35.717c2.145,13.792,4.219,33.436,4.219,33.436
		l-3.154,3.832c0,0-0.91-30.268-3.07-37.268S424.877,264.102,426.714,259.307z"/>
	<linearGradient id="SVGID_24_" gradientUnits="userSpaceOnUse" x1="451.9902" y1="446.877" x2="432.3232" y2="450.2101">
		<stop  offset="0" style="stop-color:#332539"/>
		<stop  offset="0.9818" style="stop-color:#18101C"/>
	</linearGradient>
	<path fill="url(#SVGID_24_)" d="M453.227,436.64c0,0-7.001,8.668-11.334,10.334s-22.667,6.892-22.667,6.892s9.333,4.707,17,5.074
		c7.666,0.367,14.666-2.946,14.666-2.946s-11.666-1.236-13.333-2.128s3.107-4.226,8.22-7.226
		C450.893,443.64,451.227,446.64,453.227,436.64z"/>
	<path fill="#18101C" d="M352.559,320.003c0,0-2.688,10.374-8.51,17.714s-10.322,12.59-10.322,12.59s12-8.43,15.75-12.59
		s0.5,14.09,0.5,14.09s5.5-12.25,14.75-7s39.777,14.5,39.777,14.5L352.559,320.003z"/>
	<linearGradient id="SVGID_25_" gradientUnits="userSpaceOnUse" x1="462.3652" y1="212.8159" x2="515.8926" y2="212.8159">
		<stop  offset="0" style="stop-color:#332539"/>
		<stop  offset="0.6424" style="stop-color:#594761"/>
		<stop  offset="0.9818" style="stop-color:#875E89"/>
	</linearGradient>
	<path fill="url(#SVGID_25_)" d="M466.06,203.09c0,0,9.667,2.96,12,7.005s-0.167,8.045,1.5,12.045s3.5,6.526,3.5,6.526
		s-3.167-11.526,1.5-13.693s9.166-0.417,11.333-2.292s4.312-0.759,3.312,1.033s-2.409,13.368-1.884,12.888
		c2.586-2.364,4.072-10.546,7.239-13.92s5.501-6.208,11.333-1.541c0,0-3.5-7.434-7.166-8.05c-3.667-0.617-10.5,0.749-12.5,2.149
		s-3.167,3.524-5.25,2.129c-2.084-1.395-2.251-3.363-4.084-2.129s-2.166,2.567-4.666,1.067s-5.334-2.333-7.667-5
		s-12.194-4.341-12.194-4.341L466.06,203.09z"/>
	<path fill="#18101C" d="M371.693,444.057c0,0,13.998,5.5,19.266,5.75s11.768-5.75,11.768-5.75s-0.945,5.9-7.223,8.7
		s-18.416,1.55-18.416,1.55S370.66,449.557,371.693,444.057z"/>
	<path fill="#18101C" d="M378.226,463.122c0,0,17.722-5.915,21.111-10.365s6.663-11.95,6.663-11.95s-0.476,13.572,0,18.161
		s-2.302,6.743-6.663,6.791s-14.861,0-14.861,0s14.823-4.218,11.412-4.585S383.476,465.938,378.226,463.122z"/>
	<path fill="#6B5873" d="M426.714,259.307c0,0,0.241,12.553,3.243,25.506c3,12.952,5.35,36.797,6.684,43.646
		c1.335,6.85,4.34,25.848,7.213,30.848s6.098,3.238,9.805,1.107c0,0-6.062,2.143-8.998-4.857c-2.934-7-9.648-59.346-12.818-68.25
		C428.674,278.402,428.595,259.842,426.714,259.307z"/>
	<path fill="#18101C" d="M434.786,258.377c0,0-0.743,3.88-0.755,6.571c-0.01,2.69,2.685,6.234,2.685,6.234s-4.685-0.567-4.858-5.815
		C431.684,260.118,434.786,258.377,434.786,258.377z"/>
	
		<linearGradient id="SVGID_26_" gradientUnits="userSpaceOnUse" x1="449.3896" y1="306.877" x2="453.3379" y2="306.877" gradientTransform="matrix(0.9888 -0.149 0.149 0.9888 -57.4932 28.229)">
		<stop  offset="0" style="stop-color:#332539"/>
		<stop  offset="1" style="stop-color:#594761"/>
	</linearGradient>
	<path fill="url(#SVGID_26_)" d="M436.492,264.123c0.296,1.964-0.338,3.688-1.416,3.851c-1.078,0.163-2.191-1.298-2.487-3.263
		s0.338-3.688,1.415-3.851C435.082,260.697,436.195,262.158,436.492,264.123z"/>
	<path fill="#18101C" d="M444.356,313.6c0,0-0.743,3.881-0.755,6.571c-0.01,2.69,2.685,6.234,2.685,6.234s-4.685-0.567-4.858-5.815
		C441.254,315.341,444.356,313.6,444.356,313.6z"/>
	
		<linearGradient id="SVGID_27_" gradientUnits="userSpaceOnUse" x1="450.625" y1="362.9121" x2="454.5723" y2="362.9121" gradientTransform="matrix(0.9888 -0.149 0.149 0.9888 -57.4932 28.229)">
		<stop  offset="0" style="stop-color:#332539"/>
		<stop  offset="1" style="stop-color:#594761"/>
	</linearGradient>
	<path fill="url(#SVGID_27_)" d="M446.062,319.346c0.296,1.964-0.338,3.688-1.416,3.851c-1.078,0.163-2.191-1.298-2.487-3.263
		s0.338-3.688,1.415-3.851C444.652,315.92,445.766,317.381,446.062,319.346z"/>
	<linearGradient id="SVGID_28_" gradientUnits="userSpaceOnUse" x1="451.9766" y1="298.6514" x2="493.373" y2="298.6514">
		<stop  offset="0" style="stop-color:#332539"/>
		<stop  offset="0.6424" style="stop-color:#594761"/>
		<stop  offset="0.9818" style="stop-color:#875E89"/>
	</linearGradient>
	<path fill="url(#SVGID_28_)" d="M478.227,250.746c0,0,12.042,15.084,14.25,36.561c2.207,21.477-0.121,32.555-2.061,35.902
		s-13.939,17.668-19.689,20.008s-12,3.34-12,3.34l-6.75-41.5c0,0,15.146-14.25,20.697-28.25
		C478.227,262.807,478.227,250.746,478.227,250.746z"/>
	<path fill="#A59AB5" d="M511.252,202.899c0,0-7.598-0.098-10.07,18c-2.471,18.098,5.611,22.712,10.07,23.571
		s10.596-4.333,10.596-4.333L511.252,202.899z"/>
	<path fill="#18101C" d="M355.821,269.149c0,0,18.528,12.157,26.467,14.157s17.729,4.334,17.729,4.334s-8.325,3.299-23.943,2
		s-23.515-6-23.515-6L355.821,269.149z"/>
	<linearGradient id="SVGID_29_" gradientUnits="userSpaceOnUse" x1="392.8901" y1="300.167" x2="427.0775" y2="332.1186">
		<stop  offset="0" style="stop-color:#332539"/>
		<stop  offset="0.6424" style="stop-color:#594761"/>
		<stop  offset="0.9818" style="stop-color:#875E89"/>
	</linearGradient>
	<path fill="url(#SVGID_29_)" d="M376.288,293.641c0,0,26.875,0.605,32.24-3.697s10.364-12.637,13.198-8.971
		c2.834,3.668,5.815,17.951,7.98,29.95c4.835,26.794,0.354,14.975-3.521,28.731c-3.874,13.757-14.689,24.318-19.449,19.652
		s-12.511-16.09-12.511-16.09s6.585-9.02-2.208-13.965s-15.126-6.353-18.792-14.315S376.288,293.641,376.288,293.641z"/>
	<g>
		<path fill="#A56151" d="M524.594,239.968c0,0-16.42,4.019-17.899-14.825c-0.511-6.505-0.586-12.153,1.794-18.028
			s4.113-12.534,3.059-16.205c-1.054-3.67,3.327-6.545,6.262-4.295s4.477,7.665,4.768,10.208c0.292,2.542,2.934,4.042,4.113,5.417
			c1.179,1.375,0.57,6.895,0,11.885c-0.571,4.99-0.188,10.767-0.946,15.646S524.594,239.968,524.594,239.968z"/>
		<path fill="#E9A994" d="M533.869,218.396c0,0,3.749,3.524,3.749,6.747s-1.875,4.847-1.875,4.847s2.375,2,1.875,5.375
			s-2.75,5.125-6.875,5.375s-13.125,1.529-14.5-2.298s1.625-5.202,1.625-5.202s-4.25-2-0.875-6S533.869,218.396,533.869,218.396z"/>
		<g>
			<path fill="#A56151" d="M524.307,228.744c0,0-0.634-2-1.676-2.317s-3.584,1.25-4.75,2.031c-1.167,0.78-1.48,1.319-0.344,2.719
				C518.672,232.577,524.307,228.744,524.307,228.744z"/>
			<linearGradient id="SVGID_30_" gradientUnits="userSpaceOnUse" x1="517.2217" y1="229.4937" x2="524.5928" y2="229.4937">
				<stop  offset="0.0364" style="stop-color:#FBD1BC"/>
				<stop  offset="1" style="stop-color:#E9A994"/>
			</linearGradient>
			<path fill="url(#SVGID_30_)" d="M521.029,226.849c0,0-3.148,1.633-3.648,2.433c-0.5,0.8,0.24,2.519,1.328,2.995
				s4.274-0.718,5.515-1.421S523.377,225.488,521.029,226.849z"/>
			<path fill="#FDE4D9" d="M518.311,228.458l1.808,3.857c0,0-0.987,0.262-1.446,0.262c-0.458,0-1.15-1.378-1.45-2.06
				S517.196,229.17,518.311,228.458z"/>
		</g>
		<g>
			<path fill="#A56151" d="M525.104,237.263c0,0-0.236-2.085-1.197-2.596c-0.963-0.511-3.758,0.538-5.053,1.08
				s-1.706,1.01-0.861,2.603C518.838,239.942,525.104,237.263,525.104,237.263z"/>
			
				<linearGradient id="SVGID_31_" gradientUnits="userSpaceOnUse" x1="505.5479" y1="120.9512" x2="512.9199" y2="120.9512" gradientTransform="matrix(0.9813 0.1923 -0.1923 0.9813 45.1729 20.7314)">
				<stop  offset="0.0364" style="stop-color:#FBD1BC"/>
				<stop  offset="1" style="stop-color:#E9A994"/>
			</linearGradient>
			<path fill="url(#SVGID_31_)" d="M522.253,234.773c0,0-3.403,0.997-4.048,1.686s-0.248,2.518,0.728,3.194s4.332,0.117,5.685-0.334
				C525.969,238.868,524.818,233.89,522.253,234.773z"/>
			<path fill="#FDE4D9" d="M519.275,235.83l1.031,4.133c0,0-1.019,0.067-1.469-0.021c-0.449-0.088-0.865-1.574-1.027-2.3
				S518.045,236.314,519.275,235.83z"/>
		</g>
		<path fill="#A56151" d="M535.743,229.99c0,0-10,2.375-17.875,3.25c0,0-1.927,0.729-1.926,2.639c0,0,2.314-1.381,7.808-2.01
			s13.449-1.79,13.449-1.79S537.031,231.078,535.743,229.99z"/>
		<g>
			
				<linearGradient id="SVGID_32_" gradientUnits="userSpaceOnUse" x1="57.0542" y1="104.9229" x2="88.3447" y2="104.9229" gradientTransform="matrix(-1.2134 0.0071 0.0058 1 605.1729 77.1699)">
				<stop  offset="0" style="stop-color:#A31916"/>
				<stop  offset="1" style="stop-color:#CD2625"/>
			</linearGradient>
			<path fill="url(#SVGID_32_)" d="M536.047,168.721c0,0-7.533,3.866-11.291,3.219c-3.756-0.648-3.652-0.481-9.13-0.366
				c-5.476,0.116-9.438-0.613-11.672-1.354c-2.235-0.738-4.571-0.708-4.571-0.708s-3.293,8.863,3.146,17.521
				c6.441,8.653,10.98,9.74,16.081,9.266C523.711,195.829,539.379,192.051,536.047,168.721z"/>
			<path fill="#FFFFFF" d="M513.678,196.999l7.033-0.041c29.967-9.76,11.375-44.203,11.375-44.203l-29.619,0.172
				C487.941,189.905,513.678,196.999,513.678,196.999z M499.732,177.101c-2.003-13.028,3.922-23.262,3.922-23.262l19.678-0.113
				c3.467,2.987,6.068,14.091,6.068,14.091l2.129-0.012c0.573-5.771-2.212-14.115-2.212-14.115l2.333-0.014
				c5.536,10.167,5.887,24.569,2.113,31.921c-3.776,7.353-13.129,10.108-17.186,10.047
				C512.521,195.583,501.735,190.128,499.732,177.101z"/>
			<path fill="#E94545" d="M507.859,173.377c0,0-1.062,3.656,0.057,9.528c1.116,5.873,4.923,9.5,4.923,9.5l-1.079,0.482
				c0,0-10.803-7.7-11.211-20.889C500.549,171.998,505.426,173.253,507.859,173.377z"/>
			<path fill="#601311" d="M503.151,171.981c1.323,0.578,3.532,1.278,7.106,0.879c3.576-0.398,4.965-0.866,7.439-0.043
				c2.477,0.821,7.688,1.055,7.688,1.055s-0.001,0-0.002,0c1.077,0.028,2.377-0.62,3.471-0.354c2.336,0.574,6.846-3.908,6.846-3.908
				c0.084,2.914-0.287,8.054-0.981,10.816c-0.692,2.762-1.88,2.127-2.065,4.804c-0.189,2.675-3.037,2.48-4.959,3.243
				c-1.922,0.764-0.191,2.007-2.014,2.604c-1.822,0.595-2.73,1.269-2.73,1.269l-6.289,0.037c0,0,0.135-0.035,0.368-0.1
				c0.889-0.243,3.212-0.876,4.897-1.353c2.127-0.596,0.096-1.169,0.398-1.338c0.303-0.17,4.049-1.612,4.236-4.038
				c0.19-2.426,0.279-4.432-0.75-7.018c-1.031-2.584-2.757-2.992-4.688-3.65c-1.932-0.657-1.727-0.983-2.615-1.367
				c-2.092-0.662-4.91-0.603-7.131-0.165c-2.634,0.518-2.934,1.187-6.086,0.036c-3.15-1.151-5.385-1.392-5.385-1.392
				S501.831,171.405,503.151,171.981z"/>
			
				<ellipse transform="matrix(-1 0.0055 -0.0055 -1 1034.698 354.2095)" fill="#601311" cx="516.863" cy="178.523" rx="1.068" ry="0.879"/>
			<ellipse fill="#601311" cx="521.573" cy="184.188" rx="0.57" ry="0.469"/>
			<path fill="#FFFFFF" d="M520.711,196.958c0,0-1.578,1.932-1.567,3.688c0.01,1.754,0.177,30.761,0.177,30.761l-0.609,0.004
				c0,0-0.27-29.506-0.182-31.348c0.092-1.839,0.998-2.93,0.998-2.93c-1.182,0.173-4.362-0.214-4.362-0.214
				c1.02,0.756,1.23,2.405,1.23,2.405l0.28,32.098l-1.107,0.007l-0.18-31.013c0,0-0.248-2.004-1.711-3.417
				C513.678,196.999,519.357,196.632,520.711,196.958z"/>
			<polygon fill="#FFFFFF" points="517.393,231.417 518.016,231.413 517.818,197.706 517.197,197.562 			"/>
			<path fill="#FFFFFF" d="M501.479,238.755c0,0,0.555,2.392,18.607,2.008c13.729-0.291,14.66-2.425,14.66-2.425
				c-0.004-0.612,0.062-0.501-0.885-0.997c-0.95-0.497-5.482-0.806-6.363-1.188c-0.883-0.386-8.178-5.135-8.178-5.135
				c-1.255-0.273-3.752,0.41-3.752,0.41c-2.088,1.463-5.181,4.49-5.992,4.83c-0.807,0.339-6.211,1.538-6.885,1.654
				C502.015,238.028,501.479,238.755,501.479,238.755z M502.965,238.58c0,0,5.542-0.704,6.416-1.432
				c0.873-0.729,5.113-4.264,5.99-4.883c0.875-0.618,3.311-0.882,3.852-0.524c0,0,6.719,4.475,7.058,4.585
				c0.339,0.11,5.957,1.023,6.434,1.467c0.474,0.442-1.95,1.684-4.722,2.035c-2.771,0.35-5.145-0.528-5.758-1.751
				c-0.616-1.22-3.477-4.604-3.477-4.604l-0.729,0.281c0,0,2.187,5.925,0.495,6.199c-1.688,0.274-7.841,0.254-11.495-0.226
				C503.374,239.246,502.965,238.58,502.965,238.58z"/>
		</g>
		<linearGradient id="SVGID_33_" gradientUnits="userSpaceOnUse" x1="512.2412" y1="217.582" x2="540.0967" y2="217.582">
			<stop  offset="0.0364" style="stop-color:#FBD1BC"/>
			<stop  offset="1" style="stop-color:#E9A994"/>
		</linearGradient>
		<path fill="url(#SVGID_33_)" d="M530.555,210.407c0,0,7.688-1.833,9.188,2.5s-1.999,7.824-6.333,9.079s-14.833,3.588-18,3.088
			s-5.166-6.333,0-9.5S530.555,210.407,530.555,210.407z"/>
		<path fill="#A56151" d="M533.869,210.024c0,0-8.626,5.9-13.251,7.558s-5.625,3.148-5.875,4.403s1.878,3.155,1.878,3.155
			s-4.52,1.34-5.074-3.155c-0.554-4.495-0.554-6.245,3.321-7.62S526.797,209.922,533.869,210.024z"/>
		<linearGradient id="SVGID_34_" gradientUnits="userSpaceOnUse" x1="511.5479" y1="207.876" x2="538.3945" y2="207.876">
			<stop  offset="0.0364" style="stop-color:#FBD1BC"/>
			<stop  offset="1" style="stop-color:#E9A994"/>
		</linearGradient>
		<path fill="url(#SVGID_34_)" d="M517.743,206.574c0,0,7.501-8.019,13.667-9.093s8.333,5.003,6.166,8.048
			c-2.166,3.045-15.166,11.545-21,12.711C510.743,219.407,508.625,213.897,517.743,206.574z"/>
		<g>
			<path fill="#A56151" d="M521.086,213.487c0,0-0.634-2.372-1.676-2.747s-3.584,1.483-4.75,2.408
				c-1.167,0.925-1.48,1.564-0.344,3.224C515.451,218.032,521.086,213.487,521.086,213.487z"/>
			<linearGradient id="SVGID_35_" gradientUnits="userSpaceOnUse" x1="514.001" y1="214.376" x2="521.373" y2="214.376">
				<stop  offset="0.0364" style="stop-color:#FBD1BC"/>
				<stop  offset="1" style="stop-color:#E9A994"/>
			</linearGradient>
			<path fill="url(#SVGID_35_)" d="M517.809,211.24c0,0-3.148,1.936-3.648,2.885s0.24,2.986,1.328,3.551s4.274-0.852,5.515-1.686
				S520.156,209.628,517.809,211.24z"/>
			<path fill="#FDE4D9" d="M515.09,213.148l1.808,4.573c0,0-0.987,0.311-1.446,0.311c-0.458,0-1.15-1.634-1.45-2.442
				S513.976,213.993,515.09,213.148z"/>
		</g>
		<g>
			<path fill="#A56151" d="M523.42,220.898c0,0-0.633-2-1.675-2.317s-3.584,1.25-4.751,2.031c-1.166,0.78-1.479,1.319-0.344,2.719
				C517.787,224.731,523.42,220.898,523.42,220.898z"/>
			<linearGradient id="SVGID_36_" gradientUnits="userSpaceOnUse" x1="516.3359" y1="221.6479" x2="523.708" y2="221.6479">
				<stop  offset="0.0364" style="stop-color:#FBD1BC"/>
				<stop  offset="1" style="stop-color:#E9A994"/>
			</linearGradient>
			<path fill="url(#SVGID_36_)" d="M520.144,219.003c0,0-3.148,1.633-3.648,2.433c-0.5,0.8,0.241,2.519,1.329,2.995
				s4.273-0.718,5.514-1.421S522.491,217.643,520.144,219.003z"/>
			<path fill="#FDE4D9" d="M517.426,220.612l1.807,3.857c0,0-0.987,0.262-1.445,0.262c-0.459,0-1.152-1.378-1.451-2.06
				S516.311,221.324,517.426,220.612z"/>
		</g>
	</g>
	<linearGradient id="SVGID_37_" gradientUnits="userSpaceOnUse" x1="307.7529" y1="248.0337" x2="328.2526" y2="261.0335">
		<stop  offset="0" style="stop-color:#594761"/>
		<stop  offset="0.9818" style="stop-color:#18101C"/>
	</linearGradient>
	<path fill="url(#SVGID_37_)" d="M352.559,238.14c1.667-5.5,0-20.5,0-20.5s-1.533,5.526-3.762,11.95l-6.321-15.796
		c0,0,0,6.79,0,12.276s-1.25,7.145-7.25,1.44s-9.25-6.3-9.25-6.3s8.73,6.057,10.49,11.952c0.916,3.069,5.081,5.676,8.617,6.049
		c-0.341,0.778-0.687,1.537-1.035,2.262c-4.489,9.333-16.489,24.333-17.322,35c-0.833,10.668-10.333,16.668-10.333,16.668
		s3.64,2.666,7.987,1.166s4.347,5.334,6.347,12.667s1.255,15.231,1.255,15.231s9.452-6.166,11.015-11.282s0.396-8.966-2.437-15.124
		s-7.833-13.074-3-24.617C342.393,259.64,350.891,243.64,352.559,238.14z"/>
</g>
</svg>
