<?xml version="1.0" encoding="UTF-8" standalone="no"?>
<!-- Created with Inkscape (http://www.inkscape.org/) -->
<!-- Original image: http://upload.wikimedia.org/wikipedia/commons/d/d7/Frog.svg -->

<svg
   xmlns:dc="http://purl.org/dc/elements/1.1/"
   xmlns:cc="http://creativecommons.org/ns#"
   xmlns:rdf="http://www.w3.org/1999/02/22-rdf-syntax-ns#"
   xmlns:svg="http://www.w3.org/2000/svg"
   xmlns="http://www.w3.org/2000/svg"
   xmlns:sodipodi="http://sodipodi.sourceforge.net/DTD/sodipodi-0.dtd"
   xmlns:inkscape="http://www.inkscape.org/namespaces/inkscape"
   width="334.9375"
   height="225.53125"
   id="svg3908"
   version="1.1"
   inkscape:version="0.48.2 r9819"
   sodipodi:docname="frog.svg">
  <defs
     id="defs3910" />
  <sodipodi:namedview
     id="base"
     pagecolor="#ffffff"
     bordercolor="#666666"
     borderopacity="1.0"
     inkscape:pageopacity="0.0"
     inkscape:pageshadow="2"
     inkscape:zoom="0.47037038"
     inkscape:cx="238.86373"
     inkscape:cy="97.320593"
     inkscape:document-units="px"
     inkscape:current-layer="layer1"
     showgrid="false"
     fit-margin-left="5"
     fit-margin-top="5"
     fit-margin-right="5"
     fit-margin-bottom="5"
     inkscape:window-width="1024"
     inkscape:window-height="712"
     inkscape:window-x="-4"
     inkscape:window-y="-4"
     inkscape:window-maximized="1" />
  <metadata
     id="metadata3913">
    <rdf:RDF>
      <cc:Work
         rdf:about="">
        <dc:format>image/svg+xml</dc:format>
        <dc:type
           rdf:resource="http://purl.org/dc/dcmitype/StillImage" />
        <dc:title />
      </cc:Work>
    </rdf:RDF>
  </metadata>
  <g
     inkscape:label="Layer 1"
     inkscape:groupmode="layer"
     id="layer1"
     transform="translate(-522.53125,-659.59375)">
    <path
       style="fill:#00ff00;stroke:#000000;stroke-width:0.97512192;stroke-linecap:butt;stroke-linejoin:miter;stroke-miterlimit:4;stroke-opacity:1;stroke-dasharray:none"
       d="m 547.56254,761.5662 c 3.22669,-29.36302 27.72552,-27.57754 42.48746,-40.04966 l 25.07456,-13.23379 14.62683,-10.44774 7.66167,-3.48258 9.05471,-3.48257 30.64669,2.78606 27.16411,-2.08955 36.21881,-4.87561 22.98502,-5.57212 14.62683,-4.87561 11.14426,-9.75122 8.35818,-1.39303 13.23379,8.35819 6.96515,12.53728 21.59198,20.19895 4.87561,8.00993 7.66168,15.6716 -3.48257,6.96516 -6.26865,7.66167 -21.59198,16.01986 -6.96515,3.48258 -17.41289,10.44773 -21.59198,8.35819 -13.23381,2.78607 -11.84077,4.17909 -13.93031,7.66167 -10.44774,0.69652 -9.75121,2.78606 8.35818,10.44773 6.26864,2.78607 9.05471,-0.69652 7.66167,-4.17909 11.14425,-6.96516 c 0,0 0.93095,-6.48852 3.48258,-6.96515 3.3928,-0.63376 7.66167,6.96515 7.66167,6.96515 l -2.08954,6.26864 -6.96516,0.69652 -9.05471,6.96515 0.69652,4.1791 14.62682,7.66167 13.93032,2.08954 14.62683,-2.78605 c 0,0 5.18119,-3.89604 7.66168,-2.78607 1.14123,0.51069 1.39304,3.48258 1.39304,3.48258 0,0 3.10118,4.00382 2.78604,6.26864 -0.2499,1.79603 -3.48257,4.17911 -3.48257,4.17911 l -4.87561,-1.39304 -2.78607,-1.39303 -14.07564,1.71663 -10.99892,0.37291 -6.26864,0 c 0,0 -4.30127,1.56972 -4.87561,3.48257 -0.92993,3.09718 3.48258,9.05472 3.48258,9.05472 l 20.19896,16.01986 4.17908,0.6965 c 0,0 1.11852,4.0893 0,5.57214 -2.03571,2.6988 -9.75122,2.78605 -9.75122,2.78605 l -2.78604,-4.17908 -4.17911,-3.48258 -8.35818,-9.75121 -7.66168,-5.57214 -6.26864,-5.57212 -9.75122,-4.1791 -11.14425,-2.78607 -7.66167,0 -4.17909,-0.69651 -16.71638,-6.26864 -4.17909,-10.44773 -6.96516,-6.96516 -3.48258,-10.44774 -6.96515,0 -2.08955,-13.23379 6.44277,-12.36316 c 16.28147,-7.98894 71.25817,-1.85333 62.51228,11.66664"
       id="path3927"
       inkscape:connector-curvature="0"
       sodipodi:nodetypes="ccccccccccccccccccccccccccccccccccsccccccccscsccccccscccscccccccccccccccccc" />
    <path
       style="fill:none;stroke:#000000;stroke-width:0.97512192;stroke-linecap:butt;stroke-linejoin:miter;stroke-miterlimit:4;stroke-opacity:1;stroke-dasharray:none"
       d="m 723.08449,771.66567 11.84076,-5.57212 11.84077,-11.14425 6.96516,-9.05471 13.2338,-3.48258 9.05469,-2.08954 7.66168,-8.35819 8.7662,-7.49992 11.39049,-0.0773 6.59217,3.59483 -8.88573,0.86552 -6.02237,2.4203 -11.14423,4.1791 -4.17911,2.08955 6.96515,6.09451 5.39801,2.08954 8.70645,-0.87064 3.13431,-3.13432 3.13433,-5.22387 0.87064,-2.4378 -3.65671,10.97012 -7.31341,4.17909 -6.44278,-1.2189 -6.96515,-2.61193 -4.00497,-4.1791 0.69653,-4.17909 7.31341,8.00993 6.61689,1.04477 7.31341,-1.56716 3.48258,-3.48258 0,3.13432 -7.66166,5.57213 -11.84078,-3.13432 -5.74625,-3.30845 -0.17413,-2.08955"
       id="path3931"
       inkscape:connector-curvature="0"
       sodipodi:nodetypes="ccccccccccccccccccccccccccccccccccc" />
    <path
       style="fill:#00ff00;stroke:#000000;stroke-width:0.97512192;stroke-linecap:butt;stroke-linejoin:miter;stroke-miterlimit:4;stroke-opacity:1;stroke-dasharray:none"
       d="m 677.46271,804.05365 -8.70644,0 -5.57213,1.04477 -2.78606,-0.34825 -8.70645,-17.06464 -8.70644,-11.14425 -13.93032,-9.0547 -22.63675,-7.31342 -11.49251,0 -11.14425,0.34826 -15.32335,3.83084 -11.49251,-1.39303 -3.13432,-2.08955 -12.88554,3.13432 -10.44773,6.6169 -2.43781,4.87561 3.48258,13.58205 15.6716,5.22387 12.88555,4.52735 17.41289,13.2338 13.58205,4.17909 25.07457,6.6169 14.62682,0.34826 14.62683,0.34826 10.09948,-3.48258 3.48258,-5.57212 2.4378,-6.6169 -1.39303,-5.22387"
       id="path3933"
       inkscape:connector-curvature="0" />
    <path
       style="fill:#00ff00;stroke:#000000;stroke-width:0.97512192;stroke-linecap:butt;stroke-linejoin:miter;stroke-miterlimit:4;stroke-opacity:1;stroke-dasharray:none"
       d="m 643.6817,823.90435 19.50244,1.74129 19.8507,7.31341 18.45766,-0.69651 8.70645,1.39304 1.39303,5.92038 -4.52735,5.92038 -9.05471,-0.34827 -5.92038,-2.08954 -7.66167,0 -2.08955,1.39304 -0.69651,4.52734 10.79599,3.48258 12.18902,5.57214 13.58206,4.8756 11.14425,3.13431 2.78606,4.17911 -4.87561,7.31341 -4.17909,0 -7.31341,-1.04479 -5.92039,-4.52735 -7.66167,-4.17908 -11.49251,-2.78607 -9.40296,-1.74129 c 0,0 -4.77757,-2.03538 -5.22387,-0.34825 -1.02239,3.86488 10.79599,5.22385 10.79599,5.22385 l 2.78607,4.52737 1.04477,3.48258 -4.87561,3.48257 -5.22387,0 -7.31341,-4.87561 -3.13432,-2.4378 -18.10941,-10.44775 -10.79599,-9.40295 -16.01986,-9.05469 -19.50244,-11.14426 -16.71637,-6.26865 0,-0.34825 -17.4129,-6.26864 -11.84076,-10.09948 -12.53729,-7.31342 -6.96515,-7.31341 -3.13432,-3.48258 14.27857,4.87561 16.71637,9.75122 16.71638,8.35819 29.25366,8.35819 24.02979,2.78606 z"
       id="path3935"
       inkscape:connector-curvature="0"
       sodipodi:nodetypes="ccccccccccccccccccccccccscccccccccccccccccccccccc" />
    <path
       style="fill:#00ff00;stroke:#000000;stroke-width:0.97512192;stroke-linecap:butt;stroke-linejoin:miter;stroke-miterlimit:4;stroke-opacity:1;stroke-dasharray:none"
       d="m 562.18937,735.79512 21.24373,-10.09948 11.84076,-6.26864 12.88554,-6.96516 11.49251,-7.66167 -25.07456,5.57213 -10.09948,2.4378 -13.2338,2.4378 -6.26864,0.34826 -8.35818,1.74129 -2.08955,4.17909 -0.34826,11.49251 3.48258,2.78607 z"
       id="path3939"
       inkscape:connector-curvature="0" />
    <path
       style="fill:#550000;stroke:#000000;stroke-width:0.97512192;stroke-linecap:butt;stroke-linejoin:miter;stroke-miterlimit:4;stroke-opacity:1;stroke-dasharray:none"
       d="m 723.43275,770.96916 12.18902,4.17909 1.04477,-1.04477 8.00993,-9.05471 7.31342,-5.22386 6.26864,0.34825 9.05471,-1.39303 3.13431,-7.31341 -0.34826,-4.1791 5.22387,-3.48257 6.96515,1.74128 -3.48257,-5.92038 -12.88553,2.78606 -9.75123,4.1791 -8.00993,6.6169 -10.09947,9.75122 -4.52736,5.22387 z"
       id="path3941"
       inkscape:connector-curvature="0" />
    <path
       style="fill:#1a1a1a;fill-opacity:1;stroke:#000000;stroke-width:0.97512192;stroke-linecap:butt;stroke-linejoin:miter;stroke-miterlimit:4;stroke-opacity:1;stroke-dasharray:none"
       d="m 783.02709,736.44213 c 1.1319,-3.34906 5.06493,-1.06504 9.36071,-3.78133 l 8.35818,-2.43781 5.57214,-1.74129 2.39553,3.93284 c -0.48154,2.86033 0.15232,5.9995 -2.74379,8.25619 -3.0487,3.5663 -5.998,4.98402 -11.00001,3.99259 l -7.08465,-2.33581 z"
       id="path3943"
       inkscape:connector-curvature="0"
       sodipodi:nodetypes="ccccccccc" />
    <path
       style="fill:#550000;stroke:#000000;stroke-width:0.97512192;stroke-linecap:butt;stroke-linejoin:miter;stroke-miterlimit:4;stroke-opacity:1;stroke-dasharray:none"
       d="m 760.41302,781.0269 14.28282,-6.15639 5.41761,-4.67885 18.96168,-2.46256 0.73876,-0.73876 6.40265,-1.97005 -10.09649,6.15639 -5.66387,4.4326 -10.58897,1.23127 -6.89516,2.70882 -9.85022,2.95506"
       id="path3945"
       inkscape:connector-curvature="0" />
    <path
       style="fill:#550000;stroke:#000000;stroke-width:0.97512192;stroke-linecap:butt;stroke-linejoin:miter;stroke-miterlimit:4;stroke-opacity:1;stroke-dasharray:none"
       d="m 810.89539,731.52955 0,-5.91013 3.94008,-1.47754 7.14143,-0.24625 3.2013,-1.97004 6.89516,-0.98503 4.67885,-1.97004 5.41763,0 0,5.91013 -5.91014,-0.73877 -5.17136,-2.21629 -5.41763,2.21629 -8.12643,1.47754 z"
       id="path3947"
       inkscape:connector-curvature="0" />
    <path
       style="fill:none;stroke:#000000;stroke-width:0.97512192;stroke-linecap:butt;stroke-linejoin:miter;stroke-miterlimit:4;stroke-opacity:1;stroke-dasharray:none"
       d="m 547.56254,762.26271 1.04478,-9.75122 3.13432,-1.04477 5.22386,-10.44774 4.52736,-4.87561 5.57212,-1.39303"
       id="path3949"
       inkscape:connector-curvature="0" />
    <path
       style="fill:none;stroke:#000000;stroke-width:0.97512192;stroke-linecap:butt;stroke-linejoin:miter;stroke-miterlimit:4;stroke-opacity:1;stroke-dasharray:none"
       d="m 556.09486,742.76027 -5.398,10.09948 -2.08954,4.35322 -0.52239,4.52735 5.57213,-1.2189 4.87561,2.43781 10.62186,1.56716 14.62683,-3.83084 22.46263,-0.69651 23.68153,7.48754 14.10444,9.22883 8.70645,12.71141 8.00993,14.80096 16.01986,-1.04477 -1.91542,-10.796 6.6169,-12.53728"
       id="path3951"
       inkscape:connector-curvature="0"
       sodipodi:nodetypes="cccccccccccccccc" />
    <path
       style="fill:#00ff00;stroke:#000000;stroke-width:0;stroke-linecap:butt;stroke-linejoin:miter;stroke-miterlimit:4;stroke-opacity:1;stroke-dasharray:none"
       d="m 642.4628,775.67064 38.30836,4.52735 -5.39799,12.36315 1.39303,12.36315 -16.36812,-0.17412 -7.13929,-15.14922 z"
       id="path3953"
       inkscape:connector-curvature="0"
       sodipodi:nodetypes="ccccccc" />
    <path
       style="fill:#ffff00;stroke:#000000;stroke-width:0.97512192;stroke-linecap:butt;stroke-linejoin:miter;stroke-miterlimit:4;stroke-opacity:1;stroke-dasharray:none"
       d="m 782.32976,733.74585 4.67885,0.24625 5.41763,-2.46255 7.63389,-1.72379 7.8802,-0.98502 1.23126,-0.24626 -5.66387,-4.4326 -8.12642,0 -5.17137,2.46256 -3.9401,3.69383 z"
       id="path4567"
       inkscape:connector-curvature="0"
       sodipodi:nodetypes="ccccccccccc" />
  </g>
</svg>
