<?xml version="1.0" encoding="UTF-8" standalone="no"?>
<!-- Created with Inkscape (http://www.inkscape.org/) -->

<svg
   xmlns:dc="http://purl.org/dc/elements/1.1/"
   xmlns:cc="http://creativecommons.org/ns#"
   xmlns:rdf="http://www.w3.org/1999/02/22-rdf-syntax-ns#"
   xmlns:svg="http://www.w3.org/2000/svg"
   xmlns="http://www.w3.org/2000/svg"
   xmlns:sodipodi="http://sodipodi.sourceforge.net/DTD/sodipodi-0.dtd"
   xmlns:inkscape="http://www.inkscape.org/namespaces/inkscape"
   width="546.27136"
   height="534.1629"
   id="svg30833"
   version="1.1"
   inkscape:version="0.48.2 r9819"
   sodipodi:docname="Documento nuevo 9">
  <defs
     id="defs30835">
    <filter
       id="filter6217"
       inkscape:label="Combined lighting"
       inkscape:menu="Bevels"
       inkscape:menu-tooltip="Basic specular bevel to use for building textures"
       color-interpolation-filters="sRGB">
      <feGaussianBlur
         id="feGaussianBlur6219"
         stdDeviation="6"
         in="SourceGraphic"
         result="result0" />
      <feDiffuseLighting
         id="feDiffuseLighting6221"
         lighting-color="#ffffff"
         diffuseConstant="1"
         surfaceScale="4"
         result="result5">
        <feDistantLight
           id="feDistantLight6223"
           elevation="45"
           azimuth="235" />
      </feDiffuseLighting>
      <feComposite
         id="feComposite6225"
         in2="SourceGraphic"
         k1="1.4"
         in="result5"
         result="fbSourceGraphic"
         operator="arithmetic"
         k2="0"
         k3="0"
         k4="0" />
      <feGaussianBlur
         id="feGaussianBlur6227"
         result="result0"
         in="fbSourceGraphic"
         stdDeviation="6" />
      <feSpecularLighting
         id="feSpecularLighting6229"
         specularExponent="25"
         specularConstant="1"
         surfaceScale="4"
         lighting-color="#ffffff"
         result="result1"
         in="result0">
        <feDistantLight
           id="feDistantLight6231"
           azimuth="235"
           elevation="45" />
      </feSpecularLighting>
      <feComposite
         id="feComposite6233"
         in2="result1"
         k3="1"
         k2="1"
         operator="arithmetic"
         result="result4"
         in="fbSourceGraphic"
         k1="0"
         k4="0" />
      <feComposite
         id="feComposite6235"
         in2="SourceGraphic"
         operator="in"
         result="result2"
         in="result4" />
    </filter>
    <filter
       inkscape:collect="always"
       id="filter5365"
       x="-0.053116422"
       width="1.1062328"
       y="-0.2612164"
       height="1.5224328"
       color-interpolation-filters="sRGB">
      <feGaussianBlur
         inkscape:collect="always"
         stdDeviation="8.02671"
         id="feGaussianBlur5367" />
    </filter>
  </defs>
  <sodipodi:namedview
     id="base"
     pagecolor="#ffffff"
     bordercolor="#666666"
     borderopacity="1.0"
     inkscape:pageopacity="0.0"
     inkscape:pageshadow="2"
     inkscape:zoom="1.2074968"
     inkscape:cx="273.13568"
     inkscape:cy="267.08145"
     inkscape:document-units="px"
     inkscape:current-layer="layer1"
     showgrid="false"
     fit-margin-top="0"
     fit-margin-left="0"
     fit-margin-right="0"
     fit-margin-bottom="0"
     inkscape:window-width="1440"
     inkscape:window-height="844"
     inkscape:window-x="-4"
     inkscape:window-y="-4"
     inkscape:window-maximized="1" />
  <metadata
     id="metadata30838">
    <rdf:RDF>
      <cc:Work
         rdf:about="">
        <dc:format>image/svg+xml</dc:format>
        <dc:type
           rdf:resource="http://purl.org/dc/dcmitype/StillImage" />
        <dc:title></dc:title>
      </cc:Work>
    </rdf:RDF>
  </metadata>
  <g
     inkscape:label="Capa 1"
     inkscape:groupmode="layer"
     id="layer1"
     transform="translate(57.573637,-190.22085)">
    <path
       transform="matrix(1.2395018,0,0,1.5867207,-89.903483,-114.23201)"
       d="m 447.53731,472.38339 c 0,20.36486 -81.18801,36.87384 -181.33849,36.87384 -100.15048,0 -181.338484,-16.50898 -181.338484,-36.87384 0,-20.36486 81.188004,-36.87384 181.338484,-36.87384 100.15048,0 181.33849,16.50898 181.33849,36.87384 z"
       sodipodi:ry="36.87384"
       sodipodi:rx="181.33849"
       sodipodi:cy="472.38339"
       sodipodi:cx="266.19882"
       id="path4601"
       style="opacity:0.15;fill:#000000;fill-opacity:1;stroke:none;display:inline;filter:url(#filter5365)"
       sodipodi:type="arc"
       inkscape:export-filename="C:\wamp-120428\www\sanmiguel\img\cesta_llena_400.png"
       inkscape:export-xdpi="63.570896"
       inkscape:export-ydpi="63.570896" />
    <path
       inkscape:export-ydpi="63.570896"
       inkscape:export-xdpi="63.570896"
       inkscape:export-filename="C:\wamp-120428\www\sanmiguel\img\cesta_llena_400.png"
       sodipodi:nodetypes="ccczcc"
       inkscape:connector-curvature="0"
       id="path4605"
       d="m -3.6031032,438.25277 388.7154032,0 -59.5718,203.47791 c 0,0 -36.59656,18 -134.7859,18 -98.189341,0 -134.785901,-18 -134.785901,-18 z"
       style="fill:#504416;fill-opacity:1;stroke:none;display:inline" />
    <path
       style="fill:none;stroke:#806600;stroke-width:24;stroke-linecap:round;stroke-linejoin:round;stroke-miterlimit:4;stroke-opacity:1;stroke-dasharray:none;display:inline"
       d="m 20.173017,503.81152 c 0,0 -26.1458802,-67.80365 -23.9618602,-102.97939 7.89844,-127.21207 101.4826422,-168.9794 196.0381332,-168.9794 94.55549,0 194.58995,72.95273 196.03814,168.9794 0.53382,35.3965 -25.96186,102.97939 -25.96186,102.97939"
       id="path4823"
       inkscape:connector-curvature="0"
       sodipodi:nodetypes="cszsc" />
    <path
       sodipodi:nodetypes="cszsc"
       inkscape:connector-curvature="0"
       id="path4825"
       d="m 20.173017,503.81152 c 0,0 -26.1458802,-67.80365 -23.9618602,-102.97939 7.89844,-127.21207 101.4826422,-168.9794 196.0381332,-168.9794 94.55549,0 194.58995,72.95273 196.03814,168.9794 0.53382,35.3965 -25.96186,102.97939 -25.96186,102.97939"
       style="opacity:0.5;fill:none;stroke:#000000;stroke-width:24;stroke-linecap:round;stroke-linejoin:round;stroke-miterlimit:4;stroke-opacity:1;stroke-dasharray:none;display:inline;filter:url(#filter6217)" />
    <path
       inkscape:export-ydpi="63.570896"
       inkscape:export-xdpi="63.570896"
       inkscape:export-filename="C:\wamp-120428\www\sanmiguel\img\cesta_llena_400.png"
       sodipodi:nodetypes="cc"
       inkscape:connector-curvature="0"
       id="path4989"
       d="m 193.52935,445.27261 -0.56011,191.47848"
       style="fill:none;stroke:#806600;stroke-width:15.99999905;stroke-linecap:round;stroke-linejoin:round;stroke-miterlimit:4;stroke-opacity:1;stroke-dasharray:none;display:inline" />
    <path
       inkscape:export-ydpi="63.570896"
       inkscape:export-xdpi="63.570896"
       inkscape:export-filename="C:\wamp-120428\www\sanmiguel\img\cesta_llena_400.png"
       sodipodi:nodetypes="cc"
       inkscape:connector-curvature="0"
       id="path4991"
       d="M -5.9105432,437.66951 51.288909,633.45673"
       style="fill:none;stroke:#806600;stroke-width:15.99999905;stroke-linecap:round;stroke-linejoin:round;stroke-miterlimit:4;stroke-opacity:1;stroke-dasharray:none;display:inline" />
    <path
       inkscape:export-ydpi="63.570896"
       inkscape:export-xdpi="63.570896"
       inkscape:export-filename="C:\wamp-120428\www\sanmiguel\img\cesta_llena_400.png"
       sodipodi:nodetypes="cc"
       style="fill:none;stroke:#806600;stroke-width:15.99999905;stroke-linecap:round;stroke-linejoin:round;stroke-miterlimit:4;stroke-opacity:1;stroke-dasharray:none;display:inline"
       d="M 95.769779,437.04063 122.96924,637.92507"
       id="path4994"
       inkscape:connector-curvature="0" />
    <path
       inkscape:export-ydpi="63.570896"
       inkscape:export-xdpi="63.570896"
       inkscape:export-filename="C:\wamp-120428\www\sanmiguel\img\cesta_llena_400.png"
       style="fill:none;stroke:#806600;stroke-width:15.99999905;stroke-linecap:round;stroke-linejoin:round;stroke-miterlimit:4;stroke-opacity:1;stroke-dasharray:none;display:inline"
       d="M 390.72881,434.37785 334.64957,632.90812"
       id="path4996"
       inkscape:connector-curvature="0"
       sodipodi:nodetypes="cc" />
    <path
       inkscape:export-ydpi="63.570896"
       inkscape:export-xdpi="63.570896"
       inkscape:export-filename="C:\wamp-120428\www\sanmiguel\img\cesta_llena_400.png"
       inkscape:connector-curvature="0"
       id="path4998"
       d="M 290.40913,437.94341 263.53144,638.85132"
       style="fill:none;stroke:#806600;stroke-width:15.99999905;stroke-linecap:round;stroke-linejoin:round;stroke-miterlimit:4;stroke-opacity:1;stroke-dasharray:none;display:inline"
       sodipodi:nodetypes="cc" />
    <g
       inkscape:export-ydpi="63.570896"
       inkscape:export-xdpi="63.570896"
       inkscape:export-filename="C:\wamp-120428\www\sanmiguel\img\cesta_llena_400.png"
       style="stroke:#aa8800;stroke-width:1.22726154;display:inline"
       transform="matrix(0.95212249,0,0,-0.68062522,-101.9167,614.03817)"
       id="g5000">
      <path
         style="fill:none;stroke:#aa8800;stroke-width:12.42223167;stroke-linecap:round;stroke-linejoin:round;stroke-opacity:1"
         d="m 203.71429,250.68162 c 0,0 37.03805,10 56,10 18.96195,0 56,-10 56,-10"
         id="path5002"
         inkscape:connector-curvature="0"
         sodipodi:nodetypes="cac" />
      <path
         sodipodi:nodetypes="cac"
         inkscape:connector-curvature="0"
         id="path5004"
         d="m 303.71429,250.68162 c 0,0 37.03805,10 56,10 18.96195,0 56,-10 56,-10"
         style="fill:none;stroke:#aa8800;stroke-width:12.42223167;stroke-linecap:round;stroke-linejoin:round;stroke-opacity:1" />
      <path
         style="fill:none;stroke:#aa8800;stroke-width:12.42223167;stroke-linecap:round;stroke-linejoin:round;stroke-opacity:1"
         d="m 403.71429,250.68162 c 0,0 37.10691,12.50558 56,15.87695 20.63015,3.68134 62.30171,4.69237 62.30171,4.69237"
         id="path5006"
         inkscape:connector-curvature="0"
         sodipodi:nodetypes="cac" />
      <path
         sodipodi:nodetypes="cac"
         inkscape:connector-curvature="0"
         id="path5008"
         d="m 101.61372,265.37399 c 0,0 38.81225,0.75266 58.10057,-1.7539 18.83844,-2.44808 56,-12.93847 56,-12.93847"
         style="fill:none;stroke:#aa8800;stroke-width:12.42223167;stroke-linecap:round;stroke-linejoin:round;stroke-opacity:1" />
    </g>
    <g
       style="display:inline"
       inkscape:export-ydpi="63.570896"
       inkscape:export-xdpi="63.570896"
       inkscape:export-filename="C:\wamp-120428\www\sanmiguel\img\cesta_llena_400.png"
       transform="translate(-116.74505,217.36916)"
       id="g5010">
      <path
         sodipodi:nodetypes="cac"
         inkscape:connector-curvature="0"
         id="path5012"
         d="m 235.27625,434.68162 c 0,0 25.79999,10 39.32575,10 13.52576,0 39.32576,-10 39.32576,-10"
         style="fill:none;stroke:#d4aa00;stroke-width:9.99999905;stroke-linecap:round;stroke-linejoin:round;stroke-opacity:1" />
      <path
         style="fill:none;stroke:#d4aa00;stroke-width:9.99999905;stroke-linecap:round;stroke-linejoin:round;stroke-opacity:1"
         d="m 305.50081,434.68162 c 0,0 25.8,10 39.32576,10 13.52576,0 39.32576,-10 39.32576,-10"
         id="path5014"
         inkscape:connector-curvature="0"
         sodipodi:nodetypes="cac" />
      <path
         sodipodi:nodetypes="cac"
         inkscape:connector-curvature="0"
         id="path5016"
         d="m 375.72538,428.68162 c 0,0 25.96392,8.63837 39.32576,8 13.68968,-0.65403 39.32576,-12 39.32576,-12"
         style="fill:none;stroke:#d4aa00;stroke-width:9.99999905;stroke-linecap:round;stroke-linejoin:round;stroke-opacity:1" />
      <path
         style="fill:none;stroke:#d4aa00;stroke-width:9.99999905;stroke-linecap:round;stroke-linejoin:round;stroke-opacity:1"
         d="m 165.05168,424.68162 c 0,0 25.63608,11.34597 39.32576,12 13.36183,0.63837 39.32575,-8 39.32575,-8"
         id="path5018"
         inkscape:connector-curvature="0"
         sodipodi:nodetypes="cac" />
    </g>
    <g
       style="display:inline"
       inkscape:export-ydpi="63.570896"
       inkscape:export-xdpi="63.570896"
       inkscape:export-filename="C:\wamp-120428\www\sanmiguel\img\cesta_llena_400.png"
       transform="translate(-116.74505,215.36916)"
       id="g5020">
      <path
         sodipodi:nodetypes="cac"
         inkscape:connector-curvature="0"
         id="path5022"
         d="m 268.97285,422.46236 c 0,0 27.00054,7.47951 40.82371,7.47951 13.82316,0 40.8237,-7.47951 40.8237,-7.47951"
         style="fill:none;stroke:#aa8800;stroke-width:10.00000095;stroke-linecap:round;stroke-linejoin:round;stroke-opacity:1" />
      <path
         style="fill:none;stroke:#aa8800;stroke-width:10.00000095;stroke-linecap:round;stroke-linejoin:round;stroke-opacity:1"
         d="m 343.66058,420.46236 c 0,0 27.00054,7.47951 40.82371,7.47951 13.82316,0 40.8237,-7.47951 40.8237,-7.47951"
         id="path5024"
         inkscape:connector-curvature="0"
         sodipodi:nodetypes="cac" />
      <path
         sodipodi:nodetypes="cac"
         inkscape:connector-curvature="0"
         id="path5026"
         d="m 206.23515,420.46236 c 0,0 27.00055,7.47951 40.82371,7.47951 13.82316,0 40.82371,-7.47951 40.82371,-7.47951"
         style="fill:none;stroke:#aa8800;stroke-width:10.00000095;stroke-linecap:round;stroke-linejoin:round;stroke-opacity:1" />
      <path
         style="fill:none;stroke:#aa8800;stroke-width:10.00000095;stroke-linecap:round;stroke-linejoin:round;stroke-opacity:1"
         d="m 158.76155,418.46236 c 0,0 17.80903,7.47951 27.21664,7.47951 9.40761,0 27.21664,-7.47951 27.21664,-7.47951"
         id="path5028"
         inkscape:connector-curvature="0"
         sodipodi:nodetypes="cac" />
      <path
         sodipodi:nodetypes="cac"
         inkscape:connector-curvature="0"
         id="path5030"
         d="m 459.66435,418.46236 c 0,0 -17.80904,7.47951 -27.21664,7.47951 -9.40761,0 -27.21665,-7.47951 -27.21665,-7.47951"
         style="fill:none;stroke:#aa8800;stroke-width:10.00000095;stroke-linecap:round;stroke-linejoin:round;stroke-opacity:1" />
    </g>
    <g
       style="display:inline"
       inkscape:export-ydpi="63.570896"
       inkscape:export-xdpi="63.570896"
       inkscape:export-filename="C:\wamp-120428\www\sanmiguel\img\cesta_llena_400.png"
       id="g5032"
       transform="matrix(0.74579225,0,0,1,-38.013283,371.36917)">
      <path
         style="fill:none;stroke:#d4aa00;stroke-width:11.57953262;stroke-linecap:round;stroke-linejoin:round;stroke-opacity:1"
         d="m 203.71429,250.68162 c 0,0 37.03805,10 56,10 18.96195,0 56,-10 56,-10"
         id="path5034"
         inkscape:connector-curvature="0"
         sodipodi:nodetypes="cac" />
      <path
         sodipodi:nodetypes="cac"
         inkscape:connector-curvature="0"
         id="path5036"
         d="m 303.71429,250.68162 c 0,0 37.03805,10 56,10 18.96195,0 56,-10 56,-10"
         style="fill:none;stroke:#d4aa00;stroke-width:11.57953262;stroke-linecap:round;stroke-linejoin:round;stroke-opacity:1" />
      <path
         style="fill:none;stroke:#d4aa00;stroke-width:11.57953262;stroke-linecap:round;stroke-linejoin:round;stroke-opacity:1"
         d="m 403.71429,250.68162 c 0,0 37.03805,10 56,10 18.96195,0 56,-10 56,-10"
         id="path5038"
         inkscape:connector-curvature="0"
         sodipodi:nodetypes="cac" />
      <path
         sodipodi:nodetypes="cac"
         inkscape:connector-curvature="0"
         id="path5040"
         d="m 103.71429,250.68162 c 0,0 37.03805,10 56,10 18.96195,0 56,-10 56,-10"
         style="fill:none;stroke:#d4aa00;stroke-width:11.57953262;stroke-linecap:round;stroke-linejoin:round;stroke-opacity:1" />
    </g>
    <g
       inkscape:export-ydpi="63.570896"
       inkscape:export-xdpi="63.570896"
       inkscape:export-filename="C:\wamp-120428\www\sanmiguel\img\cesta_llena_400.png"
       id="g5042"
       transform="matrix(0.76658937,0,0,1,-44.571463,371.36917)"
       style="display:inline">
      <path
         style="fill:none;stroke:#aa8800;stroke-width:11.42138195;stroke-linecap:round;stroke-linejoin:round;stroke-opacity:1"
         d="m 255.33516,238.68162 c 0,0 36.15124,10 54.65919,10 18.50794,0 54.65918,-10 54.65918,-10"
         id="path5044"
         inkscape:connector-curvature="0"
         sodipodi:nodetypes="cac" />
      <path
         sodipodi:nodetypes="cac"
         inkscape:connector-curvature="0"
         id="path5046"
         d="m 355.33516,238.68162 c 0,0 36.15124,10 54.65919,10 18.50794,0 54.65918,-10 54.65918,-10"
         style="fill:none;stroke:#aa8800;stroke-width:11.42138195;stroke-linecap:round;stroke-linejoin:round;stroke-opacity:1" />
      <path
         style="fill:none;stroke:#aa8800;stroke-width:11.42138195;stroke-linecap:round;stroke-linejoin:round;stroke-opacity:1"
         d="m 171.33516,238.68162 c 0,0 36.15124,10 54.65919,10 18.50794,0 54.65918,-10 54.65918,-10"
         id="path5048"
         inkscape:connector-curvature="0"
         sodipodi:nodetypes="cac" />
      <path
         sodipodi:nodetypes="cac"
         inkscape:connector-curvature="0"
         id="path5050"
         d="m 107.77237,238.68162 c 0,0 23.84466,10 36.44058,10 12.59592,0 36.44058,-10 36.44058,-10"
         style="fill:none;stroke:#aa8800;stroke-width:11.42138195;stroke-linecap:round;stroke-linejoin:round;stroke-opacity:1" />
      <path
         style="fill:none;stroke:#aa8800;stroke-width:11.42138195;stroke-linecap:round;stroke-linejoin:round;stroke-opacity:1"
         d="m 510.65353,238.68162 c 0,0 -23.84466,10 -36.44058,10 -12.59592,0 -36.44058,-10 -36.44058,-10"
         id="path5052"
         inkscape:connector-curvature="0"
         sodipodi:nodetypes="cac" />
    </g>
    <g
       style="display:inline"
       inkscape:export-ydpi="63.570896"
       inkscape:export-xdpi="63.570896"
       inkscape:export-filename="C:\wamp-120428\www\sanmiguel\img\cesta_llena_400.png"
       transform="matrix(0.76690122,0,0,1,-44.551033,349.36917)"
       id="g5054">
      <path
         sodipodi:nodetypes="cac"
         inkscape:connector-curvature="0"
         id="path5056"
         d="m 203.71429,250.68162 c 0,0 37.03805,10 56,10 18.96195,0 56,-10 56,-10"
         style="fill:none;stroke:#d4aa00;stroke-width:11.41905689;stroke-linecap:round;stroke-linejoin:round;stroke-opacity:1" />
      <path
         style="fill:none;stroke:#d4aa00;stroke-width:11.41905689;stroke-linecap:round;stroke-linejoin:round;stroke-opacity:1"
         d="m 303.71429,250.68162 c 0,0 37.03805,10 56,10 18.96195,0 56,-10 56,-10"
         id="path5058"
         inkscape:connector-curvature="0"
         sodipodi:nodetypes="cac" />
      <path
         sodipodi:nodetypes="cac"
         inkscape:connector-curvature="0"
         id="path5060"
         d="m 403.71429,250.68162 c 0,0 37.03805,10 56,10 18.96195,0 56,-10 56,-10"
         style="fill:none;stroke:#d4aa00;stroke-width:11.41905689;stroke-linecap:round;stroke-linejoin:round;stroke-opacity:1" />
      <path
         style="fill:none;stroke:#d4aa00;stroke-width:11.41905689;stroke-linecap:round;stroke-linejoin:round;stroke-opacity:1"
         d="m 103.71429,250.68162 c 0,0 37.03805,10 56,10 18.96195,0 56,-10 56,-10"
         id="path5062"
         inkscape:connector-curvature="0"
         sodipodi:nodetypes="cac" />
    </g>
    <g
       inkscape:export-ydpi="63.570896"
       inkscape:export-xdpi="63.570896"
       inkscape:export-filename="C:\wamp-120428\www\sanmiguel\img\cesta_llena_400.png"
       transform="matrix(0.81237729,0,0,1,-58.729684,347.36917)"
       id="g5064"
       style="display:inline">
      <path
         sodipodi:nodetypes="cac"
         inkscape:connector-curvature="0"
         id="path5066"
         d="m 255.33516,238.68162 c 0,0 36.15124,10 54.65919,10 18.50794,0 54.65918,-10 54.65918,-10"
         style="fill:none;stroke:#aa8800;stroke-width:11.09484291;stroke-linecap:round;stroke-linejoin:round;stroke-opacity:1" />
      <path
         style="fill:none;stroke:#aa8800;stroke-width:11.09484291;stroke-linecap:round;stroke-linejoin:round;stroke-opacity:1"
         d="m 355.33516,238.68162 c 0,0 36.15124,10 54.65919,10 18.50794,0 54.65918,-10 54.65918,-10"
         id="path5068"
         inkscape:connector-curvature="0"
         sodipodi:nodetypes="cac" />
      <path
         sodipodi:nodetypes="cac"
         inkscape:connector-curvature="0"
         id="path5070"
         d="m 171.33516,238.68162 c 0,0 36.15124,10 54.65919,10 18.50794,0 54.65918,-10 54.65918,-10"
         style="fill:none;stroke:#aa8800;stroke-width:11.09484291;stroke-linecap:round;stroke-linejoin:round;stroke-opacity:1" />
      <path
         style="fill:none;stroke:#aa8800;stroke-width:11.09484291;stroke-linecap:round;stroke-linejoin:round;stroke-opacity:1"
         d="m 107.77237,238.68162 c 0,0 23.84466,10 36.44058,10 12.59592,0 36.44058,-10 36.44058,-10"
         id="path5072"
         inkscape:connector-curvature="0"
         sodipodi:nodetypes="cac" />
      <path
         sodipodi:nodetypes="cac"
         inkscape:connector-curvature="0"
         id="path5074"
         d="m 510.65353,238.68162 c 0,0 -23.84466,10 -36.44058,10 -12.59592,0 -36.44058,-10 -36.44058,-10"
         style="fill:none;stroke:#aa8800;stroke-width:11.09484291;stroke-linecap:round;stroke-linejoin:round;stroke-opacity:1" />
    </g>
    <g
       style="display:inline"
       inkscape:export-ydpi="63.570896"
       inkscape:export-xdpi="63.570896"
       inkscape:export-filename="C:\wamp-120428\www\sanmiguel\img\cesta_llena_400.png"
       id="g5076"
       transform="matrix(0.80507822,0,0,1,-56.374994,323.36917)">
      <path
         style="fill:none;stroke:#d4aa00;stroke-width:11.14502239;stroke-linecap:round;stroke-linejoin:round;stroke-opacity:1"
         d="m 203.71429,250.68162 c 0,0 37.03805,10 56,10 18.96195,0 56,-10 56,-10"
         id="path5078"
         inkscape:connector-curvature="0"
         sodipodi:nodetypes="cac" />
      <path
         sodipodi:nodetypes="cac"
         inkscape:connector-curvature="0"
         id="path5080"
         d="m 303.71429,250.68162 c 0,0 37.03805,10 56,10 18.96195,0 56,-10 56,-10"
         style="fill:none;stroke:#d4aa00;stroke-width:11.14502239;stroke-linecap:round;stroke-linejoin:round;stroke-opacity:1" />
      <path
         style="fill:none;stroke:#d4aa00;stroke-width:11.14502239;stroke-linecap:round;stroke-linejoin:round;stroke-opacity:1"
         d="m 403.71429,250.68162 c 0,0 37.03805,10 56,10 18.96195,0 56,-10 56,-10"
         id="path5082"
         inkscape:connector-curvature="0"
         sodipodi:nodetypes="cac" />
      <path
         sodipodi:nodetypes="cac"
         inkscape:connector-curvature="0"
         id="path5084"
         d="m 103.71429,250.68162 c 0,0 37.03805,10 56,10 18.96195,0 56,-10 56,-10"
         style="fill:none;stroke:#d4aa00;stroke-width:11.14502239;stroke-linecap:round;stroke-linejoin:round;stroke-opacity:1" />
    </g>
    <g
       inkscape:export-ydpi="63.570896"
       inkscape:export-xdpi="63.570896"
       inkscape:export-filename="C:\wamp-120428\www\sanmiguel\img\cesta_llena_400.png"
       id="g5086"
       transform="matrix(0.84292788,0,0,1,-68.176323,321.36917)"
       style="display:inline">
      <path
         style="fill:none;stroke:#aa8800;stroke-width:10.89192963;stroke-linecap:round;stroke-linejoin:round;stroke-opacity:1"
         d="m 255.33516,238.68162 c 0,0 36.15124,10 54.65919,10 18.50794,0 54.65918,-10 54.65918,-10"
         id="path5088"
         inkscape:connector-curvature="0"
         sodipodi:nodetypes="cac" />
      <path
         sodipodi:nodetypes="cac"
         inkscape:connector-curvature="0"
         id="path5090"
         d="m 355.33516,238.68162 c 0,0 36.15124,10 54.65919,10 18.50794,0 54.65918,-10 54.65918,-10"
         style="fill:none;stroke:#aa8800;stroke-width:10.89192963;stroke-linecap:round;stroke-linejoin:round;stroke-opacity:1" />
      <path
         style="fill:none;stroke:#aa8800;stroke-width:10.89192963;stroke-linecap:round;stroke-linejoin:round;stroke-opacity:1"
         d="m 171.33516,238.68162 c 0,0 36.15124,10 54.65919,10 18.50794,0 54.65918,-10 54.65918,-10"
         id="path5092"
         inkscape:connector-curvature="0"
         sodipodi:nodetypes="cac" />
      <path
         sodipodi:nodetypes="cac"
         inkscape:connector-curvature="0"
         id="path5094"
         d="m 107.77237,238.68162 c 0,0 23.84466,10 36.44058,10 12.59592,0 36.44058,-10 36.44058,-10"
         style="fill:none;stroke:#aa8800;stroke-width:10.89192963;stroke-linecap:round;stroke-linejoin:round;stroke-opacity:1" />
      <path
         style="fill:none;stroke:#aa8800;stroke-width:10.89192963;stroke-linecap:round;stroke-linejoin:round;stroke-opacity:1"
         d="m 510.65353,238.68162 c 0,0 -23.84466,10 -36.44058,10 -12.59592,0 -36.44058,-10 -36.44058,-10"
         id="path5096"
         inkscape:connector-curvature="0"
         sodipodi:nodetypes="cac" />
    </g>
    <g
       style="display:inline"
       inkscape:export-ydpi="63.570896"
       inkscape:export-xdpi="63.570896"
       inkscape:export-filename="C:\wamp-120428\www\sanmiguel\img\cesta_llena_400.png"
       transform="matrix(0.84084014,0,0,1,-67.450964,297.36917)"
       id="g5098">
      <path
         sodipodi:nodetypes="cac"
         inkscape:connector-curvature="0"
         id="path5100"
         d="m 203.71429,250.68162 c 0,0 37.03805,10 56,10 18.96195,0 56,-10 56,-10"
         style="fill:none;stroke:#d4aa00;stroke-width:10.90544128;stroke-linecap:round;stroke-linejoin:round;stroke-opacity:1" />
      <path
         style="fill:none;stroke:#d4aa00;stroke-width:10.90544128;stroke-linecap:round;stroke-linejoin:round;stroke-opacity:1"
         d="m 303.71429,250.68162 c 0,0 37.03805,10 56,10 18.96195,0 56,-10 56,-10"
         id="path5102"
         inkscape:connector-curvature="0"
         sodipodi:nodetypes="cac" />
      <path
         sodipodi:nodetypes="cac"
         inkscape:connector-curvature="0"
         id="path5104"
         d="m 403.71429,250.68162 c 0,0 37.03805,10 56,10 18.96195,0 56,-10 56,-10"
         style="fill:none;stroke:#d4aa00;stroke-width:10.90544128;stroke-linecap:round;stroke-linejoin:round;stroke-opacity:1" />
      <path
         style="fill:none;stroke:#d4aa00;stroke-width:10.90544128;stroke-linecap:round;stroke-linejoin:round;stroke-opacity:1"
         d="m 103.71429,250.68162 c 0,0 37.03805,10 56,10 18.96195,0 56,-10 56,-10"
         id="path5106"
         inkscape:connector-curvature="0"
         sodipodi:nodetypes="cac" />
    </g>
    <g
       inkscape:export-ydpi="63.570896"
       inkscape:export-xdpi="63.570896"
       inkscape:export-filename="C:\wamp-120428\www\sanmiguel\img\cesta_llena_400.png"
       transform="matrix(0.87351663,0,0,1,-77.634763,295.36917)"
       id="g5108"
       style="display:inline">
      <path
         sodipodi:nodetypes="cac"
         inkscape:connector-curvature="0"
         id="path5110"
         d="m 255.33516,238.68162 c 0,0 36.15124,10 54.65919,10 18.50794,0 54.65918,-10 54.65918,-10"
         style="fill:none;stroke:#aa8800;stroke-width:10.69952393;stroke-linecap:round;stroke-linejoin:round;stroke-opacity:1" />
      <path
         style="fill:none;stroke:#aa8800;stroke-width:10.69952393;stroke-linecap:round;stroke-linejoin:round;stroke-opacity:1"
         d="m 355.33516,238.68162 c 0,0 36.15124,10 54.65919,10 18.50794,0 54.65918,-10 54.65918,-10"
         id="path5112"
         inkscape:connector-curvature="0"
         sodipodi:nodetypes="cac" />
      <path
         sodipodi:nodetypes="cac"
         inkscape:connector-curvature="0"
         id="path5114"
         d="m 171.33516,238.68162 c 0,0 36.15124,10 54.65919,10 18.50794,0 54.65918,-10 54.65918,-10"
         style="fill:none;stroke:#aa8800;stroke-width:10.69952393;stroke-linecap:round;stroke-linejoin:round;stroke-opacity:1" />
      <path
         style="fill:none;stroke:#aa8800;stroke-width:10.69952393;stroke-linecap:round;stroke-linejoin:round;stroke-opacity:1"
         d="m 107.77237,238.68162 c 0,0 23.84466,10 36.44058,10 12.59592,0 36.44058,-10 36.44058,-10"
         id="path5116"
         inkscape:connector-curvature="0"
         sodipodi:nodetypes="cac" />
      <path
         sodipodi:nodetypes="cac"
         inkscape:connector-curvature="0"
         id="path5118"
         d="m 510.65353,238.68162 c 0,0 -23.84466,10 -36.44058,10 -12.59592,0 -36.44058,-10 -36.44058,-10"
         style="fill:none;stroke:#aa8800;stroke-width:10.69952393;stroke-linecap:round;stroke-linejoin:round;stroke-opacity:1" />
    </g>
    <g
       style="display:inline"
       inkscape:export-ydpi="63.570896"
       inkscape:export-xdpi="63.570896"
       inkscape:export-filename="C:\wamp-120428\www\sanmiguel\img\cesta_llena_400.png"
       id="g5121"
       transform="matrix(0.88055631,0,0,1,-79.751633,271.36916)">
      <path
         style="fill:none;stroke:#d4aa00;stroke-width:10.65666771;stroke-linecap:round;stroke-linejoin:round;stroke-opacity:1"
         d="m 203.71429,250.68162 c 0,0 37.03805,10 56,10 18.96195,0 56,-10 56,-10"
         id="path5123"
         inkscape:connector-curvature="0"
         sodipodi:nodetypes="cac" />
      <path
         sodipodi:nodetypes="cac"
         inkscape:connector-curvature="0"
         id="path5125"
         d="m 303.71429,250.68162 c 0,0 37.03805,10 56,10 18.96195,0 56,-10 56,-10"
         style="fill:none;stroke:#d4aa00;stroke-width:10.65666771;stroke-linecap:round;stroke-linejoin:round;stroke-opacity:1" />
      <path
         style="fill:none;stroke:#d4aa00;stroke-width:10.65666771;stroke-linecap:round;stroke-linejoin:round;stroke-opacity:1"
         d="m 403.71429,250.68162 c 0,0 37.03805,10 56,10 18.96195,0 56,-10 56,-10"
         id="path5127"
         inkscape:connector-curvature="0"
         sodipodi:nodetypes="cac" />
      <path
         sodipodi:nodetypes="cac"
         inkscape:connector-curvature="0"
         id="path5129"
         d="m 103.71429,250.68162 c 0,0 37.03805,10 56,10 18.96195,0 56,-10 56,-10"
         style="fill:none;stroke:#d4aa00;stroke-width:10.65666771;stroke-linecap:round;stroke-linejoin:round;stroke-opacity:1" />
    </g>
    <g
       inkscape:export-ydpi="63.570896"
       inkscape:export-xdpi="63.570896"
       inkscape:export-filename="C:\wamp-120428\www\sanmiguel\img\cesta_llena_400.png"
       id="g5131"
       transform="matrix(0.90796509,0,0,1,-88.286673,267.36916)"
       style="display:inline">
      <path
         style="fill:none;stroke:#aa8800;stroke-width:10.49458981;stroke-linecap:round;stroke-linejoin:round;stroke-opacity:1"
         d="m 255.33516,238.68162 c 0,0 36.15124,10 54.65919,10 18.50794,0 54.65918,-10 54.65918,-10"
         id="path5133"
         inkscape:connector-curvature="0"
         sodipodi:nodetypes="cac" />
      <path
         sodipodi:nodetypes="cac"
         inkscape:connector-curvature="0"
         id="path5135"
         d="m 355.33516,238.68162 c 0,0 36.15124,10 54.65919,10 18.50794,0 54.65918,-10 54.65918,-10"
         style="fill:none;stroke:#aa8800;stroke-width:10.49458981;stroke-linecap:round;stroke-linejoin:round;stroke-opacity:1" />
      <path
         style="fill:none;stroke:#aa8800;stroke-width:10.49458981;stroke-linecap:round;stroke-linejoin:round;stroke-opacity:1"
         d="m 171.33516,238.68162 c 0,0 36.15124,10 54.65919,10 18.50794,0 54.65918,-10 54.65918,-10"
         id="path5137"
         inkscape:connector-curvature="0"
         sodipodi:nodetypes="cac" />
      <path
         sodipodi:nodetypes="cac"
         inkscape:connector-curvature="0"
         id="path5139"
         d="m 107.77237,238.68162 c 0,0 23.84466,10 36.44058,10 12.59592,0 36.44058,-10 36.44058,-10"
         style="fill:none;stroke:#aa8800;stroke-width:10.49458981;stroke-linecap:round;stroke-linejoin:round;stroke-opacity:1" />
      <path
         style="fill:none;stroke:#aa8800;stroke-width:10.49458981;stroke-linecap:round;stroke-linejoin:round;stroke-opacity:1"
         d="m 510.65353,238.68162 c 0,0 -23.84466,10 -36.44058,10 -12.59592,0 -36.44058,-10 -36.44058,-10"
         id="path5141"
         inkscape:connector-curvature="0"
         sodipodi:nodetypes="cac" />
    </g>
    <g
       style="display:inline"
       inkscape:export-ydpi="63.570896"
       inkscape:export-xdpi="63.570896"
       inkscape:export-filename="C:\wamp-120428\www\sanmiguel\img\cesta_llena_400.png"
       transform="matrix(0.91240007,0,0,1,-89.614103,243.36916)"
       id="g5143">
      <path
         sodipodi:nodetypes="cac"
         inkscape:connector-curvature="0"
         id="path5145"
         d="m 203.71429,250.68162 c 0,0 37.03805,10 56,10 18.96195,0 56,-10 56,-10"
         style="fill:none;stroke:#d4aa00;stroke-width:10.46905136;stroke-linecap:round;stroke-linejoin:round;stroke-opacity:1" />
      <path
         style="fill:none;stroke:#d4aa00;stroke-width:10.46905136;stroke-linecap:round;stroke-linejoin:round;stroke-opacity:1"
         d="m 303.71429,250.68162 c 0,0 37.03805,10 56,10 18.96195,0 56,-10 56,-10"
         id="path5147"
         inkscape:connector-curvature="0"
         sodipodi:nodetypes="cac" />
      <path
         sodipodi:nodetypes="cac"
         inkscape:connector-curvature="0"
         id="path5149"
         d="m 403.71429,250.68162 c 0,0 37.03805,10 56,10 18.96195,0 56,-10 56,-10"
         style="fill:none;stroke:#d4aa00;stroke-width:10.46905136;stroke-linecap:round;stroke-linejoin:round;stroke-opacity:1" />
      <path
         style="fill:none;stroke:#d4aa00;stroke-width:10.46905136;stroke-linecap:round;stroke-linejoin:round;stroke-opacity:1"
         d="m 103.71429,250.68162 c 0,0 37.03805,10 56,10 18.96195,0 56,-10 56,-10"
         id="path5151"
         inkscape:connector-curvature="0"
         sodipodi:nodetypes="cac" />
    </g>
    <g
       inkscape:export-ydpi="63.570896"
       inkscape:export-xdpi="63.570896"
       inkscape:export-filename="C:\wamp-120428\www\sanmiguel\img\cesta_llena_400.png"
       transform="matrix(0.95779296,0,0,1,-103.69409,239.36916)"
       id="g5153"
       style="display:inline">
      <path
         sodipodi:nodetypes="cac"
         inkscape:connector-curvature="0"
         id="path5155"
         d="m 255.33516,238.68162 c 0,0 36.15124,10 54.65919,10 18.50794,0 54.65918,-10 54.65918,-10"
         style="fill:none;stroke:#aa8800;stroke-width:10.21796036;stroke-linecap:round;stroke-linejoin:round;stroke-opacity:1" />
      <path
         style="fill:none;stroke:#aa8800;stroke-width:10.21796036;stroke-linecap:round;stroke-linejoin:round;stroke-opacity:1"
         d="m 355.33516,238.68162 c 0,0 36.15124,10 54.65919,10 18.50794,0 54.65918,-10 54.65918,-10"
         id="path5157"
         inkscape:connector-curvature="0"
         sodipodi:nodetypes="cac" />
      <path
         sodipodi:nodetypes="cac"
         inkscape:connector-curvature="0"
         id="path5159"
         d="m 171.33516,238.68162 c 0,0 36.15124,10 54.65919,10 18.50794,0 54.65918,-10 54.65918,-10"
         style="fill:none;stroke:#aa8800;stroke-width:10.21796036;stroke-linecap:round;stroke-linejoin:round;stroke-opacity:1" />
      <path
         style="fill:none;stroke:#aa8800;stroke-width:10.21796036;stroke-linecap:round;stroke-linejoin:round;stroke-opacity:1"
         d="m 105.68424,236.68162 c 0,0 25.02595,11.77133 38.52871,12 12.63362,0.21395 36.44058,-10 36.44058,-10"
         id="path5161"
         inkscape:connector-curvature="0"
         sodipodi:nodetypes="cac" />
      <path
         sodipodi:nodetypes="cac"
         inkscape:connector-curvature="0"
         id="path5163"
         d="m 512.74166,236.68162 c 0,0 -25.02595,11.77133 -38.52871,12 -12.63362,0.21395 -36.44058,-10 -36.44058,-10"
         style="fill:none;stroke:#aa8800;stroke-width:10.21796036;stroke-linecap:round;stroke-linejoin:round;stroke-opacity:1" />
    </g>
    <g
       style="display:inline"
       inkscape:export-ydpi="63.570896"
       inkscape:export-xdpi="63.570896"
       inkscape:export-filename="C:\wamp-120428\www\sanmiguel\img\cesta_llena_400.png"
       transform="matrix(0.95221822,0,0,1,-101.94635,215.36916)"
       id="g5165">
      <path
         style="fill:none;stroke:#d4aa00;stroke-width:10.24782658;stroke-linecap:round;stroke-linejoin:round;stroke-opacity:1"
         d="m 203.71429,250.68162 c 0,0 37.03805,10 56,10 18.96195,0 56,-10 56,-10"
         id="path5167"
         inkscape:connector-curvature="0"
         sodipodi:nodetypes="cac" />
      <path
         sodipodi:nodetypes="cac"
         inkscape:connector-curvature="0"
         id="path5169"
         d="m 303.71429,250.68162 c 0,0 37.03805,10 56,10 18.96195,0 56,-10 56,-10"
         style="fill:none;stroke:#d4aa00;stroke-width:10.24782658;stroke-linecap:round;stroke-linejoin:round;stroke-opacity:1" />
      <path
         style="fill:none;stroke:#d4aa00;stroke-width:10.24782658;stroke-linecap:round;stroke-linejoin:round;stroke-opacity:1"
         d="m 403.71429,250.68162 c 0,0 40.05874,7.12389 60.20072,6 19.10072,-1.06579 56,-12 56,-12"
         id="path5171"
         inkscape:connector-curvature="0"
         sodipodi:nodetypes="cac" />
      <path
         sodipodi:nodetypes="cac"
         inkscape:connector-curvature="0"
         id="path5173"
         d="m 99.513572,244.68162 c 0,0 36.734338,12.91556 55.999998,14 20.22607,1.1385 60.20072,-8 60.20072,-8"
         style="fill:none;stroke:#d4aa00;stroke-width:10.24782658;stroke-linecap:round;stroke-linejoin:round;stroke-opacity:1" />
    </g>
    <g
       inkscape:export-ydpi="63.570896"
       inkscape:export-xdpi="63.570896"
       inkscape:export-filename="C:\wamp-120428\www\sanmiguel\img\cesta_llena_400.png"
       id="g5175"
       style="stroke:#aa8800;display:inline"
       transform="translate(-116.74505,211.36916)">
      <path
         style="fill:none;stroke:#aa8800;stroke-width:10.00000095;stroke-linecap:round;stroke-linejoin:round;stroke-opacity:1"
         d="m 255.33516,238.68162 c 0,0 36.15124,10 54.65919,10 18.50794,0 54.65918,-10 54.65918,-10"
         id="path5177"
         inkscape:connector-curvature="0"
         sodipodi:nodetypes="cac" />
      <path
         sodipodi:nodetypes="cac"
         inkscape:connector-curvature="0"
         id="path5179"
         d="m 355.33516,238.68162 c 0,0 36.15124,10 54.65919,10 18.50794,0 54.65918,-10 54.65918,-10"
         style="fill:none;stroke:#aa8800;stroke-width:10.00000095;stroke-linecap:round;stroke-linejoin:round;stroke-opacity:1" />
      <path
         style="fill:none;stroke:#aa8800;stroke-width:10.00000095;stroke-linecap:round;stroke-linejoin:round;stroke-opacity:1"
         d="m 171.33516,238.68162 c 0,0 36.15124,10 54.65919,10 18.50794,0 54.65918,-10 54.65918,-10"
         id="path5181"
         inkscape:connector-curvature="0"
         sodipodi:nodetypes="cac" />
      <path
         sodipodi:nodetypes="cac"
         inkscape:connector-curvature="0"
         id="path5183"
         d="m 105.77237,234.68162 c 0,0 25.21438,9.39572 38.44058,10 12.29758,0.56186 36.44058,-6 36.44058,-6"
         style="fill:none;stroke:#aa8800;stroke-width:10.00000095;stroke-linecap:round;stroke-linejoin:round;stroke-opacity:1" />
      <path
         style="fill:none;stroke:#aa8800;stroke-width:10.00000095;stroke-linecap:round;stroke-linejoin:round;stroke-opacity:1"
         d="m 512.65353,232.68162 c 0,0 -23.84493,9.91608 -36.44058,10 -13.23971,0.0882 -38.44058,-10 -38.44058,-10"
         id="path5185"
         inkscape:connector-curvature="0"
         sodipodi:nodetypes="cac" />
    </g>
    <g
       style="display:inline"
       inkscape:export-ydpi="63.570896"
       inkscape:export-xdpi="63.570896"
       inkscape:export-filename="C:\wamp-120428\www\sanmiguel\img\cesta_llena_400.png"
       id="g5187"
       transform="translate(-116.74505,211.36916)">
      <path
         sodipodi:nodetypes="cac"
         inkscape:connector-curvature="0"
         id="path5189"
         d="m 212.25226,222.68162 c 0,0 31.42018,16.62298 48.65919,18 17.1576,1.37051 50.65918,-10 50.65918,-10"
         style="fill:none;stroke:#d4aa00;stroke-width:10.00000095;stroke-linecap:round;stroke-linejoin:round;stroke-opacity:1" />
      <path
         style="fill:none;stroke:#d4aa00;stroke-width:10.00000095;stroke-linecap:round;stroke-linejoin:round;stroke-opacity:1"
         d="m 307.85795,230.68162 c 0,0 33.46848,10.86098 50.65918,10 18.32246,-0.91766 52.65919,-16 52.65919,-16"
         id="path5191"
         inkscape:connector-curvature="0"
         sodipodi:nodetypes="cac" />
      <path
         sodipodi:nodetypes="cac"
         inkscape:connector-curvature="0"
         id="path5193"
         d="m 405.46364,222.68162 c 0,0 36.27091,8.97008 54.65918,8 18.78176,-0.99083 54.65919,-14 54.65919,-14"
         style="fill:none;stroke:#d4aa00;stroke-width:10.00000095;stroke-linecap:round;stroke-linejoin:round;stroke-opacity:1" />
      <path
         style="fill:none;stroke:#d4aa00;stroke-width:10.00000095;stroke-linecap:round;stroke-linejoin:round;stroke-opacity:1"
         d="m 106.64657,218.68162 c 0,0 35.86276,13.34382 54.65919,14 18.51086,0.64621 54.65918,-10 54.65918,-10"
         id="path5195"
         inkscape:connector-curvature="0"
         sodipodi:nodetypes="cac" />
    </g>
  </g>
</svg>
