<?xml version="1.0" encoding="UTF-8" standalone="no"?>
<!-- Created with Inkscape (http://www.inkscape.org/) -->

<svg
   xmlns:dc="http://purl.org/dc/elements/1.1/"
   xmlns:cc="http://creativecommons.org/ns#"
   xmlns:rdf="http://www.w3.org/1999/02/22-rdf-syntax-ns#"
   xmlns:svg="http://www.w3.org/2000/svg"
   xmlns="http://www.w3.org/2000/svg"
   version="1.1"
   width="307.42126"
   height="314.08597"
   id="svg5382">
  <defs
     id="defs5384">
    <clipPath
       id="clipPath3395">
      <path
         d="m 27.36,67.348 277.974,0 0,568.532 -277.974,0 0,-568.532 z"
         id="path3397" />
    </clipPath>
  </defs>
  <metadata
     id="metadata5387">
    <rdf:RDF>
      <cc:Work
         rdf:about="">
        <dc:format>image/svg+xml</dc:format>
        <dc:type
           rdf:resource="http://purl.org/dc/dcmitype/StillImage" />
        <dc:title></dc:title>
      </cc:Work>
    </rdf:RDF>
  </metadata>
  <g
     transform="translate(-221.28937,-375.3192)"
     id="layer1">
    <g
       transform="matrix(1.25,0,0,-1.25,174.73825,775.09241)"
       clip-path="url(#clipPath3395)"
       id="g3393">
      <g
         transform="translate(211.65,223.3874)"
         id="g3399">
        <path
           d="m 0,0 -5.089,-72.65 14.356,4.195 C 9.584,-43.7 18.34,-3.386 27.397,15.964 L 6.999,2.976 0,0 z"
           id="path3401"
           style="fill:#8dc63f;fill-opacity:1;fill-rule:nonzero;stroke:none" />
      </g>
      <g
         transform="translate(206.561,150.738)"
         id="g3403">
        <path
           d="M 0,0 5.089,72.65 -26.225,72.633 -20.999,-2.842 0,0 z"
           id="path3405"
           style="fill:#d7df23;fill-opacity:1;fill-rule:nonzero;stroke:none" />
      </g>
      <g
         transform="translate(134.5986,245.4037)"
         id="g3407">
        <path
           d="M 0,0 35.148,16.226 C 54.007,14.347 92.748,4.723 104.654,-0.537 94.009,-23.516 80.957,-72.41 79.548,-100.273 l 10.056,-2.096 c -2.218,46.902 30.637,116.381 55.095,141.991 -4.694,-1.208 -7.88,-1.108 -11.122,0.829 -1.081,0.646 -2.168,1.495 -3.321,2.568 C 124.553,35.733 112.396,16.804 107.515,5.574 93.422,10.643 54.869,20.199 44.437,21.767 L 60.532,56.722 53.179,58.344 38.025,22.983 33.676,23.97 -1.067,7.609 0,0 z"
           id="path3409"
           style="fill:#9bafba;fill-opacity:1;fill-rule:nonzero;stroke:none" />
      </g>
      <g
         transform="translate(103.4988,103.1814)"
         id="g3411">
        <path
           d="m 0,0 c -3.01,-8.972 -10.201,-15.191 -16.059,-13.888 -1.076,0.239 -2.033,0.715 -2.858,1.389 -3.67,2.995 -4.756,9.893 -2.299,17.218 2.917,8.691 9.756,14.799 15.507,13.988 0.186,-0.027 0.371,-0.06 0.554,-0.101 C 0.703,17.304 3.01,8.974 0,0"
           id="path3413"
           style="fill:#000000;fill-opacity:1;fill-rule:nonzero;stroke:none" />
      </g>
      <g
         transform="translate(97.8858,104.4842)"
         id="g3415">
        <path
           d="m 0,0 c -1.348,-4.018 -4.567,-6.802 -7.19,-6.219 -2.624,0.584 -3.658,4.314 -2.31,8.331 1.348,4.019 4.569,6.804 7.192,6.22 C 0.316,7.748 1.348,4.019 0,0"
           id="path3417"
           style="fill:#bcd8e1;fill-opacity:1;fill-rule:nonzero;stroke:none" />
      </g>
      <g
         transform="translate(97.7894,121.8882)"
         id="g3419">
        <path
           d="m 0,0 -7.47,2.348 c -11.216,-3.137 -18.895,-19.942 -11.705,-31.041 l 5.967,-2.513 c -3.67,2.995 -4.755,9.892 -2.299,17.217 C -12.589,-5.296 -5.751,0.811 0,0"
           id="path3421"
           style="fill:#8b909e;fill-opacity:1;fill-rule:nonzero;stroke:none" />
      </g>
      <g
         transform="translate(91.5036,109.4769)"
         id="g3423">
        <path
           d="m 0,0 70.478,46.588 62.352,-11.026 -7.773,-6.319 -1.704,0.341 -47.949,9.62 L 39.131,17.133 14.056,1.875 0,0 z"
           id="path3425"
           style="fill:#9bafba;fill-opacity:1;fill-rule:nonzero;stroke:none" />
      </g>
      <g
         transform="translate(105.5596,111.3519)"
         id="g3427">
        <path
           d="M 0,0 25.075,15.257 25.427,14.83 7.516,0.796 52.239,-10.941 48.585,-14.42 C 45.179,-13.403 0,0 0,0"
           id="path3429"
           style="fill:#000000;fill-opacity:1;fill-rule:nonzero;stroke:none" />
      </g>
      <g
         transform="translate(221.9787,137.7808)"
         id="g3431">
        <path
           d="m 0,0 -6.823,-9.057 c 0,0 -44.847,-35.091 -46.617,-36.475 l -17.857,-2.646 c -2.486,0.695 -59.178,19.874 -59.178,19.874 l 14.056,1.875 c 0,0 45.179,-13.403 48.585,-14.42 l 19.839,5.297 c 0,0 39.059,35.251 40.873,36.832 L -5.418,0.938 2.355,7.258 3.635,5.721 0,0 z"
           id="path3433"
           style="fill:#9bafba;fill-opacity:1;fill-rule:nonzero;stroke:none" />
      </g>
      <g
         transform="translate(91.5036,109.4769)"
         id="g3435">
        <path
           d="m 0,0 c 0,0 56.692,-19.179 59.179,-19.874 l 0.457,-0.149 -0.16,-0.411 L 1.024,-6.242 -1.384,0.379 0,0 z"
           id="path3437"
           style="fill:#ffffff;fill-opacity:1;fill-rule:nonzero;stroke:none" />
      </g>
      <g
         transform="translate(89.476,186.473)"
         id="g3439">
        <path
           d="m 0,0 c -0.094,-2.617 -6.549,-4.551 -14.412,-4.318 -4.63,0.138 -8.714,0.995 -11.273,2.21 -1.787,0.85 -2.828,1.874 -2.79,2.95 0.097,2.618 6.55,4.552 14.414,4.319 C -6.198,4.928 0.098,2.617 0,0"
           id="path3441"
           style="fill:#ce9468;fill-opacity:1;fill-rule:nonzero;stroke:none" />
      </g>
      <g
         transform="translate(84.1277,140.4821)"
         id="g3443">
        <path
           d="m 0,0 -20.337,43.883 c 2.559,-1.215 6.643,-2.072 11.273,-2.21 7.863,-0.233 14.317,1.701 14.412,4.318 L 20.044,4.509 0,0 z"
           id="path3445"
           style="fill:#f9d177;fill-opacity:1;fill-rule:nonzero;stroke:none" />
      </g>
      <g
         transform="translate(133.5314,253.0125)"
         id="g3447">
        <path
           d="M 0,0 -93.51,-44.01 -82.254,-46.072 1.067,-7.609 0,0 z"
           id="path3449"
           style="fill:#9bafba;fill-opacity:1;fill-rule:nonzero;stroke:none" />
      </g>
      <g
         transform="translate(118.0437,198.9449)"
         id="g3451">
        <path
           d="M 0,0 16.948,15.291 66.129,17.124 62.995,4.625 0,0 z"
           id="path3453"
           style="fill:#78cdd1;fill-opacity:1;fill-rule:nonzero;stroke:none" />
      </g>
      <g
         transform="translate(181.0391,203.5703)"
         id="g3455">
        <path
           d="M 0,0 3.133,12.498 9.81,-62.376 5.343,-63.594 0,0 z"
           id="path3457"
           style="fill:#008396;fill-opacity:1;fill-rule:nonzero;stroke:none" />
      </g>
      <g
         transform="translate(129.5079,138.8944)"
         id="g3459">
        <path
           d="M 0,0 -11.464,60.051 51.531,64.676 56.874,1.082 0,0 z"
           id="path3461"
           style="fill:#5a9b9f;fill-opacity:1;fill-rule:nonzero;stroke:none" />
      </g>
      <g
         transform="translate(173.8017,165.3048)"
         id="g3463">
        <path
           d="M 0,0 -2.19,26.11 -4.789,53.48 -45.253,49.064 -35.078,-2.12 0,0 z"
           id="path3465"
           style="fill:#9fc4c6;fill-opacity:1;fill-rule:nonzero;stroke:none" />
      </g>
      <g
         transform="translate(119.393,225.4841)"
         id="g3467">
        <path
           d="m 0,0 15.907,-58.016 46.434,-5.634 5.973,4.574 L 42.076,-41.163 0.161,-0.008 0,0 z"
           id="path3469"
           style="fill:#71707f;fill-opacity:1;fill-rule:nonzero;stroke:none" />
      </g>
      <g
         transform="translate(88.691,205.7381)"
         id="g3471">
        <path
           d="M 0,0 45.813,9.398 42.007,-4.082 -10.28,-16.891 0,0 z"
           id="path3473"
           style="fill:#ffffff;fill-opacity:1;fill-rule:nonzero;stroke:none" />
      </g>
      <g
         transform="translate(92.4218,153.0196)"
         id="g3475">
        <path
           d="m 0,0 -14.01,35.827 52.286,12.81 17.172,-54.524 2.034,-6.88 L 0,0 z"
           id="path3477"
           style="fill:#f0eada;fill-opacity:1;fill-rule:nonzero;stroke:none" />
      </g>
      <g
         transform="translate(147.8696,147.1333)"
         id="g3479">
        <path
           d="M 0,0 -17.172,54.524 -13.365,68.002 9.791,7.888 0,0 z"
           id="path3481"
           style="fill:#bcd8e1;fill-opacity:1;fill-rule:nonzero;stroke:none" />
      </g>
      <g
         transform="translate(143.4027,156.1424)"
         id="g3483">
        <path
           d="m 0,0 c 0,-2.095 -5.527,-3.793 -12.346,-3.793 -6.818,0 -12.346,1.698 -12.346,3.793 0,2.095 5.528,3.793 12.346,3.793 C -5.527,3.793 0,2.095 0,0"
           id="path3485"
           style="fill:#bcd8e1;fill-opacity:1;fill-rule:nonzero;stroke:none" />
      </g>
      <g
         transform="translate(143.4027,156.1424)"
         id="g3487">
        <path
           d="m 0,0 c 0,-2.095 -5.527,-3.793 -12.346,-3.793 -6.818,0 -12.346,1.698 -12.346,3.793 l 2.212,-20.01 c 3.321,-1.793 11.542,-2.475 19.65,-0.424 L 0,0 z"
           id="path3489"
           style="fill:#8dc640;fill-opacity:1;fill-rule:nonzero;stroke:none" />
      </g>
      <g
         transform="translate(119.0513,160.5287)"
         id="g3491">
        <path
           d="m 0,0 c 0,-2.095 -5.527,-3.793 -12.346,-3.793 -6.816,0 -12.344,1.698 -12.344,3.793 0,2.095 5.528,3.793 12.344,3.793 C -5.527,3.793 0,2.095 0,0"
           id="path3493"
           style="fill:#bcd8e1;fill-opacity:1;fill-rule:nonzero;stroke:none" />
      </g>
      <g
         transform="translate(115.9636,136.6338)"
         id="g3495">
        <path
           d="m 0,0 3.087,23.895 c 0,-2.095 -5.527,-3.793 -12.345,-3.793 -6.817,0 -12.344,1.698 -12.344,3.793 L -21.348,0.664 C -17.748,-0.171 -2.964,-1.039 0,0"
           id="path3497"
           style="fill:#3bb54a;fill-opacity:1;fill-rule:nonzero;stroke:none" />
      </g>
      <g
         transform="translate(140.2799,156.0452)"
         id="g3499">
        <path
           d="m 0,0 c 0,-1.255 -3.948,-2.274 -8.814,-2.274 -4.869,0 -8.815,1.019 -8.815,2.274 0,1.255 3.946,2.274 8.815,2.274 C -3.948,2.274 0,1.255 0,0"
           id="path3501"
           style="fill:#f2eeea;fill-opacity:1;fill-rule:nonzero;stroke:none" />
      </g>
      <g
         transform="translate(114.2743,160.3438)"
         id="g3503">
        <path
           d="m 0,0 c 0,-1.255 -3.948,-2.274 -8.816,-2.274 -4.869,0 -8.813,1.019 -8.813,2.274 0,1.255 3.944,2.274 8.813,2.274 C -3.948,2.274 0,1.255 0,0"
           id="path3505"
           style="fill:#f2eeea;fill-opacity:1;fill-rule:nonzero;stroke:none" />
      </g>
      <g
         transform="translate(140.2835,144.503)"
         id="g3507">
        <path
           d="m 0,0 4.946,-13.721 1.04,-2.862 12.726,-5.308 L 7.117,4.43 0,0 z"
           id="path3509"
           style="fill:#f0d7af;fill-opacity:1;fill-rule:nonzero;stroke:none" />
      </g>
      <g
         transform="translate(57.9678,182.5309)"
         id="g3511">
        <path
           d="m 0,0 -3.298,5.295 c 0,0 88.945,-19.128 92.32,-19.532 L 88.461,-14.435 0.156,0.338 0,0 z"
           id="path3513"
           style="fill:#6d726e;fill-opacity:1;fill-rule:nonzero;stroke:none" />
      </g>
      <g
         transform="translate(153.6859,144.6493)"
         id="g3515">
        <path
           d="m 0,0 -84.821,17.739 -4.266,7.24 L -1.052,3.453 0,0 z"
           id="path3517"
           style="fill:#9bafba;fill-opacity:1;fill-rule:nonzero;stroke:none" />
      </g>
      <g
         transform="translate(215.0234,216.2174)"
         id="g3519">
        <path
           d="m 0,0 3.929,-34.364 6.95,12.988 L 8.915,5.547 0,0 z"
           id="path3521"
           style="fill:#9bafba;fill-opacity:1;fill-rule:nonzero;stroke:none" />
      </g>
      <g
         transform="translate(143.5621,180.0846)"
         id="g3523">
        <path
           d="M 0,0 6.57,-1.215 24.493,-49.879 14.389,-54.344 0,0 z"
           id="path3525"
           style="fill:#9bafba;fill-opacity:1;fill-rule:nonzero;stroke:none" />
      </g>
      <g
         transform="translate(216.7233,160.9571)"
         id="g3527">
        <path
           d="m 0,0 -1.41,-7.215 -52.462,-38.255 1.633,2.921 C -49.144,-39.823 0,0 0,0"
           id="path3529"
           style="fill:#6d726e;fill-opacity:1;fill-rule:nonzero;stroke:none" />
      </g>
      <g
         transform="translate(143.7182,131.7376)"
         id="g3531">
        <path
           d="m 0,0 -64.468,13.403 -2.245,0.42 L -68.244,7.01 12.309,-2.807 12.256,-2.606 0,0 z"
           id="path3533"
           style="fill:#6d726e;fill-opacity:1;fill-rule:nonzero;stroke:none" />
      </g>
      <g
         transform="translate(171.6112,191.4147)"
         id="g3535">
        <path
           d="m 0,0 2.19,-26.11 3.097,-31.027 4.937,4.419 L 4.483,3.383 0,0 z"
           id="path3537"
           style="fill:#9bafba;fill-opacity:1;fill-rule:nonzero;stroke:none" />
      </g>
      <g
         transform="translate(191.0014,201.2037)"
         id="g3539">
        <path
           d="m 0,0 5.74,-53.169 6.045,3.924 L 8.915,5.276 0,0 z"
           id="path3541"
           style="fill:#9bafba;fill-opacity:1;fill-rule:nonzero;stroke:none" />
      </g>
      <g
         transform="translate(152.8709,170.0513)"
         id="g3543">
        <path
           d="m 0,0 c 18.563,12.579 64.441,36.785 74.448,39.087 l -2.287,-8.655 -1.85,-6.995 C 54.775,19.251 17.663,0.867 3.596,-9.243 L 0,0 z"
           id="path3545"
           style="fill:#9bafba;fill-opacity:1;fill-rule:nonzero;stroke:none" />
      </g>
      <g
         transform="translate(156.4669,160.8082)"
         id="g3547">
        <path
           d="m 0,0 c 14.067,10.11 51.179,28.494 66.715,32.681 l 1.85,6.994 C 57.191,37.087 9.294,11.267 -0.144,0.225 L 0,0 z"
           id="path3549"
           style="fill:#6d726e;fill-opacity:1;fill-rule:nonzero;stroke:none" />
      </g>
      <g
         transform="translate(160.4711,149.6472)"
         id="g3551">
        <path
           d="M 0,0 C 22.475,16.374 53.234,35.965 61.021,38.541 L 60.479,35.878 58.732,27.325 C 49.227,23.07 19.059,3.673 2.522,-8.371 L 0,0 z"
           id="path3553"
           style="fill:#9bafba;fill-opacity:1;fill-rule:nonzero;stroke:none" />
      </g>
      <g
         transform="translate(162.9928,141.2759)"
         id="g3555">
        <path
           d="m 0,0 c 16.538,12.044 46.705,31.441 56.21,35.696 l 1.747,8.554 C 44.225,36.443 18.386,17.05 -0.624,0.61 L 0,0 z"
           id="path3557"
           style="fill:#6d726e;fill-opacity:1;fill-rule:nonzero;stroke:none" />
      </g>
      <g
         transform="translate(156.756,182.552)"
         id="g3559">
        <path
           d="m 0,0 74.593,41.468 c 0.061,0.338 1.383,3.928 2.693,7.474 C 66.528,43.418 27.36,20.425 -0.156,0.08 L 0,0 z"
           id="path3561"
           style="fill:#6d726e;fill-opacity:1;fill-rule:nonzero;stroke:none" />
      </g>
      <g
         transform="translate(239.2521,244.8665)"
         id="g3563">
        <path
           d="m 0,0 c -10.644,-22.978 -23.696,-71.873 -25.104,-99.735 l 10.055,-2.096 c -2.219,46.901 30.637,116.38 55.095,141.99 -4.695,-1.208 -7.88,-1.108 -11.123,0.829 -1.081,0.645 -2.168,1.496 -3.321,2.569 C 19.901,36.271 7.742,17.342 2.861,6.111 L 0,0 z"
           id="path3565"
           style="fill:#9bafba;fill-opacity:1;fill-rule:nonzero;stroke:none" />
      </g>
      <g
         transform="translate(222.6726,142.9583)"
         id="g3567">
        <path
           d="m 0,0 1.53,0.077 c -2.219,46.901 30.637,116.381 55.095,141.99 -4.694,-1.207 -7.88,-1.108 -11.122,0.829 C 14.284,99.008 -2.727,43.001 0,0"
           id="path3569"
           style="fill:#6d726e;fill-opacity:1;fill-rule:nonzero;stroke:none" />
      </g>
      <g
         transform="translate(150.1319,178.8702)"
         id="g3571">
        <path
           d="m 0,0 17.924,-48.664 0.462,-1.338 -4.937,-2.792 L -0.077,-0.043 0,0 z"
           id="path3573"
           style="fill:#6d726e;fill-opacity:1;fill-rule:nonzero;stroke:none" />
      </g>
      <g
         transform="translate(238.8262,137.9612)"
         id="g3575">
        <path
           d="m 0,0 c 1.171,-3.412 1.094,-7.989 -0.505,-12.75 -2.966,-8.842 -10.054,-14.971 -15.827,-13.687 -1.059,0.236 -2.002,0.705 -2.815,1.369 -2.872,2.344 -4.139,7.109 -3.328,12.587 0.211,1.423 0.561,2.892 1.063,4.381 2.873,8.567 9.613,14.586 15.282,13.787 0.182,-0.026 0.364,-0.06 0.543,-0.099 C -2.92,4.994 -1,2.926 0,0"
           id="path3577"
           style="fill:#000000;fill-opacity:1;fill-rule:nonzero;stroke:none" />
      </g>
      <g
         transform="translate(238.8262,137.9612)"
         id="g3579">
        <path
           d="M 0,0 C -1,2.926 -2.92,4.994 -5.587,5.588 -5.766,5.627 -5.948,5.661 -6.13,5.687 -11.799,6.486 -18.539,0.467 -21.412,-8.1 c -0.502,-1.489 -0.852,-2.958 -1.063,-4.381 L 0,0 z"
           id="path3581"
           style="fill:#58595b;fill-opacity:1;fill-rule:nonzero;stroke:none" />
      </g>
      <g
         transform="translate(232.7892,126.4953)"
         id="g3583">
        <path
           d="m 0,0 c -1.328,-3.959 -4.501,-6.704 -7.086,-6.128 -2.585,0.575 -3.604,4.25 -2.277,8.21 1.33,3.96 4.504,6.704 7.089,6.129 C 0.31,7.636 1.33,3.959 0,0"
           id="path3585"
           style="fill:#bcd8e1;fill-opacity:1;fill-rule:nonzero;stroke:none" />
      </g>
      <g
         transform="translate(219.6795,112.8932)"
         id="g3587">
        <path
           d="m 0,0 c -2.872,2.344 -4.139,7.11 -3.328,12.586 0.21,1.423 0.561,2.894 1.062,4.381 2.874,8.567 9.613,14.587 15.283,13.787 L 5.653,33.067 C -5.4,29.977 -12.968,13.414 -5.881,2.477 L 0,0 z"
           id="path3589"
           style="fill:#8b909e;fill-opacity:1;fill-rule:nonzero;stroke:none" />
      </g>
      <g
         transform="translate(168.5391,92.249)"
         id="g3591">
        <path
           d="M 0,0 C 1.77,1.384 46.617,36.475 46.617,36.475 L 47.101,35.927 5.389,-1.174 0,0 z"
           id="path3593"
           style="fill:#000000;fill-opacity:1;fill-rule:nonzero;stroke:none" />
      </g>
      <g
         transform="translate(179.9981,97.2372)"
         id="g3595">
        <path
           d="m 0,0 c 1.26,-3.679 1.176,-8.614 -0.545,-13.746 -3.2,-9.534 -10.84,-16.143 -17.065,-14.758 -1.144,0.255 -2.159,0.761 -3.037,1.477 -3.095,2.525 -4.461,7.664 -3.587,13.569 0.228,1.534 0.606,3.12 1.145,4.725 3.1,9.236 10.364,15.725 16.477,14.863 C -6.415,6.103 -6.22,6.068 -6.025,6.024 -3.151,5.385 -1.081,3.155 0,0"
           id="path3597"
           style="fill:#000000;fill-opacity:1;fill-rule:nonzero;stroke:none" />
      </g>
      <g
         transform="translate(179.9981,97.2372)"
         id="g3599">
        <path
           d="m 0,0 c -1.081,3.155 -3.151,5.385 -6.025,6.024 -0.195,0.044 -0.39,0.079 -0.587,0.106 -6.113,0.862 -13.377,-5.627 -16.477,-14.863 -0.539,-1.605 -0.917,-3.191 -1.145,-4.725 L 0,0 z"
           id="path3601"
           style="fill:#58595b;fill-opacity:1;fill-rule:nonzero;stroke:none" />
      </g>
      <g
         transform="translate(173.488,84.8748)"
         id="g3603">
        <path
           d="m 0,0 c -1.432,-4.269 -4.854,-7.227 -7.641,-6.608 -2.787,0.62 -3.887,4.584 -2.453,8.853 1.432,4.269 4.852,7.227 7.641,6.608 C 0.335,8.233 1.432,4.269 0,0"
           id="path3605"
           style="fill:#bcd8e1;fill-opacity:1;fill-rule:nonzero;stroke:none" />
      </g>
      <g
         transform="translate(159.3513,70.2099)"
         id="g3607">
        <path
           d="m 0,0 c -3.095,2.525 -4.462,7.664 -3.587,13.57 0.228,1.533 0.606,3.119 1.144,4.725 3.1,9.236 10.366,15.724 16.478,14.862 l -7.94,2.495 C -5.819,32.32 -13.979,14.462 -6.34,2.67 L 0,0 z"
           id="path3609"
           style="fill:#8b909e;fill-opacity:1;fill-rule:nonzero;stroke:none" />
      </g>
      <g
         transform="translate(277.6998,300.7314)"
         id="g3611">
        <path
           d="m 0,0 c 0,0 -5.74,1.259 -14.27,3.13 -24.23,5.317 -70.965,15.571 -72.523,15.919 -11.656,0.833 -15.649,-12.21 -11.149,-15.49 5.627,-1.197 87.489,-19.756 87.489,-19.756 L 0,0 z"
           id="path3613"
           style="fill:#ed1b35;fill-opacity:1;fill-rule:nonzero;stroke:none" />
      </g>
      <g
         transform="translate(179.758,304.2905)"
         id="g3615">
        <path
           d="m 0,0 c 5.627,-1.198 87.489,-19.756 87.489,-19.756 l 10.453,16.197 c 0,0 -5.741,1.259 -14.27,3.13 L 0.138,0.591 0,0 z"
           id="path3617"
           style="fill:#d1223e;fill-opacity:1;fill-rule:nonzero;stroke:none" />
      </g>
      <g
         transform="translate(283.1779,292.4101)"
         id="g3619">
        <path
           d="m 0,0 c 0,-4.933 -4.467,-8.932 -9.975,-8.932 -5.509,0 -9.974,3.999 -9.974,8.932 0,4.932 4.465,8.928 9.974,8.928 C -4.467,8.928 0,4.932 0,0"
           id="path3621"
           style="fill:#860010;fill-opacity:1;fill-rule:nonzero;stroke:none" />
      </g>
      <g
         transform="translate(204.4888,290.1784)"
         id="g3623">
        <path
           d="m 0,0 c 0,0 -1.422,1.505 -5.02,7.807 -3.598,6.302 -9.244,12.775 2.226,8.122 11.47,-4.65 5.53,-7.847 13.593,-3.905 8.063,3.944 12.223,10.521 14.168,2.973 C 26.915,7.448 33.84,10.101 23.972,3.078 14.105,-3.947 18.469,-1.082 14.105,-3.947 9.74,-6.816 2.062,-6.175 2.062,-6.175 L 0,0 z"
           id="path3625"
           style="fill:#e5eef1;fill-opacity:1;fill-rule:nonzero;stroke:none" />
      </g>
      <g
         transform="translate(204.4888,290.1784)"
         id="g3627">
        <path
           d="m 0,0 c 0,0 -1.422,1.505 -5.02,7.807 -3.598,6.302 -9.244,12.775 2.226,8.122 11.47,-4.65 5.53,-7.847 13.593,-3.905 8.063,3.944 12.223,10.521 14.168,2.973 C 26.915,7.448 33.84,10.101 23.972,3.078 14.105,-3.947 18.469,-1.082 14.105,-3.947 9.74,-6.816 2.062,-6.175 2.062,-6.175 L 0,0 z"
           id="path3629"
           style="fill:none;stroke:#e7eef3;stroke-width:0.486;stroke-linecap:butt;stroke-linejoin:miter;stroke-miterlimit:10;stroke-opacity:1;stroke-dasharray:none" />
      </g>
      <g
         transform="translate(210.7273,226.9728)"
         id="g3631">
        <path
           d="m 0,0 c -0.803,-2.689 -3.898,-4.248 -6.911,-3.482 l -25.805,6.57 c -3.012,0.767 -4.808,3.571 -4.008,6.262 l 15.812,53.135 c 0.803,2.688 3.895,4.246 6.909,3.48 l 25.807,-6.57 c 3.014,-0.766 4.811,-3.57 4.007,-6.258 L 0,0 z"
           id="path3633"
           style="fill:#ce9468;fill-opacity:1;fill-rule:nonzero;stroke:none" />
      </g>
      <g
         transform="translate(189.2526,286.0506)"
         id="g3635">
        <path
           d="m 0,0 c 0,0 21.344,-9.32 36.061,-8.157 l -1.254,-3.74 c 0,0 -16.671,-0.75 -35.88,8.772 L 0,0 z"
           id="path3637"
           style="fill:#b7906b;fill-opacity:1;fill-rule:nonzero;stroke:none" />
      </g>
      <g
         transform="translate(190.6036,290.1118)"
         id="g3639">
        <path
           d="m 0,0 c 0,0 21.343,-9.32 36.061,-8.156 l -1.254,-3.741 c 0,0 -16.672,-0.75 -35.881,8.772 L 0,0 z"
           id="path3641"
           style="fill:#b7906b;fill-opacity:1;fill-rule:nonzero;stroke:none" />
      </g>
      <g
         transform="translate(187.9882,281.78)"
         id="g3643">
        <path
           d="m 0,0 c 0,0 21.344,-9.32 36.061,-8.157 l -1.254,-3.739 c 0,0 -16.671,-0.751 -35.88,8.771 L 0,0 z"
           id="path3645"
           style="fill:#b7906b;fill-opacity:1;fill-rule:nonzero;stroke:none" />
      </g>
      <g
         transform="translate(186.7072,277.4595)"
         id="g3647">
        <path
           d="m 0,0 c 0,0 21.344,-9.319 36.061,-8.156 l -1.254,-3.74 c 0,0 -16.671,-0.751 -35.88,8.772 L 0,0 z"
           id="path3649"
           style="fill:#b7906b;fill-opacity:1;fill-rule:nonzero;stroke:none" />
      </g>
      <g
         transform="translate(185.4665,273.2747)"
         id="g3651">
        <path
           d="m 0,0 c 0,0 21.344,-9.32 36.061,-8.156 l -1.255,-3.741 c 0,0 -16.67,-0.75 -35.879,8.772 L 0,0 z"
           id="path3653"
           style="fill:#b7906b;fill-opacity:1;fill-rule:nonzero;stroke:none" />
      </g>
      <g
         transform="translate(184.0917,269.1277)"
         id="g3655">
        <path
           d="m 0,0 c 0,0 21.343,-9.32 36.061,-8.157 l -1.254,-3.74 c 0,0 -16.672,-0.75 -35.88,8.772 L 0,0 z"
           id="path3657"
           style="fill:#b7906b;fill-opacity:1;fill-rule:nonzero;stroke:none" />
      </g>
      <g
         transform="translate(182.717,264.9823)"
         id="g3659">
        <path
           d="m 0,0 c 0,0 21.343,-9.32 36.061,-8.157 l -1.255,-3.74 c 0,0 -16.671,-0.75 -35.88,8.772 L 0,0 z"
           id="path3661"
           style="fill:#b7906b;fill-opacity:1;fill-rule:nonzero;stroke:none" />
      </g>
      <g
         transform="translate(181.6673,260.4472)"
         id="g3663">
        <path
           d="m 0,0 c 0,0 21.344,-9.319 36.061,-8.156 l -1.255,-3.74 c 0,0 -16.67,-0.751 -35.879,8.772 L 0,0 z"
           id="path3665"
           style="fill:#b7906b;fill-opacity:1;fill-rule:nonzero;stroke:none" />
      </g>
      <g
         transform="translate(180.2925,256.3027)"
         id="g3667">
        <path
           d="m 0,0 c 0,0 21.343,-9.32 36.06,-8.157 l -1.254,-3.74 c 0,0 -16.671,-0.751 -35.879,8.772 L 0,0 z"
           id="path3669"
           style="fill:#b7906b;fill-opacity:1;fill-rule:nonzero;stroke:none" />
      </g>
      <g
         transform="translate(179.4566,251.9953)"
         id="g3671">
        <path
           d="m 0,0 c 0,0 21.343,-9.32 36.061,-8.157 l -1.254,-3.74 c 0,0 -16.671,-0.75 -35.88,8.772 L 0,0 z"
           id="path3673"
           style="fill:#b7906b;fill-opacity:1;fill-rule:nonzero;stroke:none" />
      </g>
      <g
         transform="translate(177.7717,247.7957)"
         id="g3675">
        <path
           d="m 0,0 c 0,0 21.343,-9.32 36.061,-8.157 l -1.254,-3.74 c 0,0 -16.672,-0.75 -35.88,8.772 L 0,0 z"
           id="path3677"
           style="fill:#b7906b;fill-opacity:1;fill-rule:nonzero;stroke:none" />
      </g>
      <g
         transform="translate(176.7071,243.7065)"
         id="g3679">
        <path
           d="m 0,0 c 0,0 21.344,-9.32 36.061,-8.157 l -1.254,-3.74 c 0,0 -16.671,-0.75 -35.88,8.772 L 0,0 z"
           id="path3681"
           style="fill:#b7906b;fill-opacity:1;fill-rule:nonzero;stroke:none" />
      </g>
      <g
         transform="translate(175.1571,239.4665)"
         id="g3683">
        <path
           d="m 0,0 c 0,0 21.343,-9.32 36.061,-8.157 l -1.254,-3.74 c 0,0 -16.672,-0.75 -35.881,8.772 L 0,0 z"
           id="path3685"
           style="fill:#b7906b;fill-opacity:1;fill-rule:nonzero;stroke:none" />
      </g>
      <g
         transform="translate(193.0088,261.6493)"
         id="g3687">
        <path
           d="M 0,0 1.009,0.553 C 1.84,1.007 2.334,1.374 2.489,1.657 2.703,2.045 2.689,2.413 2.443,2.767 2.329,2.931 2.199,3.06 2.051,3.156 1.901,3.253 1.654,3.359 1.306,3.48 0.878,3.635 0.606,3.803 0.479,3.983 0.298,4.243 0.333,4.559 0.583,4.928 L 1.095,5.675 C 1.447,6.2 1.64,6.727 1.668,7.257 1.7,7.787 1.572,8.261 1.279,8.682 0.866,9.276 0.277,9.617 -0.495,9.704 -1.262,9.792 -2.066,9.607 -2.902,9.15 -3.757,8.683 -4.455,8.06 -4.999,7.283 -5.543,6.505 -5.854,5.697 -5.938,4.861 -6.021,4.025 -5.845,3.293 -5.412,2.667 -5.227,2.403 -5.002,2.2 -4.737,2.063 -4.469,1.925 -4.126,1.837 -3.71,1.795 -3.447,1.778 -3.267,1.748 -3.168,1.705 -3.069,1.664 -2.979,1.586 -2.897,1.467 -2.772,1.288 -2.741,1.094 -2.797,0.886 -2.858,0.677 -2.99,0.515 -3.199,0.401 -3.546,0.214 -3.954,0.152 -4.429,0.217 -4.903,0.283 -5.365,0.458 -5.818,0.74 -6.269,1.02 -6.65,1.386 -6.961,1.832 -7.55,2.683 -7.801,3.66 -7.714,4.766 c 0.091,1.102 0.49,2.17 1.204,3.2 0.713,1.028 1.639,1.856 2.779,2.481 0.865,0.472 1.714,0.751 2.546,0.839 0.83,0.087 1.597,-0.02 2.296,-0.321 C 1.812,10.66 2.387,10.186 2.837,9.534 3.512,8.56 3.645,7.453 3.234,6.211 3.035,5.62 2.752,5.13 2.385,4.738 2.798,4.589 3.138,4.431 3.394,4.253 3.652,4.076 3.877,3.851 4.065,3.58 4.376,3.134 4.525,2.66 4.514,2.155 4.504,1.653 4.336,1.178 4.006,0.729 3.825,0.488 3.59,0.261 3.306,0.054 3.022,-0.155 2.58,-0.424 1.982,-0.749 L 0.261,-1.691 c -0.204,-0.112 -0.361,-0.19 -0.466,-0.23 -0.109,-0.04 -0.228,-0.065 -0.361,-0.075 -0.343,-0.004 -0.61,0.133 -0.801,0.409 -0.076,0.116 -0.138,0.247 -0.181,0.399 -0.045,0.153 -0.087,0.389 -0.126,0.706 l -1.105,7.886 c -0.056,0.429 -0.057,0.736 -0.009,0.923 0.05,0.186 0.176,0.335 0.38,0.446 0.196,0.11 0.404,0.144 0.615,0.1 C -1.58,8.831 -1.418,8.727 -1.304,8.562 -1.215,8.432 -1.14,8.165 -1.08,7.751 L 0,0 z"
           id="path3689"
           style="fill:#ffffff;fill-opacity:1;fill-rule:nonzero;stroke:none" />
      </g>
      <g
         transform="translate(198.4281,270.4429)"
         id="g3691">
        <path
           d="M 0,0 C 0.055,0.037 0.111,0.072 0.172,0.107 0.641,0.361 1.091,0.462 1.526,0.406 1.96,0.349 2.292,0.15 2.531,-0.195 2.724,-0.472 2.815,-0.793 2.807,-1.157 2.799,-1.521 2.693,-2.041 2.492,-2.717 L 2.213,-3.645 C 2.06,-4.125 2.04,-4.444 2.153,-4.609 c 0.069,-0.099 0.159,-0.154 0.279,-0.166 0.119,-0.013 0.242,0.016 0.373,0.086 0.265,0.146 0.579,0.45 0.948,0.912 0.364,0.462 0.694,0.961 0.987,1.505 0.172,0.306 0.286,0.498 0.346,0.581 0.062,0.082 0.139,0.15 0.236,0.202 0.156,0.087 0.322,0.108 0.497,0.067 C 5.993,-1.467 6.132,-1.562 6.232,-1.71 6.348,-1.875 6.379,-2.075 6.327,-2.317 6.274,-2.557 6.129,-2.886 5.89,-3.307 5.511,-3.968 5.108,-4.514 4.692,-4.943 4.279,-5.37 3.818,-5.723 3.316,-5.999 2.748,-6.308 2.226,-6.437 1.74,-6.382 1.257,-6.331 0.877,-6.107 0.602,-5.712 0.356,-5.354 0.278,-4.9 0.374,-4.353 c 0.089,0.415 0.252,0.996 0.489,1.742 0.175,0.524 0.271,0.851 0.291,0.974 0.019,0.123 -0.004,0.234 -0.073,0.332 -0.082,0.118 -0.19,0.171 -0.324,0.161 C 0.624,-1.152 0.435,-1.222 0.188,-1.349 0.24,-1.661 0.24,-1.901 0.185,-2.073 c -0.051,-0.17 -0.17,-0.303 -0.35,-0.402 -0.187,-0.101 -0.379,-0.134 -0.57,-0.096 -0.195,0.039 -0.349,0.139 -0.465,0.305 -0.082,0.117 -0.15,0.363 -0.204,0.735 l -0.163,1.213 c -0.056,0.418 -0.06,0.706 -0.017,0.866 0.045,0.163 0.164,0.294 0.354,0.4 0.181,0.101 0.37,0.133 0.565,0.098 0.193,-0.036 0.348,-0.134 0.463,-0.298 0.079,-0.118 0.146,-0.346 0.189,-0.68 L 0,0 z"
           id="path3693"
           style="fill:#ffffff;fill-opacity:1;fill-rule:nonzero;stroke:none" />
      </g>
      <g
         transform="translate(203.8598,269.5877)"
         id="g3695">
        <path
           d="m 0,0 c -0.347,0.185 -0.607,0.405 -0.785,0.661 -0.479,0.692 -0.377,1.533 0.309,2.523 0.223,0.32 0.45,0.609 0.681,0.866 0.231,0.256 0.408,0.417 0.533,0.487 0.178,0.098 0.366,0.13 0.558,0.095 C 1.488,4.595 1.64,4.497 1.75,4.339 1.868,4.169 1.885,3.987 1.801,3.794 1.739,3.681 1.543,3.412 1.218,2.985 L 0.79,2.435 C 0.613,2.195 0.505,2 0.467,1.846 0.431,1.69 0.458,1.55 0.544,1.421 0.604,1.34 0.694,1.255 0.824,1.173 1.23,1.733 1.527,2.064 1.714,2.168 1.866,2.25 2.038,2.271 2.23,2.228 2.423,2.185 2.574,2.089 2.676,1.941 2.769,1.806 2.804,1.669 2.782,1.526 2.76,1.384 2.674,1.218 2.524,1.03 2.457,0.937 2.327,0.767 2.14,0.524 L 1.59,-0.201 C 1.366,-0.501 1.223,-0.74 1.156,-0.921 1.092,-1.101 1.103,-1.255 1.193,-1.384 1.325,-1.573 1.534,-1.589 1.822,-1.432 2.178,-1.237 2.584,-0.88 3.039,-0.362 3.495,0.156 3.898,0.721 4.251,1.339 4.492,1.776 4.689,2.033 4.835,2.113 4.999,2.203 5.167,2.23 5.342,2.19 5.517,2.152 5.655,2.058 5.76,1.91 5.894,1.715 5.909,1.471 5.808,1.179 5.709,0.886 5.455,0.447 5.054,-0.142 4.614,-0.764 4.185,-1.273 3.77,-1.67 3.353,-2.067 2.915,-2.391 2.451,-2.644 1.898,-2.948 1.385,-3.069 0.91,-3.008 0.432,-2.946 0.056,-2.711 -0.226,-2.306 -0.664,-1.67 -0.591,-0.903 0,0"
           id="path3697"
           style="fill:#ffffff;fill-opacity:1;fill-rule:nonzero;stroke:none" />
      </g>
      <g
         transform="translate(212.4508,271.2235)"
         id="g3699">
        <path
           d="m 0,0 c -0.192,-0.466 -0.38,-0.812 -0.561,-1.039 -0.181,-0.225 -0.419,-0.419 -0.705,-0.576 -0.499,-0.273 -0.991,-0.345 -1.478,-0.221 -0.487,0.126 -0.897,0.428 -1.226,0.903 -0.432,0.621 -0.619,1.386 -0.571,2.299 0.05,0.908 0.337,1.796 0.86,2.662 0.17,0.297 0.389,0.608 0.657,0.933 0.272,0.325 0.553,0.616 0.847,0.876 0.296,0.262 0.566,0.457 0.811,0.59 0.512,0.282 0.896,0.238 1.152,-0.132 C -0.096,6.126 -0.071,5.963 -0.135,5.803 -0.203,5.644 -0.377,5.451 -0.661,5.222 -1.13,4.849 -1.506,4.48 -1.794,4.114 -2.081,3.746 -2.321,3.341 -2.518,2.894 -2.766,2.34 -2.901,1.804 -2.915,1.282 c -0.019,-0.52 0.073,-0.928 0.275,-1.22 0.112,-0.161 0.239,-0.264 0.388,-0.313 0.147,-0.05 0.292,-0.036 0.432,0.042 0.203,0.109 0.362,0.298 0.482,0.563 0.114,0.265 0.215,0.649 0.295,1.152 l -0.043,0.211 c -0.07,0.406 -0.107,0.623 -0.101,0.655 l -0.089,0.651 c -0.057,0.406 -0.06,0.709 -0.006,0.909 0.055,0.197 0.181,0.352 0.387,0.464 C -0.715,4.494 -0.533,4.53 -0.35,4.5 -0.165,4.47 -0.022,4.384 0.077,4.24 0.17,4.106 0.24,3.858 0.289,3.496 L 0.376,2.814 C 0.389,2.713 0.402,2.614 0.414,2.512 0.43,2.408 0.44,2.302 0.45,2.196 0.487,1.864 0.542,1.646 0.613,1.544 0.74,1.358 0.902,1.322 1.101,1.429 1.224,1.497 1.346,1.636 1.462,1.844 1.58,2.053 1.759,2.442 2.002,3.011 2.147,3.346 2.245,3.559 2.301,3.652 2.356,3.748 2.436,3.821 2.537,3.878 2.682,3.959 2.849,3.983 3.029,3.951 3.209,3.919 3.346,3.839 3.434,3.711 3.652,3.4 3.56,2.829 3.156,2.002 2.853,1.384 2.575,0.919 2.32,0.607 2.065,0.293 1.764,0.042 1.421,-0.146 0.867,-0.449 0.391,-0.4 0,0"
           id="path3701"
           style="fill:#ffffff;fill-opacity:1;fill-rule:nonzero;stroke:none" />
      </g>
      <g
         transform="translate(217.5223,279.1697)"
         id="g3703">
        <path
           d="m 0,0 c -0.446,-0.42 -0.806,-0.904 -1.087,-1.457 -0.283,-0.556 -0.446,-1.094 -0.489,-1.615 -0.044,-0.524 0.048,-0.947 0.275,-1.276 0.105,-0.153 0.238,-0.252 0.399,-0.298 0.157,-0.043 0.313,-0.021 0.467,0.061 0.169,0.093 0.329,0.285 0.485,0.573 0.155,0.29 0.278,0.623 0.377,1.002 L 0,0 z M -0.243,1.733 -0.651,4.7 c -0.054,0.415 -0.06,0.704 -0.016,0.865 0.044,0.164 0.16,0.296 0.354,0.4 C -0.126,6.07 0.062,6.102 0.255,6.066 0.447,6.029 0.602,5.928 0.714,5.766 0.797,5.648 0.862,5.399 0.918,5.018 L 1.91,-2.103 c 0.051,-0.353 0.128,-0.605 0.231,-0.754 0.042,-0.055 0.108,-0.094 0.198,-0.107 0.093,-0.017 0.175,-0.009 0.241,0.03 0.126,0.068 0.235,0.191 0.335,0.368 0.099,0.178 0.299,0.61 0.594,1.295 0.115,0.281 0.206,0.474 0.273,0.577 0.064,0.105 0.148,0.184 0.25,0.239 0.139,0.076 0.304,0.096 0.496,0.059 C 4.717,-0.433 4.856,-0.517 4.946,-0.645 5.041,-0.783 5.067,-0.99 5.02,-1.26 4.976,-1.532 4.852,-1.883 4.651,-2.311 4.358,-2.925 4.074,-3.397 3.801,-3.733 3.527,-4.071 3.227,-4.329 2.901,-4.509 2.646,-4.648 2.401,-4.707 2.166,-4.688 1.928,-4.667 1.689,-4.567 1.445,-4.383 1.103,-5.183 0.647,-5.74 0.069,-6.056 c -0.468,-0.257 -0.951,-0.32 -1.444,-0.192 -0.493,0.129 -0.902,0.426 -1.226,0.892 -0.447,0.646 -0.644,1.403 -0.59,2.27 0.054,0.865 0.337,1.728 0.857,2.582 0.516,0.857 1.214,1.602 2.091,2.237"
           id="path3705"
           style="fill:#ffffff;fill-opacity:1;fill-rule:nonzero;stroke:none" />
      </g>
      <g
         transform="translate(161.2369,263.421)"
         id="g3707">
        <path
           d="m 0,0 -8.059,-5.233 c 0,0 -1.472,-0.579 -1.942,-1.756 -0.584,-1.458 -14.037,-37.45 -14.037,-37.45 0,0 -0.55,-1.658 0.081,-2.471 0,0 1.096,-1.729 2.72,-1.926 l 50.15,-8.155 c 0,0 3.589,-0.837 6.16,1.53 l 2.879,3.545 L 0,0 z"
           id="path3709"
           style="fill:#faed23;fill-opacity:1;fill-rule:nonzero;stroke:none" />
      </g>
      <g
         transform="translate(145.8719,217.0936)"
         id="g3711">
        <path
           d="m 0,0 c -3.148,0.447 -4.326,4.132 -2.578,8.201 l 14.551,33.852 c 1.654,3.845 5.309,6.146 8.115,5.178 L 64.959,31.767 c 1.844,-0.635 2.361,-3.619 1.182,-6.689 L 55.823,-1.786 c -1.234,-3.21 -3.859,-5.591 -5.896,-5.302 L 0,0 z"
           id="path3713"
           style="fill:#fcf38e;fill-opacity:1;fill-rule:nonzero;stroke:none" />
      </g>
      <g
         transform="translate(175.8291,229.094)"
         id="g3715">
        <path
           d="m 0,0 c -5.021,-7.727 -19.969,-5.502 -24.435,0.256 -4.467,5.756 4.696,9.826 13.726,15.443 9.028,5.616 2.461,10.081 18.97,4.895 C 15.649,18.274 5.531,8.508 0,0"
           id="path3717"
           style="fill:#f0eada;fill-opacity:1;fill-rule:nonzero;stroke:none" />
      </g>
      <g
         transform="translate(196.2131,222.7012)"
         id="g3719">
        <path
           d="m 0,0 c -1.579,-2.959 -19.969,-5.503 -24.435,0.255 -4.466,5.757 4.696,9.827 13.726,15.444 9.028,5.616 13.888,9.292 18.972,4.895 C 13.893,15.723 4.744,8.881 0,0"
           id="path3721"
           style="fill:#f0eada;fill-opacity:1;fill-rule:nonzero;stroke:none" />
      </g>
      <g
         transform="translate(162.935,241.6789)"
         id="g3723">
        <path
           d="m 0,0 c -0.123,-0.496 -0.55,-0.702 -1.057,-0.601 -0.456,0.091 -0.62,0.323 -0.62,0.736 0.015,0.273 -0.484,0.603 -1.234,0.752 -2.02,0.404 -4.202,-2.166 -4.658,-4.006 -0.466,-1.868 0.384,-2.926 1.395,-3.128 0.994,-0.199 2.228,0.154 2.846,0.643 0.128,0.373 0.388,0.797 1.072,0.659 0.588,-0.116 0.754,-0.548 0.697,-0.782 -0.061,-0.233 -0.192,-0.483 -0.682,-0.814 -0.889,-0.543 -2.741,-1.247 -4.45,-0.89 -2.006,0.4 -3.118,1.986 -2.439,4.716 0.545,2.191 3.37,5.427 6.437,4.816 C -0.868,1.737 0.175,0.702 0,0"
           id="path3725"
           style="fill:#04a8ad;fill-opacity:1;fill-rule:nonzero;stroke:none" />
      </g>
      <g
         transform="translate(167.7138,236.7415)"
         id="g3727">
        <path
           d="m 0,0 c 0.128,0.511 0.079,0.659 -0.198,0.714 -0.457,0.091 -1.521,0.012 -2.676,-0.845 l -0.667,-2.687 c 0.055,-0.118 0.073,-0.26 0.027,-0.434 -0.089,-0.366 -0.72,-0.486 -1.24,-0.382 -0.489,0.098 -0.629,0.294 -0.554,0.6 0.059,0.235 0.131,0.389 0.235,0.46 l 1.882,7.563 c 0.017,0.135 -0.074,0.322 -0.043,0.453 0.12,0.482 0.627,0.657 1.213,0.54 0.262,-0.053 0.71,-0.448 0.619,-0.813 C -1.437,5.023 -1.558,4.878 -1.658,4.76 L -2.513,1.314 -2.482,1.307 C -1.227,1.946 0.026,2.171 0.892,1.999 1.756,1.826 1.916,1.304 1.673,0.326 L 0.671,-3.705 C 0.664,-3.794 0.75,-3.935 0.722,-4.052 0.638,-4.387 0.057,-4.593 -0.401,-4.503 c -0.505,0.102 -0.801,0.36 -0.724,0.667 0.04,0.16 0.123,0.358 0.282,0.449 L 0,0 z"
           id="path3729"
           style="fill:#04a8ad;fill-opacity:1;fill-rule:nonzero;stroke:none" />
      </g>
      <g
         transform="translate(173.9821,239.9203)"
         id="g3731">
        <path
           d="m 0,0 c -0.215,-0.861 -0.811,-1.262 -1.316,-1.162 -0.524,0.103 -0.662,0.438 -0.561,0.846 0.186,0.746 0.689,1.258 1.309,1.134 C -0.094,0.724 0.103,0.424 0,0 m -1.013,-3.245 -1.039,-4.176 c 0.066,-0.074 0.153,-0.276 0.11,-0.451 -0.124,-0.497 -0.864,-0.58 -1.368,-0.479 -0.424,0.085 -0.668,0.409 -0.562,0.832 0.064,0.264 0.234,0.398 0.318,0.459 l 1.009,4.058 c -0.077,0.108 -0.086,0.278 -0.053,0.409 0.103,0.408 0.245,0.841 1.238,0.642 0.375,-0.075 0.722,-0.542 0.63,-0.845 -0.064,-0.248 -0.23,-0.369 -0.283,-0.449"
           id="path3733"
           style="fill:#04a8ad;fill-opacity:1;fill-rule:nonzero;stroke:none" />
      </g>
      <g
         transform="translate(180.9216,235.2108)"
         id="g3735">
        <path
           d="m 0,0 c -0.101,-0.408 -0.471,-0.656 -1.123,-0.527 -0.359,0.072 -0.392,0.278 -0.431,0.47 C -1.609,0.137 -1.675,0.35 -2.231,0.461 -2.8,0.574 -3.356,0.409 -3.944,0.036 c -0.679,-0.387 -1.471,-1.102 -1.72,-2.093 -0.221,-0.891 0.152,-1.518 1.132,-1.713 0.375,-0.075 0.75,-0.012 1.12,0.099 0.404,0.117 0.878,0.361 1.181,0.683 0.194,0.375 0.367,0.648 0.887,0.543 0.62,-0.122 0.701,-0.554 0.647,-0.772 -0.041,-0.161 -0.759,-0.984 -1.837,-1.397 -0.823,-0.356 -1.636,-0.454 -2.646,-0.253 -1.616,0.323 -2.38,1.517 -2.038,2.889 0.419,1.679 1.329,2.325 2.515,3.023 0.572,0.376 1.84,0.722 2.719,0.546 C -0.728,1.34 0.156,0.627 0,0"
           id="path3737"
           style="fill:#04a8ad;fill-opacity:1;fill-rule:nonzero;stroke:none" />
      </g>
      <g
         transform="translate(183.7325,233.3016)"
         id="g3739">
        <path
           d="M 0,0 0.028,-0.021 C 0.629,0.396 1.015,0.641 1.377,0.86 L 3.181,1.849 C 3.26,2.093 3.575,2.261 3.916,2.192 4.488,2.078 4.677,1.672 4.586,1.307 4.504,0.972 4.142,0.829 3.899,0.878 l -2.847,-1.67 1.912,-2.91 C 3.28,-3.734 3.524,-3.997 3.447,-4.305 3.344,-4.728 2.87,-4.971 2.234,-4.843 1.958,-4.789 1.803,-4.589 1.77,-4.308 L 0.494,-2.351 C 0.31,-2.054 0.074,-1.7 -0.24,-1.102 L -0.275,-1.109 -0.728,-2.92 c 0.013,-0.156 0.101,-0.357 0.06,-0.517 -0.126,-0.511 -0.49,-0.669 -1.144,-0.539 -0.391,0.078 -0.864,0.311 -0.707,0.938 0.026,0.103 0.092,0.304 0.269,0.392 l 1.836,7.387 C -0.48,4.816 -0.543,5.043 -0.506,5.189 -0.423,5.525 -0.189,5.846 0.625,5.684 1.246,5.56 1.46,5.319 1.344,4.851 1.314,4.734 1.237,4.565 1.118,4.498 L 0,0 z"
           id="path3741"
           style="fill:#04a8ad;fill-opacity:1;fill-rule:nonzero;stroke:none" />
      </g>
      <g
         transform="translate(190.6177,231.607)"
         id="g3743">
        <path
           d="M 0,0 C 2.999,-0.124 3.462,0.014 3.512,0.218 3.6,0.569 3.421,1.019 2.702,1.162 1.774,1.348 0.722,0.837 0,0 M 4.979,-0.013 C 4.815,-0.669 4.16,-1.167 0.228,-1.011 l -0.778,0.032 c -0.141,-0.217 -0.239,-0.473 -0.31,-0.765 -0.183,-0.731 0.169,-1.107 0.871,-1.246 1.125,-0.225 2.214,0.17 2.607,0.506 0.035,0.346 0.436,0.587 0.975,0.48 0.602,-0.121 0.646,-0.497 0.575,-0.788 -0.103,-0.409 -1.946,-1.835 -4.622,-1.302 -1.384,0.276 -2.311,1.028 -1.936,2.533 0.674,2.715 3.298,4.246 5.434,3.819 C 4.887,1.89 5.12,0.557 4.979,-0.013"
           id="path3745"
           style="fill:#04a8ad;fill-opacity:1;fill-rule:nonzero;stroke:none" />
      </g>
      <g
         transform="translate(197.6781,227.1033)"
         id="g3747">
        <path
           d="m 0,0 c 0.057,-0.119 0.066,-0.214 0.026,-0.374 -0.092,-0.38 -0.701,-0.412 -1.14,-0.323 -0.407,0.081 -0.78,0.308 -0.693,0.658 0.044,0.175 0.121,0.282 0.298,0.37 l 0.566,2.278 c -0.112,0.099 -0.182,0.296 -0.124,0.53 0.058,0.234 0.201,0.467 0.455,0.799 L -0.32,5.105 C -0.37,5.253 -0.391,5.38 -0.344,5.57 -0.27,5.862 0.312,6.068 0.816,5.967 1.437,5.844 1.565,5.603 1.489,5.295 1.439,5.092 1.304,4.965 1.213,4.876 L 1.07,4.308 C 3.044,5.216 3.85,5.363 4.437,5.245 5.024,5.128 5.536,4.505 5.42,4.037 L 4.236,-0.723 C 4.246,-0.816 4.29,-0.917 4.239,-1.122 4.127,-1.575 3.76,-1.67 3.158,-1.55 c -0.554,0.111 -0.782,0.371 -0.694,0.721 0.04,0.161 0.132,0.249 0.242,0.351 L 3.722,3.61 C 3.747,3.713 3.531,3.939 3.416,3.961 3.252,3.994 2.602,3.924 0.763,3.066 L 0,0 z"
           id="path3749"
           style="fill:#04a8ad;fill-opacity:1;fill-rule:nonzero;stroke:none" />
      </g>
      <g
         transform="translate(172.1666,221.3484)"
         id="g3751">
        <path
           d="m 0,0 c -0.34,-2.228 -6.492,-3.312 -13.744,-2.423 -7.247,0.89 -12.847,3.415 -12.507,5.644 0.34,2.226 6.494,3.311 13.743,2.422 C -5.259,4.754 0.342,2.226 0,0"
           id="path3753"
           style="fill:#b3b4b4;fill-opacity:1;fill-rule:nonzero;stroke:none" />
      </g>
      <g
         transform="translate(164.4578,188.0257)"
         id="g3755">
        <path
           d="M 0,0 7.709,33.323 C 7.369,31.094 1.216,30.011 -6.036,30.9 c -7.246,0.89 -12.846,3.415 -12.506,5.643 l -0.407,-8.549 -0.619,-12.945 0.426,-10.862 C -15.237,1.876 -6.487,-0.158 0,0"
           id="path3757"
           style="fill:#ec2127;fill-opacity:1;fill-rule:nonzero;stroke:none" />
      </g>
      <g
         transform="translate(144.0896,202.1201)"
         id="g3759">
        <path
           d="M 0,0 1.26,17.136 C 2.52,15.63 21.977,12.403 23.733,12.316 L 22.206,0.217 C 13.841,-0.394 4.565,-2.727 0,0"
           id="path3761"
           style="fill:#e6e6e6;fill-opacity:1;fill-rule:nonzero;stroke:none" />
      </g>
      <g
         transform="translate(168.781,221.8996)"
         id="g3763">
        <path
           d="m 0,0 c -0.205,-1.334 -4.567,-1.901 -9.741,-1.266 -5.175,0.635 -9.206,2.231 -9.003,3.566 0.205,1.335 4.567,1.903 9.742,1.268 C -3.826,2.933 0.205,1.335 0,0"
           id="path3765"
           style="fill:#f2eeea;fill-opacity:1;fill-rule:nonzero;stroke:none" />
      </g>
      <g
         transform="translate(148.4005,213.7938)"
         id="g3767">
        <path
           d="m 0,0 0.17,0.005 -0.263,-1.58 -0.181,-0.001 c 0.032,0.434 -0.052,0.77 -0.252,1.009 -0.198,0.239 -0.476,0.353 -0.831,0.344 -0.311,-0.009 -0.576,-0.105 -0.792,-0.287 -0.213,-0.182 -0.339,-0.42 -0.387,-0.712 -0.042,-0.274 -0.005,-0.519 0.114,-0.742 0.118,-0.224 0.405,-0.514 0.866,-0.873 0.547,-0.423 0.902,-0.793 1.069,-1.109 0.165,-0.317 0.212,-0.675 0.145,-1.072 -0.086,-0.509 -0.324,-0.933 -0.706,-1.27 -0.38,-0.33 -0.789,-0.479 -1.228,-0.445 -0.251,0.02 -0.557,0.121 -0.917,0.305 -0.146,0.074 -0.24,0.113 -0.282,0.115 -0.09,0.008 -0.169,-0.066 -0.242,-0.219 l -0.157,0.011 0.255,1.662 0.16,-0.008 C -3.528,-5.328 -3.454,-5.704 -3.24,-6 c 0.217,-0.296 0.503,-0.456 0.855,-0.482 0.34,-0.025 0.631,0.059 0.87,0.248 0.245,0.193 0.397,0.462 0.454,0.809 0.043,0.261 -0.005,0.514 -0.138,0.76 -0.134,0.246 -0.445,0.566 -0.928,0.958 -0.39,0.319 -0.638,0.568 -0.756,0.746 -0.116,0.179 -0.191,0.375 -0.228,0.587 -0.035,0.212 -0.035,0.444 0.006,0.698 0.075,0.492 0.275,0.893 0.603,1.209 0.332,0.317 0.728,0.484 1.197,0.498 0.257,0.007 0.532,-0.044 0.823,-0.153 0.138,-0.049 0.239,-0.074 0.294,-0.072 0.048,0.002 0.083,0.014 0.104,0.037 C -0.063,-0.134 -0.035,-0.082 0,0"
           id="path3769"
           style="fill:#ed1d24;fill-opacity:1;fill-rule:nonzero;stroke:none" />
      </g>
      <g
         transform="translate(152.2961,208.8967)"
         id="g3771">
        <path
           d="M 0,0 C 0.118,0.615 0.083,1.117 -0.1,1.502 -0.282,1.886 -0.589,2.081 -1.017,2.087 -1.439,2.092 -1.802,1.916 -2.105,1.558 -2.406,1.206 -2.606,0.726 -2.712,0.119 c -0.106,-0.592 -0.074,-1.069 0.097,-1.433 0.17,-0.367 0.46,-0.567 0.875,-0.597 0.418,-0.03 0.785,0.127 1.097,0.474 C -0.328,-1.087 -0.114,-0.607 0,0 M 0.879,-0.035 C 0.754,-0.689 0.431,-1.218 -0.088,-1.62 -0.596,-2.013 -1.162,-2.187 -1.78,-2.14 c -0.612,0.049 -1.077,0.291 -1.401,0.728 -0.32,0.433 -0.43,0.954 -0.325,1.568 0.108,0.625 0.393,1.141 0.865,1.551 0.479,0.415 1.034,0.623 1.667,0.617 C -0.328,2.318 0.175,2.091 0.531,1.645 0.89,1.193 1.008,0.632 0.879,-0.035"
           id="path3773"
           style="fill:#ed1d24;fill-opacity:1;fill-rule:nonzero;stroke:none" />
      </g>
      <g
         transform="translate(158.9413,211.1415)"
         id="g3775">
        <path
           d="m 0,0 0.237,-0.004 -0.855,-3.949 c -0.057,-0.255 -0.036,-0.432 0.059,-0.528 0.096,-0.098 0.314,-0.159 0.652,-0.183 l -0.049,-0.217 -1.791,0.044 0.175,0.834 -0.024,0.001 c -0.601,-0.56 -1.204,-0.811 -1.816,-0.765 -0.433,0.033 -0.754,0.201 -0.969,0.5 -0.214,0.299 -0.278,0.659 -0.195,1.084 l 0.451,2.277 c 0.043,0.232 0.019,0.392 -0.081,0.476 -0.098,0.085 -0.298,0.129 -0.594,0.134 l 0.04,0.208 1.476,0.122 0.221,-0.002 -0.651,-3.229 c -0.062,-0.31 -0.02,-0.56 0.13,-0.751 0.148,-0.193 0.381,-0.299 0.698,-0.322 0.441,-0.03 0.909,0.189 1.4,0.662 l 0.53,2.504 c 0.07,0.324 0.061,0.528 -0.024,0.611 -0.089,0.086 -0.342,0.135 -0.76,0.15 L -1.695,-0.126 0,0 z"
           id="path3777"
           style="fill:#ed1d24;fill-opacity:1;fill-rule:nonzero;stroke:none" />
      </g>
      <g
         transform="translate(162.0553,209.9026)"
         id="g3779">
        <path
           d="m 0,0 -0.703,-3.047 c 0.328,-0.425 0.773,-0.661 1.353,-0.703 0.492,-0.035 0.959,0.14 1.402,0.533 0.445,0.394 0.75,0.906 0.903,1.532 C 3.122,-1 3.085,-0.43 2.844,0.026 2.598,0.48 2.21,0.711 1.68,0.719 1.149,0.729 0.589,0.486 0,0 M 0.279,1.204 0.086,0.368 C 0.505,0.666 0.875,0.878 1.195,1.003 1.517,1.127 1.863,1.188 2.232,1.183 2.986,1.176 3.559,0.913 3.943,0.392 4.328,-0.133 4.427,-0.788 4.232,-1.561 4.034,-2.355 3.587,-2.991 2.907,-3.47 2.239,-3.941 1.507,-4.142 0.717,-4.082 0.179,-4.039 -0.32,-3.809 -0.781,-3.391 l -0.716,-3.101 c -0.073,-0.316 -0.061,-0.532 0.037,-0.645 0.096,-0.114 0.316,-0.192 0.652,-0.232 l -0.052,-0.219 -2.711,0.332 0.048,0.212 c 0.341,-0.041 0.579,-0.025 0.719,0.048 0.138,0.076 0.237,0.237 0.293,0.485 l 1.489,6.583 C -0.95,0.4 -0.955,0.611 -1.043,0.703 -1.129,0.795 -1.372,0.842 -1.772,0.849 l 0.051,0.228 1.737,0.13 0.263,-0.003 z"
           id="path3781"
           style="fill:#ed1d24;fill-opacity:1;fill-rule:nonzero;stroke:none" />
      </g>
      <g
         transform="translate(234.0422,231.4939)"
         id="g3783">
        <path
           d="m 0,0 c -1.311,-3.546 -2.632,-7.136 -2.693,-7.474 l -74.593,-41.468 -6.624,-3.681 -6.57,1.214 0.255,8.99 L 2.636,7.172 C 2.501,6.731 1.254,3.384 0,0"
           id="path3785"
           style="fill:#9bafba;fill-opacity:1;fill-rule:nonzero;stroke:none" />
      </g>
      <g
         transform="translate(116.0732,234.7894)"
         id="g3787">
        <path
           d="m 0,0 5.444,26.836 -23.2,6.402 L -16.218,7.524 0,0 z"
           id="path3789"
           style="fill:#f7bd5b;fill-opacity:1;fill-rule:nonzero;stroke:none" />
      </g>
      <g
         transform="translate(164.52,251.6194)"
         id="g3791">
        <path
           d="M 0,0 -48.447,-16.83 -43.002,10.006 6.212,22.935 0,0 z"
           id="path3793"
           style="fill:#faa74a;fill-opacity:1;fill-rule:nonzero;stroke:none" />
      </g>
      <g
         transform="translate(154.9212,278.6301)"
         id="g3795">
        <path
           d="M 0,0 -56.604,-10.603 -33.403,-17.004 15.811,-4.076 0,0 z"
           id="path3797"
           style="fill:#f9c97b;fill-opacity:1;fill-rule:nonzero;stroke:none" />
      </g>
      <g
         transform="translate(133.9038,259.8995)"
         id="g3799">
        <path
           d="m 0,0 -0.093,-0.03 -0.495,-0.226 -0.318,-0.189 -0.669,-0.472 -0.463,-0.413 -0.514,-0.559 -0.138,-0.282 -0.363,-0.427 -0.204,-0.476 -0.24,-0.519 -0.165,-0.481 -0.127,-0.558 -0.234,-0.713 0.046,-0.614 -0.042,-0.136 -10e-4,-0.473 0.04,-0.063 0.014,-0.693 0.094,-0.611 0.009,-0.04 0.236,-0.733 0.163,-0.446 0.654,-1.109 0.37,-0.387 0.359,-0.239 0.195,-0.189 0.428,-0.226 0.296,-0.156 0.436,-0.083 -0.038,0.149 -0.098,0.056 -0.191,0.403 -0.122,0.284 -0.252,0.789 -0.318,0.96 -0.104,0.866 -0.047,0.051 -0.056,0.309 -0.031,0.777 -0.032,0.543 0.022,0.338 -0.003,0.887 0.135,0.813 0.175,0.825 0.093,0.237 0.233,0.669 0.194,0.456 0.255,0.528 0.118,0.256 0.194,0.35 0.377,0.557 L 0.081,0.039 0,0 z M 1.86,2.222 1.96,2.137 2.091,2.089 2.199,1.968 1.901,1.631 1.486,1.142 1.552,1.099 1.747,1.112 1.781,1.109 2.379,1.113 3.178,1.027 3.317,0.952 3.441,0.969 4.004,0.855 4.788,0.621 5.623,0.138 5.915,-0.125 6.286,-0.669 6.507,-1.243 6.641,-2.093 6.535,-2.541 6.523,-2.716 6.432,-2.962 6.386,-3.205 6.358,-3.26 6.105,-3.673 6.095,-3.754 5.8,-4.269 5.26,-4.804 4.569,-5.334 3.985,-5.652 3.789,-5.734 3.251,-5.93 3.039,-5.937 2.851,-5.988 2.426,-6.002 l -0.527,0.111 -0.358,0.147 -0.326,0.147 -0.509,0.576 -0.201,0.323 -0.094,0.491 0.029,0.41 -0.05,0.227 0.289,0.551 0.31,0.373 0.124,0.169 0.504,0.337 0.005,0.06 0.33,0.098 0.063,0.055 0.224,0.033 0.322,-0.09 L 3.092,-2.237 3.688,-2.62 3.702,-2.674 3.681,-2.718 3.456,-2.647 3.273,-2.624 2.92,-2.701 2.848,-2.756 2.705,-2.753 2.632,-2.898 2.5,-2.902 2.31,-3.106 2.083,-3.3 2.045,-3.369 1.873,-3.431 1.561,-3.907 1.552,-4.169 1.506,-4.462 1.502,-4.916 l 0.256,-0.447 0.051,-0.068 0.404,-0.234 0.219,-0.022 0.544,0.025 0.478,0.177 0.488,0.199 0.778,0.516 0.339,0.345 0.614,0.806 0.202,0.429 0.236,0.859 0.039,0.432 -0.063,0.557 -0.219,0.45 L 5.716,-0.615 5.324,-0.173 4.54,0.301 3.933,0.498 3.459,0.546 2.598,0.625 1.588,0.482 1.435,0.44 1.32,0.453 0.844,0.32 0.7,0.24 0.505,-0.035 -0.082,-0.93 -0.404,-1.477 -0.435,-1.573 -0.622,-1.864 -0.677,-2.047 -0.979,-2.667 -1,-2.883 l -0.07,-0.096 -0.065,-0.51 -0.088,-0.155 -0.081,-0.232 0.026,-0.144 -0.094,-0.086 0.025,-0.238 -0.063,-0.576 -0.064,-0.665 0.002,-0.556 -0.066,-0.202 0.017,-0.204 0.018,-0.724 0.111,-0.617 0.027,-0.191 -0.009,-0.108 0.132,-0.699 0.287,-1.061 0.042,-0.029 0.254,-0.605 0.232,-0.711 0.177,-0.17 0.07,-0.215 0.18,-0.147 0.848,-0.121 1.217,0.063 1.268,0.348 0.605,0.232 0.956,0.53 0.957,0.699 0.343,0.352 0.585,0.816 0.149,0.399 0.107,0.433 -0.045,0.704 -0.054,0.114 -0.216,0.275 -0.427,0.227 0.15,0.081 0.046,0.024 0.452,-0.01 L 7.325,-6.775 7.539,-6.971 7.75,-7.235 7.803,-7.924 7.705,-7.993 7.778,-8.061 7.741,-8.193 7.572,-8.744 7.229,-9.362 6.825,-9.831 l -0.709,-0.65 -0.175,-0.127 -0.555,-0.371 -0.508,-0.317 -0.541,-0.267 -0.392,-0.197 -1.722,-0.454 -0.504,-0.107 -0.997,-0.06 -0.217,0.007 0.301,-0.419 0.146,-0.234 0.135,-0.108 0.277,-0.275 -0.022,-0.103 -0.108,-0.089 -0.182,0.057 -0.087,0.006 -0.163,0.119 -0.383,0.407 -0.13,0.13 -0.259,0.338 -0.2,0.217 -1.038,0.281 -0.583,0.212 -0.813,0.369 -0.55,0.345 -0.505,0.457 -0.55,0.588 -0.1,0.047 -0.562,0.781 -0.142,0.304 -0.464,1.099 -0.182,0.625 0.013,0.057 0.01,-0.041 -0.138,0.699 -0.028,0.617 0.086,0.465 -0.016,0.313 0.084,0.512 0.067,0.08 -0.036,0.095 0.204,0.673 0.163,0.38 0.262,0.526 0.203,0.354 0.178,0.357 0.321,0.399 0.679,0.716 0.546,0.47 0.491,0.316 0.375,0.219 0.157,0.113 0.606,0.277 0.485,0.25 0.563,0.139 0.553,0.164 0.621,0.134 0.099,0.124 0.138,0.231 0.095,0.021 0.194,0.174 0.028,0.14 0.118,0.043 0.22,0.36 0.178,0.065 z"
           id="path3801"
           style="fill:#be1e2d;fill-opacity:1;fill-rule:nonzero;stroke:none" />
      </g>
      <g
         transform="translate(142.7473,261.3742)"
         id="g3803">
        <path
           d="M 0,0 0.366,0.027 0.95,-0.032 1.087,-0.203 1.113,-0.799 1.135,-0.975 1.082,-1.096 1.094,-1.378 1.052,-1.436 1.132,-1.58 1.059,-1.663 l 0.015,-0.125 0.078,0 L 1.104,-1.855 1.141,-1.92 1.12,-2.117 1.063,-2.16 1.139,-2.216 1.102,-2.327 1.134,-2.54 1.089,-2.663 1.136,-2.994 1.084,-3.025 1.159,-3.073 1.108,-3.141 1.129,-3.211 1.056,-3.304 1.087,-3.52 1.068,-3.562 1.061,-4.193 0.947,-4.316 1.063,-4.333 1.026,-4.662 1.065,-4.654 1.055,-4.797 1.012,-4.827 1.01,-5.13 0.99,-5.202 1.056,-5.29 0.954,-5.496 1.02,-5.555 0.909,-5.662 0.956,-5.688 1.039,-5.693 0.984,-5.747 1.021,-5.803 0.965,-5.894 0.982,-5.958 0.934,-6.037 1.003,-6.314 0.931,-6.343 0.974,-6.532 0.896,-6.613 l 0.018,-0.35 0.129,0.084 -0.068,0.057 0.05,0.043 0.178,0.473 0.067,0.047 0.135,0.475 0.162,0.244 0.115,0.051 -0.055,0.05 0.226,0.458 0.06,0.205 0.066,0.045 0.01,0.039 0.451,0.718 0.123,0.068 0.301,0.079 0.273,-0.04 L 3.435,-4.131 3.531,-4.559 3.505,-4.641 3.558,-4.72 3.473,-4.892 3.546,-4.946 3.507,-5.078 3.562,-5.064 3.537,-5.379 3.468,-5.444 3.592,-5.57 3.462,-5.793 3.531,-5.857 3.516,-5.975 3.575,-6.081 3.451,-6.115 3.574,-6.28 3.48,-6.39 3.54,-6.393 3.447,-6.513 3.485,-6.739 3.567,-6.725 3.557,-6.823 3.512,-6.836 3.472,-6.903 3.614,-7.052 3.499,-7.133 3.68,-7.824 l 0.052,-0.04 0.077,-0.131 0.096,-0.028 0.313,0.197 0.249,0.285 0.058,0.168 0.091,-0.049 -0.182,-0.406 -0.152,-0.283 -0.288,-0.22 -0.253,-0.076 -0.342,0.05 -0.046,0.063 -0.177,0.025 -0.032,0.143 -0.253,0.232 0.042,0.09 -0.025,0.021 -0.084,-0.023 0.008,0.154 -0.125,0.432 0.06,0.027 -0.127,0.06 0.018,0.186 -0.046,0.395 -0.066,-0.009 0.087,0.112 -0.016,0.469 -0.093,0.079 0.138,0.102 0.018,0.176 -0.067,0.029 -0.053,0.388 0.072,0.162 0,0.506 -0.07,0.073 L 2.47,-4.489 2.153,-5.024 1.755,-5.782 1.427,-6.561 1.102,-7.625 0.947,-8.339 0.826,-9.334 l -0.092,-0.74 -0.05,-0.263 -0.154,-0.155 -0.19,0.038 -0.043,-0.033 -0.119,0.093 -0.182,-0.026 -0.053,0.075 0.042,0.072 -0.042,0.195 0.016,0.501 -0.017,0.173 0.044,0.142 0.074,0.072 -0.001,0.483 -0.048,0.21 0.09,0.487 -0.01,0.044 0.09,0.223 -0.093,0.002 -0.026,0.09 0.075,0.177 -0.063,0.187 0.034,0.173 0.071,0.04 -0.082,0.364 0.042,0.138 -0.052,0.187 0.044,0.061 -0.022,0.368 0.084,0.283 -0.105,0.116 0.046,0.164 -0.078,0.093 0.088,0.197 0.027,0.112 -0.083,0.015 0.063,0.169 -0.062,0.145 0.061,0.11 -0.046,0.302 -0.005,0.8 0.053,0.06 -0.074,0.047 0.078,0.188 -0.073,0.04 -0.009,0.492 0.039,0.773 -0.04,1.18 0.002,0.439 -0.035,0.022 -0.429,-0.298 -0.147,-0.154 -0.081,-0.018 -0.688,-0.64 0.076,-0.122 0.204,-0.363 -0.193,0.001 -0.471,0.444 -0.09,0.212 0.071,0.184 0.203,0.063 0.088,0.086 0.158,-0.02 0.059,0.041 -0.029,0.066 0.225,0.099 0.103,0.087 0.307,0.125 0.629,0.36 L 0,0 z"
           id="path3805"
           style="fill:#be1e2d;fill-opacity:1;fill-rule:nonzero;stroke:none" />
      </g>
      <g
         transform="translate(149.926,257.6389)"
         id="g3807">
        <path
           d="m 0,0 -0.256,-0.151 -0.325,-0.316 -0.221,-0.349 -0.282,-0.574 -0.15,-0.827 0.031,-0.037 0.054,-0.02 0.39,0.222 0.51,0.466 0.463,0.685 0.134,0.434 0.005,0.228 L 0.249,-0.016 0,0 z M -0.406,0.261 -0.17,0.296 0.453,0.086 0.52,0.014 0.798,-0.163 0.86,-0.513 0.743,-0.879 0.627,-1.039 0.18,-1.638 0.133,-1.67 0.061,-1.672 0.028,-1.745 l -0.572,-0.43 -0.298,-0.131 0.007,-0.055 -0.199,-0.02 -0.202,-0.112 0.116,-0.647 -0.021,-0.025 0.362,-0.426 0.425,-0.105 0.261,0.06 0.231,0.098 0.367,0.229 0.387,0.421 0.046,0.06 0.306,0.466 -0.062,-0.431 -0.244,-0.459 -0.442,-0.402 -0.44,-0.264 -0.169,0.005 -0.143,-0.081 -0.106,0.043 -0.076,-0.032 -0.472,0.1 -0.474,0.261 -0.177,0.182 -0.2,0.289 -0.239,0.754 -0.427,0.28 0.096,0.063 0.297,-0.101 0.042,0.178 0.133,0.703 0.265,0.533 0.277,0.386 0.476,0.447 0.234,0.106 0.201,0.063 z"
           id="path3809"
           style="fill:#be1e2d;fill-opacity:1;fill-rule:nonzero;stroke:none" />
      </g>
      <g
         transform="translate(153.7103,258.657)"
         id="g3811">
        <path
           d="m 0,0 -0.24,-0.143 -0.301,-0.301 -0.197,-0.336 -0.258,-0.548 -0.126,-0.793 0.03,-0.036 0.049,-0.021 0.364,0.21 0.47,0.444 0.424,0.656 0.118,0.418 0.001,0.217 L 0.233,-0.016 0,0 z m -0.387,0.252 0.22,0.033 0.59,-0.206 0.064,-0.07 0.264,-0.171 0.063,-0.34 -0.103,-0.35 -0.105,-0.152 -0.411,-0.573 -0.043,-0.03 -0.069,-0.002 -0.028,-0.07 -0.532,-0.41 -0.277,-0.125 0.008,-0.05 -0.186,-0.018 -0.187,-0.106 0.119,-0.622 -0.019,-0.024 0.345,-0.411 0.399,-0.107 0.246,0.056 0.216,0.092 0.34,0.218 0.356,0.401 0.042,0.056 0.28,0.446 -0.051,-0.414 -0.223,-0.439 -0.406,-0.381 -0.41,-0.25 -0.158,0.005 -0.133,-0.075 -0.1,0.042 -0.071,-0.033 -0.445,0.103 -0.449,0.255 -0.169,0.175 -0.192,0.279 -0.237,0.725 -0.404,0.274 0.091,0.061 0.278,-0.101 0.037,0.171 0.112,0.675 0.24,0.51 0.254,0.369 0.44,0.425 0.217,0.103 0.187,0.056 z"
           id="path3813"
           style="fill:#be1e2d;fill-opacity:1;fill-rule:nonzero;stroke:none" />
      </g>
      <g
         transform="translate(158.5583,260.4761)"
         id="g3815">
        <path
           d="M 0,0 0.061,-0.189 0.052,-0.475 0.087,-0.633 0.04,-0.678 0.048,-0.776 -0.13,-1.127 l -0.067,-0.11 -0.136,-0.112 -0.246,-0.128 -0.028,0.017 -0.256,-0.019 -0.159,0.023 -0.107,0.014 -0.273,0.179 -0.113,0.129 -0.129,0.38 -0.02,0.221 0.094,0.202 0.172,0.114 0.083,0.012 0.072,-0.005 0.28,-0.127 0.007,-0.024 0.107,-0.038 0.034,-0.059 -0.1,-0.059 -0.201,-0.037 -0.088,-0.082 -0.112,-0.241 0.009,-0.15 0.019,-0.037 0.104,-0.098 0.067,-0.091 0.188,-0.042 0.188,0.008 0.13,0.088 0.23,0.365 0.059,0.308 -0.018,0.129 -0.136,0.454 -0.221,0.3 L -0.764,0.414 -0.965,0.529 -1.05,0.531 -1.1,0.585 -1.164,0.561 -1.433,0.566 -1.554,0.476 -1.592,0.493 -1.618,0.477 -1.637,0.438 -1.758,0.393 -1.991,0.165 l -0.152,-0.402 -0.041,-0.154 0.034,-0.643 0.016,-0.105 0.121,-0.333 0.075,-0.107 0.011,-0.058 0.049,-0.054 0.328,-0.379 0.329,-0.265 0.79,-0.5 0.674,-0.519 0.224,-0.308 0.114,-0.06 L 0.734,-3.985 0.954,-4.57 0.982,-4.758 0.995,-5.022 0.958,-5.077 0.997,-5.15 0.939,-5.367 0.97,-5.462 0.884,-5.644 0.904,-5.806 0.806,-5.871 0.837,-5.924 0.757,-6.097 0.745,-6.137 0.662,-6.205 0.618,-6.342 0.409,-6.648 l -0.03,-0.011 -0.401,-0.352 -0.332,-0.172 -0.435,-0.164 -0.07,0.013 -0.08,-0.062 -0.396,0.02 -0.665,0.213 -0.24,0.174 -0.112,0.035 -0.386,0.316 -0.071,0.121 -0.093,0.078 -0.196,0.386 -0.043,0.193 -0.069,0.085 -0.007,0.24 -0.051,0.135 0.012,0.236 -0.03,0.098 0.043,0.083 -0.015,0.103 0.064,0.17 0.008,0.089 0.071,0.119 0.005,0.099 0.358,0.465 0.061,0.02 0.007,0.028 0.31,0.255 0.562,0.182 0.158,0.013 0.365,-0.066 0.152,-0.051 0.346,-0.269 0.237,-0.292 0.034,-0.111 0.077,-0.14 -0.034,-0.045 0.08,-0.149 -0.017,-0.282 -0.036,-0.039 0.03,-0.017 0.005,-0.043 -0.09,-0.096 -0.005,-0.168 -0.123,-0.204 -0.009,-0.126 -0.19,-0.096 -0.043,-0.073 -0.361,-0.107 -0.329,0.074 -0.278,0.248 -0.148,0.263 -0.024,0.557 0.057,0.077 0.032,0.011 0.035,-0.007 0.067,-0.06 -0.031,-0.21 0.078,-0.284 0.348,-0.235 0.077,-0.012 0.082,0.027 0.066,0.027 0.24,0.226 0.061,0.271 -0.01,0.085 0.042,0.126 -0.07,0.405 -0.15,0.266 -0.139,0.184 -0.276,0.127 -0.256,0.003 -0.312,-0.128 -0.366,-0.422 -0.209,-0.449 -0.023,-0.007 -0.088,-0.584 0.048,-0.259 -0.008,-0.138 0.17,-0.553 0.289,-0.462 0.094,-0.086 0.364,-0.248 0.145,-0.034 0.151,-0.058 0.165,0.009 0.052,-0.037 0.116,0.054 0.162,-0.007 0.401,0.194 0.29,0.255 0.082,0.025 0.019,0.094 0.03,0.011 0.17,0.31 0.182,0.471 -0.007,0.102 0.045,0.163 -0.029,0.035 0.047,0.108 -0.023,0.732 -0.148,0.489 -0.178,0.307 -0.274,0.383 -0.22,0.27 -0.085,0.035 -0.048,0.054 -0.067,0.034 -0.008,0.048 -0.496,0.345 -0.093,0.067 -0.53,0.415 -0.255,0.274 -0.214,0.215 -0.268,0.405 0.017,0.047 -0.062,0.146 -0.022,0.081 -0.066,0.466 0.04,0.205 0.036,0.17 0.273,0.373 0.129,0.126 0.386,0.216 0.05,0.021 0.522,0.107 0.175,-0.007 0.384,-0.051 0.328,-0.121 0.115,-0.07 L -0.237,0.353 0,0 z"
           id="path3817"
           style="fill:#be1e2d;fill-opacity:1;fill-rule:nonzero;stroke:none" />
      </g>
      <g
         transform="translate(161.4174,260.7319)"
         id="g3819">
        <path
           d="m 0,0 -0.203,-0.128 -0.254,-0.271 -0.16,-0.307 -0.206,-0.5 -0.082,-0.727 0.027,-0.033 0.044,-0.021 0.308,0.187 0.397,0.401 0.347,0.596 0.089,0.383 -0.006,0.202 -0.096,0.2 L 0,0 z M -0.345,0.239 -0.153,0.266 0.368,0.066 0.427,0.002 0.661,-0.161 0.729,-0.473 0.65,-0.796 0.563,-0.934 0.223,-1.454 0.188,-1.48 l -0.059,0 -0.024,-0.066 -0.45,-0.367 -0.236,-0.109 0.007,-0.048 -0.162,-0.013 -0.158,-0.095 0.125,-0.573 -0.018,-0.023 0.315,-0.384 0.353,-0.103 0.212,0.047 0.185,0.081 0.288,0.195 0.299,0.362 0.035,0.052 0.23,0.405 -0.031,-0.38 -0.18,-0.399 -0.343,-0.344 -0.349,-0.224 -0.138,0.008 -0.114,-0.068 -0.09,0.04 -0.059,-0.026 -0.391,0.1 -0.399,0.242 -0.152,0.164 -0.177,0.26 -0.232,0.67 -0.361,0.257 0.076,0.054 0.246,-0.096 0.026,0.156 0.077,0.62 0.191,0.463 0.209,0.337 0.369,0.383 0.187,0.09 0.16,0.051 z"
           id="path3821"
           style="fill:#be1e2d;fill-opacity:1;fill-rule:nonzero;stroke:none" />
      </g>
      <g
         transform="translate(141.9053,179.6176)"
         id="g3823">
        <path
           d="M 0,0 -68.672,2.051 -76.174,58.99 -7.192,60.35 0,0 z"
           id="path3825"
           style="fill:#c2bd99;fill-opacity:1;fill-rule:nonzero;stroke:none" />
      </g>
      <g
         transform="translate(133.7479,239.8582)"
         id="g3827">
        <path
           d="m 0,0 -67.577,-1.452 4.205,6.1 L 2.976,7.088 0,0 z"
           id="path3829"
           style="fill:#dcd9c5;fill-opacity:1;fill-rule:nonzero;stroke:none" />
      </g>
      <g
         transform="translate(141.709,180.0951)"
         id="g3831">
        <path
           d="m 0,0 -7.974,59.887 3.13,6.98 L 3.626,5.034 0,0 z"
           id="path3833"
           style="fill:#a9a573;fill-opacity:1;fill-rule:nonzero;stroke:none" />
      </g>
      <g
         transform="translate(131.7247,212.0563)"
         id="g3835">
        <path
           d="m 0,0 c 0.521,-12.422 -10.987,-23.559 -25.983,-25.24 -15.319,-1.718 -29.119,6.971 -30.56,19.805 -1.486,13.255 10.739,25.388 27.012,26.678 C -13.625,22.501 -0.541,12.814 0,0"
           id="path3837"
           style="fill:#ebd3b4;fill-opacity:1;fill-rule:nonzero;stroke:none" />
      </g>
      <g
         transform="translate(117.4268,222.5251)"
         id="g3839">
        <path
           d="m 0,0 c 0.157,-2.652 -2.266,-5.023 -5.42,-5.309 -3.17,-0.289 -5.906,1.628 -6.102,4.299 -0.195,2.688 2.256,5.1 5.464,5.369 C -2.863,4.628 -0.156,2.668 0,0"
           id="path3841"
           style="fill:#cb6b56;fill-opacity:1;fill-rule:nonzero;stroke:none" />
      </g>
      <g
         transform="translate(97.1349,219.3726)"
         id="g3843">
        <path
           d="m 0,0 c 0.224,-2.676 -2.213,-5.073 -5.454,-5.371 -3.258,-0.3 -6.121,1.627 -6.385,4.321 -0.266,2.713 2.201,5.153 5.497,5.435 C -3.059,4.664 -0.227,2.693 0,0"
           id="path3845"
           style="fill:#cb6b56;fill-opacity:1;fill-rule:nonzero;stroke:none" />
      </g>
      <g
         transform="translate(94.2575,203.693)"
         id="g3847">
        <path
           d="m 0,0 c 0.229,-2.582 -2.169,-4.931 -5.366,-5.258 -3.212,-0.331 -6.043,1.499 -6.311,4.098 -0.272,2.618 2.155,5.006 5.404,5.319 C -3.036,4.471 -0.233,2.601 0,0"
           id="path3849"
           style="fill:#cb6b56;fill-opacity:1;fill-rule:nonzero;stroke:none" />
      </g>
      <g
         transform="translate(108.2855,195.0826)"
         id="g3851">
        <path
           d="m 0,0 c 0.181,-2.502 -2.176,-4.792 -5.274,-5.133 -3.112,-0.342 -5.82,1.41 -6.036,3.928 -0.222,2.533 2.164,4.864 5.313,5.19 C -2.861,4.308 -0.181,2.517 0,0"
           id="path3853"
           style="fill:#cb6b56;fill-opacity:1;fill-rule:nonzero;stroke:none" />
      </g>
      <g
         transform="translate(110.8913,209.8649)"
         id="g3855">
        <path
           d="m 0,0 c 0.174,-2.587 -2.222,-4.925 -5.361,-5.238 -3.155,-0.314 -5.892,1.529 -6.106,4.135 -0.216,2.619 2.208,5 5.4,5.296 C -2.889,4.488 -0.178,2.603 0,0"
           id="path3857"
           style="fill:#cb6b56;fill-opacity:1;fill-rule:nonzero;stroke:none" />
      </g>
      <g
         transform="translate(122.2871,200.5825)"
         id="g3859">
        <path
           d="m 0,0 c 0.135,-2.506 -2.218,-4.789 -5.269,-5.114 -3.067,-0.329 -5.7,1.437 -5.874,3.959 -0.173,2.539 2.211,4.86 5.311,5.173 C -2.741,4.326 -0.138,2.522 0,0"
           id="path3861"
           style="fill:#cb6b56;fill-opacity:1;fill-rule:nonzero;stroke:none" />
      </g>
      <g
         transform="translate(129.2661,212.3814)"
         id="g3863">
        <path
           d="m 0,0 c 0.117,-2.563 -2.264,-4.876 -5.328,-5.178 -3.073,-0.305 -5.698,1.527 -5.851,4.108 -0.152,2.596 2.257,4.947 5.369,5.236 C -2.713,4.45 -0.117,2.579 0,0"
           id="path3865"
           style="fill:#cb6b56;fill-opacity:1;fill-rule:nonzero;stroke:none" />
      </g>
      <g
         transform="translate(76.3593,226.6564)"
         id="g3867">
        <path
           d="m 0,0 c -0.854,3.968 -1.01,4.697 -1.257,5.53 -0.259,0.883 -0.628,1.298 -1.834,1.473 -0.295,0.05 -0.913,0.073 -1.424,0.072 -0.401,-0.003 -0.632,0.049 -0.671,0.237 -0.041,0.185 0.205,0.24 0.753,0.241 1.899,0.004 4.098,-0.068 5.044,-0.067 1.357,0.007 3.207,0.085 4.648,0.088 3.738,0.008 5.239,-0.976 5.767,-1.32 0.72,-0.478 1.718,-1.505 1.988,-2.727 C 13.741,0.238 11.383,-2.352 7.197,-2.746 7.044,-2.76 6.708,-2.792 6.544,-2.781 c -0.159,0.01 -0.383,0.015 -0.421,0.19 -0.043,0.2 0.159,0.294 0.808,0.354 1.694,0.15 3.64,1.86 3.106,4.297 C 9.862,2.847 9.426,4.439 7.517,5.598 6.256,6.382 4.961,6.514 4.242,6.504 3.764,6.5 3.293,6.469 3.018,6.39 2.867,6.337 2.804,6.186 2.863,5.911 l 2.19,-10.097 c 0.505,-2.338 0.942,-4.348 1.338,-5.419 0.249,-0.696 0.558,-1.226 1.514,-1.173 0.439,0.022 1.12,0.084 1.57,0.159 0.331,0.055 0.495,0.007 0.521,-0.118 0.037,-0.173 -0.185,-0.288 -0.515,-0.346 -2.014,-0.344 -4.024,-0.61 -4.869,-0.754 -0.755,-0.129 -2.864,-0.573 -4.253,-0.811 -0.459,-0.08 -0.725,-0.042 -0.765,0.149 -0.03,0.136 0.095,0.241 0.521,0.311 0.525,0.091 0.932,0.212 1.232,0.319 0.664,0.221 0.71,0.83 0.681,1.621 -0.068,1.134 -0.514,3.215 -1.037,5.634 L 0,0 z"
           id="path3869"
           style="fill:#74664b;fill-opacity:1;fill-rule:nonzero;stroke:none" />
      </g>
      <g
         transform="translate(95.1705,226.3376)"
         id="g3871">
        <path
           d="m 0,0 c -0.638,2.85 -0.756,3.381 -0.913,3.975 -0.192,0.639 -0.466,0.85 -0.97,0.969 -0.268,0.059 -0.549,0.072 -0.83,0.063 -0.229,-0.006 -0.369,0.035 -0.408,0.214 -0.027,0.113 0.146,0.162 0.5,0.173 0.835,0.021 2.326,0.016 2.929,0.033 C 0.835,5.442 2.162,5.519 2.941,5.539 3.193,5.547 3.359,5.509 3.383,5.402 3.421,5.234 3.319,5.19 3.113,5.183 2.908,5.178 2.754,5.151 2.535,5.103 2,4.999 1.892,4.736 1.991,4.093 2.074,3.513 2.19,2.998 2.814,0.227 L 3.539,-3.006 C 3.937,-4.776 4.268,-6.247 4.535,-7.011 4.713,-7.497 4.913,-7.757 5.52,-7.745 5.797,-7.743 6.245,-7.69 6.532,-7.643 6.75,-7.607 6.86,-7.696 6.879,-7.782 6.909,-7.909 6.77,-7.998 6.552,-8.036 5.26,-8.257 3.873,-8.429 3.313,-8.524 c -0.471,-0.08 -1.9,-0.394 -2.762,-0.542 -0.273,-0.047 -0.44,-0.005 -0.469,0.13 -0.021,0.093 0.029,0.218 0.303,0.264 0.322,0.054 0.566,0.118 0.752,0.197 0.419,0.162 0.48,0.45 0.428,1.018 -0.077,0.797 -0.417,2.31 -0.823,4.131 L 0,0 z"
           id="path3873"
           style="fill:#74664b;fill-opacity:1;fill-rule:nonzero;stroke:none" />
      </g>
      <g
         transform="translate(110.8878,220.9489)"
         id="g3875">
        <path
           d="M 0,0 C 1.574,0.249 2.026,0.67 2.168,1.191 2.231,1.45 2.273,1.724 2.271,1.953 2.266,2.124 2.279,2.222 2.379,2.234 2.495,2.251 2.554,2.144 2.639,1.776 2.76,1.26 2.812,0.216 2.8,-0.188 2.781,-0.481 2.711,-0.627 2.444,-0.674 c -2.557,-0.439 -5.336,-0.834 -8.874,-1.44 -0.209,-0.036 -0.327,0.009 -0.355,0.133 -0.024,0.104 -0.028,0.212 0.111,0.555 1.65,4.156 3.257,8.181 4.671,11.653 L -5.114,10.109 C -5.997,10.075 -7.036,10.037 -7.538,9.714 -8.063,9.365 -8.261,8.763 -8.211,8.356 -8.196,8.107 -8.268,8.043 -8.372,8.036 c -0.126,-0.009 -0.207,0.07 -0.253,0.275 -0.092,0.409 -0.176,1.987 -0.19,2.518 -0.033,0.244 0.033,0.329 0.134,0.331 0.169,0.002 0.296,-0.096 0.755,-0.104 1.711,-0.013 2.53,0.028 3.228,0.047 l 4.909,0.132 C 0.366,11.239 0.479,11.188 0.496,11.113 0.528,10.987 0.505,10.931 0.479,10.82 -0.825,7.163 -2.377,3.228 -3.934,-0.626 L 0,0 z"
           id="path3877"
           style="fill:#74664b;fill-opacity:1;fill-rule:nonzero;stroke:none" />
      </g>
      <g
         transform="translate(120.7371,222.5155)"
         id="g3879">
        <path
           d="M 0,0 C 1.232,0.195 1.576,0.559 1.676,1.017 1.718,1.245 1.742,1.488 1.738,1.689 1.73,1.841 1.735,1.925 1.814,1.936 1.907,1.949 1.958,1.855 2.035,1.528 2.143,1.069 2.209,0.146 2.213,-0.21 2.203,-0.467 2.153,-0.597 1.942,-0.633 c -2.005,-0.344 -4.165,-0.643 -6.896,-1.11 -0.158,-0.027 -0.251,0.011 -0.275,0.123 -0.022,0.089 -0.027,0.183 0.068,0.48 1.16,3.608 2.302,7.125 3.313,10.178 L -4.274,8.947 C -4.958,8.921 -5.766,8.89 -6.142,8.609 -6.538,8.307 -6.674,7.778 -6.623,7.421 -6.606,7.206 -6.657,7.147 -6.74,7.143 -6.834,7.138 -6.901,7.207 -6.941,7.385 c -0.084,0.358 -0.191,1.74 -0.221,2.205 -0.034,0.216 0.015,0.288 0.096,0.289 0.13,0.005 0.23,-0.083 0.584,-0.09 1.326,-0.018 1.96,0.017 2.503,0.031 l 3.844,0.102 C -0.015,9.926 0.078,9.882 0.093,9.815 0.121,9.702 0.106,9.652 0.088,9.554 -0.842,6.326 -1.951,2.871 -3.059,-0.486 L 0,0 z"
           id="path3881"
           style="fill:#74664b;fill-opacity:1;fill-rule:nonzero;stroke:none" />
      </g>
      <g
         transform="translate(127.1413,226.8089)"
         id="g3883">
        <path
           d="m 0,0 c 0.048,0.005 0.052,0.037 0.031,0.082 l -1.759,3.22 C -1.75,3.346 -1.779,3.423 -1.806,3.422 -1.843,3.42 -1.835,3.341 -1.838,3.295 l -0.233,-3.43 c -0.01,-0.065 0.022,-0.094 0.059,-0.088 L 0,0 z m -2.059,-0.988 c -0.061,-0.007 -0.07,-0.026 -0.074,-0.107 l -0.154,-1.883 c -0.033,-0.352 -0.002,-0.693 0.036,-0.854 0.057,-0.239 0.19,-0.366 0.521,-0.311 l 0.162,0.027 c 0.132,0.022 0.171,-0.036 0.192,-0.116 0.026,-0.111 -0.028,-0.152 -0.139,-0.172 -0.356,-0.06 -0.875,-0.1 -1.229,-0.159 -0.115,-0.02 -0.704,-0.172 -1.302,-0.274 -0.142,-0.026 -0.216,-0.004 -0.244,0.11 -0.02,0.084 0.004,0.157 0.096,0.173 0.104,0.017 0.232,0.055 0.335,0.072 0.496,0.184 0.588,0.636 0.655,1.367 l 0.855,8.672 c 0.031,0.371 0.079,0.526 0.187,0.528 0.157,0.004 0.233,-0.117 0.408,-0.405 0.419,-0.704 3.336,-5.81 4.401,-7.643 0.632,-1.08 0.936,-1.198 1.112,-1.215 0.142,-0.006 0.251,-0.004 0.355,0.015 0.081,0.013 0.133,-0.024 0.153,-0.11 0.024,-0.101 -0.02,-0.14 -0.36,-0.198 -0.324,-0.057 -1.004,-0.174 -1.814,-0.282 -0.178,-0.014 -0.29,-0.033 -0.312,0.057 -0.016,0.077 -0.007,0.125 0.089,0.157 0.063,0.026 0.099,0.156 0.02,0.301 L 0.512,-0.767 C 0.471,-0.695 0.434,-0.683 0.388,-0.69 l -2.447,-0.298 z"
           id="path3885"
           style="fill:#74664b;fill-opacity:1;fill-rule:nonzero;stroke:none" />
      </g>
      <g
         transform="translate(66.5827,197.4431)"
         id="g3887">
        <path
           d="M 0,0 20.468,-55.635 25.908,-56.04 6.116,-0.166 0,0 z"
           id="path3889"
           style="fill:#9bafba;fill-opacity:1;fill-rule:nonzero;stroke:none" />
      </g>
      <g
         transform="translate(68.8642,162.3888)"
         id="g3891">
        <path
           d="M 0,0 -4.265,7.239 -3.155,6.522 83.231,-16.665 82.938,-16.911 0.09,0.191 0,0 z"
           id="path3893"
           style="fill:#6d726e;fill-opacity:1;fill-rule:nonzero;stroke:none" />
      </g>
      <g
         transform="translate(78.0259,141.7316)"
         id="g3895">
        <path
           d="m 0,0 84.825,-26.244 52.462,38.255 1.41,7.215 -0.65,2.295 C 130.229,16.961 99.19,-4.45 90.03,-11.526 l -10.105,-4.465 -9.978,3.664 -4.255,2.333 L 1.225,3.409 c 0,0 -28.659,52.154 -30.69,55.705 l 0.103,0.033 94.898,-20.794 0.256,8.99 -92.541,17.867 -11.255,2.062 -2.781,-1.563 C -40.286,65.024 -2.552,-2.983 -2.552,-2.983 L 0,0 z"
           id="path3897"
           style="fill:#9bafba;fill-opacity:1;fill-rule:nonzero;stroke:none" />
      </g>
      <g
         transform="translate(119.0058,185.8045)"
         id="g3899">
        <path
           d="m 0,0 19.846,-53.862 6.377,-1.161 -4.945,13.722 L 6.547,-0.43 0,0 z"
           id="path3901"
           style="fill:#9bafba;fill-opacity:1;fill-rule:nonzero;stroke:none" />
      </g>
      <g
         transform="translate(146.9899,168.2936)"
         id="g3903">
        <path
           d="M 0,0 C -3.375,0.405 -92.32,19.533 -92.32,19.533 L -89.022,14.237 2.376,-9.058 0,0 z"
           id="path3905"
           style="fill:#9bafba;fill-opacity:1;fill-rule:nonzero;stroke:none" />
      </g>
      <g
         transform="translate(92.6829,191.7679)"
         id="g3907">
        <path
           d="M 0,0 20.515,-55.215 26.358,-56.153 6.282,-0.35 0,0 z"
           id="path3909"
           style="fill:#9bafba;fill-opacity:1;fill-rule:nonzero;stroke:none" />
      </g>
    </g>
  </g>
</svg>
